<svg xmlns="http://www.w3.org/2000/svg" xmlns:xlink="http://www.w3.org/1999/xlink" width="84" height="84" viewBox="0 0 84 84">
  <defs>
    <clipPath id="clip-path">
      <rect id="Rectangle_465006" data-name="Rectangle 465006" width="64.47" height="64.485" fill="#12263f"/>
    </clipPath>
  </defs>
  <g id="img13" transform="translate(-706 -1685.277)">
    <g id="Group_1177731" data-name="Group 1177731">
      <g id="Group_1119665" data-name="Group 1119665" transform="translate(530.111 -3835.723)">
        <path id="Path_991847" data-name="Path 991847" d="M5,0H79a5,5,0,0,1,5,5V79a5,5,0,0,1-5,5H5a5,5,0,0,1-5-5V5A5,5,0,0,1,5,0Z" transform="translate(175.889 5521)" fill="#ffc1c1"/>
      </g>
      <g id="Group_1190368" data-name="Group 1190368" transform="translate(715.765 1695.035)">
        <g id="Group_1190367" data-name="Group 1190367" clip-path="url(#clip-path)">
          <path id="Path_1274067" data-name="Path 1274067" d="M63.771,124.995c1.6.426.323,4.615-2.455,5.778a6.723,6.723,0,0,1,1.915,4.6l.019,10.265a.782.782,0,0,1-.748.792l-61.25.011C.6,146.44,0,146.313,0,145.6l.017-10.2a6.774,6.774,0,0,1,5.228-6.467l4.445-1.174c.293-.1.3-1.086-.015-1.267-2.647-1.52-4.777-4.209-4.776-7.369v-6.431a9.294,9.294,0,0,1,18.509.013l.027,5.987a9.069,9.069,0,0,1-4.811,7.779c-.312.178-.3,1.188,0,1.3l5.671,1.58a18.132,18.132,0,0,1,.045-4.225,7.412,7.412,0,0,1,5.914-6,7.33,7.33,0,0,1,7.91,3.721,7.753,7.753,0,0,0,2.291-5.443l.021-4.617a8.63,8.63,0,0,1,17.192-.954l.085,5.728a7.852,7.852,0,0,0,6.021,7.441M11.544,112.546a14.978,14.978,0,0,0,10.374,2.749,12.129,12.129,0,0,0-.372-3.921A7.735,7.735,0,0,0,6.466,112.6a9.006,9.006,0,0,0-.028,2.715,7.438,7.438,0,0,0,5.106-2.771m38.64-.563a4.73,4.73,0,0,0,6,2.687l-.056-2.551a7.052,7.052,0,0,0-14.009-.053l-.077,2.638a4.785,4.785,0,0,0,5.983-2.7,1.194,1.194,0,0,1,1.013-.642,1.082,1.082,0,0,1,1.151.618m5.963,6.8.034-2.406a6.367,6.367,0,0,1-7.058-2.971,6.361,6.361,0,0,1-7,2.984l-.036,2.3a7.053,7.053,0,0,0,14.062.088m-34.224-1.874A16.656,16.656,0,0,1,11.7,114.571a8.154,8.154,0,0,1-5.323,2.382,9.1,9.1,0,0,0,.972,5.011,7.74,7.74,0,0,0,7.78,3.971c4.33-.564,7.134-4.38,6.789-9.022m15.5,8.954a5.809,5.809,0,0,0-11.577.081,14.124,14.124,0,0,1,11.577-.081m7.365,1.885a4.965,4.965,0,0,0-.044-2.085,9.25,9.25,0,0,1-3.651-4.234,11.445,11.445,0,0,1-2.157,2.918,32.656,32.656,0,0,1,.1,4.969Zm13.587,1.276,1.461.546a3.722,3.722,0,0,0,2.989-3.183,9.9,9.9,0,0,1-5.686-4.93,9.22,9.22,0,0,1-3.619,4.2,4.274,4.274,0,0,0-.013,2.1ZM37.42,127.874c-3.08-2.166-8.8-2.063-11.578.053A5.8,5.8,0,0,0,31.692,134a5.739,5.739,0,0,0,5.728-6.125m11.412,3.052a2.617,2.617,0,0,0,2.858-1.977,7.771,7.771,0,0,0,.027-2.523,8.627,8.627,0,0,1-5.231.032c-.4,2.311.3,4.282,2.346,4.468m-32.083-3.7a8.9,8.9,0,0,1-5.229,0,3.065,3.065,0,0,0,1.118,3.258,2.647,2.647,0,0,0,3.135-.1,2.984,2.984,0,0,0,.976-3.152m2.317,15.368a6.582,6.582,0,0,1,4.956-6.232l3.119-.778c.364-.091.288-.952.158-1.308-.1-.269-.509-.362-.769-.686l-1.337-1.668a5.432,5.432,0,0,0-3.134-1.589l-3.786-.924a4.274,4.274,0,0,1-4.31,3.15A4.323,4.323,0,0,1,10,129.364l-4.612,1.21a4.81,4.81,0,0,0-3.7,4.384l-.071,9.827,4.35,0,.025-4.888a.805.805,0,0,1,.711-.814.752.752,0,0,1,.841.645l.062,5.066H18.982Zm36.658-2.824a.775.775,0,0,1,.943-.689.81.81,0,0,1,.605.786l.009,4.923,4.346-.008.024-9.2a5.148,5.148,0,0,0-3.834-5.029l-4.558-1.2a4.289,4.289,0,0,1-8.306-.011l-4.669,1.247a5.911,5.911,0,0,0-2.684,2.034l-1.534,1.633c-.289.309-.147,1.013-.021,1.351l3.479.83a7.157,7.157,0,0,1,4.6,8.311l11.551.06Zm-21.376-3.215-.025-1.447a7.5,7.5,0,0,1-5.31,0A5.08,5.08,0,0,0,29,136.868a2.676,2.676,0,0,0,2.859,2.283,2.592,2.592,0,0,0,2.494-2.6m8.261,5.86a5.418,5.418,0,0,0-4.381-4.684l-2.325-.476a4.381,4.381,0,0,1-4.417,3.492,4.27,4.27,0,0,1-4.088-3.558l-2.913.718a4.885,4.885,0,0,0-3.793,4.517v2.37l21.96,0Z" transform="translate(0 -81.954)" fill="#12263f"/>
          <path id="Path_1274068" data-name="Path 1274068" d="M97.13,23l-6.934.107a.776.776,0,0,1-.892-.815c.013-.488.276-.8.893-.8l2.387,0L92.6,7.347a4.038,4.038,0,0,1-2.025-1.866l-5.784-.047,3.487,4.353a5.366,5.366,0,0,1-5.307,5.457c-2.725.037-5.635-2.458-5.07-5.448l4.616-5.982,8.192-.056A2.775,2.775,0,0,1,92.4,1.892c.368-.188-.122-1.752.936-1.883,1.154-.142.759,1.732,1.079,1.88a3.151,3.151,0,0,1,1.77,1.9l8.076.03,4.8,5.936a5.2,5.2,0,0,1-5.246,5.482A5.348,5.348,0,0,1,98.548,9.79l3.482-4.353-5.8.048c-.489.7-.964,1.587-1.994,1.794l0,14.241a12.4,12.4,0,0,1,2.963.108c.429.106.471,1.366-.069,1.374M92.969,3.435a1.191,1.191,0,0,0-.658,1.748,1.277,1.277,0,0,0,1.481.589,1.24,1.24,0,1,0-.823-2.337M85.6,9.13,83.009,5.856,80.286,9.185Zm20.883.026-2.669-3.3L101.169,9.18ZM86.527,10.85l-7.1,0a3.68,3.68,0,0,0,3.594,2.785,3.606,3.606,0,0,0,3.5-2.78m20.818.006-7.068-.006a3.652,3.652,0,0,0,3.521,2.78,3.594,3.594,0,0,0,3.546-2.774" transform="translate(-61.179 -0.001)" fill="#12263f"/>
        </g>
      </g>
    </g>
  </g>
</svg>
