<svg xmlns="http://www.w3.org/2000/svg" xmlns:xlink="http://www.w3.org/1999/xlink" width="84" height="84" viewBox="0 0 84 84">
  <defs>
    <clipPath id="clip-path">
      <rect id="Rectangle_465003" data-name="Rectangle 465003" width="61.837" height="63.38" fill="#12263f"/>
    </clipPath>
  </defs>
  <g id="img7" transform="translate(-706 -1685.277)">
    <g id="Group_1177731" data-name="Group 1177731">
      <g id="Group_1119665" data-name="Group 1119665" transform="translate(530.111 -3835.723)">
        <path id="Path_991847" data-name="Path 991847" d="M5,0H79a5,5,0,0,1,5,5V79a5,5,0,0,1-5,5H5a5,5,0,0,1-5-5V5A5,5,0,0,1,5,0Z" transform="translate(175.889 5521)" fill="#aae5ff"/>
      </g>
      <g id="Group_1190362" data-name="Group 1190362" transform="translate(717.082 1695.587)">
        <g id="Group_1190361" data-name="Group 1190361" clip-path="url(#clip-path)">
          <path id="Path_1274055" data-name="Path 1274055" d="M42.4,45.988l18.752.023c.5,0,.677.515.688.815a.839.839,0,0,1-.735.963l-2.049.11V58.822l1.94.06a.878.878,0,0,1,.834,1.008.971.971,0,0,1-1.049.872l-39.516,0-.061,1.4a1.328,1.328,0,0,1-.546.944,1.134,1.134,0,0,1-1.286.119l-2.493-1.652-2.241,1.537a1.27,1.27,0,0,1-1.43.061c-.869-.565-.506-1.412-.715-2.411l-5.648-.057A7.406,7.406,0,0,1,0,53.355c-.02-3.705,2.869-7.272,6.79-7.3l12.66-.092.048-2.4a2.972,2.972,0,0,1,2.761-3.089l1.92-.062.045-2.173a3.25,3.25,0,0,1,3.3-3.084l.025-21.9c0-1.181,1.3-1.648,2.39-1.358l.035-3.224A4.5,4.5,0,0,1,26.6,5.329l-11.3.017c.013.521-.244,1.259.02,1.76l9.012,17.1c.169.321.931.326,1.024.678a1.6,1.6,0,0,1-.066,1.364l-2.1,3.649a1.388,1.388,0,0,1-1.2.795L6.966,30.7c-.424,0-.991-.006-1.214-.381L3.4,26.341a1.537,1.537,0,0,1-.111-1.367c.116-.291.587-.556,1.03-.758L13.254,7.275a3.366,3.366,0,0,0,.061-1.91L9.773,5.3A.922.922,0,0,1,9,4.3a.944.944,0,0,1,1.024-.835l16.607,0a4.4,4.4,0,0,1,8.595,0l16.608,0a.939.939,0,0,1,1.021.836.959.959,0,0,1-.936,1.031l-3.382.033A3.432,3.432,0,0,0,48.6,7.275L57.535,24.22c.433.208.915.459,1.035.769a1.564,1.564,0,0,1-.122,1.353l-2.506,4.181c-1.368.278-3.281.318-3.651-.112A1,1,0,0,1,52.2,29.3c.187-.341.609-.423,1.093-.431l1.545-.027,1.513-2.689L38.64,26.12l1.552,2.72,8.364.035a.889.889,0,0,1,.983.747.873.873,0,0,1-.791,1.069h-8.9a1.405,1.405,0,0,1-1.192-.8l-2.165-3.79a1.343,1.343,0,0,1-.044-1.067c.109-.4.563-.6,1.028-.736l9.049-17.2c.264-.5.011-1.235.023-1.76l-11.3-.009a4.516,4.516,0,0,1-3.372,3.338l.029,3.21c.973-.208,2.088.042,2.323,1.029l.078,2.914a.881.881,0,0,1-.9.933.9.9,0,0,1-.908-.925l-.01-2.166-3.126.012v21.4l3.136,0L32.485,20.4c0-.608.2-1.05.764-1.132.379-.055,1.053.131,1.054.736l.024,15.143a3.339,3.339,0,0,1,3.317,3.276l.026,1.99,1.922.063a2.97,2.97,0,0,1,2.762,3.085ZM30.545,1.878a2.577,2.577,0,0,0-2.1,3.058,2.539,2.539,0,0,0,4.98-.982,2.57,2.57,0,0,0-2.878-2.077M22.206,24.219l-6.9-13.059-.047,13.065ZM46.6,24.183l-.056-13.023-6.9,13.062Zm-33.185.008-.124-12.906L6.442,24.2Zm41.973-.044L48.56,11.287l-.107,12.955ZM21.7,28.858l1.514-2.734-17.717,0,1.544,2.756ZM35.715,40.437c.286-1.852-.1-3.392-1.222-3.392l-7.135,0c-1.139,0-1.529,1.638-1.2,3.4Zm21.4,18.447.059-2.274-19.89.008a.94.94,0,0,1-1.047-1.069c.038-.511.394-.834,1.056-.834l19.889,0-.019-2.744-19.891.008a.983.983,0,0,1-1.022-.8c-.062-.316.106-1.056.663-1.057l20.267-.027v-2.21l-25.6-.01a1.151,1.151,0,0,1-1.035-.7c-.137-.319.014-1.118.5-1.122l9.4-.079.012-2.6a1.108,1.108,0,0,0-1.218-1.035l-16.626,0a1.167,1.167,0,0,0-1.246,1.221l.04,2.41,6.03.093c.512.008.641.769.521,1.117a1.017,1.017,0,0,1-1.048.681l-15.186.064A2.192,2.192,0,0,0,9.778,50.1l-.013,6.32a2.445,2.445,0,0,0,2.808,2.442l-.01-6.925c-.863.118-1.326-.248-1.289-.939a.919.919,0,0,1,1.045-.906l16.608.006a.937.937,0,1,1,.023,1.869H21.24l-.025,6.913ZM7.972,49.61a4.079,4.079,0,0,1,.581-1.665,5.567,5.567,0,0,0-6.706,5.418A5.628,5.628,0,0,0,8.56,58.8a5.349,5.349,0,0,1-.578-1.589ZM19.308,60.9l.015-8.927H14.43l.021,8.907a8.991,8.991,0,0,0,1.771-1.136c1.01-.7,1.753.548,3.086,1.155" transform="translate(0 0)" fill="#12263f"/>
        </g>
      </g>
    </g>
  </g>
</svg>
