<svg xmlns="http://www.w3.org/2000/svg" xmlns:xlink="http://www.w3.org/1999/xlink" width="84" height="84" viewBox="0 0 84 84">
  <defs>
    <clipPath id="clip-path">
      <rect id="Rectangle_465004" data-name="Rectangle 465004" width="65.477" height="64.981" fill="#12263f"/>
    </clipPath>
  </defs>
  <g id="img8" transform="translate(-706 -1685.277)">
    <g id="Group_1177731" data-name="Group 1177731">
      <g id="Group_1119665" data-name="Group 1119665" transform="translate(530.111 -3835.723)">
        <path id="Path_991847" data-name="Path 991847" d="M5,0H79a5,5,0,0,1,5,5V79a5,5,0,0,1-5,5H5a5,5,0,0,1-5-5V5A5,5,0,0,1,5,0Z" transform="translate(175.889 5521)" fill="#ffc1c1"/>
      </g>
      <g id="Group_1190364" data-name="Group 1190364" transform="translate(715.262 1694.787)">
        <g id="Group_1190363" data-name="Group 1190363" clip-path="url(#clip-path)">
          <path id="Path_1274056" data-name="Path 1274056" d="M28.986,73.872c1.224,4.7,1.206,12.145,1.2,17.441a1,1,0,0,1-1.017,1.015l-13.412.019c-.812.024-1.231-.586-1.208-1.37l.274-9.124a28.981,28.981,0,0,1-13.735-13.1,6.734,6.734,0,0,1-.964-4.838c.47-7.317,1.2-14.505,2.225-21.754a49.734,49.734,0,0,1,1.26-6.317,1.786,1.786,0,0,1,2.243-1.354c1.793.535,2.454,2.107,2.756,3.835l2.067,11.824a45.054,45.054,0,0,1,.789,8.9c2.745.644,4.544,2.694,6.37,4.85,2.563,3.027,5.734,7.315,9.42,8.361a2.164,2.164,0,0,1,1.732,1.607M14.806,63.55a7.436,7.436,0,0,0-3.691-2.485c-1.756,4.487,4.074,7.273,5.35,12.373a1.012,1.012,0,0,1-.762,1.242.969.969,0,0,1-1.12-.579c-1.518-5.165-7.909-8.085-5.147-14.243a46.965,46.965,0,0,0-.766-9.327L6.578,38.725c-.143-.806-.1-1.584-1.014-2.162A35.2,35.2,0,0,0,4.438,42.02c-1.1,7.65-1.844,15.238-2.369,22.943A4.313,4.313,0,0,0,2.756,67.5,26.4,26.4,0,0,0,16.228,80.217a1.106,1.106,0,0,1,.656.979l-.251,9.1H28.14l-.194-8.651a30.9,30.9,0,0,0-.938-7.271,10.847,10.847,0,0,1-4.625-2.549L19,68.464Z" transform="translate(0 -27.366)" fill="#12263f"/>
          <path id="Path_1274057" data-name="Path 1274057" d="M172.288,91.527c-.09-5.29-.012-13.057,1.181-17.678a2.158,2.158,0,0,1,1.706-1.611c3.727-1.054,6.853-5.308,9.441-8.359,1.743-2.055,3.626-4.27,6.357-4.806a46.729,46.729,0,0,1,.771-8.771l2.1-12c.31-1.777,1.044-3.425,2.935-3.871a1.765,1.765,0,0,1,2.062,1.391A49.293,49.293,0,0,1,200.1,42.14c1.029,7.249,1.754,14.437,2.225,21.755a6.723,6.723,0,0,1-.962,4.837,29,29,0,0,1-13.736,13.094l.277,9.126a1.182,1.182,0,0,1-1.071,1.361l-13.555-.01c-.345,0-.982-.295-.99-.777M183.4,68.493,180.07,71.8a10.877,10.877,0,0,1-4.632,2.551c-1.181,5.129-1.063,10.627-1.127,15.918l11.508-.009-.252-9.087a1.009,1.009,0,0,1,.66-.954,26.753,26.753,0,0,0,14.191-14.3c-.463-8-1.254-15.72-2.353-23.582a37.9,37.9,0,0,0-1.176-5.8c-.907.579-.877,1.352-1.02,2.159l-2.144,12.149a44.971,44.971,0,0,0-.709,8.988c2.777,6.155-3.75,9.266-5.085,14.1a1.009,1.009,0,0,1-1.187.719c-1.665-.477-.168-3.32,1.209-5.2l2.68-3.665a4.641,4.641,0,0,0,.672-4.759,7.928,7.928,0,0,0-3.712,2.55Z" transform="translate(-136.974 -27.343)" fill="#12263f"/>
          <path id="Path_1274058" data-name="Path 1274058" d="M110.312,19.762c-1.847,9.806-8,16.606-17.033,20.82q-18.358-8.626-17.567-29a5.515,5.515,0,0,1,.35-2.353C82,6.966,87.688,4.3,92.615.236a1.081,1.081,0,0,1,1.472.137c4.624,3.826,10.307,6.519,15.9,8.657a1.135,1.135,0,0,1,.755,1.114,37.413,37.413,0,0,1-.431,9.618m-12.358,6.55c1.422-.2,3.805,3.158,3.832,5.855,5.66-5.7,7.545-13.42,6.931-21.435A58.474,58.474,0,0,1,93.266,2.34a58.3,58.3,0,0,1-15.5,8.4c-.448,8.2,1.179,15.447,6.94,21.439a7.616,7.616,0,0,1,2.61-5.293c.379-.321.65-.658,1.175-.578,1.017.154,1.765,3.215,4.907,3.07s3.679-2.944,4.551-3.067m1.848,7.4a6.426,6.426,0,0,0-1.431-4.8,6.687,6.687,0,0,1-5.145,2.511,6.333,6.333,0,0,1-5.03-2.579,6.464,6.464,0,0,0-1.442,4.819,23.038,23.038,0,0,0,6.537,4.644,26.164,26.164,0,0,0,6.51-4.6" transform="translate(-60.174 0)" fill="#12263f"/>
          <path id="Path_1274059" data-name="Path 1274059" d="M140.251,67.952a6.181,6.181,0,0,1-9.209.839,8.093,8.093,0,0,1-.054-11.763,6.233,6.233,0,0,1,8.986.46,8.14,8.14,0,0,1,.276,10.463m-1.639-1.222a6.123,6.123,0,0,0-.074-7.8,4.231,4.231,0,0,0-6.319-.255,6.066,6.066,0,0,0,.163,8.588,4.149,4.149,0,0,0,6.23-.532" transform="translate(-102.162 -43.997)" fill="#12263f"/>
        </g>
      </g>
    </g>
  </g>
</svg>
