<svg xmlns="http://www.w3.org/2000/svg" xmlns:xlink="http://www.w3.org/1999/xlink" width="84" height="84" viewBox="0 0 84 84">
  <defs>
    <clipPath id="clip-path">
      <rect id="Rectangle_465034" data-name="Rectangle 465034" width="65.019" height="65.011" fill="#12263f"/>
    </clipPath>
  </defs>
  <g id="Group_1182822" data-name="Group 1182822" transform="translate(-706 -1685.277)">
    <g id="Group_1177731" data-name="Group 1177731">
      <g id="Group_1119665" data-name="Group 1119665" transform="translate(530.111 -3835.723)">
        <path id="Path_991847" data-name="Path 991847" d="M5,0H79a5,5,0,0,1,5,5V79a5,5,0,0,1-5,5H5a5,5,0,0,1-5-5V5A5,5,0,0,1,5,0Z" transform="translate(175.889 5521)" fill="#aae5ff"/>
      </g>
      <g id="Group_1190424" data-name="Group 1190424" transform="translate(715.491 1694.772)">
        <g id="Group_1190423" data-name="Group 1190423" clip-path="url(#clip-path)">
          <path id="Path_1274255" data-name="Path 1274255" d="M93.8,0A10.594,10.594,0,0,1,99.22,2.9,10.6,10.6,0,0,1,104.639,0l2.192.08a7.628,7.628,0,0,1,6.237,9.458c-1.371,5.7-7.979,10.736-12.912,13.933a1.446,1.446,0,0,1-1.738.086c-4.624-2.99-10.1-7.122-12.38-12.086-2.112-4.59.1-9.437,1.813-8.238a1.138,1.138,0,0,1,.281,1.5,5.531,5.531,0,0,0-.54,4.737c1.773,5.089,7.11,9.037,11.627,12.02,4.563-2.99,9.983-7.028,11.678-12.2a5.558,5.558,0,0,0-1.282-5.479c-2.66-2.727-7.064-1.777-9.424,1.264a1.176,1.176,0,0,1-1.061.564c-.442-.023-.64-.3-.968-.687-1.653-1.937-4.218-3.246-6.746-2.583-.793.208-1.477.1-1.717-.6-.228-.67.243-1.228.951-1.435l.99-.29Z" transform="translate(-66.71)" fill="#12263f"/>
          <path id="Path_1274256" data-name="Path 1274256" d="M106.7,134.836l6.453,6.643,2.891,2.982A1.091,1.091,0,1,1,114.51,146l-3.629-3.749-6.6-6.827-3.79-3.776c-.52-.518-1.583-.472-2.2-.752l-3.2,3.146a7.167,7.167,0,0,1-9.816-.408c-.588-.6-.176-1.283.26-1.766l7.814-8.664c2.742-3.04,6.847-4.411,10.688-2.676l10.274,4.641c.885.4,2.717-.441,3.127.894a1.007,1.007,0,0,1-.858,1.31,6.266,6.266,0,0,1-2.72-.043l-10.41-4.721a7.2,7.2,0,0,0-8.472,2.012L87.6,132.8c2.415,1.524,5.02.734,6.874-1.109l3.219-3.2c1.333.472,3.179.494,4.185,1.5Z" transform="translate(-66.564 -93.804)" fill="#12263f"/>
          <path id="Path_1274257" data-name="Path 1274257" d="M81.267,231.961a1.656,1.656,0,0,0,2.32.167,1.636,1.636,0,0,0,.176-2.317l-5.788-5.883a1.04,1.04,0,0,1,.1-1.377,1,1,0,0,1,1.393-.12l7.6,7.553a1.542,1.542,0,0,0,2.217-.334,1.649,1.649,0,0,0-.266-2.268L83.1,221.419a1.109,1.109,0,1,1,1.562-1.548l7.31,7.381a1.578,1.578,0,0,0,2.216-.318,1.724,1.724,0,0,0-.217-2.33l-6.149-6.192a1.062,1.062,0,0,1-.02-1.354c.2-.294,1.054-.61,1.424-.238l6.455,6.5a3.755,3.755,0,0,1,.436,4.635,3.667,3.667,0,0,1-4.433,1.553,4.051,4.051,0,0,1-1.932,2.591c-1.135.7-2.465.28-3.508.043-.651.959-1.4,2.152-2.523,2.413a3.885,3.885,0,0,1-3.689-.795c-3.195-2.957-6.011-6.229-9.422-8.949l-4.737-2.214c-.626-.293-1.01-.65-.8-1.39a1.148,1.148,0,0,1,1.545-.675l5.433,2.591c3.357,2.67,6.02,5.919,9.218,8.84" transform="translate(-50.919 -169.688)" fill="#12263f"/>
          <path id="Path_1274258" data-name="Path 1274258" d="M2.156,140.986v13.122l7.6,0V132.439l-7.595,0-.008,4.288a1.051,1.051,0,0,1-.989,1.073,1.055,1.055,0,0,1-1.16-1.069l.029-4.559a2.077,2.077,0,0,1,1.905-1.877l8.033,0a2.111,2.111,0,0,1,1.915,1.9l0,22.057a2.081,2.081,0,0,1-2.127,2.014l-7.607,0a2.068,2.068,0,0,1-2.123-2L0,141.081A1.059,1.059,0,0,1,.982,140a1.067,1.067,0,0,1,1.174.983" transform="translate(0 -102.049)" fill="#12263f"/>
          <path id="Path_1274259" data-name="Path 1274259" d="M254.812,154.118l.026-7.623a1.075,1.075,0,1,1,2.149,0l-.03,7.774a2.058,2.058,0,0,1-2.121,2l-7.6,0a2.081,2.081,0,0,1-2.129-2.009V132.2a2.109,2.109,0,0,1,1.913-1.9l8.036,0a2.1,2.1,0,0,1,1.906,1.887l.033,9.962a1.047,1.047,0,0,1-.983,1.075,1.07,1.07,0,0,1-1.173-1.073v-9.706h-7.6l0,21.667Z" transform="translate(-191.972 -102.052)" fill="#12263f"/>
          <path id="Path_1274260" data-name="Path 1274260" d="M70.441,147.333l-4.325,0a1.055,1.055,0,0,1-1.073-1.011,1.083,1.083,0,0,1,1.072-1.138h4.325a1.092,1.092,0,0,1,1.068.956,1.065,1.065,0,0,1-1.067,1.19" transform="translate(-50.943 -113.714)" fill="#12263f"/>
        </g>
      </g>
    </g>
  </g>
</svg>
