<svg xmlns="http://www.w3.org/2000/svg" xmlns:xlink="http://www.w3.org/1999/xlink" width="154.659" height="150.151" viewBox="0 0 154.659 150.151">
  <defs>
    <clipPath id="clip-path">
      <rect id="Rectangle_456707" data-name="Rectangle 456707" width="38.993" height="40.516" fill="#ff9595"/>
    </clipPath>
    <clipPath id="clip-path-2">
      <rect id="Rectangle_465031" data-name="Rectangle 465031" width="89.697" height="70.576" fill="#fff"/>
    </clipPath>
    <clipPath id="clip-path-3">
      <rect id="Rectangle_456710" data-name="Rectangle 456710" width="22.098" height="22.099" fill="#ff9595"/>
    </clipPath>
  </defs>
  <g id="img16" transform="translate(20673.059 -522.268)">
    <g id="Group_1182195" data-name="Group 1182195" transform="translate(-20557.393 630.545)">
      <g id="Group_1182154" data-name="Group 1182154" clip-path="url(#clip-path)">
        <path id="Path_1002486" data-name="Path 1002486" d="M24.154,23.425c-4.409-2.053-3-9.146,2.047-5.256,2.987,1.772,1.462,6.439-2.047,5.256M23.043,33.5c-2.541.738-1.686,5.5.888,4.848,2.24-.57,1.884-5.653-.888-4.848m-3.47-23.108c-.326-2.33-4.629-2.183-4.379.165.217,2.043,4.736,2.376,4.379-.165M13.647,21.925c-3.012-1.63-5.477,3.18-3.461,5.387,3.875,4.317,6.975-2.841,3.461-5.387M6.289,16.452c2.705-2.162-.628-6.328-3.329-4.165-2.613,2.169.637,6.236,3.329,4.165M31.468,8.417h0A1,1,0,0,0,30.12,9.2c-1.021,6.8,7.882,1.557,1.348-.787M9.171,36.37h0a1,1,0,0,0-1.348.787c-1.021,6.8,7.882,1.556,1.348-.787M38.968,25c-1.3-3.721-6.989-1.553-5.483,2.09-.514-.21,5.957,4.822,5.483-2.09M3.98,29.161c-.9-2.582-4.85-1.078-3.8,1.451-.357-.145,4.134,3.346,3.8-1.451M8.933.663a.9.9,0,0,0,.441-.4Zm.441-.4L9.664,0a1.353,1.353,0,0,0-.29.262" transform="translate(0 -0.001)" fill="#ff9595"/>
      </g>
    </g>
    <g id="Group_1179591" data-name="Group 1179591" transform="translate(-20673.059 522.421)">
      <path id="Path_1002463" data-name="Path 1002463" d="M75,0A75,75,0,1,1,0,75,75,75,0,0,1,75,0Z" transform="translate(0)" fill="#783534"/>
      <g id="Group_1190418" data-name="Group 1190418" transform="translate(28.15 38.711)">
        <g id="Group_1190417" data-name="Group 1190417" clip-path="url(#clip-path-2)">
          <path id="Path_1274244" data-name="Path 1274244" d="M29.432,52.64l-.056,16.595a1.375,1.375,0,0,1-1.5,1.34l-21.648,0a1.364,1.364,0,0,1-1.5-1.334L4.692,57.77.913,56.048A1.528,1.528,0,0,1,.067,54.2L4.7,38.113a1.451,1.451,0,0,1,1.507-1l10.314-.123A9.807,9.807,0,0,1,7.894,27.1a9.555,9.555,0,0,1,19.07-.563A9.662,9.662,0,0,1,18.242,36.98l10.431.2,3.452,3.7.022-31.266c-1.62-.359-3.208.087-3.213-1.649l-.02-6.339A1.528,1.528,0,0,1,30.387.006L88.129,0c.861,0,1.552.459,1.535,1.339l-.141,7.249c-.019.985-1.96.988-2.965.791l-.115,39.311c0,1.18-2.09,1.4-3.053.992a8.69,8.69,0,0,1-2.744,5.986A14.37,14.37,0,0,1,89.7,68.972a1.5,1.5,0,0,1-1.575,1.571H41.518a1.352,1.352,0,0,1-1.34-1.259,14.249,14.249,0,0,1,9.106-13.622,7.533,7.533,0,0,1-2.7-5.82l-7.405.173c-2.961,2.1-5.468,6.407-7.52,4.591ZM86.559,6.346l0-3.248L31.98,3.1l0,3.244ZM61.916,46.788l6.143-.066a7.943,7.943,0,0,1,14.367-.432.729.729,0,0,0,.988.446l.006-37.295-48.2,0,.029,33.352,5.873-5.362a4.017,4.017,0,0,1,5.287.2c1.325,1.285,1.844,3.722.412,5.149l-3.913,3.9,4.368.018a8.031,8.031,0,0,1,7.3-4.756,7.932,7.932,0,0,1,7.332,4.853M15.511,21.244a6.457,6.457,0,1,0,8.184,4.408,6.443,6.443,0,0,0-8.184-4.408M13.264,47.421l-1.62,3.412,5.646,3.691a3.961,3.961,0,0,1,1.066,5.419A4.086,4.086,0,0,1,13.292,61.6L7.781,59.164l0,8.311H26.336l-.009-17.96a1.751,1.751,0,0,1,.719-1.622,1.607,1.607,0,0,1,1.766.065l4.063,3.529L44.228,41.152a.877.877,0,0,0,.039-1.4.971.971,0,0,0-1.224.2l-7.58,6.909c-.891.812-1.767.4-2.447-.332L27.163,40.23,7.33,40.254,3.422,53.826,14.6,58.774a.99.99,0,0,0,1.184-.511c.1-.248.154-.931-.181-1.147l-7.13-4.6a1.438,1.438,0,0,1-.288-1.652l2.6-5.143c.339-.67,1.443-.62,1.915-.363a1.562,1.562,0,0,1,.562,2.06m40.277-2.368a4.867,4.867,0,1,0,1.853,9.556,4.965,4.965,0,0,0,3.864-5.719,4.816,4.816,0,0,0-5.717-3.837m21.04-.007a4.866,4.866,0,0,0,1.543,9.608,4.914,4.914,0,0,0,4.026-5.588,4.863,4.863,0,0,0-5.568-4.021m-4.6,10.6a8.047,8.047,0,0,1-2.548-5.808h-4.9a8.075,8.075,0,0,1-2.686,5.918,13.609,13.609,0,0,1,5.132,3.487,15.882,15.882,0,0,1,5-3.6M60.992,67.45a14.468,14.468,0,0,1,1.96-5.737,11.2,11.2,0,0,0-19.587,5.769Zm25.535-.1a11.287,11.287,0,0,0-22.322.144Z" transform="translate(0 0.001)" fill="#fff"/>
          <path id="Path_1274245" data-name="Path 1274245" d="M159.419,40.211a13.3,13.3,0,0,1,5.344,26.062,13.381,13.381,0,0,1-15.614-10.01,13.216,13.216,0,0,1,10.27-16.052m.6,3.03a10.14,10.14,0,0,0-7.836,12.43A10.2,10.2,0,0,0,172.1,51.24a10.123,10.123,0,0,0-12.083-8" transform="translate(-102.788 -27.583)" fill="#fff"/>
          <path id="Path_1274246" data-name="Path 1274246" d="M180.033,74.041a1.615,1.615,0,0,1-1.068,1.528,1.354,1.354,0,0,1-1.862-.885,19.548,19.548,0,0,1-.093-3.384L174,71.248a1.5,1.5,0,0,1-1.462-1.6,1.6,1.6,0,0,1,1.706-1.467l2.75.017,0-2.769a1.475,1.475,0,0,1,1.44-1.63c.967-.049,1.569.582,1.6,1.7l.084,2.7,3.377.1c.794.023,1.1,1.218.893,1.833a1.783,1.783,0,0,1-1.768,1.173l-2.5.019Z" transform="translate(-119.181 -44.071)" fill="#fff"/>
        </g>
      </g>
    </g>
    <g id="Group_1182194" data-name="Group 1182194" transform="translate(-20673.059 522.267)">
      <g id="Group_1182160" data-name="Group 1182160" transform="translate(0 0)" clip-path="url(#clip-path-3)">
        <path id="Path_1002489" data-name="Path 1002489" d="M18.262,7.213H14.886V3.837a3.836,3.836,0,1,0-7.673,0V7.213H3.837a3.837,3.837,0,0,0,0,7.673H7.213v3.376a3.836,3.836,0,1,0,7.673,0V14.886h3.376a3.837,3.837,0,0,0,0-7.673" transform="translate(0 0)" fill="#ff9595"/>
      </g>
    </g>
  </g>
</svg>
