<svg xmlns="http://www.w3.org/2000/svg" xmlns:xlink="http://www.w3.org/1999/xlink" width="97.668" height="98" viewBox="0 0 97.668 98">
  <defs>
    <clipPath id="clip-path">
      <rect id="Rectangle_465036" data-name="Rectangle 465036" width="54.7" height="54.686" fill="#174165"/>
    </clipPath>
    <clipPath id="clip-path-2">
      <rect id="Rectangle_456707" data-name="Rectangle 456707" width="25.382" height="26.373" fill="#f5b86e"/>
    </clipPath>
    <clipPath id="clip-path-3">
      <rect id="Rectangle_456710" data-name="Rectangle 456710" width="16.076" height="16.076" fill="#6dceff"/>
    </clipPath>
  </defs>
  <g id="img27" transform="translate(-411.393 -9354.88)">
    <g id="Group_1179599" data-name="Group 1179599" transform="translate(411.393 9354.88)">
      <g id="Group_1179591" data-name="Group 1179591" transform="translate(0 0)">
        <circle id="Ellipse_13609" data-name="Ellipse 13609" cx="48.834" cy="48.834" r="48.834" fill="#fff"/>
        <g id="Group_1190428" data-name="Group 1190428" transform="translate(26.059 21.491)">
          <g id="Group_1190427" data-name="Group 1190427" clip-path="url(#clip-path)">
            <path id="Path_1274270" data-name="Path 1274270" d="M26.843,42.155A30.349,30.349,0,0,1,23.851,40l-7.931-.091c-.545-.006-.891-.241-.939-.711a.787.787,0,0,1,.751-.914l6.591-.018A14.226,14.226,0,0,1,19.684,32.3L15.722,32.3a.825.825,0,0,1-.771-.78.841.841,0,0,1,.776-.784l3.759-.021a17.935,17.935,0,0,1,.007-2.312l-3.77-.012a.821.821,0,0,1-.772-.8.812.812,0,0,1,.776-.76l3.984-.01a14.743,14.743,0,0,1,2.611-5.739l-6.768-.067c-.414,0-.614-.461-.6-.776a.826.826,0,0,1,.779-.765l8.052.009a21.835,21.835,0,0,1,3-2.273l-10.99-.035a.773.773,0,0,1-.81-.861.821.821,0,0,1,.931-.769l17.235,0a16.035,16.035,0,0,1,5.464.926v-4.9l-7.629-.015a2.45,2.45,0,0,1-2.362-2.536l-.011-7.468-26,.005A.962.962,0,0,0,1.568,2.558L1.542,9.367c0,.4-.5.549-.763.543s-.74-.147-.742-.552L0,2.531A2.4,2.4,0,0,1,2.248.011L29.818,0,40.13,10.325,40.2,17.2a14.1,14.1,0,0,1,7.254,9.976.786.786,0,0,1-.613.908.8.8,0,0,1-.968-.66,12.489,12.489,0,1,0,.194,2.906c.023-.415.579-.626.839-.61.3.019.761.284.74.717a14.276,14.276,0,0,1-2.224,6.905l1.95,1.874a1.283,1.283,0,0,1,1.371.228l4.838,4.876a3.831,3.831,0,0,1,.159,5.239,3.739,3.739,0,0,1-5.322.285l-5.5-5.468a3.2,3.2,0,0,1,.194-1l-1.8-1.826a2.869,2.869,0,0,0-1.144.694l.027,9.685a2.538,2.538,0,0,1-2.622,2.754l-34.984,0A2.46,2.46,0,0,1,0,52.084l0-39.591c0-.607.31-.923.772-.923.5,0,.794.308.793.92l0,39.578a.967.967,0,0,0,1.038,1.048l34.961,0A.963.963,0,0,0,38.612,52.1l0-9.239a13.789,13.789,0,0,1-4.956.917H15.909c-.535,0-.861-.194-.953-.7a.8.8,0,0,1,.779-.864ZM31.024,9.93l6.327-.04L30.276,2.814l-.025,6.4a.765.765,0,0,0,.774.721m13.326,32.4,1.87-1.855L44.443,38.7l-1.889,1.866Zm4.863,6.119a2.246,2.246,0,0,0,3.153.218,2.1,2.1,0,0,0,.3-2.9l-4.717-4.773L44.874,44.08Z" transform="translate(0 -0.001)" fill="#174165"/>
            <path id="Path_1274271" data-name="Path 1274271" d="M138.666,128.431a8.8,8.8,0,1,0-1.41-2.616.828.828,0,0,1-.524.925.775.775,0,0,1-.988-.46,10.456,10.456,0,1,1,1.581,3.027.747.747,0,0,1,.081-1.034.787.787,0,0,1,1.259.159" transform="translate(-112.111 -93.357)" fill="#174165"/>
            <path id="Path_1274272" data-name="Path 1274272" d="M166.75,155.78l-2.462-2.442a2.388,2.388,0,0,1,.368-3.533,2.583,2.583,0,0,1,3.663.591l2.811-2.764a2.368,2.368,0,0,1,3.211.217,2.427,2.427,0,0,1,.156,3.336l-4.671,4.72a2.318,2.318,0,0,1-3.076-.125m-1.142-3.328,2.115,2.077a.893.893,0,0,0,1.175.1l4.247-4.291a.958.958,0,0,0,.123-1.3.9.9,0,0,0-1.2-.127L169,151.995c-1.036,1.04-1.482-.61-2.616-1.081a.846.846,0,0,0-1,.467.882.882,0,0,0,.228,1.071" transform="translate(-135.693 -121.959)" fill="#174165"/>
            <path id="Path_1274273" data-name="Path 1274273" d="M37.671,159.363l-3.812-.021a1.756,1.756,0,0,1-1.708-1.841l.006-3.43a1.738,1.738,0,0,1,1.693-1.808l3.574-.009a1.735,1.735,0,0,1,1.82,1.693l0,3.676a1.8,1.8,0,0,1-1.575,1.74m-.043-1.682-.014-3.8-3.825.015V157.7Z" transform="translate(-26.657 -126.234)" fill="#174165"/>
            <path id="Path_1274274" data-name="Path 1274274" d="M37.529,93.4l-3.858-.02a1.73,1.73,0,0,1-1.521-1.829l.008-3.434a1.729,1.729,0,0,1,1.724-1.8l3.54-.013a1.828,1.828,0,0,1,1.835,1.823l-.029,3.7a1.662,1.662,0,0,1-1.7,1.564m.125-1.622-.04-3.839-3.824.006-.025,3.865Z" transform="translate(-26.656 -71.563)" fill="#174165"/>
            <path id="Path_1274275" data-name="Path 1274275" d="M37.846,226.51l-4.176.006a1.855,1.855,0,0,1-1.525-1.878l.01-3.423a1.735,1.735,0,0,1,1.748-1.792l3.637,0a1.79,1.79,0,0,1,1.718,1.8l.01,3.412a1.906,1.906,0,0,1-1.421,1.872m-.246-1.591.009-3.876-3.826.007.011,3.906Z" transform="translate(-26.651 -181.925)" fill="#174165"/>
          </g>
        </g>
      </g>
    </g>
    <g id="Group_1182198" data-name="Group 1182198" transform="translate(412.044 9354.88)">
      <g id="Group_1182195" data-name="Group 1182195" transform="translate(71.386 71.627)">
        <g id="Group_1182154" data-name="Group 1182154" clip-path="url(#clip-path-2)">
          <path id="Path_1002486" data-name="Path 1002486" d="M15.723,15.248c-2.87-1.337-1.955-5.954,1.332-3.421,1.944,1.154.952,4.191-1.332,3.421M15,21.807c-1.654.48-1.1,3.582.578,3.156,1.458-.371,1.227-3.68-.578-3.156M12.74,6.765c-.212-1.517-3.013-1.421-2.851.108.141,1.33,3.083,1.547,2.851-.108M8.883,14.272c-1.96-1.061-3.565,2.07-2.253,3.506,2.522,2.81,4.541-1.849,2.253-3.506M4.094,10.709A1.736,1.736,0,0,0,1.927,8a1.737,1.737,0,0,0,2.167,2.711m16.39-5.23h0a.652.652,0,0,0-.878.512c-.665,4.427,5.131,1.013.878-.512M5.97,23.675h0a.652.652,0,0,0-.878.512c-.665,4.427,5.13,1.013.878-.512m19.4-7.4A1.91,1.91,0,1,0,21.8,17.636c-.335-.136,3.877,3.139,3.569-1.361M2.591,18.982a1.325,1.325,0,1,0-2.477.944c-.232-.095,2.691,2.178,2.477-.944M5.815.432A.586.586,0,0,0,6.1.172ZM6.1.172,6.291,0A.881.881,0,0,0,6.1.172" transform="translate(0 -0.001)" fill="#f5b86e"/>
        </g>
      </g>
      <g id="Group_1182194" data-name="Group 1182194" transform="translate(0 0)">
        <g id="Group_1182160" data-name="Group 1182160" transform="translate(0 0)" clip-path="url(#clip-path-3)">
          <path id="Path_1002489" data-name="Path 1002489" d="M13.285,5.247H10.829V2.791a2.791,2.791,0,1,0-5.582,0V5.247H2.791a2.791,2.791,0,0,0,0,5.582H5.247v2.456a2.791,2.791,0,1,0,5.582,0V10.829h2.456a2.791,2.791,0,0,0,0-5.582" transform="translate(0 0)" fill="#6dceff"/>
        </g>
      </g>
    </g>
  </g>
</svg>
