<svg xmlns="http://www.w3.org/2000/svg" xmlns:xlink="http://www.w3.org/1999/xlink" width="97.668" height="98" viewBox="0 0 97.668 98">
  <defs>
    <clipPath id="clip-path">
      <rect id="Rectangle_465038" data-name="Rectangle 465038" width="53.055" height="56.996" fill="#174165"/>
    </clipPath>
    <clipPath id="clip-path-2">
      <rect id="Rectangle_456707" data-name="Rectangle 456707" width="25.382" height="26.373" fill="#f5b86e"/>
    </clipPath>
    <clipPath id="clip-path-3">
      <rect id="Rectangle_456710" data-name="Rectangle 456710" width="16.076" height="16.076" fill="#6dceff"/>
    </clipPath>
  </defs>
  <g id="img29" transform="translate(-411.393 -9354.88)">
    <g id="Group_1179599" data-name="Group 1179599" transform="translate(411.393 9354.88)">
      <g id="Group_1179591" data-name="Group 1179591" transform="translate(0 0)">
        <circle id="Ellipse_13609" data-name="Ellipse 13609" cx="48.834" cy="48.834" r="48.834" fill="#fff"/>
        <g id="Group_1190432" data-name="Group 1190432" transform="translate(22.307 20.336)">
          <g id="Group_1190431" data-name="Group 1190431" clip-path="url(#clip-path)">
            <path id="Path_1274277" data-name="Path 1274277" d="M53.041,191.118a1.7,1.7,0,0,1-1.794,2.017l-12.079.082c.443,1.063.137,2.809-1.025,2.809H14.911c-1.162,0-1.467-1.745-1.031-2.811l-12.075-.079a1.685,1.685,0,0,1-1.8-1.931,11.576,11.576,0,0,1,7.6-9.8,6.583,6.583,0,1,1,7.537.031,10.007,10.007,0,0,1,4.45,2.951,14.829,14.829,0,0,1,2.938-1.41,7.369,7.369,0,1,1,7.976,0,14.621,14.621,0,0,1,2.941,1.411,10.3,10.3,0,0,1,4.443-2.969,6.6,6.6,0,1,1,7.542-.014,11.6,11.6,0,0,1,7.6,9.71m-41.8-19.9a4.787,4.787,0,1,0,4.93,4.672,4.765,4.765,0,0,0-4.93-4.672m30.318,0a4.786,4.786,0,1,0,4.9,4.675,4.764,4.764,0,0,0-4.9-4.675m-16.471.2a5.528,5.528,0,0,0-3.917,6.939,5.579,5.579,0,0,0,10.767-2.915,5.54,5.54,0,0,0-6.849-4.024m-10.8,19.909a13.1,13.1,0,0,1,3.916-5.909,9.571,9.571,0,0,0-10.487-2.1A9.68,9.68,0,0,0,1.8,191.343Zm24.525.032,12.439-.025a9.683,9.683,0,0,0-6.041-8.066,9.528,9.528,0,0,0-10.383,2.2,12.906,12.906,0,0,1,3.985,5.9M37.581,194.3a11.088,11.088,0,0,0-22.1.025Z" transform="translate(-0.001 -139.031)" fill="#174165"/>
            <path id="Path_1274278" data-name="Path 1274278" d="M70.573,21.831a2.851,2.851,0,0,1-.6,2.2,2.693,2.693,0,0,1-2.1.861l-10.553-.011-6.084,4.379a.915.915,0,0,1-.924.061.883.883,0,0,1-.475-.7L49.682,24.8c-1.6.393-3.421-.424-3.424-2.073l-.027-12.646a2.269,2.269,0,0,1,2.241-2.222L50.3,7.856,50.3,2.291A2.266,2.266,0,0,1,52.287,0L72.7,0c1.181,0,1.936,1.318,1.951,2.284l.039,2.424,5.714.026a2.307,2.307,0,0,1,2.3,2.276l.015,12.339a2.326,2.326,0,0,1-2.273,2.4l-1.3.011-.015,3.511a.979.979,0,0,1-.537.956,1.038,1.038,0,0,1-1.067-.2l-5.834-4.187a1.544,1.544,0,0,0-1.12-.007m-9.77-6.61,11.342-.014a.738.738,0,0,0,.734-.715V2.358a.633.633,0,0,0-.712-.635l-20.051.044-.039,12.391c0,.446.035.811.436,1.031l2.277.02a.785.785,0,0,1,.879.75l.028,2.881Zm16.588,5.491a.85.85,0,0,1,.906-.742l1.969.009a.642.642,0,0,0,.682-.652L80.954,7.2a.686.686,0,0,0-.731-.685l-5.562.006-.011,8A2.437,2.437,0,0,1,72.175,17l-1.606.013v2.909l1.67.09,5.077,3.6Zm-8.613,1.7-.005-5.4L61.394,17l-6.065,4.344a.84.84,0,0,1-1.01.018.977.977,0,0,1-.429-.745L53.8,16.932c-1.636.361-3.435-.438-3.457-2.058L50.28,9.7A3.287,3.287,0,0,0,48,9.929L47.98,22.38a.709.709,0,0,0,.718.72l1.96,0a.854.854,0,0,1,.918.923l.01,2.742,5.163-3.65,11.291,0a.688.688,0,0,0,.738-.692" transform="translate(-37.939)" fill="#174165"/>
            <path id="Path_1274279" data-name="Path 1274279" d="M109.594,66.174l-13.243,0c-.536,0-.808-.694-.74-1.039a.919.919,0,0,1,.987-.759l12.931.016a.9.9,0,0,1,.844.738.882.882,0,0,1-.78,1.042" transform="translate(-78.454 -52.831)" fill="#174165"/>
            <path id="Path_1274280" data-name="Path 1274280" d="M109.446,21.688l-12.879,0a.891.891,0,0,1-.962-.8.837.837,0,0,1,.774-.988l13.408.023c.472,0,.64.671.592.949a.931.931,0,0,1-.932.815" transform="translate(-78.453 -16.332)" fill="#174165"/>
            <path id="Path_1274281" data-name="Path 1274281" d="M109.888,43.732l-13.466.043a.826.826,0,0,1-.77-.98.869.869,0,0,1,.957-.8l12.877,0a.978.978,0,0,1,.9.661c.1.259.021,1.084-.5,1.086" transform="translate(-78.493 -34.455)" fill="#174165"/>
          </g>
        </g>
      </g>
    </g>
    <g id="Group_1182198" data-name="Group 1182198" transform="translate(412.044 9354.88)">
      <g id="Group_1182195" data-name="Group 1182195" transform="translate(71.386 71.627)">
        <g id="Group_1182154" data-name="Group 1182154" clip-path="url(#clip-path-2)">
          <path id="Path_1002486" data-name="Path 1002486" d="M15.723,15.248c-2.87-1.337-1.955-5.954,1.332-3.421,1.944,1.154.952,4.191-1.332,3.421M15,21.807c-1.654.48-1.1,3.582.578,3.156,1.458-.371,1.227-3.68-.578-3.156M12.74,6.765c-.212-1.517-3.013-1.421-2.851.108.141,1.33,3.083,1.547,2.851-.108M8.883,14.272c-1.96-1.061-3.565,2.07-2.253,3.506,2.522,2.81,4.541-1.849,2.253-3.506M4.094,10.709A1.736,1.736,0,0,0,1.927,8a1.737,1.737,0,0,0,2.167,2.711m16.39-5.23h0a.652.652,0,0,0-.878.512c-.665,4.427,5.131,1.013.878-.512M5.97,23.675h0a.652.652,0,0,0-.878.512c-.665,4.427,5.13,1.013.878-.512m19.4-7.4A1.91,1.91,0,1,0,21.8,17.636c-.335-.136,3.877,3.139,3.569-1.361M2.591,18.982a1.325,1.325,0,1,0-2.477.944c-.232-.095,2.691,2.178,2.477-.944M5.815.432A.586.586,0,0,0,6.1.172ZM6.1.172,6.291,0A.881.881,0,0,0,6.1.172" transform="translate(0 -0.001)" fill="#f5b86e"/>
        </g>
      </g>
      <g id="Group_1182194" data-name="Group 1182194" transform="translate(0 0)">
        <g id="Group_1182160" data-name="Group 1182160" transform="translate(0 0)" clip-path="url(#clip-path-3)">
          <path id="Path_1002489" data-name="Path 1002489" d="M13.285,5.247H10.829V2.791a2.791,2.791,0,1,0-5.582,0V5.247H2.791a2.791,2.791,0,0,0,0,5.582H5.247v2.456a2.791,2.791,0,1,0,5.582,0V10.829h2.456a2.791,2.791,0,0,0,0-5.582" transform="translate(0 0)" fill="#6dceff"/>
        </g>
      </g>
    </g>
  </g>
</svg>
