<svg xmlns="http://www.w3.org/2000/svg" xmlns:xlink="http://www.w3.org/1999/xlink" width="1020" height="441.356" viewBox="0 0 1020 441.356">
  <defs>
    <clipPath id="clip-path">
      <path id="Path_608976" data-name="Path 608976" d="M15.845,0h988.311C1012.906,0,1020,6.843,1020,15.285V426.071c0,8.442-7.094,15.285-15.845,15.285H15.845C7.094,441.356,0,434.513,0,426.071V15.285C0,6.843,7.094,0,15.845,0Z" transform="translate(0 0)" fill="#fff1e4"/>
    </clipPath>
    <clipPath id="clip-path-2">
      <path id="Path_1273324" data-name="Path 1273324" d="M125.124,292.774,30.793,252.466l266.161-18.612,94.331,40.309Z" transform="translate(-30.793 -233.854)" fill="#783534"/>
    </clipPath>
    <clipPath id="clip-path-3">
      <path id="Path_1273325" data-name="Path 1273325" d="M0,324.359l94.331,40.309,33.949-73.624L33.949,250.736Z" transform="translate(0 -250.736)" fill="#ff9595"/>
    </clipPath>
    <clipPath id="clip-path-4">
      <path id="Path_1273326" data-name="Path 1273326" d="M119.51,289.026,85.561,362.65,422.6,339.082l-36.925-68.667Z" transform="translate(-85.561 -270.415)" fill="#ffc1c1"/>
    </clipPath>
    <clipPath id="clip-path-5">
      <path id="Path_1273327" data-name="Path 1273327" d="M164.058,207.787,69.727,167.48l176.562-12.347L340.62,195.44Z" transform="translate(-69.727 -155.133)" fill="#854601"/>
    </clipPath>
    <clipPath id="clip-path-6">
      <path id="Path_1273328" data-name="Path 1273328" d="M128.826,290.848,34.495,250.541l38.843-84.209,94.331,40.307Z" transform="translate(-34.495 -166.332)" fill="#f5b86e"/>
    </clipPath>
    <clipPath id="clip-path-7">
      <path id="Path_1273329" data-name="Path 1273329" d="M335.461,191.693l42.235,78.54-257.64,18.016L158.9,204.04Z" transform="translate(-120.056 -191.693)" fill="#ffe0bb"/>
    </clipPath>
    <clipPath id="clip-path-8">
      <path id="Path_1273330" data-name="Path 1273330" d="M202.982,122.8,108.651,82.493l86.963-6.08,94.331,40.307Z" transform="translate(-108.651 -76.413)" fill="#783534"/>
    </clipPath>
    <clipPath id="clip-path-9">
      <path id="Path_1273331" data-name="Path 1273331" d="M167.75,206.446,73.419,166.138l38.843-84.21,94.331,40.309Z" transform="translate(-73.419 -81.928)" fill="#ff9595"/>
    </clipPath>
    <clipPath id="clip-path-10">
      <path id="Path_1273332" data-name="Path 1273332" d="M284.786,112.973l42.247,78.539L158.98,203.263l38.843-84.209Z" transform="translate(-158.98 -112.973)" fill="#ffc1c1"/>
    </clipPath>
    <clipPath id="clip-path-11">
      <path id="Path_1273333" data-name="Path 1273333" d="M149.934,0,112.353,81.48l94.331,40.307,37.58-81.48Z" transform="translate(-112.353)" fill="#f5b86e"/>
    </clipPath>
    <clipPath id="clip-path-12">
      <path id="Path_1273334" data-name="Path 1273334" d="M235.494,36.56l40.874,75.994-78.454,5.486Z" transform="translate(-197.914 -36.56)" fill="#ffe0bb"/>
    </clipPath>
    <clipPath id="clip-path-13">
      <rect id="Rectangle_464946" data-name="Rectangle 464946" width="431.366" height="390.368" fill="none"/>
    </clipPath>
    <clipPath id="clip-path-14">
      <rect id="Rectangle_464947" data-name="Rectangle 464947" width="62.824" height="371.582" fill="none"/>
    </clipPath>
    <clipPath id="clip-path-15">
      <path id="Path_1273337" data-name="Path 1273337" d="M4,46.155a7.265,7.265,0,1,0,7.265-7.265A7.265,7.265,0,0,0,4,46.155" transform="translate(-3.998 -38.89)" fill="#f5b86e"/>
    </clipPath>
    <clipPath id="clip-path-17">
      <path id="Path_1273339" data-name="Path 1273339" d="M4,115.709a7.265,7.265,0,1,0,7.265-7.265A7.265,7.265,0,0,0,4,115.709" transform="translate(-3.998 -108.444)" fill="#ff9595"/>
    </clipPath>
    <clipPath id="clip-path-19">
      <path id="Path_1273341" data-name="Path 1273341" d="M4,190.179a7.265,7.265,0,1,0,7.265-7.265A7.265,7.265,0,0,0,4,190.179" transform="translate(-3.998 -182.914)" fill="#f5b86e"/>
    </clipPath>
    <clipPath id="clip-path-21">
      <path id="Path_1273343" data-name="Path 1273343" d="M4,258.968a7.265,7.265,0,1,0,7.265-7.264A7.265,7.265,0,0,0,4,258.968" transform="translate(-3.998 -251.704)" fill="#ff9595"/>
    </clipPath>
    <clipPath id="clip-path-23">
      <rect id="Rectangle_464960" data-name="Rectangle 464960" width="59.918" height="55.956" fill="#783534"/>
    </clipPath>
    <clipPath id="clip-path-24">
      <rect id="Rectangle_464961" data-name="Rectangle 464961" width="31.484" height="31.483" fill="#854601"/>
    </clipPath>
    <clipPath id="clip-path-25">
      <rect id="Rectangle_464962" data-name="Rectangle 464962" width="54.507" height="47.259" fill="#854601"/>
    </clipPath>
    <clipPath id="clip-path-26">
      <rect id="Rectangle_464963" data-name="Rectangle 464963" width="58.896" height="58.869" fill="#783534"/>
    </clipPath>
  </defs>
  <g id="img36" transform="translate(-290 -10847)">
    <g id="Mask_Group_1098656" data-name="Mask Group 1098656" transform="translate(290 10847)" clip-path="url(#clip-path)">
      <path id="Path_874294" data-name="Path 874294" d="M0,0H1039.806V462.373H0Z" transform="translate(-8.913 -11.464)" fill="#fff1e4"/>
    </g>
    <g id="Group_1182899" data-name="Group 1182899" transform="translate(376 10873)">
      <g id="Group_1182876" data-name="Group 1182876" transform="translate(33.949 257.824)">
        <g id="Group_1182875" data-name="Group 1182875" clip-path="url(#clip-path-2)">
          <rect id="Rectangle_464929" data-name="Rectangle 464929" width="328.665" height="255.737" transform="translate(-27.737 19.533) rotate(-35.154)" fill="#783534"/>
        </g>
      </g>
      <g id="Group_1182878" data-name="Group 1182878" transform="translate(0 276.437)">
        <g id="Group_1182877" data-name="Group 1182877" clip-path="url(#clip-path-3)">
          <rect id="Rectangle_464930" data-name="Rectangle 464930" width="170.978" height="171.463" transform="matrix(0.69, -0.724, 0.724, 0.69, -56.9, 59.692)" fill="#ff9595"/>
        </g>
      </g>
      <g id="Group_1182880" data-name="Group 1182880" transform="translate(94.331 298.133)">
        <g id="Group_1182879" data-name="Group 1182879" clip-path="url(#clip-path-4)">
          <rect id="Rectangle_464931" data-name="Rectangle 464931" width="271.644" height="327.487" transform="translate(-43.718 60.801) rotate(-54.283)" fill="#ffc1c1"/>
        </g>
      </g>
      <g id="Group_1182882" data-name="Group 1182882" transform="translate(76.874 171.034)">
        <g id="Group_1182881" data-name="Group 1182881" clip-path="url(#clip-path-5)">
          <rect id="Rectangle_464932" data-name="Rectangle 464932" width="250.081" height="201.866" transform="translate(-25.042 18.202) rotate(-36.012)" fill="#854601"/>
        </g>
      </g>
      <g id="Group_1182884" data-name="Group 1182884" transform="translate(38.031 183.381)">
        <g id="Group_1182883" data-name="Group 1182883" clip-path="url(#clip-path-6)">
          <rect id="Rectangle_464933" data-name="Rectangle 464933" width="182.103" height="181.098" transform="translate(-61.419 52.073) rotate(-40.292)" fill="#f5b86e"/>
        </g>
      </g>
      <g id="Group_1182886" data-name="Group 1182886" transform="translate(132.362 211.342)">
        <g id="Group_1182885" data-name="Group 1182885" clip-path="url(#clip-path-7)">
          <rect id="Rectangle_464934" data-name="Rectangle 464934" width="267.303" height="224.818" transform="translate(-44.92 30.587) rotate(-34.252)" fill="#ffe0bb"/>
        </g>
      </g>
      <g id="Group_1182888" data-name="Group 1182888" transform="translate(119.788 84.245)">
        <g id="Group_1182887" data-name="Group 1182887" clip-path="url(#clip-path-8)">
          <rect id="Rectangle_464935" data-name="Rectangle 464935" width="173.4" height="145.006" transform="translate(-22.167 16.367) rotate(-36.441)" fill="#783534"/>
        </g>
      </g>
      <g id="Group_1182890" data-name="Group 1182890" transform="translate(80.944 90.326)">
        <g id="Group_1182889" data-name="Group 1182889" clip-path="url(#clip-path-9)">
          <rect id="Rectangle_464936" data-name="Rectangle 464936" width="177.652" height="174.501" transform="translate(-54.01 31.29) rotate(-30.085)" fill="#ff9595"/>
        </g>
      </g>
      <g id="Group_1182892" data-name="Group 1182892" transform="translate(175.276 124.553)">
        <g id="Group_1182891" data-name="Group 1182891" clip-path="url(#clip-path-10)">
          <rect id="Rectangle_464937" data-name="Rectangle 464937" width="184.698" height="180.372" transform="translate(-45.005 41.596) rotate(-42.745)" fill="#ffc1c1"/>
        </g>
      </g>
      <g id="Group_1182894" data-name="Group 1182894" transform="translate(123.869)">
        <g id="Group_1182893" data-name="Group 1182893" clip-path="url(#clip-path-11)">
          <rect id="Rectangle_464938" data-name="Rectangle 464938" width="179.452" height="179.316" transform="matrix(0.714, -0.7, 0.7, 0.714, -60.883, 59.734)" fill="#f5b86e"/>
        </g>
      </g>
      <g id="Group_1182896" data-name="Group 1182896" transform="translate(218.2 40.307)">
        <g id="Group_1182895" data-name="Group 1182895" clip-path="url(#clip-path-12)">
          <rect id="Rectangle_464939" data-name="Rectangle 464939" width="112.898" height="112.555" transform="matrix(0.648, -0.762, 0.762, 0.648, -40.217, 47.249)" fill="#ffe0bb"/>
        </g>
      </g>
    </g>
    <g id="Group_1182919" data-name="Group 1182919" transform="translate(-2.635 -25.183)">
      <g id="Group_1182918" data-name="Group 1182918" transform="translate(874 10907.183)">
        <g id="Group_1182901" data-name="Group 1182901">
          <g id="Group_1182900" data-name="Group 1182900" clip-path="url(#clip-path-14)">
            <path id="Path_1273335" data-name="Path 1273335" d="M11,371.582h-.8a3.145,3.145,0,0,1-3.136-3.136V3.136A3.145,3.145,0,0,1,10.2,0H11a3.145,3.145,0,0,1,3.136,3.136V368.446A3.145,3.145,0,0,1,11,371.582" transform="translate(1.534)" fill="#854601"/>
            <path id="Path_1273336" data-name="Path 1273336" d="M24.262,47.023A12.131,12.131,0,1,1,12.131,34.892,12.131,12.131,0,0,1,24.262,47.023" transform="translate(0 7.58)" fill="#854601"/>
          </g>
        </g>
        <g id="Group_1182903" data-name="Group 1182903" transform="translate(4.867 47.339)">
          <g id="Group_1182902" data-name="Group 1182902" clip-path="url(#clip-path-15)">
            <rect id="Rectangle_464948" data-name="Rectangle 464948" width="14.529" height="14.529" transform="translate(0 0)" fill="#f5b86e"/>
          </g>
        </g>
        <g id="Group_1182905" data-name="Group 1182905">
          <g id="Group_1182904" data-name="Group 1182904" clip-path="url(#clip-path-14)">
            <line id="Line_3302" data-name="Line 3302" x2="38.562" transform="translate(24.262 54.604)" fill="none" stroke="#854601" stroke-miterlimit="10" stroke-width="2"/>
            <path id="Path_1273338" data-name="Path 1273338" d="M24.262,116.577a12.131,12.131,0,1,1-12.131-12.131,12.131,12.131,0,0,1,12.131,12.131" transform="translate(0 22.69)" fill="#854601"/>
          </g>
        </g>
        <g id="Group_1182907" data-name="Group 1182907" transform="translate(4.867 132.003)">
          <g id="Group_1182906" data-name="Group 1182906" clip-path="url(#clip-path-17)">
            <rect id="Rectangle_464950" data-name="Rectangle 464950" width="14.529" height="14.529" transform="translate(0 0)" fill="#ff9595"/>
          </g>
        </g>
        <g id="Group_1182909" data-name="Group 1182909">
          <g id="Group_1182908" data-name="Group 1182908" clip-path="url(#clip-path-14)">
            <line id="Line_3303" data-name="Line 3303" x2="38.562" transform="translate(24.262 140.503)" fill="none" stroke="#854601" stroke-miterlimit="10" stroke-width="2"/>
            <path id="Path_1273340" data-name="Path 1273340" d="M24.262,191.047a12.131,12.131,0,1,1-12.131-12.131,12.131,12.131,0,0,1,12.131,12.131" transform="translate(0 38.868)" fill="#854601"/>
          </g>
        </g>
        <g id="Group_1182911" data-name="Group 1182911" transform="translate(4.867 222.651)">
          <g id="Group_1182910" data-name="Group 1182910" clip-path="url(#clip-path-19)">
            <rect id="Rectangle_464952" data-name="Rectangle 464952" width="14.529" height="14.529" transform="translate(0 0)" fill="#f5b86e"/>
          </g>
        </g>
        <g id="Group_1182913" data-name="Group 1182913">
          <g id="Group_1182912" data-name="Group 1182912" clip-path="url(#clip-path-14)">
            <line id="Line_3304" data-name="Line 3304" x2="38.562" transform="translate(24.262 229.185)" fill="none" stroke="#854601" stroke-miterlimit="10" stroke-width="2"/>
            <path id="Path_1273342" data-name="Path 1273342" d="M24.262,259.837a12.131,12.131,0,1,1-12.131-12.131,12.131,12.131,0,0,1,12.131,12.131" transform="translate(0 53.813)" fill="#854601"/>
          </g>
        </g>
        <g id="Group_1182915" data-name="Group 1182915" transform="translate(4.867 306.385)">
          <g id="Group_1182914" data-name="Group 1182914" clip-path="url(#clip-path-21)">
            <rect id="Rectangle_464954" data-name="Rectangle 464954" width="14.529" height="14.529" transform="translate(0 0)" fill="#ff9595"/>
          </g>
        </g>
        <g id="Group_1182917" data-name="Group 1182917">
          <g id="Group_1182916" data-name="Group 1182916" clip-path="url(#clip-path-14)">
            <line id="Line_3305" data-name="Line 3305" x2="38.562" transform="translate(24.262 313.65)" fill="none" stroke="#854601" stroke-miterlimit="10" stroke-width="2"/>
          </g>
        </g>
      </g>
      <rect id="Rectangle_464956" data-name="Rectangle 464956" width="294" height="61" rx="30.5" transform="translate(932 10931)" fill="#ffe0bb"/>
      <rect id="Rectangle_464958" data-name="Rectangle 464958" width="294" height="61" rx="30.5" transform="translate(932 11106)" fill="#ffe0bb"/>
      <rect id="Rectangle_464957" data-name="Rectangle 464957" width="294" height="61" rx="30.5" transform="translate(932 11017)" fill="#ffc1c1"/>
      <rect id="Rectangle_464959" data-name="Rectangle 464959" width="294" height="61" rx="30.5" transform="translate(932 11190)" fill="#ffc1c1"/>
      <path id="Path_1274387" data-name="Path 1274387" d="M21.8,17H20.3V5.625h1.5ZM25.68,8.547l.047,1.063a3.08,3.08,0,0,1,2.531-1.219q2.68,0,2.7,3.023V17H29.516V11.406a1.946,1.946,0,0,0-.418-1.352,1.675,1.675,0,0,0-1.277-.437,2.086,2.086,0,0,0-1.234.375,2.546,2.546,0,0,0-.828.984V17H24.313V8.547ZM33.852,17V9.664H32.516V8.547h1.336V7.68a2.878,2.878,0,0,1,.727-2.1,2.745,2.745,0,0,1,2.055-.742,3.816,3.816,0,0,1,.992.132l-.078,1.165a4.151,4.151,0,0,0-.781-.07,1.41,1.41,0,0,0-1.086.411,1.669,1.669,0,0,0-.383,1.18v.893h1.8V9.664H35.3V17Zm4.461-4.3a4.993,4.993,0,0,1,.488-2.234A3.643,3.643,0,0,1,40.16,8.93a3.7,3.7,0,0,1,1.988-.539,3.565,3.565,0,0,1,2.793,1.2,4.6,4.6,0,0,1,1.066,3.18v.1a5.036,5.036,0,0,1-.473,2.215,3.589,3.589,0,0,1-1.352,1.527,3.743,3.743,0,0,1-2.02.547,3.556,3.556,0,0,1-2.785-1.2A4.575,4.575,0,0,1,38.313,12.8Zm1.453.172a3.616,3.616,0,0,0,.652,2.258,2.211,2.211,0,0,0,3.5-.012,3.955,3.955,0,0,0,.648-2.418,3.61,3.61,0,0,0-.66-2.254,2.1,2.1,0,0,0-1.754-.863,2.075,2.075,0,0,0-1.727.852A3.925,3.925,0,0,0,39.766,12.867ZM51.906,9.844a4.331,4.331,0,0,0-.711-.055A1.9,1.9,0,0,0,49.266,11v6H47.82V8.547h1.406l.023.977a2.251,2.251,0,0,1,2.016-1.133,1.477,1.477,0,0,1,.641.109Zm2.688-1.3.039.938a3.122,3.122,0,0,1,2.508-1.094A2.417,2.417,0,0,1,59.555,9.75a3.2,3.2,0,0,1,1.1-.984,3.242,3.242,0,0,1,1.6-.375q2.781,0,2.828,2.945V17H63.633V11.422a1.941,1.941,0,0,0-.414-1.355,1.823,1.823,0,0,0-1.391-.449,1.917,1.917,0,0,0-1.336.48,1.949,1.949,0,0,0-.617,1.293V17H58.422V11.461a1.613,1.613,0,0,0-1.8-1.844,1.934,1.934,0,0,0-1.945,1.211V17H53.227V8.547ZM72.477,17a3.036,3.036,0,0,1-.2-.891,3.225,3.225,0,0,1-2.406,1.047,2.984,2.984,0,0,1-2.051-.707,2.288,2.288,0,0,1-.8-1.793,2.39,2.39,0,0,1,1-2.051,4.733,4.733,0,0,1,2.824-.73H72.25v-.664A1.623,1.623,0,0,0,71.8,10a1.821,1.821,0,0,0-1.336-.449,2.108,2.108,0,0,0-1.3.391,1.151,1.151,0,0,0-.523.945H67.188a2,2,0,0,1,.449-1.223,3.066,3.066,0,0,1,1.219-.934,4.1,4.1,0,0,1,1.691-.344,3.342,3.342,0,0,1,2.289.73,2.635,2.635,0,0,1,.859,2.012v3.891a4.757,4.757,0,0,0,.3,1.852V17Zm-2.4-1.1a2.54,2.54,0,0,0,1.289-.352,2.127,2.127,0,0,0,.883-.914V12.9H71.117q-2.656,0-2.656,1.555a1.316,1.316,0,0,0,.453,1.063A1.742,1.742,0,0,0,70.078,15.9Zm9.273.078a2.082,2.082,0,0,0,1.352-.469,1.649,1.649,0,0,0,.641-1.172h1.367a2.621,2.621,0,0,1-.5,1.383,3.293,3.293,0,0,1-1.23,1.047,3.55,3.55,0,0,1-1.629.391A3.482,3.482,0,0,1,76.605,16a4.59,4.59,0,0,1-1.02-3.152v-.242a5.089,5.089,0,0,1,.453-2.2,3.451,3.451,0,0,1,1.3-1.492,3.7,3.7,0,0,1,2-.531,3.39,3.39,0,0,1,2.363.852,3.043,3.043,0,0,1,1,2.211H81.344a1.992,1.992,0,0,0-.621-1.348,1.932,1.932,0,0,0-1.379-.527,2.023,2.023,0,0,0-1.707.793,3.724,3.724,0,0,0-.605,2.293v.273a3.65,3.65,0,0,0,.6,2.25A2.033,2.033,0,0,0,79.352,15.977ZM85.906,17H84.461V8.547h1.445ZM84.344,6.3a.863.863,0,0,1,.215-.594.807.807,0,0,1,.637-.242.819.819,0,0,1,.641.242.854.854,0,0,1,.219.594.826.826,0,0,1-.219.586.834.834,0,0,1-.641.234.821.821,0,0,1-.637-.234A.834.834,0,0,1,84.344,6.3ZM87.836,12.7a4.993,4.993,0,0,1,.488-2.234A3.643,3.643,0,0,1,89.684,8.93a3.7,3.7,0,0,1,1.988-.539,3.565,3.565,0,0,1,2.793,1.2,4.6,4.6,0,0,1,1.066,3.18v.1a5.036,5.036,0,0,1-.473,2.215,3.589,3.589,0,0,1-1.352,1.527,3.743,3.743,0,0,1-2.02.547,3.556,3.556,0,0,1-2.785-1.2A4.575,4.575,0,0,1,87.836,12.8Zm1.453.172a3.616,3.616,0,0,0,.652,2.258,2.211,2.211,0,0,0,3.5-.012,3.955,3.955,0,0,0,.648-2.418,3.61,3.61,0,0,0-.66-2.254,2.1,2.1,0,0,0-1.754-.863,2.075,2.075,0,0,0-1.727.852A3.925,3.925,0,0,0,89.289,12.867ZM92.328,5h1.75L91.984,7.3l-1.164,0Zm6.383,3.547.047,1.063a3.08,3.08,0,0,1,2.531-1.219q2.68,0,2.7,3.023V17h-1.445V11.406a1.946,1.946,0,0,0-.418-1.352,1.675,1.675,0,0,0-1.277-.437,2.086,2.086,0,0,0-1.234.375,2.546,2.546,0,0,0-.828.984V17H97.344V8.547Zm18.578,4.32a5.026,5.026,0,0,1-.891,3.113,2.846,2.846,0,0,1-2.391,1.176,2.947,2.947,0,0,1-2.477-1.133l-.07.977h-1.328V5h1.445V9.477a2.93,2.93,0,0,1,2.414-1.086,2.863,2.863,0,0,1,2.418,1.164,5.177,5.177,0,0,1,.879,3.188Zm-1.445-.164a3.906,3.906,0,0,0-.57-2.281,1.888,1.888,0,0,0-1.641-.8,2.122,2.122,0,0,0-2.055,1.328V14.6a2.181,2.181,0,0,0,2.07,1.328,1.878,1.878,0,0,0,1.617-.8A4.153,4.153,0,0,0,115.844,12.7Zm8.484,4.3a3.036,3.036,0,0,1-.2-.891,3.225,3.225,0,0,1-2.406,1.047,2.984,2.984,0,0,1-2.051-.707,2.288,2.288,0,0,1-.8-1.793,2.39,2.39,0,0,1,1-2.051,4.733,4.733,0,0,1,2.824-.73H124.1v-.664A1.623,1.623,0,0,0,123.648,10a1.821,1.821,0,0,0-1.336-.449,2.108,2.108,0,0,0-1.3.391,1.151,1.151,0,0,0-.523.945h-1.453a2,2,0,0,1,.449-1.223,3.066,3.066,0,0,1,1.219-.934,4.1,4.1,0,0,1,1.691-.344,3.342,3.342,0,0,1,2.289.73,2.635,2.635,0,0,1,.859,2.012v3.891a4.757,4.757,0,0,0,.3,1.852V17Zm-2.4-1.1a2.54,2.54,0,0,0,1.289-.352,2.127,2.127,0,0,0,.883-.914V12.9h-1.133q-2.656,0-2.656,1.555a1.316,1.316,0,0,0,.453,1.063A1.742,1.742,0,0,0,121.93,15.9ZM123.266,5h1.75l-2.094,2.3-1.164,0Zm9.469,9.758a1.064,1.064,0,0,0-.441-.91,4.249,4.249,0,0,0-1.539-.559,7.277,7.277,0,0,1-1.742-.562,2.479,2.479,0,0,1-.953-.781,1.869,1.869,0,0,1-.309-1.078,2.193,2.193,0,0,1,.879-1.758,3.432,3.432,0,0,1,2.246-.719,3.532,3.532,0,0,1,2.332.742,2.357,2.357,0,0,1,.895,1.9h-1.453a1.3,1.3,0,0,0-.5-1.023,1.888,1.888,0,0,0-1.27-.43,1.976,1.976,0,0,0-1.234.344,1.082,1.082,0,0,0-.445.9.877.877,0,0,0,.414.789,5.1,5.1,0,0,0,1.5.508,7.8,7.8,0,0,1,1.754.578,2.558,2.558,0,0,1,1,.809,1.988,1.988,0,0,1,.324,1.152,2.163,2.163,0,0,1-.906,1.816,3.8,3.8,0,0,1-2.352.684,4.257,4.257,0,0,1-1.8-.359,2.922,2.922,0,0,1-1.223-1,2.42,2.42,0,0,1-.441-1.395h1.445a1.5,1.5,0,0,0,.582,1.152,2.258,2.258,0,0,0,1.434.426,2.331,2.331,0,0,0,1.316-.332A1.02,1.02,0,0,0,132.734,14.758Zm4.9,2.242h-1.445V8.547h1.445ZM136.07,6.3a.863.863,0,0,1,.215-.594.807.807,0,0,1,.637-.242.819.819,0,0,1,.641.242.854.854,0,0,1,.219.594.826.826,0,0,1-.219.586.834.834,0,0,1-.641.234.821.821,0,0,1-.637-.234A.834.834,0,0,1,136.07,6.3Zm7.266,9.672a2.082,2.082,0,0,0,1.352-.469,1.649,1.649,0,0,0,.641-1.172H146.7a2.621,2.621,0,0,1-.5,1.383,3.293,3.293,0,0,1-1.23,1.047,3.55,3.55,0,0,1-1.629.391A3.482,3.482,0,0,1,140.59,16a4.59,4.59,0,0,1-1.02-3.152v-.242a5.089,5.089,0,0,1,.453-2.2,3.451,3.451,0,0,1,1.3-1.492,3.7,3.7,0,0,1,2-.531,3.39,3.39,0,0,1,2.363.852,3.043,3.043,0,0,1,1,2.211h-1.367a1.992,1.992,0,0,0-.621-1.348,1.932,1.932,0,0,0-1.379-.527,2.023,2.023,0,0,0-1.707.793,3.724,3.724,0,0,0-.605,2.293v.273a3.65,3.65,0,0,0,.6,2.25A2.033,2.033,0,0,0,143.336,15.977ZM153.539,17a3.036,3.036,0,0,1-.2-.891,3.225,3.225,0,0,1-2.406,1.047,2.984,2.984,0,0,1-2.051-.707,2.287,2.287,0,0,1-.8-1.793,2.39,2.39,0,0,1,1-2.051,4.733,4.733,0,0,1,2.824-.73h1.406v-.664A1.623,1.623,0,0,0,152.859,10a1.821,1.821,0,0,0-1.336-.449,2.107,2.107,0,0,0-1.3.391,1.151,1.151,0,0,0-.523.945H148.25a2,2,0,0,1,.449-1.223,3.066,3.066,0,0,1,1.219-.934,4.1,4.1,0,0,1,1.691-.344,3.342,3.342,0,0,1,2.289.73,2.635,2.635,0,0,1,.859,2.012v3.891a4.757,4.757,0,0,0,.3,1.852V17Zm-2.4-1.1a2.54,2.54,0,0,0,1.289-.352,2.127,2.127,0,0,0,.883-.914V12.9H152.18q-2.656,0-2.656,1.555a1.316,1.316,0,0,0,.453,1.063A1.742,1.742,0,0,0,151.141,15.9Zm14.766-1.141a1.064,1.064,0,0,0-.441-.91,4.249,4.249,0,0,0-1.539-.559,7.277,7.277,0,0,1-1.742-.562,2.479,2.479,0,0,1-.953-.781,1.869,1.869,0,0,1-.309-1.078,2.193,2.193,0,0,1,.879-1.758,3.432,3.432,0,0,1,2.246-.719,3.532,3.532,0,0,1,2.332.742,2.357,2.357,0,0,1,.895,1.9H165.82a1.3,1.3,0,0,0-.5-1.023,1.888,1.888,0,0,0-1.27-.43,1.976,1.976,0,0,0-1.234.344,1.082,1.082,0,0,0-.445.9.877.877,0,0,0,.414.789,5.1,5.1,0,0,0,1.5.508,7.8,7.8,0,0,1,1.754.578,2.558,2.558,0,0,1,1,.809,1.988,1.988,0,0,1,.324,1.152,2.163,2.163,0,0,1-.906,1.816,3.8,3.8,0,0,1-2.352.684,4.257,4.257,0,0,1-1.8-.359,2.922,2.922,0,0,1-1.223-1,2.42,2.42,0,0,1-.441-1.395h1.445a1.5,1.5,0,0,0,.582,1.152,2.258,2.258,0,0,0,1.434.426,2.331,2.331,0,0,0,1.316-.332A1.02,1.02,0,0,0,165.906,14.758Zm2.945-2.062a4.993,4.993,0,0,1,.488-2.234A3.642,3.642,0,0,1,170.7,8.93a3.7,3.7,0,0,1,1.988-.539,3.565,3.565,0,0,1,2.793,1.2,4.6,4.6,0,0,1,1.066,3.18v.1a5.036,5.036,0,0,1-.473,2.215,3.589,3.589,0,0,1-1.352,1.527,3.743,3.743,0,0,1-2.02.547,3.556,3.556,0,0,1-2.785-1.2,4.575,4.575,0,0,1-1.066-3.164Zm1.453.172a3.616,3.616,0,0,0,.652,2.258,2.211,2.211,0,0,0,3.5-.012A3.954,3.954,0,0,0,175.1,12.7a3.61,3.61,0,0,0-.66-2.254,2.1,2.1,0,0,0-1.754-.863,2.075,2.075,0,0,0-1.727.852A3.925,3.925,0,0,0,170.3,12.867Zm15.211,0a5.026,5.026,0,0,1-.891,3.113,2.846,2.846,0,0,1-2.391,1.176,2.947,2.947,0,0,1-2.477-1.133l-.07.977h-1.328V5H179.8V9.477a2.93,2.93,0,0,1,2.414-1.086,2.863,2.863,0,0,1,2.418,1.164,5.177,5.177,0,0,1,.879,3.188ZM184.07,12.7a3.906,3.906,0,0,0-.57-2.281,1.888,1.888,0,0,0-1.641-.8,2.122,2.122,0,0,0-2.055,1.328V14.6a2.181,2.181,0,0,0,2.07,1.328,1.878,1.878,0,0,0,1.617-.8A4.153,4.153,0,0,0,184.07,12.7Zm7.352-2.859a4.331,4.331,0,0,0-.711-.055A1.9,1.9,0,0,0,188.781,11v6h-1.445V8.547h1.406l.023.977a2.251,2.251,0,0,1,2.016-1.133,1.477,1.477,0,0,1,.641.109Zm4.836,7.313a3.693,3.693,0,0,1-2.8-1.129,4.19,4.19,0,0,1-1.078-3.02v-.266a5.073,5.073,0,0,1,.48-2.246,3.748,3.748,0,0,1,1.344-1.547,3.378,3.378,0,0,1,1.871-.559,3.166,3.166,0,0,1,2.563,1.086,4.7,4.7,0,0,1,.914,3.109v.6h-5.727a3,3,0,0,0,.73,2.02,2.3,2.3,0,0,0,1.777.77,2.517,2.517,0,0,0,1.3-.312,3.258,3.258,0,0,0,.93-.828l.883.688A3.55,3.55,0,0,1,196.258,17.156Zm-.18-7.578a1.928,1.928,0,0,0-1.469.637A3.1,3.1,0,0,0,193.875,12h4.234v-.109a2.753,2.753,0,0,0-.594-1.707A1.815,1.815,0,0,0,196.078,9.578ZM43.207,34.7a4.952,4.952,0,0,1,.922-3.129,3.137,3.137,0,0,1,4.766-.168V27H50.34V39H49.012l-.07-.906a2.943,2.943,0,0,1-2.414,1.063,2.887,2.887,0,0,1-2.395-1.2,5.008,5.008,0,0,1-.926-3.141Zm1.445.164a3.749,3.749,0,0,0,.594,2.25,1.919,1.919,0,0,0,1.641.813A2.108,2.108,0,0,0,48.895,36.7V32.813a2.125,2.125,0,0,0-1.992-1.2,1.929,1.929,0,0,0-1.656.82A4.128,4.128,0,0,0,44.652,34.867ZM56.09,39.156a3.693,3.693,0,0,1-2.8-1.129,4.19,4.19,0,0,1-1.078-3.02v-.266A5.073,5.073,0,0,1,52.7,32.5a3.748,3.748,0,0,1,1.344-1.547,3.378,3.378,0,0,1,1.871-.559,3.166,3.166,0,0,1,2.563,1.086,4.7,4.7,0,0,1,.914,3.109v.6H53.66a3,3,0,0,0,.73,2.02,2.3,2.3,0,0,0,1.777.77,2.517,2.517,0,0,0,1.3-.312,3.258,3.258,0,0,0,.93-.828l.883.688A3.55,3.55,0,0,1,56.09,39.156Zm-.18-7.578a1.928,1.928,0,0,0-1.469.637A3.1,3.1,0,0,0,53.707,34h4.234v-.109a2.753,2.753,0,0,0-.594-1.707A1.815,1.815,0,0,0,55.91,31.578Zm9.234.266a4.331,4.331,0,0,0-.711-.055A1.9,1.9,0,0,0,62.5,33v6H61.059V30.547h1.406l.023.977A2.251,2.251,0,0,1,64.5,30.391a1.477,1.477,0,0,1,.641.109Zm4.836,7.313a3.693,3.693,0,0,1-2.8-1.129,4.19,4.19,0,0,1-1.078-3.02v-.266a5.073,5.073,0,0,1,.48-2.246,3.748,3.748,0,0,1,1.344-1.547,3.378,3.378,0,0,1,1.871-.559,3.166,3.166,0,0,1,2.563,1.086,4.7,4.7,0,0,1,.914,3.109v.6H67.551a3,3,0,0,0,.73,2.02,2.3,2.3,0,0,0,1.777.77,2.517,2.517,0,0,0,1.3-.312,3.259,3.259,0,0,0,.93-.828l.883.688A3.55,3.55,0,0,1,69.98,39.156Zm-.18-7.578a1.928,1.928,0,0,0-1.469.637A3.1,3.1,0,0,0,67.6,34h4.234v-.109a2.753,2.753,0,0,0-.594-1.707A1.815,1.815,0,0,0,69.8,31.578Zm8.539,6.4a2.082,2.082,0,0,0,1.352-.469,1.649,1.649,0,0,0,.641-1.172H81.7a2.621,2.621,0,0,1-.5,1.383,3.293,3.293,0,0,1-1.23,1.047,3.55,3.55,0,0,1-1.629.391A3.482,3.482,0,0,1,75.594,38a4.59,4.59,0,0,1-1.02-3.152v-.242a5.089,5.089,0,0,1,.453-2.2,3.451,3.451,0,0,1,1.3-1.492,3.7,3.7,0,0,1,2-.531,3.39,3.39,0,0,1,2.363.852,3.043,3.043,0,0,1,1,2.211H80.332a1.992,1.992,0,0,0-.621-1.348,1.932,1.932,0,0,0-1.379-.527,2.023,2.023,0,0,0-1.707.793,3.724,3.724,0,0,0-.605,2.293v.273a3.65,3.65,0,0,0,.6,2.25A2.033,2.033,0,0,0,78.34,37.977Zm6.43-6.406a3.073,3.073,0,0,1,2.5-1.18q2.68,0,2.7,3.023V39H88.527V33.406a1.946,1.946,0,0,0-.418-1.352,1.675,1.675,0,0,0-1.277-.437,2.086,2.086,0,0,0-1.234.375,2.546,2.546,0,0,0-.828.984V39H83.324V27H84.77ZM91.754,34.7a4.993,4.993,0,0,1,.488-2.234A3.643,3.643,0,0,1,93.6,30.93a3.7,3.7,0,0,1,1.988-.539,3.565,3.565,0,0,1,2.793,1.2,4.6,4.6,0,0,1,1.066,3.18v.1a5.036,5.036,0,0,1-.473,2.215,3.589,3.589,0,0,1-1.352,1.527,3.743,3.743,0,0,1-2.02.547,3.556,3.556,0,0,1-2.785-1.2A4.575,4.575,0,0,1,91.754,34.8Zm1.453.172a3.616,3.616,0,0,0,.652,2.258,2.211,2.211,0,0,0,3.5-.012A3.955,3.955,0,0,0,98,34.7a3.61,3.61,0,0,0-.66-2.254,2.1,2.1,0,0,0-1.754-.863,2.075,2.075,0,0,0-1.727.852A3.925,3.925,0,0,0,93.207,34.867Zm12.977,1.891a1.064,1.064,0,0,0-.441-.91,4.249,4.249,0,0,0-1.539-.559,7.277,7.277,0,0,1-1.742-.562,2.479,2.479,0,0,1-.953-.781,1.869,1.869,0,0,1-.309-1.078,2.193,2.193,0,0,1,.879-1.758,3.432,3.432,0,0,1,2.246-.719,3.532,3.532,0,0,1,2.332.742,2.357,2.357,0,0,1,.895,1.9H106.1a1.3,1.3,0,0,0-.5-1.023,1.888,1.888,0,0,0-1.27-.43,1.976,1.976,0,0,0-1.234.344,1.082,1.082,0,0,0-.445.9.877.877,0,0,0,.414.789,5.1,5.1,0,0,0,1.5.508,7.8,7.8,0,0,1,1.754.578,2.558,2.558,0,0,1,1,.809,1.988,1.988,0,0,1,.324,1.152,2.163,2.163,0,0,1-.906,1.816,3.8,3.8,0,0,1-2.352.684,4.257,4.257,0,0,1-1.8-.359,2.922,2.922,0,0,1-1.223-1,2.42,2.42,0,0,1-.441-1.395h1.445a1.5,1.5,0,0,0,.582,1.152,2.258,2.258,0,0,0,1.434.426,2.331,2.331,0,0,0,1.316-.332A1.02,1.02,0,0,0,106.184,36.758Zm10.8,2.4a3.693,3.693,0,0,1-2.8-1.129,4.19,4.19,0,0,1-1.078-3.02v-.266a5.073,5.073,0,0,1,.48-2.246,3.748,3.748,0,0,1,1.344-1.547,3.378,3.378,0,0,1,1.871-.559,3.166,3.166,0,0,1,2.563,1.086,4.7,4.7,0,0,1,.914,3.109v.6h-5.727a3,3,0,0,0,.73,2.02,2.3,2.3,0,0,0,1.777.77,2.517,2.517,0,0,0,1.3-.312,3.259,3.259,0,0,0,.93-.828l.883.688A3.55,3.55,0,0,1,116.98,39.156Zm-.18-7.578a1.928,1.928,0,0,0-1.469.637A3.1,3.1,0,0,0,114.6,34h4.234v-.109a2.753,2.753,0,0,0-.594-1.707A1.815,1.815,0,0,0,116.8,31.578Zm6.516-1.031.047,1.063a3.08,3.08,0,0,1,2.531-1.219q2.68,0,2.7,3.023V39h-1.445V33.406a1.946,1.946,0,0,0-.418-1.352,1.675,1.675,0,0,0-1.277-.437,2.086,2.086,0,0,0-1.234.375,2.546,2.546,0,0,0-.828.984V39h-1.445V30.547Zm16.344,6.211a1.064,1.064,0,0,0-.441-.91,4.249,4.249,0,0,0-1.539-.559,7.277,7.277,0,0,1-1.742-.562,2.479,2.479,0,0,1-.953-.781,1.869,1.869,0,0,1-.309-1.078,2.193,2.193,0,0,1,.879-1.758,3.432,3.432,0,0,1,2.246-.719,3.532,3.532,0,0,1,2.332.742,2.357,2.357,0,0,1,.895,1.9h-1.453a1.3,1.3,0,0,0-.5-1.023,1.888,1.888,0,0,0-1.27-.43,1.976,1.976,0,0,0-1.234.344,1.082,1.082,0,0,0-.445.9.877.877,0,0,0,.414.789,5.1,5.1,0,0,0,1.5.508,7.8,7.8,0,0,1,1.754.578,2.558,2.558,0,0,1,1,.809,1.988,1.988,0,0,1,.324,1.152,2.163,2.163,0,0,1-.906,1.816,3.8,3.8,0,0,1-2.352.684,4.257,4.257,0,0,1-1.8-.359,2.922,2.922,0,0,1-1.223-1,2.42,2.42,0,0,1-.441-1.395h1.445a1.5,1.5,0,0,0,.582,1.152,2.258,2.258,0,0,0,1.434.426,2.331,2.331,0,0,0,1.316-.332A1.02,1.02,0,0,0,139.66,36.758ZM148.207,39a3.036,3.036,0,0,1-.2-.891,3.225,3.225,0,0,1-2.406,1.047,2.984,2.984,0,0,1-2.051-.707,2.287,2.287,0,0,1-.8-1.793,2.39,2.39,0,0,1,1-2.051,4.733,4.733,0,0,1,2.824-.73h1.406v-.664A1.623,1.623,0,0,0,147.527,32a1.821,1.821,0,0,0-1.336-.449,2.107,2.107,0,0,0-1.3.391,1.151,1.151,0,0,0-.523.945h-1.453a2,2,0,0,1,.449-1.223,3.066,3.066,0,0,1,1.219-.934,4.1,4.1,0,0,1,1.691-.344,3.342,3.342,0,0,1,2.289.73,2.635,2.635,0,0,1,.859,2.012v3.891a4.757,4.757,0,0,0,.3,1.852V39Zm-2.4-1.1a2.54,2.54,0,0,0,1.289-.352,2.127,2.127,0,0,0,.883-.914V34.9h-1.133q-2.656,0-2.656,1.555a1.316,1.316,0,0,0,.453,1.063A1.742,1.742,0,0,0,145.809,37.9Zm7.453,1.1h-1.445V27h1.445Zm7.531-.836a3.07,3.07,0,0,1-2.477.992,2.628,2.628,0,0,1-2.059-.785,3.4,3.4,0,0,1-.715-2.324v-5.5h1.445v5.461q0,1.922,1.563,1.922a2.163,2.163,0,0,0,2.2-1.234V30.547H162.2V39h-1.375Zm3.25-3.461a4.952,4.952,0,0,1,.922-3.129,3.137,3.137,0,0,1,4.766-.168V27h1.445V39h-1.328l-.07-.906a2.943,2.943,0,0,1-2.414,1.063,2.887,2.887,0,0,1-2.395-1.2,5.008,5.008,0,0,1-.926-3.141Zm1.445.164a3.749,3.749,0,0,0,.594,2.25,1.919,1.919,0,0,0,1.641.813A2.108,2.108,0,0,0,169.73,36.7V32.813a2.125,2.125,0,0,0-1.992-1.2,1.929,1.929,0,0,0-1.656.82A4.128,4.128,0,0,0,165.488,34.867Zm7.961,3.375a.905.905,0,0,1,.223-.625.848.848,0,0,1,.668-.25.874.874,0,0,1,.676.25.887.887,0,0,1,.23.625.839.839,0,0,1-.23.6.89.89,0,0,1-.676.242.8.8,0,0,1-.891-.844Z" transform="translate(970 10940)" fill="#12263f"/>
      <path id="Path_1274389" data-name="Path 1274389" d="M1.465,17V5.625H4.676A5.169,5.169,0,0,1,7.3,6.281,4.438,4.438,0,0,1,9.063,8.148a6.078,6.078,0,0,1,.629,2.781v.727a6.1,6.1,0,0,1-.621,2.82A4.369,4.369,0,0,1,7.3,16.336,5.5,5.5,0,0,1,4.613,17Zm1.5-10.148v8.922H4.543a3.434,3.434,0,0,0,2.7-1.079,4.458,4.458,0,0,0,.965-3.073v-.665A4.529,4.529,0,0,0,7.3,7.942,3.239,3.239,0,0,0,4.715,6.852Zm12.273,10.3a3.693,3.693,0,0,1-2.8-1.129,4.19,4.19,0,0,1-1.078-3.02v-.266a5.073,5.073,0,0,1,.48-2.246,3.748,3.748,0,0,1,1.344-1.547,3.378,3.378,0,0,1,1.871-.559,3.166,3.166,0,0,1,2.563,1.086,4.7,4.7,0,0,1,.914,3.109v.6H12.809a3,3,0,0,0,.73,2.02,2.3,2.3,0,0,0,1.777.77,2.517,2.517,0,0,0,1.3-.312,3.259,3.259,0,0,0,.93-.828l.883.688A3.55,3.55,0,0,1,15.238,17.156Zm-.18-7.578a1.928,1.928,0,0,0-1.469.637A3.1,3.1,0,0,0,12.855,12H17.09v-.109a2.753,2.753,0,0,0-.594-1.707A1.815,1.815,0,0,0,15.059,9.578Zm10.07,5.18a1.064,1.064,0,0,0-.441-.91,4.249,4.249,0,0,0-1.539-.559,7.277,7.277,0,0,1-1.742-.562,2.479,2.479,0,0,1-.953-.781,1.869,1.869,0,0,1-.309-1.078,2.193,2.193,0,0,1,.879-1.758,3.432,3.432,0,0,1,2.246-.719,3.532,3.532,0,0,1,2.332.742,2.357,2.357,0,0,1,.895,1.9H25.043a1.3,1.3,0,0,0-.5-1.023,1.888,1.888,0,0,0-1.27-.43,1.976,1.976,0,0,0-1.234.344,1.082,1.082,0,0,0-.445.9.877.877,0,0,0,.414.789,5.1,5.1,0,0,0,1.5.508,7.8,7.8,0,0,1,1.754.578,2.558,2.558,0,0,1,1,.809,1.988,1.988,0,0,1,.324,1.152,2.163,2.163,0,0,1-.906,1.816,3.8,3.8,0,0,1-2.352.684,4.257,4.257,0,0,1-1.8-.359,2.922,2.922,0,0,1-1.223-1,2.42,2.42,0,0,1-.441-1.395H21.3a1.5,1.5,0,0,0,.582,1.152,2.258,2.258,0,0,0,1.434.426,2.331,2.331,0,0,0,1.316-.332A1.02,1.02,0,0,0,25.129,14.758ZM33.676,17a3.036,3.036,0,0,1-.2-.891,3.225,3.225,0,0,1-2.406,1.047,2.984,2.984,0,0,1-2.051-.707,2.287,2.287,0,0,1-.8-1.793,2.39,2.39,0,0,1,1-2.051,4.733,4.733,0,0,1,2.824-.73h1.406v-.664A1.623,1.623,0,0,0,33,10a1.821,1.821,0,0,0-1.336-.449,2.107,2.107,0,0,0-1.3.391,1.151,1.151,0,0,0-.523.945H28.387a2,2,0,0,1,.449-1.223,3.066,3.066,0,0,1,1.219-.934,4.1,4.1,0,0,1,1.691-.344,3.342,3.342,0,0,1,2.289.73,2.635,2.635,0,0,1,.859,2.012v3.891a4.757,4.757,0,0,0,.3,1.852V17Zm-2.4-1.1a2.54,2.54,0,0,0,1.289-.352,2.127,2.127,0,0,0,.883-.914V12.9H32.316q-2.656,0-2.656,1.555a1.316,1.316,0,0,0,.453,1.063A1.742,1.742,0,0,0,31.277,15.9Zm9.969-6.055a4.331,4.331,0,0,0-.711-.055A1.9,1.9,0,0,0,38.605,11v6H37.16V8.547h1.406l.023.977a2.251,2.251,0,0,1,2.016-1.133,1.477,1.477,0,0,1,.641.109Zm5.414,0a4.331,4.331,0,0,0-.711-.055A1.9,1.9,0,0,0,44.02,11v6H42.574V8.547H43.98L44,9.523A2.251,2.251,0,0,1,46.02,8.391a1.477,1.477,0,0,1,.641.109Zm.789,2.852a4.993,4.993,0,0,1,.488-2.234A3.643,3.643,0,0,1,49.3,8.93a3.7,3.7,0,0,1,1.988-.539,3.565,3.565,0,0,1,2.793,1.2,4.6,4.6,0,0,1,1.066,3.18v.1a5.036,5.036,0,0,1-.473,2.215,3.589,3.589,0,0,1-1.352,1.527,3.743,3.743,0,0,1-2.02.547,3.556,3.556,0,0,1-2.785-1.2A4.575,4.575,0,0,1,47.449,12.8Zm1.453.172a3.616,3.616,0,0,0,.652,2.258,2.211,2.211,0,0,0,3.5-.012A3.955,3.955,0,0,0,53.7,12.7a3.61,3.61,0,0,0-.66-2.254,2.1,2.1,0,0,0-1.754-.863,2.075,2.075,0,0,0-1.727.852A3.925,3.925,0,0,0,48.9,12.867ZM58.527,17H57.082V5h1.445Zm3.883,0H60.965V5H62.41Zm1.93-4.3a4.993,4.993,0,0,1,.488-2.234A3.643,3.643,0,0,1,66.188,8.93a3.7,3.7,0,0,1,1.988-.539,3.565,3.565,0,0,1,2.793,1.2,4.6,4.6,0,0,1,1.066,3.18v.1a5.036,5.036,0,0,1-.473,2.215,3.589,3.589,0,0,1-1.352,1.527,3.743,3.743,0,0,1-2.02.547,3.556,3.556,0,0,1-2.785-1.2A4.575,4.575,0,0,1,64.34,12.8Zm1.453.172a3.616,3.616,0,0,0,.652,2.258,2.211,2.211,0,0,0,3.5-.012A3.955,3.955,0,0,0,70.59,12.7a3.61,3.61,0,0,0-.66-2.254,2.1,2.1,0,0,0-1.754-.863,2.075,2.075,0,0,0-1.727.852A3.925,3.925,0,0,0,65.793,12.867ZM77.457,12.7a4.952,4.952,0,0,1,.922-3.129,3.137,3.137,0,0,1,4.766-.168V5H84.59V17H83.262l-.07-.906a2.943,2.943,0,0,1-2.414,1.063,2.887,2.887,0,0,1-2.395-1.2,5.008,5.008,0,0,1-.926-3.141Zm1.445.164a3.749,3.749,0,0,0,.594,2.25,1.92,1.92,0,0,0,1.641.813A2.108,2.108,0,0,0,83.145,14.7V10.813a2.125,2.125,0,0,0-1.992-1.2,1.929,1.929,0,0,0-1.656.82A4.128,4.128,0,0,0,78.9,12.867ZM90.34,17.156a3.693,3.693,0,0,1-2.8-1.129,4.19,4.19,0,0,1-1.078-3.02v-.266a5.073,5.073,0,0,1,.48-2.246,3.748,3.748,0,0,1,1.344-1.547,3.378,3.378,0,0,1,1.871-.559,3.166,3.166,0,0,1,2.563,1.086,4.7,4.7,0,0,1,.914,3.109v.6H87.91a3,3,0,0,0,.73,2.02,2.3,2.3,0,0,0,1.777.77,2.517,2.517,0,0,0,1.3-.312,3.259,3.259,0,0,0,.93-.828l.883.688A3.55,3.55,0,0,1,90.34,17.156Zm-.18-7.578a1.928,1.928,0,0,0-1.469.637A3.1,3.1,0,0,0,87.957,12h4.234v-.109a2.753,2.753,0,0,0-.594-1.707A1.815,1.815,0,0,0,90.16,9.578ZM100.84,17H99.395V5h1.445Zm3.883,0h-1.445V8.547h1.445ZM103.16,6.3a.863.863,0,0,1,.215-.594.807.807,0,0,1,.637-.242.819.819,0,0,1,.641.242.854.854,0,0,1,.219.594.826.826,0,0,1-.219.586.834.834,0,0,1-.641.234.821.821,0,0,1-.637-.234A.834.834,0,0,1,103.16,6.3Zm3.523,6.4a4.952,4.952,0,0,1,.922-3.129,3.137,3.137,0,0,1,4.766-.168V5h1.445V17h-1.328l-.07-.906A2.943,2.943,0,0,1,110,17.156a2.887,2.887,0,0,1-2.395-1.2,5.008,5.008,0,0,1-.926-3.141Zm1.445.164a3.749,3.749,0,0,0,.594,2.25,1.92,1.92,0,0,0,1.641.813,2.108,2.108,0,0,0,2.008-1.234V10.813a2.125,2.125,0,0,0-1.992-1.2,1.929,1.929,0,0,0-1.656.82A4.128,4.128,0,0,0,108.129,12.867Zm11.438,4.289a3.693,3.693,0,0,1-2.8-1.129,4.19,4.19,0,0,1-1.078-3.02v-.266a5.073,5.073,0,0,1,.48-2.246,3.748,3.748,0,0,1,1.344-1.547,3.378,3.378,0,0,1,1.871-.559,3.166,3.166,0,0,1,2.563,1.086,4.7,4.7,0,0,1,.914,3.109v.6h-5.727a3,3,0,0,0,.73,2.02,2.3,2.3,0,0,0,1.777.77,2.517,2.517,0,0,0,1.3-.312,3.259,3.259,0,0,0,.93-.828l.883.688A3.55,3.55,0,0,1,119.566,17.156Zm-.18-7.578a1.928,1.928,0,0,0-1.469.637A3.1,3.1,0,0,0,117.184,12h4.234v-.109a2.753,2.753,0,0,0-.594-1.707A1.815,1.815,0,0,0,119.387,9.578Zm9.234.266a4.331,4.331,0,0,0-.711-.055A1.9,1.9,0,0,0,125.98,11v6h-1.445V8.547h1.406l.023.977a2.251,2.251,0,0,1,2.016-1.133,1.477,1.477,0,0,1,.641.109ZM134.855,17a3.036,3.036,0,0,1-.2-.891,3.225,3.225,0,0,1-2.406,1.047,2.984,2.984,0,0,1-2.051-.707,2.287,2.287,0,0,1-.8-1.793,2.39,2.39,0,0,1,1-2.051,4.733,4.733,0,0,1,2.824-.73h1.406v-.664A1.623,1.623,0,0,0,134.176,10a1.821,1.821,0,0,0-1.336-.449,2.107,2.107,0,0,0-1.3.391,1.151,1.151,0,0,0-.523.945h-1.453a2,2,0,0,1,.449-1.223,3.066,3.066,0,0,1,1.219-.934,4.1,4.1,0,0,1,1.691-.344,3.342,3.342,0,0,1,2.289.73,2.635,2.635,0,0,1,.859,2.012v3.891a4.757,4.757,0,0,0,.3,1.852V17Zm-2.4-1.1a2.54,2.54,0,0,0,1.289-.352,2.127,2.127,0,0,0,.883-.914V12.9H133.5q-2.656,0-2.656,1.555a1.316,1.316,0,0,0,.453,1.063A1.742,1.742,0,0,0,132.457,15.9Zm7.242-.078h4.945V17h-6.711V15.938l4.664-6.2H138v-1.2h6.406V9.57Zm6.227-3.117a4.968,4.968,0,0,1,.914-3.145,3.151,3.151,0,0,1,4.836-.074l.07-.937h1.32V16.8a3.439,3.439,0,0,1-.973,2.586,3.589,3.589,0,0,1-2.613.945,4.348,4.348,0,0,1-1.789-.391,3.08,3.08,0,0,1-1.336-1.07l.75-.867a2.826,2.826,0,0,0,2.273,1.148,2.214,2.214,0,0,0,1.645-.594,2.269,2.269,0,0,0,.59-1.672v-.727a2.971,2.971,0,0,1-2.367,1,2.887,2.887,0,0,1-2.4-1.2A5.224,5.224,0,0,1,145.926,12.7Zm1.453.164a3.79,3.79,0,0,0,.586,2.246,1.9,1.9,0,0,0,1.641.816,2.117,2.117,0,0,0,2.008-1.242V10.828a2.142,2.142,0,0,0-1.992-1.211,1.921,1.921,0,0,0-1.648.82A4.128,4.128,0,0,0,147.379,12.867Zm7.484-.172a4.993,4.993,0,0,1,.488-2.234,3.642,3.642,0,0,1,1.359-1.531,3.7,3.7,0,0,1,1.988-.539,3.565,3.565,0,0,1,2.793,1.2,4.6,4.6,0,0,1,1.066,3.18v.1a5.036,5.036,0,0,1-.473,2.215,3.589,3.589,0,0,1-1.352,1.527,3.743,3.743,0,0,1-2.02.547,3.556,3.556,0,0,1-2.785-1.2,4.575,4.575,0,0,1-1.066-3.164Zm1.453.172a3.616,3.616,0,0,0,.652,2.258,2.211,2.211,0,0,0,3.5-.012,3.954,3.954,0,0,0,.648-2.418,3.61,3.61,0,0,0-.66-2.254,2.1,2.1,0,0,0-1.754-.863,2.075,2.075,0,0,0-1.727.852A3.925,3.925,0,0,0,156.316,12.867Zm15.406,3.109a2.082,2.082,0,0,0,1.352-.469,1.649,1.649,0,0,0,.641-1.172h1.367a2.621,2.621,0,0,1-.5,1.383,3.293,3.293,0,0,1-1.23,1.047,3.55,3.55,0,0,1-1.629.391A3.482,3.482,0,0,1,168.977,16a4.59,4.59,0,0,1-1.02-3.152v-.242a5.089,5.089,0,0,1,.453-2.2,3.451,3.451,0,0,1,1.3-1.492,3.7,3.7,0,0,1,2-.531,3.39,3.39,0,0,1,2.363.852,3.043,3.043,0,0,1,1,2.211h-1.367a1.992,1.992,0,0,0-.621-1.348,1.932,1.932,0,0,0-1.379-.527,2.023,2.023,0,0,0-1.707.793,3.724,3.724,0,0,0-.605,2.293v.273a3.65,3.65,0,0,0,.6,2.25A2.033,2.033,0,0,0,171.723,15.977Zm4.6-3.281a4.993,4.993,0,0,1,.488-2.234,3.642,3.642,0,0,1,1.359-1.531,3.7,3.7,0,0,1,1.988-.539,3.565,3.565,0,0,1,2.793,1.2,4.6,4.6,0,0,1,1.066,3.18v.1a5.036,5.036,0,0,1-.473,2.215,3.589,3.589,0,0,1-1.352,1.527,3.743,3.743,0,0,1-2.02.547,3.556,3.556,0,0,1-2.785-1.2,4.575,4.575,0,0,1-1.066-3.164Zm1.453.172a3.616,3.616,0,0,0,.652,2.258,2.211,2.211,0,0,0,3.5-.012,3.954,3.954,0,0,0,.648-2.418,3.61,3.61,0,0,0-.66-2.254,2.1,2.1,0,0,0-1.754-.863,2.075,2.075,0,0,0-1.727.852A3.925,3.925,0,0,0,177.777,12.867Zm9.414-4.32.039.938a3.122,3.122,0,0,1,2.508-1.094,2.417,2.417,0,0,1,2.414,1.359,3.2,3.2,0,0,1,1.1-.984,3.242,3.242,0,0,1,1.6-.375q2.781,0,2.828,2.945V17H196.23V11.422a1.941,1.941,0,0,0-.414-1.355,1.823,1.823,0,0,0-1.391-.449,1.917,1.917,0,0,0-1.336.48,1.949,1.949,0,0,0-.617,1.293V17H191.02V11.461a1.613,1.613,0,0,0-1.8-1.844,1.934,1.934,0,0,0-1.945,1.211V17h-1.445V8.547Zm17.883,7.617a3.07,3.07,0,0,1-2.477.992,2.628,2.628,0,0,1-2.059-.785,3.4,3.4,0,0,1-.715-2.324v-5.5h1.445v5.461q0,1.922,1.563,1.922a2.163,2.163,0,0,0,2.2-1.234V8.547h1.445V17h-1.375Zm4.969-7.617.047,1.063a3.08,3.08,0,0,1,2.531-1.219q2.68,0,2.7,3.023V17h-1.445V11.406a1.946,1.946,0,0,0-.418-1.352,1.675,1.675,0,0,0-1.277-.437,2.086,2.086,0,0,0-1.234.375,2.546,2.546,0,0,0-.828.984V17h-1.445V8.547ZM219.074,17h-1.445V8.547h1.445ZM217.512,6.3a.863.863,0,0,1,.215-.594.807.807,0,0,1,.637-.242.819.819,0,0,1,.641.242.854.854,0,0,1,.219.594.826.826,0,0,1-.219.586.834.834,0,0,1-.641.234.821.821,0,0,1-.637-.234A.834.834,0,0,1,217.512,6.3Zm5.836.2V8.547h1.578V9.664h-1.578v5.249a1.173,1.173,0,0,0,.211.763.888.888,0,0,0,.719.254,3.5,3.5,0,0,0,.688-.094V17a4.215,4.215,0,0,1-1.109.155,1.8,1.8,0,0,1-1.461-.586,2.517,2.517,0,0,1-.492-1.664V9.664h-1.539V8.547H221.9V6.5ZM231.832,17a3.036,3.036,0,0,1-.2-.891,3.225,3.225,0,0,1-2.406,1.047,2.984,2.984,0,0,1-2.051-.707,2.287,2.287,0,0,1-.8-1.793,2.39,2.39,0,0,1,1-2.051,4.733,4.733,0,0,1,2.824-.73h1.406v-.664A1.623,1.623,0,0,0,231.152,10a1.821,1.821,0,0,0-1.336-.449,2.107,2.107,0,0,0-1.3.391,1.151,1.151,0,0,0-.523.945h-1.453a2,2,0,0,1,.449-1.223,3.066,3.066,0,0,1,1.219-.934,4.1,4.1,0,0,1,1.691-.344,3.342,3.342,0,0,1,2.289.73,2.635,2.635,0,0,1,.859,2.012v3.891a4.757,4.757,0,0,0,.3,1.852V17Zm-2.4-1.1a2.54,2.54,0,0,0,1.289-.352,2.127,2.127,0,0,0,.883-.914V12.9h-1.133q-2.656,0-2.656,1.555a1.316,1.316,0,0,0,.453,1.063A1.742,1.742,0,0,0,229.434,15.9ZM239.4,9.844a4.331,4.331,0,0,0-.711-.055A1.9,1.9,0,0,0,236.762,11v6h-1.445V8.547h1.406l.023.977a2.251,2.251,0,0,1,2.016-1.133,1.477,1.477,0,0,1,.641.109ZM242.3,17h-1.445V8.547H242.3ZM240.738,6.3a.863.863,0,0,1,.215-.594.807.807,0,0,1,.637-.242.819.819,0,0,1,.641.242.854.854,0,0,1,.219.594.826.826,0,0,1-.219.586.834.834,0,0,1-.641.234.821.821,0,0,1-.637-.234A.834.834,0,0,1,240.738,6.3ZM244.23,12.7a4.993,4.993,0,0,1,.488-2.234,3.642,3.642,0,0,1,1.359-1.531,3.7,3.7,0,0,1,1.988-.539,3.565,3.565,0,0,1,2.793,1.2,4.6,4.6,0,0,1,1.066,3.18v.1a5.036,5.036,0,0,1-.473,2.215,3.589,3.589,0,0,1-1.352,1.527,3.743,3.743,0,0,1-2.02.547,3.556,3.556,0,0,1-2.785-1.2A4.575,4.575,0,0,1,244.23,12.8Zm1.453.172a3.616,3.616,0,0,0,.652,2.258,2.211,2.211,0,0,0,3.5-.012,3.954,3.954,0,0,0,.648-2.418,3.61,3.61,0,0,0-.66-2.254,2.1,2.1,0,0,0-1.754-.863,2.075,2.075,0,0,0-1.727.852A3.925,3.925,0,0,0,245.684,12.867Zm8.086,3.375a.905.905,0,0,1,.223-.625.848.848,0,0,1,.668-.25.874.874,0,0,1,.676.25.887.887,0,0,1,.23.625.839.839,0,0,1-.23.6.89.89,0,0,1-.676.242.8.8,0,0,1-.891-.844Z" transform="translate(951 11126)" fill="#12263f"/>
      <path id="Path_1274388" data-name="Path 1274388" d="M12.8,13.391a4.185,4.185,0,0,1-1.332,2.785,4.365,4.365,0,0,1-2.98.98,4.008,4.008,0,0,1-3.23-1.445,5.815,5.815,0,0,1-1.215-3.867V10.75a6.481,6.481,0,0,1,.566-2.789A4.231,4.231,0,0,1,6.215,6.113a4.47,4.47,0,0,1,2.406-.645A4.11,4.11,0,0,1,11.527,6.48a4.235,4.235,0,0,1,1.273,2.8H11.293a3.268,3.268,0,0,0-.848-1.975A2.565,2.565,0,0,0,8.621,6.7,2.684,2.684,0,0,0,6.367,7.759a4.882,4.882,0,0,0-.816,3.026v1.1a5.018,5.018,0,0,0,.773,2.948A2.5,2.5,0,0,0,8.488,15.93a2.886,2.886,0,0,0,1.918-.566,3.143,3.143,0,0,0,.887-1.973Zm1.438-.7a4.993,4.993,0,0,1,.488-2.234A3.643,3.643,0,0,1,16.086,8.93a3.7,3.7,0,0,1,1.988-.539,3.565,3.565,0,0,1,2.793,1.2,4.6,4.6,0,0,1,1.066,3.18v.1a5.036,5.036,0,0,1-.473,2.215,3.589,3.589,0,0,1-1.352,1.527,3.743,3.743,0,0,1-2.02.547,3.556,3.556,0,0,1-2.785-1.2A4.575,4.575,0,0,1,14.238,12.8Zm1.453.172a3.616,3.616,0,0,0,.652,2.258,2.211,2.211,0,0,0,3.5-.012,3.955,3.955,0,0,0,.648-2.418,3.61,3.61,0,0,0-.66-2.254,2.1,2.1,0,0,0-1.754-.863,2.075,2.075,0,0,0-1.727.852A3.925,3.925,0,0,0,15.691,12.867Zm9.414-4.32.039.938a3.122,3.122,0,0,1,2.508-1.094A2.417,2.417,0,0,1,30.066,9.75a3.2,3.2,0,0,1,1.1-.984,3.242,3.242,0,0,1,1.6-.375q2.781,0,2.828,2.945V17H34.145V11.422a1.941,1.941,0,0,0-.414-1.355,1.823,1.823,0,0,0-1.391-.449A1.916,1.916,0,0,0,31,10.1a1.949,1.949,0,0,0-.617,1.293V17H28.934V11.461a1.613,1.613,0,0,0-1.8-1.844,1.934,1.934,0,0,0-1.945,1.211V17H23.738V8.547Zm19.8,4.32a5.062,5.062,0,0,1-.883,3.109,2.829,2.829,0,0,1-2.391,1.18,3.1,3.1,0,0,1-2.422-.977v4.07H37.77V8.547h1.32l.07.938a2.977,2.977,0,0,1,2.453-1.094,2.882,2.882,0,0,1,2.41,1.148,5.117,5.117,0,0,1,.887,3.2ZM43.465,12.7a3.735,3.735,0,0,0-.609-2.258,1.963,1.963,0,0,0-1.672-.828,2.125,2.125,0,0,0-1.969,1.164V14.82A2.129,2.129,0,0,0,41.2,15.977a1.954,1.954,0,0,0,1.652-.824A4.077,4.077,0,0,0,43.465,12.7Zm7.367-2.859a4.331,4.331,0,0,0-.711-.055A1.9,1.9,0,0,0,48.191,11v6H46.746V8.547h1.406l.023.977a2.251,2.251,0,0,1,2.016-1.133,1.477,1.477,0,0,1,.641.109Zm4.836,7.313a3.693,3.693,0,0,1-2.8-1.129,4.19,4.19,0,0,1-1.078-3.02v-.266a5.073,5.073,0,0,1,.48-2.246,3.748,3.748,0,0,1,1.344-1.547,3.378,3.378,0,0,1,1.871-.559,3.166,3.166,0,0,1,2.563,1.086,4.7,4.7,0,0,1,.914,3.109v.6H53.238a3,3,0,0,0,.73,2.02,2.3,2.3,0,0,0,1.777.77,2.517,2.517,0,0,0,1.3-.312,3.259,3.259,0,0,0,.93-.828l.883.688A3.55,3.55,0,0,1,55.668,17.156Zm-.18-7.578a1.928,1.928,0,0,0-1.469.637A3.1,3.1,0,0,0,53.285,12H57.52v-.109a2.753,2.753,0,0,0-.594-1.707A1.815,1.815,0,0,0,55.488,9.578ZM62,8.547l.047,1.063a3.08,3.08,0,0,1,2.531-1.219q2.68,0,2.7,3.023V17H65.84V11.406a1.946,1.946,0,0,0-.418-1.352,1.675,1.675,0,0,0-1.277-.437,2.086,2.086,0,0,0-1.234.375,2.546,2.546,0,0,0-.828.984V17H60.637V8.547Zm12.383,6.211a1.064,1.064,0,0,0-.441-.91,4.249,4.249,0,0,0-1.539-.559,7.277,7.277,0,0,1-1.742-.562,2.479,2.479,0,0,1-.953-.781,1.869,1.869,0,0,1-.309-1.078,2.193,2.193,0,0,1,.879-1.758,3.432,3.432,0,0,1,2.246-.719,3.532,3.532,0,0,1,2.332.742,2.357,2.357,0,0,1,.895,1.9H74.3a1.3,1.3,0,0,0-.5-1.023,1.888,1.888,0,0,0-1.27-.43,1.976,1.976,0,0,0-1.234.344,1.082,1.082,0,0,0-.445.9.877.877,0,0,0,.414.789,5.1,5.1,0,0,0,1.5.508,7.8,7.8,0,0,1,1.754.578,2.558,2.558,0,0,1,1,.809,1.988,1.988,0,0,1,.324,1.152,2.163,2.163,0,0,1-.906,1.816,3.8,3.8,0,0,1-2.352.684,4.257,4.257,0,0,1-1.8-.359,2.922,2.922,0,0,1-1.223-1,2.42,2.42,0,0,1-.441-1.395h1.445a1.5,1.5,0,0,0,.582,1.152,2.258,2.258,0,0,0,1.434.426,2.331,2.331,0,0,0,1.316-.332A1.02,1.02,0,0,0,74.387,14.758ZM79.285,17H77.84V8.547h1.445ZM77.723,6.3a.863.863,0,0,1,.215-.594.807.807,0,0,1,.637-.242.819.819,0,0,1,.641.242.854.854,0,0,1,.219.594.826.826,0,0,1-.219.586.834.834,0,0,1-.641.234.821.821,0,0,1-.637-.234A.834.834,0,0,1,77.723,6.3ZM81.215,12.7a4.993,4.993,0,0,1,.488-2.234A3.643,3.643,0,0,1,83.063,8.93a3.7,3.7,0,0,1,1.988-.539,3.565,3.565,0,0,1,2.793,1.2,4.6,4.6,0,0,1,1.066,3.18v.1a5.036,5.036,0,0,1-.473,2.215,3.589,3.589,0,0,1-1.352,1.527,3.743,3.743,0,0,1-2.02.547,3.556,3.556,0,0,1-2.785-1.2A4.575,4.575,0,0,1,81.215,12.8Zm1.453.172a3.616,3.616,0,0,0,.652,2.258,2.211,2.211,0,0,0,3.5-.012,3.955,3.955,0,0,0,.648-2.418,3.61,3.61,0,0,0-.66-2.254,2.1,2.1,0,0,0-1.754-.863,2.075,2.075,0,0,0-1.727.852A3.925,3.925,0,0,0,82.668,12.867ZM85.707,5h1.75L85.363,7.3l-1.164,0ZM92.09,8.547l.047,1.063a3.08,3.08,0,0,1,2.531-1.219q2.68,0,2.7,3.023V17H95.926V11.406a1.946,1.946,0,0,0-.418-1.352,1.675,1.675,0,0,0-1.277-.437A2.086,2.086,0,0,0,93,9.992a2.546,2.546,0,0,0-.828.984V17H90.723V8.547ZM103.16,12.7a4.952,4.952,0,0,1,.922-3.129,3.137,3.137,0,0,1,4.766-.168V5h1.445V17h-1.328l-.07-.906a2.943,2.943,0,0,1-2.414,1.063,2.887,2.887,0,0,1-2.395-1.2,5.008,5.008,0,0,1-.926-3.141Zm1.445.164a3.749,3.749,0,0,0,.594,2.25,1.92,1.92,0,0,0,1.641.813,2.108,2.108,0,0,0,2.008-1.234V10.813a2.125,2.125,0,0,0-1.992-1.2,1.929,1.929,0,0,0-1.656.82A4.128,4.128,0,0,0,104.605,12.867Zm11.438,4.289a3.693,3.693,0,0,1-2.8-1.129,4.19,4.19,0,0,1-1.078-3.02v-.266a5.073,5.073,0,0,1,.48-2.246,3.748,3.748,0,0,1,1.344-1.547,3.378,3.378,0,0,1,1.871-.559,3.166,3.166,0,0,1,2.563,1.086,4.7,4.7,0,0,1,.914,3.109v.6h-5.727a3,3,0,0,0,.73,2.02,2.3,2.3,0,0,0,1.777.77,2.517,2.517,0,0,0,1.3-.312,3.259,3.259,0,0,0,.93-.828l.883.688A3.55,3.55,0,0,1,116.043,17.156Zm-.18-7.578a1.928,1.928,0,0,0-1.469.637A3.1,3.1,0,0,0,113.66,12h4.234v-.109a2.753,2.753,0,0,0-.594-1.707A1.815,1.815,0,0,0,115.863,9.578ZM122.582,17h-1.445V5h1.445Zm11.2-2.242a1.064,1.064,0,0,0-.441-.91,4.249,4.249,0,0,0-1.539-.559,7.277,7.277,0,0,1-1.742-.562,2.479,2.479,0,0,1-.953-.781,1.869,1.869,0,0,1-.309-1.078,2.193,2.193,0,0,1,.879-1.758,3.432,3.432,0,0,1,2.246-.719,3.532,3.532,0,0,1,2.332.742,2.357,2.357,0,0,1,.895,1.9h-1.453a1.3,1.3,0,0,0-.5-1.023,1.888,1.888,0,0,0-1.27-.43,1.976,1.976,0,0,0-1.234.344,1.082,1.082,0,0,0-.445.9.877.877,0,0,0,.414.789,5.1,5.1,0,0,0,1.5.508,7.8,7.8,0,0,1,1.754.578,2.558,2.558,0,0,1,1,.809,1.988,1.988,0,0,1,.324,1.152,2.163,2.163,0,0,1-.906,1.816,3.8,3.8,0,0,1-2.352.684,4.257,4.257,0,0,1-1.8-.359,2.922,2.922,0,0,1-1.223-1A2.42,2.42,0,0,1,128.5,14.4h1.445a1.5,1.5,0,0,0,.582,1.152,2.258,2.258,0,0,0,1.434.426,2.331,2.331,0,0,0,1.316-.332A1.02,1.02,0,0,0,133.777,14.758Zm4.9,2.242H137.23V8.547h1.445ZM137.113,6.3a.863.863,0,0,1,.215-.594.807.807,0,0,1,.637-.242.819.819,0,0,1,.641.242.854.854,0,0,1,.219.594.826.826,0,0,1-.219.586.834.834,0,0,1-.641.234.821.821,0,0,1-.637-.234A.834.834,0,0,1,137.113,6.3Zm8.8,8.453a1.064,1.064,0,0,0-.441-.91,4.249,4.249,0,0,0-1.539-.559,7.277,7.277,0,0,1-1.742-.562,2.479,2.479,0,0,1-.953-.781,1.869,1.869,0,0,1-.309-1.078,2.193,2.193,0,0,1,.879-1.758,3.432,3.432,0,0,1,2.246-.719,3.532,3.532,0,0,1,2.332.742,2.357,2.357,0,0,1,.895,1.9h-1.453a1.3,1.3,0,0,0-.5-1.023,1.888,1.888,0,0,0-1.27-.43,1.976,1.976,0,0,0-1.234.344,1.082,1.082,0,0,0-.445.9.877.877,0,0,0,.414.789,5.1,5.1,0,0,0,1.5.508,7.8,7.8,0,0,1,1.754.578,2.558,2.558,0,0,1,1,.809,1.988,1.988,0,0,1,.324,1.152,2.163,2.163,0,0,1-.906,1.816,3.8,3.8,0,0,1-2.352.684,4.257,4.257,0,0,1-1.8-.359,2.922,2.922,0,0,1-1.223-1,2.42,2.42,0,0,1-.441-1.395h1.445a1.5,1.5,0,0,0,.582,1.152,2.258,2.258,0,0,0,1.434.426,2.331,2.331,0,0,0,1.316-.332A1.02,1.02,0,0,0,145.91,14.758ZM151.2,6.5V8.547h1.578V9.664H151.2v5.249a1.173,1.173,0,0,0,.211.763.888.888,0,0,0,.719.254,3.5,3.5,0,0,0,.688-.094V17a4.215,4.215,0,0,1-1.109.155,1.8,1.8,0,0,1-1.461-.586,2.517,2.517,0,0,1-.492-1.664V9.664h-1.539V8.547h1.539V6.5Zm6.773,10.656a3.693,3.693,0,0,1-2.8-1.129,4.19,4.19,0,0,1-1.078-3.02v-.266a5.073,5.073,0,0,1,.48-2.246,3.748,3.748,0,0,1,1.344-1.547,3.378,3.378,0,0,1,1.871-.559,3.166,3.166,0,0,1,2.563,1.086,4.7,4.7,0,0,1,.914,3.109v.6h-5.727a3,3,0,0,0,.73,2.02,2.3,2.3,0,0,0,1.777.77,2.517,2.517,0,0,0,1.3-.312,3.258,3.258,0,0,0,.93-.828l.883.688A3.55,3.55,0,0,1,157.973,17.156Zm-.18-7.578a1.928,1.928,0,0,0-1.469.637A3.1,3.1,0,0,0,155.59,12h4.234v-.109a2.753,2.753,0,0,0-.594-1.707A1.815,1.815,0,0,0,157.793,9.578ZM164.3,8.547l.039.938a3.122,3.122,0,0,1,2.508-1.094,2.417,2.417,0,0,1,2.414,1.359,3.2,3.2,0,0,1,1.1-.984,3.242,3.242,0,0,1,1.6-.375q2.781,0,2.828,2.945V17H173.34V11.422a1.941,1.941,0,0,0-.414-1.355,1.823,1.823,0,0,0-1.391-.449,1.917,1.917,0,0,0-1.336.48,1.949,1.949,0,0,0-.617,1.293V17h-1.453V11.461a1.613,1.613,0,0,0-1.8-1.844,1.934,1.934,0,0,0-1.945,1.211V17h-1.445V8.547ZM182.184,17a3.036,3.036,0,0,1-.2-.891,3.225,3.225,0,0,1-2.406,1.047,2.984,2.984,0,0,1-2.051-.707,2.287,2.287,0,0,1-.8-1.793,2.39,2.39,0,0,1,1-2.051,4.733,4.733,0,0,1,2.824-.73h1.406v-.664A1.623,1.623,0,0,0,181.5,10a1.821,1.821,0,0,0-1.336-.449,2.107,2.107,0,0,0-1.3.391,1.151,1.151,0,0,0-.523.945h-1.453a2,2,0,0,1,.449-1.223,3.066,3.066,0,0,1,1.219-.934,4.1,4.1,0,0,1,1.691-.344,3.342,3.342,0,0,1,2.289.73,2.635,2.635,0,0,1,.859,2.012v3.891a4.757,4.757,0,0,0,.3,1.852V17Zm-2.4-1.1a2.54,2.54,0,0,0,1.289-.352,2.127,2.127,0,0,0,.883-.914V12.9h-1.133q-2.656,0-2.656,1.555a1.316,1.316,0,0,0,.453,1.063A1.742,1.742,0,0,0,179.785,15.9Zm9.492-3.2a4.952,4.952,0,0,1,.922-3.129,3.137,3.137,0,0,1,4.766-.168V5h1.445V17h-1.328l-.07-.906a2.943,2.943,0,0,1-2.414,1.063,2.887,2.887,0,0,1-2.395-1.2,5.008,5.008,0,0,1-.926-3.141Zm1.445.164a3.749,3.749,0,0,0,.594,2.25,1.919,1.919,0,0,0,1.641.813,2.108,2.108,0,0,0,2.008-1.234V10.813a2.125,2.125,0,0,0-1.992-1.2,1.929,1.929,0,0,0-1.656.82A4.128,4.128,0,0,0,190.723,12.867Zm11.438,4.289a3.693,3.693,0,0,1-2.8-1.129,4.19,4.19,0,0,1-1.078-3.02v-.266a5.073,5.073,0,0,1,.48-2.246,3.748,3.748,0,0,1,1.344-1.547,3.378,3.378,0,0,1,1.871-.559,3.166,3.166,0,0,1,2.563,1.086,4.7,4.7,0,0,1,.914,3.109v.6H199.73a3,3,0,0,0,.73,2.02,2.3,2.3,0,0,0,1.777.77,2.517,2.517,0,0,0,1.3-.312,3.258,3.258,0,0,0,.93-.828l.883.688A3.55,3.55,0,0,1,202.16,17.156Zm-.18-7.578a1.928,1.928,0,0,0-1.469.637A3.1,3.1,0,0,0,199.777,12h4.234v-.109a2.753,2.753,0,0,0-.594-1.707A1.815,1.815,0,0,0,201.98,9.578Zm14.031,5.18a1.064,1.064,0,0,0-.441-.91,4.249,4.249,0,0,0-1.539-.559,7.277,7.277,0,0,1-1.742-.562,2.479,2.479,0,0,1-.953-.781,1.869,1.869,0,0,1-.309-1.078,2.193,2.193,0,0,1,.879-1.758,3.432,3.432,0,0,1,2.246-.719,3.532,3.532,0,0,1,2.332.742,2.357,2.357,0,0,1,.895,1.9h-1.453a1.3,1.3,0,0,0-.5-1.023,1.888,1.888,0,0,0-1.27-.43,1.976,1.976,0,0,0-1.234.344,1.082,1.082,0,0,0-.445.9.877.877,0,0,0,.414.789,5.1,5.1,0,0,0,1.5.508,7.8,7.8,0,0,1,1.754.578,2.558,2.558,0,0,1,1,.809,1.988,1.988,0,0,1,.324,1.152,2.163,2.163,0,0,1-.906,1.816,3.8,3.8,0,0,1-2.352.684,4.257,4.257,0,0,1-1.8-.359,2.922,2.922,0,0,1-1.223-1,2.42,2.42,0,0,1-.441-1.395h1.445a1.5,1.5,0,0,0,.582,1.152,2.258,2.258,0,0,0,1.434.426,2.331,2.331,0,0,0,1.316-.332A1.02,1.02,0,0,0,216.012,14.758ZM224.559,17a3.036,3.036,0,0,1-.2-.891,3.225,3.225,0,0,1-2.406,1.047,2.984,2.984,0,0,1-2.051-.707,2.287,2.287,0,0,1-.8-1.793,2.39,2.39,0,0,1,1-2.051,4.733,4.733,0,0,1,2.824-.73h1.406v-.664A1.623,1.623,0,0,0,223.879,10a1.821,1.821,0,0,0-1.336-.449,2.107,2.107,0,0,0-1.3.391,1.151,1.151,0,0,0-.523.945H219.27a2,2,0,0,1,.449-1.223,3.066,3.066,0,0,1,1.219-.934,4.1,4.1,0,0,1,1.691-.344,3.342,3.342,0,0,1,2.289.73,2.635,2.635,0,0,1,.859,2.012v3.891a4.757,4.757,0,0,0,.3,1.852V17Zm-2.4-1.1a2.54,2.54,0,0,0,1.289-.352,2.127,2.127,0,0,0,.883-.914V12.9H223.2q-2.656,0-2.656,1.555A1.316,1.316,0,0,0,221,15.516,1.742,1.742,0,0,0,222.16,15.9Zm7.453,1.1h-1.445V5h1.445Zm7.531-.836a3.07,3.07,0,0,1-2.477.992,2.628,2.628,0,0,1-2.059-.785,3.4,3.4,0,0,1-.715-2.324v-5.5h1.445v5.461q0,1.922,1.563,1.922a2.163,2.163,0,0,0,2.2-1.234V8.547h1.445V17h-1.375Zm3.25-3.461a4.952,4.952,0,0,1,.922-3.129,3.137,3.137,0,0,1,4.766-.168V5h1.445V17H246.2l-.07-.906a2.943,2.943,0,0,1-2.414,1.063,2.887,2.887,0,0,1-2.395-1.2,5.008,5.008,0,0,1-.926-3.141Zm1.445.164a3.749,3.749,0,0,0,.594,2.25,1.919,1.919,0,0,0,1.641.813,2.108,2.108,0,0,0,2.008-1.234V10.813a2.125,2.125,0,0,0-1.992-1.2,1.929,1.929,0,0,0-1.656.82A4.128,4.128,0,0,0,241.84,12.867Zm7.961,3.375a.905.905,0,0,1,.223-.625.848.848,0,0,1,.668-.25.874.874,0,0,1,.676.25.887.887,0,0,1,.23.625.839.839,0,0,1-.23.6.89.89,0,0,1-.676.242.8.8,0,0,1-.891-.844Z" transform="translate(951 11037)" fill="#12263f"/>
      <path id="Path_1274390" data-name="Path 1274390" d="M9.648,17h-1.5V5.625h1.5Zm3.883-8.453.047,1.063a3.08,3.08,0,0,1,2.531-1.219q2.68,0,2.7,3.023V17H17.367V11.406a1.946,1.946,0,0,0-.418-1.352,1.675,1.675,0,0,0-1.277-.437,2.086,2.086,0,0,0-1.234.375,2.546,2.546,0,0,0-.828.984V17H12.164V8.547Zm10.852,7.43a2.082,2.082,0,0,0,1.352-.469,1.649,1.649,0,0,0,.641-1.172h1.367a2.621,2.621,0,0,1-.5,1.383,3.293,3.293,0,0,1-1.23,1.047,3.55,3.55,0,0,1-1.629.391A3.482,3.482,0,0,1,21.637,16a4.59,4.59,0,0,1-1.02-3.152v-.242a5.089,5.089,0,0,1,.453-2.2,3.451,3.451,0,0,1,1.3-1.492,3.7,3.7,0,0,1,2-.531,3.39,3.39,0,0,1,2.363.852,3.043,3.043,0,0,1,1,2.211H26.375a1.992,1.992,0,0,0-.621-1.348,1.932,1.932,0,0,0-1.379-.527,2.023,2.023,0,0,0-1.707.793,3.724,3.724,0,0,0-.605,2.293v.273a3.65,3.65,0,0,0,.6,2.25A2.033,2.033,0,0,0,24.383,15.977ZM30.938,17H29.492V8.547h1.445ZM29.375,6.3a.863.863,0,0,1,.215-.594.807.807,0,0,1,.637-.242.819.819,0,0,1,.641.242.854.854,0,0,1,.219.594.826.826,0,0,1-.219.586.834.834,0,0,1-.641.234.821.821,0,0,1-.637-.234A.834.834,0,0,1,29.375,6.3ZM32.9,12.7a4.952,4.952,0,0,1,.922-3.129,3.137,3.137,0,0,1,4.766-.168V5h1.445V17H38.7l-.07-.906a2.943,2.943,0,0,1-2.414,1.063,2.887,2.887,0,0,1-2.395-1.2,5.008,5.008,0,0,1-.926-3.141Zm1.445.164a3.749,3.749,0,0,0,.594,2.25,1.92,1.92,0,0,0,1.641.813A2.108,2.108,0,0,0,38.586,14.7V10.813a2.125,2.125,0,0,0-1.992-1.2,1.929,1.929,0,0,0-1.656.82A4.128,4.128,0,0,0,34.344,12.867Zm11.438,4.289a3.693,3.693,0,0,1-2.8-1.129,4.19,4.19,0,0,1-1.078-3.02v-.266a5.073,5.073,0,0,1,.48-2.246A3.748,3.748,0,0,1,43.73,8.949,3.378,3.378,0,0,1,45.6,8.391a3.166,3.166,0,0,1,2.563,1.086,4.7,4.7,0,0,1,.914,3.109v.6H43.352a3,3,0,0,0,.73,2.02,2.3,2.3,0,0,0,1.777.77,2.517,2.517,0,0,0,1.3-.312,3.259,3.259,0,0,0,.93-.828l.883.688A3.55,3.55,0,0,1,45.781,17.156ZM45.6,9.578a1.928,1.928,0,0,0-1.469.637A3.1,3.1,0,0,0,43.4,12h4.234v-.109a2.753,2.753,0,0,0-.594-1.707A1.815,1.815,0,0,0,45.6,9.578Zm6.516-1.031.047,1.063A3.08,3.08,0,0,1,54.7,8.391q2.68,0,2.7,3.023V17H55.953V11.406a1.946,1.946,0,0,0-.418-1.352,1.675,1.675,0,0,0-1.277-.437,2.086,2.086,0,0,0-1.234.375,2.546,2.546,0,0,0-.828.984V17H50.75V8.547Zm10.852,7.43a2.082,2.082,0,0,0,1.352-.469,1.649,1.649,0,0,0,.641-1.172h1.367a2.621,2.621,0,0,1-.5,1.383,3.293,3.293,0,0,1-1.23,1.047,3.55,3.55,0,0,1-1.629.391A3.482,3.482,0,0,1,60.223,16a4.59,4.59,0,0,1-1.02-3.152v-.242a5.089,5.089,0,0,1,.453-2.2,3.451,3.451,0,0,1,1.3-1.492,3.7,3.7,0,0,1,2-.531,3.39,3.39,0,0,1,2.363.852,3.043,3.043,0,0,1,1,2.211H64.961a1.992,1.992,0,0,0-.621-1.348,1.932,1.932,0,0,0-1.379-.527,2.023,2.023,0,0,0-1.707.793,3.724,3.724,0,0,0-.605,2.293v.273a3.65,3.65,0,0,0,.6,2.25A2.033,2.033,0,0,0,62.969,15.977ZM69.523,17H68.078V8.547h1.445ZM67.961,6.3a.863.863,0,0,1,.215-.594.807.807,0,0,1,.637-.242.819.819,0,0,1,.641.242.854.854,0,0,1,.219.594.826.826,0,0,1-.219.586.834.834,0,0,1-.641.234.821.821,0,0,1-.637-.234A.834.834,0,0,1,67.961,6.3ZM77.055,17a3.036,3.036,0,0,1-.2-.891,3.225,3.225,0,0,1-2.406,1.047,2.984,2.984,0,0,1-2.051-.707,2.288,2.288,0,0,1-.8-1.793,2.39,2.39,0,0,1,1-2.051,4.733,4.733,0,0,1,2.824-.73h1.406v-.664A1.623,1.623,0,0,0,76.375,10a1.821,1.821,0,0,0-1.336-.449,2.108,2.108,0,0,0-1.3.391,1.151,1.151,0,0,0-.523.945H71.766a2,2,0,0,1,.449-1.223,3.066,3.066,0,0,1,1.219-.934,4.1,4.1,0,0,1,1.691-.344,3.342,3.342,0,0,1,2.289.73,2.635,2.635,0,0,1,.859,2.012v3.891a4.757,4.757,0,0,0,.3,1.852V17Zm-2.4-1.1a2.54,2.54,0,0,0,1.289-.352,2.127,2.127,0,0,0,.883-.914V12.9H75.7q-2.656,0-2.656,1.555a1.316,1.316,0,0,0,.453,1.063A1.742,1.742,0,0,0,74.656,15.9Zm13.352,1.258a3.693,3.693,0,0,1-2.8-1.129,4.19,4.19,0,0,1-1.078-3.02v-.266a5.073,5.073,0,0,1,.48-2.246,3.748,3.748,0,0,1,1.344-1.547,3.378,3.378,0,0,1,1.871-.559,3.166,3.166,0,0,1,2.563,1.086,4.7,4.7,0,0,1,.914,3.109v.6H85.578a3,3,0,0,0,.73,2.02,2.3,2.3,0,0,0,1.777.77,2.517,2.517,0,0,0,1.3-.312,3.259,3.259,0,0,0,.93-.828l.883.688A3.55,3.55,0,0,1,88.008,17.156Zm-.18-7.578a1.928,1.928,0,0,0-1.469.637A3.1,3.1,0,0,0,85.625,12h4.234v-.109a2.753,2.753,0,0,0-.594-1.707A1.815,1.815,0,0,0,87.828,9.578Zm6.516-1.031.047,1.063a3.08,3.08,0,0,1,2.531-1.219q2.68,0,2.7,3.023V17H98.18V11.406a1.946,1.946,0,0,0-.418-1.352,1.675,1.675,0,0,0-1.277-.437,2.086,2.086,0,0,0-1.234.375,2.546,2.546,0,0,0-.828.984V17H92.977V8.547Zm11.07,4.156a4.952,4.952,0,0,1,.922-3.129,3.137,3.137,0,0,1,4.766-.168V5h1.445V17h-1.328l-.07-.906a2.943,2.943,0,0,1-2.414,1.063,2.887,2.887,0,0,1-2.395-1.2,5.008,5.008,0,0,1-.926-3.141Zm1.445.164a3.749,3.749,0,0,0,.594,2.25,1.92,1.92,0,0,0,1.641.813A2.108,2.108,0,0,0,111.1,14.7V10.813a2.125,2.125,0,0,0-1.992-1.2,1.929,1.929,0,0,0-1.656.82A4.128,4.128,0,0,0,106.859,12.867ZM118.3,17.156a3.693,3.693,0,0,1-2.8-1.129,4.19,4.19,0,0,1-1.078-3.02v-.266a5.073,5.073,0,0,1,.48-2.246,3.748,3.748,0,0,1,1.344-1.547,3.378,3.378,0,0,1,1.871-.559,3.166,3.166,0,0,1,2.563,1.086,4.7,4.7,0,0,1,.914,3.109v.6h-5.727a3,3,0,0,0,.73,2.02,2.3,2.3,0,0,0,1.777.77,2.517,2.517,0,0,0,1.3-.312,3.259,3.259,0,0,0,.93-.828l.883.688A3.55,3.55,0,0,1,118.3,17.156Zm-.18-7.578a1.928,1.928,0,0,0-1.469.637A3.1,3.1,0,0,0,115.914,12h4.234v-.109a2.753,2.753,0,0,0-.594-1.707A1.815,1.815,0,0,0,118.117,9.578Zm8.539,6.4a2.082,2.082,0,0,0,1.352-.469,1.649,1.649,0,0,0,.641-1.172h1.367a2.621,2.621,0,0,1-.5,1.383,3.293,3.293,0,0,1-1.23,1.047,3.55,3.55,0,0,1-1.629.391A3.482,3.482,0,0,1,123.91,16a4.59,4.59,0,0,1-1.02-3.152v-.242a5.089,5.089,0,0,1,.453-2.2,3.451,3.451,0,0,1,1.3-1.492,3.7,3.7,0,0,1,2-.531,3.39,3.39,0,0,1,2.363.852,3.043,3.043,0,0,1,1,2.211h-1.367a1.992,1.992,0,0,0-.621-1.348,1.932,1.932,0,0,0-1.379-.527,2.023,2.023,0,0,0-1.707.793,3.724,3.724,0,0,0-.605,2.293v.273a3.65,3.65,0,0,0,.6,2.25A2.033,2.033,0,0,0,126.656,15.977ZM133.211,17h-1.445V8.547h1.445ZM131.648,6.3a.863.863,0,0,1,.215-.594.807.807,0,0,1,.637-.242.819.819,0,0,1,.641.242.854.854,0,0,1,.219.594.826.826,0,0,1-.219.586.834.834,0,0,1-.641.234.821.821,0,0,1-.637-.234A.834.834,0,0,1,131.648,6.3Zm8.8,8.453a1.064,1.064,0,0,0-.441-.91,4.249,4.249,0,0,0-1.539-.559,7.277,7.277,0,0,1-1.742-.562,2.479,2.479,0,0,1-.953-.781,1.869,1.869,0,0,1-.309-1.078,2.193,2.193,0,0,1,.879-1.758,3.432,3.432,0,0,1,2.246-.719,3.532,3.532,0,0,1,2.332.742,2.357,2.357,0,0,1,.895,1.9h-1.453a1.3,1.3,0,0,0-.5-1.023,1.888,1.888,0,0,0-1.27-.43,1.976,1.976,0,0,0-1.234.344,1.082,1.082,0,0,0-.445.9.877.877,0,0,0,.414.789,5.1,5.1,0,0,0,1.5.508,7.8,7.8,0,0,1,1.754.578,2.558,2.558,0,0,1,1,.809,1.988,1.988,0,0,1,.324,1.152,2.163,2.163,0,0,1-.906,1.816,3.8,3.8,0,0,1-2.352.684,4.257,4.257,0,0,1-1.8-.359,2.922,2.922,0,0,1-1.223-1,2.42,2.42,0,0,1-.441-1.395h1.445a1.5,1.5,0,0,0,.582,1.152,2.258,2.258,0,0,0,1.434.426,2.331,2.331,0,0,0,1.316-.332A1.02,1.02,0,0,0,140.445,14.758Zm4.9,2.242H143.9V8.547h1.445ZM143.781,6.3A.863.863,0,0,1,144,5.711a.807.807,0,0,1,.637-.242.819.819,0,0,1,.641.242.854.854,0,0,1,.219.594.826.826,0,0,1-.219.586.834.834,0,0,1-.641.234A.821.821,0,0,1,144,6.891.834.834,0,0,1,143.781,6.3Zm3.492,6.391a4.993,4.993,0,0,1,.488-2.234,3.642,3.642,0,0,1,1.359-1.531,3.7,3.7,0,0,1,1.988-.539,3.565,3.565,0,0,1,2.793,1.2,4.6,4.6,0,0,1,1.066,3.18v.1a5.036,5.036,0,0,1-.473,2.215,3.589,3.589,0,0,1-1.352,1.527,3.743,3.743,0,0,1-2.02.547,3.556,3.556,0,0,1-2.785-1.2,4.575,4.575,0,0,1-1.066-3.164Zm1.453.172a3.616,3.616,0,0,0,.652,2.258,2.211,2.211,0,0,0,3.5-.012,3.954,3.954,0,0,0,.648-2.418,3.61,3.61,0,0,0-.66-2.254,2.1,2.1,0,0,0-1.754-.863,2.075,2.075,0,0,0-1.727.852A3.925,3.925,0,0,0,148.727,12.867Zm9.422-4.32.047,1.063a3.08,3.08,0,0,1,2.531-1.219q2.68,0,2.7,3.023V17h-1.445V11.406a1.946,1.946,0,0,0-.418-1.352,1.675,1.675,0,0,0-1.277-.437,2.086,2.086,0,0,0-1.234.375,2.546,2.546,0,0,0-.828.984V17h-1.445V8.547Zm10.969,8.609a3.693,3.693,0,0,1-2.8-1.129,4.19,4.19,0,0,1-1.078-3.02v-.266a5.073,5.073,0,0,1,.48-2.246,3.748,3.748,0,0,1,1.344-1.547,3.378,3.378,0,0,1,1.871-.559A3.166,3.166,0,0,1,171.5,9.477a4.7,4.7,0,0,1,.914,3.109v.6h-5.727a3,3,0,0,0,.73,2.02,2.3,2.3,0,0,0,1.777.77,2.517,2.517,0,0,0,1.3-.312,3.258,3.258,0,0,0,.93-.828l.883.688A3.55,3.55,0,0,1,169.117,17.156Zm-.18-7.578a1.928,1.928,0,0,0-1.469.637A3.1,3.1,0,0,0,166.734,12h4.234v-.109a2.753,2.753,0,0,0-.594-1.707A1.815,1.815,0,0,0,168.938,9.578Zm10.07,5.18a1.064,1.064,0,0,0-.441-.91,4.249,4.249,0,0,0-1.539-.559,7.277,7.277,0,0,1-1.742-.562,2.479,2.479,0,0,1-.953-.781,1.869,1.869,0,0,1-.309-1.078,2.193,2.193,0,0,1,.879-1.758,3.432,3.432,0,0,1,2.246-.719,3.532,3.532,0,0,1,2.332.742,2.357,2.357,0,0,1,.895,1.9h-1.453a1.3,1.3,0,0,0-.5-1.023,1.888,1.888,0,0,0-1.27-.43,1.976,1.976,0,0,0-1.234.344,1.082,1.082,0,0,0-.445.9.877.877,0,0,0,.414.789,5.1,5.1,0,0,0,1.5.508,7.8,7.8,0,0,1,1.754.578,2.558,2.558,0,0,1,1,.809,1.988,1.988,0,0,1,.324,1.152,2.163,2.163,0,0,1-.906,1.816,3.8,3.8,0,0,1-2.352.684,4.257,4.257,0,0,1-1.8-.359,2.922,2.922,0,0,1-1.223-1,2.42,2.42,0,0,1-.441-1.395h1.445a1.5,1.5,0,0,0,.582,1.152,2.258,2.258,0,0,0,1.434.426,2.331,2.331,0,0,0,1.316-.332A1.02,1.02,0,0,0,179.008,14.758Zm14.43-1.891a5.062,5.062,0,0,1-.883,3.109,2.829,2.829,0,0,1-2.391,1.18,3.1,3.1,0,0,1-2.422-.977v4.07H186.3V8.547h1.32l.07.938a2.977,2.977,0,0,1,2.453-1.094,2.882,2.882,0,0,1,2.41,1.148,5.117,5.117,0,0,1,.887,3.2Zm-1.445-.164a3.735,3.735,0,0,0-.609-2.258,1.963,1.963,0,0,0-1.672-.828,2.125,2.125,0,0,0-1.969,1.164V14.82a2.129,2.129,0,0,0,1.984,1.156,1.954,1.954,0,0,0,1.652-.824A4.077,4.077,0,0,0,191.992,12.7Zm8.5,3.461a3.07,3.07,0,0,1-2.477.992,2.628,2.628,0,0,1-2.059-.785,3.4,3.4,0,0,1-.715-2.324v-5.5h1.445v5.461q0,1.922,1.563,1.922a2.163,2.163,0,0,0,2.2-1.234V8.547H201.9V17h-1.375ZM199.32,5h1.75l-2.094,2.3-1.164,0Zm11.93,7.867a5.026,5.026,0,0,1-.891,3.113,2.846,2.846,0,0,1-2.391,1.176,2.947,2.947,0,0,1-2.477-1.133l-.07.977h-1.328V5h1.445V9.477a2.93,2.93,0,0,1,2.414-1.086,2.863,2.863,0,0,1,2.418,1.164,5.177,5.177,0,0,1,.879,3.188ZM209.8,12.7a3.906,3.906,0,0,0-.57-2.281,1.888,1.888,0,0,0-1.641-.8,2.122,2.122,0,0,0-2.055,1.328V14.6a2.181,2.181,0,0,0,2.07,1.328,1.878,1.878,0,0,0,1.617-.8A4.153,4.153,0,0,0,209.8,12.7Zm4.836,4.3H213.2V5h1.445Zm3.883,0h-1.445V8.547h1.445ZM216.961,6.3a.863.863,0,0,1,.215-.594.807.807,0,0,1,.637-.242.819.819,0,0,1,.641.242.854.854,0,0,1,.219.594.826.826,0,0,1-.219.586.834.834,0,0,1-.641.234.821.821,0,0,1-.637-.234A.834.834,0,0,1,216.961,6.3Zm7.266,9.672a2.082,2.082,0,0,0,1.352-.469,1.649,1.649,0,0,0,.641-1.172h1.367a2.621,2.621,0,0,1-.5,1.383,3.293,3.293,0,0,1-1.23,1.047,3.55,3.55,0,0,1-1.629.391A3.482,3.482,0,0,1,221.48,16a4.59,4.59,0,0,1-1.02-3.152v-.242a5.089,5.089,0,0,1,.453-2.2,3.451,3.451,0,0,1,1.3-1.492,3.7,3.7,0,0,1,2-.531,3.39,3.39,0,0,1,2.363.852,3.043,3.043,0,0,1,1,2.211h-1.367a1.992,1.992,0,0,0-.621-1.348,1.932,1.932,0,0,0-1.379-.527,2.023,2.023,0,0,0-1.707.793,3.724,3.724,0,0,0-.605,2.293v.273a3.65,3.65,0,0,0,.6,2.25A2.033,2.033,0,0,0,224.227,15.977ZM234.43,17a3.036,3.036,0,0,1-.2-.891,3.225,3.225,0,0,1-2.406,1.047,2.984,2.984,0,0,1-2.051-.707,2.287,2.287,0,0,1-.8-1.793,2.39,2.39,0,0,1,1-2.051,4.733,4.733,0,0,1,2.824-.73H234.2v-.664A1.623,1.623,0,0,0,233.75,10a1.821,1.821,0,0,0-1.336-.449,2.107,2.107,0,0,0-1.3.391,1.151,1.151,0,0,0-.523.945h-1.453a2,2,0,0,1,.449-1.223,3.066,3.066,0,0,1,1.219-.934,4.1,4.1,0,0,1,1.691-.344,3.342,3.342,0,0,1,2.289.73,2.635,2.635,0,0,1,.859,2.012v3.891a4.757,4.757,0,0,0,.3,1.852V17Zm-2.4-1.1a2.54,2.54,0,0,0,1.289-.352,2.127,2.127,0,0,0,.883-.914V12.9H233.07q-2.656,0-2.656,1.555a1.316,1.316,0,0,0,.453,1.063A1.742,1.742,0,0,0,232.031,15.9Zm10.8-1.141a1.064,1.064,0,0,0-.441-.91,4.249,4.249,0,0,0-1.539-.559,7.277,7.277,0,0,1-1.742-.562,2.479,2.479,0,0,1-.953-.781,1.869,1.869,0,0,1-.309-1.078,2.193,2.193,0,0,1,.879-1.758,3.432,3.432,0,0,1,2.246-.719,3.532,3.532,0,0,1,2.332.742,2.357,2.357,0,0,1,.895,1.9H242.75a1.3,1.3,0,0,0-.5-1.023,1.888,1.888,0,0,0-1.27-.43,1.976,1.976,0,0,0-1.234.344,1.082,1.082,0,0,0-.445.9.877.877,0,0,0,.414.789,5.1,5.1,0,0,0,1.5.508,7.8,7.8,0,0,1,1.754.578,2.558,2.558,0,0,1,1,.809,1.988,1.988,0,0,1,.324,1.152,2.163,2.163,0,0,1-.906,1.816,3.8,3.8,0,0,1-2.352.684,4.257,4.257,0,0,1-1.8-.359,2.922,2.922,0,0,1-1.223-1,2.42,2.42,0,0,1-.441-1.395h1.445a1.5,1.5,0,0,0,.582,1.152,2.258,2.258,0,0,0,1.434.426,2.331,2.331,0,0,0,1.316-.332A1.02,1.02,0,0,0,242.836,14.758Zm3.359,1.484a.905.905,0,0,1,.223-.625.848.848,0,0,1,.668-.25.874.874,0,0,1,.676.25.887.887,0,0,1,.23.625.839.839,0,0,1-.23.6.89.89,0,0,1-.676.242.8.8,0,0,1-.891-.844Z" transform="translate(951 11210)" fill="#12263f"/>
    </g>
    <g id="Group_1182921" data-name="Group 1182921" transform="translate(602 11012.229)">
      <g id="Group_1182920" data-name="Group 1182920" clip-path="url(#clip-path-23)">
        <path id="Path_1273344" data-name="Path 1273344" d="M113.018,110.008l-6.07,0a1,1,0,0,1-1-1.008l-.011-4.984-4.989-.011a1,1,0,0,1-1-1V97.023a.979.979,0,0,1,1-.99l4.991-.009.012-5a.97.97,0,0,1,.993-.991l5.986,0a.973.973,0,0,1,.992.993l.014,5h4.989a.98.98,0,0,1,1,.991l0,5.981a.983.983,0,0,1-1,1l-4.992.012L113.925,109a.99.99,0,0,1-.908,1.008m-1.07-2.014-.005-4.98a.983.983,0,0,1,1-.988l4.991,0v-4h-4.989a1.015,1.015,0,0,1-1-1.006l0-4.987h-4v4.984a.993.993,0,0,1-1,1l-4.993.007.007,4.008,4.989,0a.986.986,0,0,1,1,.992l.008,5.006Z" transform="translate(-79.979 -72.043)" fill="#783534"/>
        <path id="Path_1273345" data-name="Path 1273345" d="M.9,231.8l5.291.012a15,15,0,0,1,6.52,1.818l5.789,2.811a11.341,11.341,0,0,0,5.27,1.33l10.18.011,8.772-3.595a1.984,1.984,0,0,0-.454-1.833c-1.306-1.4-4.612-.222-6.956.56a.988.988,0,0,1-1.263-.722c-.162-.582.234-1.051.877-1.261,2.983-.975,6.744-2.162,8.753.016a3.914,3.914,0,0,1,.945,3.7,2.166,2.166,0,0,1-1.334,1.475l-8.911,3.649-10.606-.009a14.873,14.873,0,0,1-6.642-1.744l-6.037-2.96a12.044,12.044,0,0,0-5.3-1.279l-4.793-.019a.966.966,0,0,1-.989-.91A.935.935,0,0,1,.9,231.8" transform="translate(0 -183.812)" fill="#783534"/>
        <path id="Path_1273346" data-name="Path 1273346" d="M102.221,3.352a11.205,11.205,0,0,0-4.937-1.337l-10.716,0-8.64,3.563A1.963,1.963,0,0,0,78.384,7.4c1.289,1.356,4.5.3,6.8-.52a1.009,1.009,0,0,1,1.409.687,1.094,1.094,0,0,1-.862,1.263,19.219,19.219,0,0,1-5.614,1.232,3.991,3.991,0,0,1-4.164-4.64A2.191,2.191,0,0,1,77.23,3.712L86.136.023,96.479,0a14.118,14.118,0,0,1,6.379,1.426l6.84,3.332a11.736,11.736,0,0,0,5.167,1.229l4.794.019a.988.988,0,1,1,0,1.976l-4.389,0a15.917,15.917,0,0,1-7.063-1.727Z" transform="translate(-60.732 -0.001)" fill="#783534"/>
        <path id="Path_1273347" data-name="Path 1273347" d="M150.517,33.488c1.9,4.425,6.8,5.276,11.127,3.532l8.36,0A.989.989,0,1,1,170,39l-7.951.006c-5.025,1.878-10.375.785-13.038-4l-5.91-2.467a8.085,8.085,0,0,1-3.024-2.176c-2.3-2.564-1.056-7.184.535-6.522l11.537,4.8a1,1,0,1,1-.912,1.769l-10.28-4.283a3.081,3.081,0,0,0,.529,2.828,6.5,6.5,0,0,0,2.571,1.838Z" transform="translate(-111.078 -19.028)" fill="#783534"/>
        <path id="Path_1273348" data-name="Path 1273348" d="M29.983,189.428a2.8,2.8,0,0,0-.569-2.9,6.8,6.8,0,0,0-2.762-1.859L20.479,182.1c-1.9-4.415-6.791-5.286-11.135-3.524l-8.35,0A.98.98,0,0,1,0,177.666a.927.927,0,0,1,.811-1.042l8.126-.043a11.125,11.125,0,0,1,4.635-.834,9.174,9.174,0,0,1,8.41,4.827l5.908,2.471c3.274,1.369,5.161,4.3,3.883,7.759a1.7,1.7,0,0,1-.493.809,1.209,1.209,0,0,1-1.209.028l-11.107-4.631a1.015,1.015,0,0,1-.615-1.331,1.028,1.028,0,0,1,1.4-.5Z" transform="translate(0 -140.62)" fill="#783534"/>
        <path id="Path_1273349" data-name="Path 1273349" d="M47.363,91.988a1.025,1.025,0,0,1-.743,1.246.984.984,0,0,1-1.2-.789,20.989,20.989,0,0,1,3.556-16.7c.378-.518.826-.751,1.373-.507a1,1,0,0,1,.4,1.476,18.934,18.934,0,0,0-3.386,15.275" transform="translate(-35.987 -60.126)" fill="#783534"/>
        <path id="Path_1273350" data-name="Path 1273350" d="M226.811,132.134a1.088,1.088,0,0,1-1.373.5.982.982,0,0,1-.443-1.391,19.028,19.028,0,0,0,3.47-15.316.973.973,0,0,1,.549-1.154c.428-.179,1.2-.118,1.332.494a20.86,20.86,0,0,1-3.535,16.867" transform="translate(-179.915 -91.768)" fill="#783534"/>
        <path id="Path_1273351" data-name="Path 1273351" d="M81.884,61.491a1.022,1.022,0,1,1,.107-1.563,1.047,1.047,0,0,1-.107,1.563" transform="translate(-64.148 -47.738)" fill="#783534"/>
        <path id="Path_1273352" data-name="Path 1273352" d="M210.922,210.277a1.023,1.023,0,0,1,1.3.7,1.076,1.076,0,0,1-.672,1.174.953.953,0,0,1-1.336-.564,1.024,1.024,0,0,1,.7-1.31" transform="translate(-168.172 -168.221)" fill="#783534"/>
      </g>
    </g>
    <g id="Group_1182923" data-name="Group 1182923" transform="translate(617 10949)">
      <g id="Group_1182922" data-name="Group 1182922" clip-path="url(#clip-path-24)">
        <path id="Path_1273353" data-name="Path 1273353" d="M14.467.053A15.741,15.741,0,1,1,.06,17.093,15.737,15.737,0,0,1,14.467.053M14.759,2.5A13.283,13.283,0,1,0,28.992,14.752,13.3,13.3,0,0,0,14.759,2.5" transform="translate(-0.001 0)" fill="#854601"/>
        <path id="Path_1273354" data-name="Path 1273354" d="M149.981,143.012a1.234,1.234,0,1,1-2.466.042l.014-7.975a1.218,1.218,0,0,1,2.433,0Z" transform="translate(-133.002 -120.751)" fill="#854601"/>
        <path id="Path_1273355" data-name="Path 1273355" d="M144.414,85.029a1.643,1.643,0,0,1,2.011,1.221,1.66,1.66,0,0,1-3.206.856,1.64,1.64,0,0,1,1.2-2.077" transform="translate(-129.065 -76.617)" fill="#854601"/>
      </g>
    </g>
    <g id="Group_1182925" data-name="Group 1182925" transform="translate(605 11105.769)">
      <g id="Group_1182924" data-name="Group 1182924" clip-path="url(#clip-path-25)">
        <path id="Path_1273356" data-name="Path 1273356" d="M70.768,8.4a15.86,15.86,0,0,1-21.7.029L43.7,3.836a1.187,1.187,0,0,0-1.622-.123,1.105,1.105,0,0,0-.023,1.606L54.381,17.71l.064,4.985-1.809.007L52.6,18.577,40.683,6.5a2.888,2.888,0,0,1,.111-4.058,2.986,2.986,0,0,1,4.1.019l5.2,4.434a15.012,15.012,0,0,0,4.422,2.9,6.436,6.436,0,0,1,1.216-8.238,6.372,6.372,0,0,1,9.546,8.238,14.6,14.6,0,0,0,4.34-2.812l5.6-4.745a2.839,2.839,0,0,1,3.864.29A2.888,2.888,0,0,1,79.111,6.5L67.193,18.581l-.034,4.114-1.81.007.066-4.983,12.408-12.5a1.1,1.1,0,0,0-.112-1.5,1.133,1.133,0,0,0-1.51.029ZM58.976,1.914A4.537,4.537,0,1,0,64.343,5.44a4.511,4.511,0,0,0-5.367-3.526" transform="translate(-32.65 -0.001)" fill="#854601"/>
        <path id="Path_1273357" data-name="Path 1273357" d="M114.952,151.373c-3.55,2.794-11.542,2.536-16.05,1.677a8.2,8.2,0,0,1-3.817-1.68l-.031-4.295a6.257,6.257,0,0,1,5.522-6.141,6.37,6.37,0,1,1,8.893,0,6.465,6.465,0,0,1,5.547,6.7ZM104.1,131.918a4.541,4.541,0,1,0,5.368,3.526,4.51,4.51,0,0,0-5.368-3.526m9.069,18.542.036-3.026a4.473,4.473,0,0,0-4.368-4.687l-7.633,0a4.346,4.346,0,0,0-4.348,4.32l.011,3.391a11.792,11.792,0,0,0,3.57,1.034c3.852.538,9.2.568,12.731-1.034" transform="translate(-77.778 -106.377)" fill="#854601"/>
        <path id="Path_1273358" data-name="Path 1273358" d="M199.533,136.4c4.2.595,9.479.78,13.384-.941l.007-3.393a4.283,4.283,0,0,0-4.177-4.3l-7.805-.03a4.44,4.44,0,0,0-3.608,1.995l-1.493-.985a6.536,6.536,0,0,1,4.459-2.833,6.366,6.366,0,1,1,8.9.018,6.539,6.539,0,0,1,5.551,6.88l-.065,3.558a7.968,7.968,0,0,1-3.657,1.645,32.936,32.936,0,0,1-11.888.149Zm4.307-19.482a4.541,4.541,0,1,0,5.368,3.527,4.51,4.51,0,0,0-5.368-3.527" transform="translate(-160.249 -94.104)" fill="#854601"/>
        <path id="Path_1273359" data-name="Path 1273359" d="M1.763,135.369a8.914,8.914,0,0,0,3.32,1.07,32.538,32.538,0,0,0,10.126-.039,6.047,6.047,0,0,1,.351,1.78,33.386,33.386,0,0,1-11.852-.165,7.94,7.94,0,0,1-3.663-1.65L0,132.259a6.324,6.324,0,0,1,5.533-6.324,6.369,6.369,0,1,1,8.9-.019,6.573,6.573,0,0,1,4.457,2.807l-1.506,1.007a4.357,4.357,0,0,0-3.59-1.993l-7.635.01a4.373,4.373,0,0,0-4.354,4.323Zm7.3-18.451a4.541,4.541,0,1,0,5.368,3.527,4.51,4.51,0,0,0-5.368-3.527" transform="translate(0 -94.104)" fill="#854601"/>
      </g>
    </g>
    <g id="Group_1182927" data-name="Group 1182927" transform="translate(603 11186)">
      <g id="Group_1182926" data-name="Group 1182926" clip-path="url(#clip-path-26)">
        <path id="Path_1273360" data-name="Path 1273360" d="M17.462,47.173a12.745,12.745,0,0,1,0-6.116l-2.283-1.644,3.058-5.3,2.41,1.015c.32.135,1.142-.522,1.09-.884A6.839,6.839,0,0,0,14.754,30.5l-.035,5.743L0,23.466l5.827-5.054A4.637,4.637,0,0,1,6.89,19.724l-4.2,3.75,10.325,9,.055-3.785,2.955.023a8.426,8.426,0,0,1,6.453,3.41l.03-12.6a21.521,21.521,0,0,0-9.377-1.277l-.1-3.782L8.418,18.413l-1.2-1.244,7.45-6.417.086,5.757a21.131,21.131,0,0,1,7.724,1.181l.007-2.954-5.774-.04L29.448,0,42.19,14.7l-5.775.042.006,2.952a21.064,21.064,0,0,1,7.73-1.177l.04-5.805L58.9,23.468,44.2,36.217,44.144,30.5a6.892,6.892,0,0,0-7.037,3.84c.274.363.782.944,1.15.792l2.413-1,3.049,5.274-2.287,1.642a13.008,13.008,0,0,1,.015,6.138l2.268,1.664-3.071,5.283-2.553-1.16a12.256,12.256,0,0,1-5.264,3.051l-.277,2.844H26.34l-.264-2.844A12.178,12.178,0,0,1,20.8,52.973l-2.492,1.192L15.2,48.885ZM43.68,28.689l2.155.013.092,3.754,10.3-9-10.356-9-.1,3.789a21.261,21.261,0,0,0-9.346,1.281l-.061,4.695a5.436,5.436,0,0,1-1.684-.041l0-11.14,3.708-.109L29.449,2.614,20.508,12.941l3.708.1.02,19.87a15.485,15.485,0,0,1,1.892-.717l.217-2.8h6.2l.231,2.786,1.876.614.033-6.855,1.7.02.07,6.149a8.952,8.952,0,0,1,7.226-3.42M30.959,57.141l.29-2.493a10.942,10.942,0,0,0,6.433-3.761l2.281,1.059,1.454-2.614-1.958-1.491a11.142,11.142,0,0,0-.033-7.5l2.007-1.453L39.95,36.33l-2.289,1.018a11.1,11.1,0,0,0-6.47-3.763l-.267-2.479-2.942,0a15.442,15.442,0,0,0-.23,2.476,11,11,0,0,0-6.514,3.775l-2.293-1.028-1.484,2.62,2.017,1.378a11.055,11.055,0,0,0-.037,7.515l-1.963,1.494,1.454,2.609,2.285-1.059A11.18,11.18,0,0,0,27.792,54.7l.191,2.458Z" fill="#783534"/>
        <path id="Path_1273361" data-name="Path 1273361" d="M143.02,72.537l-1.768,0,.006-1.668,1.751.008Z" transform="translate(-115.267 -57.828)" fill="#783534"/>
        <path id="Path_1273362" data-name="Path 1273362" d="M128.164,202.209a6.953,6.953,0,1,1-5.731,8.094,6.913,6.913,0,0,1,5.731-8.094m.9,1.643a5.222,5.222,0,1,0,5.418,4.975,5.182,5.182,0,0,0-5.418-4.975" transform="translate(-99.82 -164.935)" fill="#783534"/>
      </g>
    </g>
  </g>
</svg>
