<svg xmlns="http://www.w3.org/2000/svg" xmlns:xlink="http://www.w3.org/1999/xlink" width="80" height="80" viewBox="0 0 80 80">
  <defs>
    <clipPath id="clip-path">
      <rect id="Rectangle_465043" data-name="Rectangle 465043" width="55.694" height="56.589" fill="#fff"/>
    </clipPath>
  </defs>
  <g id="img41" transform="translate(-175.889 -5521)">
    <rect id="Rectangle_402006" data-name="Rectangle 402006" width="80" height="80" rx="5" transform="translate(175.889 5521)" fill="#854601"/>
    <g id="Group_1190442" data-name="Group 1190442" transform="translate(188.041 5532.706)">
      <g id="Group_1190441" data-name="Group 1190441" clip-path="url(#clip-path)">
        <path id="Path_1274301" data-name="Path 1274301" d="M53.15,54.641c1.191.306,2.491-.2,2.543.968a.924.924,0,0,1-1.042.981H1.048A.925.925,0,0,1,0,55.735a.938.938,0,0,1,1-.977l1.547-.03v-30c.093-.46.377-.839.835-.84l8.583-.014,0-11.288a.941.941,0,0,1,.957-1.025l14.02-.007L26.945.912A.886.886,0,0,1,27.856,0h8.565a.9.9,0,0,1,.767.416.953.953,0,0,1-.034,1.027l-1.52,2.6,1.548,2.685a.9.9,0,0,1,.04.884.862.862,0,0,1-.716.5l-7.736.024.007,3.42,14,.006a.912.912,0,0,1,.946.854l.009,11.459,8.742.035c.406,0,.672.575.677.967ZM33.844,4.675a1.33,1.33,0,0,1,.075-1.353l.874-1.5-6.037-.006,0,4.514L34.736,6.3Zm8.071,19.206,0-10.533H13.785V23.887Zm-8.961,11.06c0,.579-.792.679-1.083.574a.9.9,0,0,1-.658-.877L31.2,25.726l-2.442,0,0,10.946a.9.9,0,1,1-1.806,0l0-10.946-2.438,0-.036,9.03a.844.844,0,0,1-.763.78.917.917,0,0,1-.987-.521L22.7,25.7l-18.33,0,0,29.075,17.021,0V42.351a.868.868,0,0,1,.808-.915H33.5a.873.873,0,0,1,.808.917l0,12.423,17.021,0V25.694L33,25.71ZM26.949,54.734,26.942,43.26H23.228l-.01,11.494Zm5.538,0-.018-11.47H28.755V54.769Z" transform="translate(0 -0.001)" fill="#fff"/>
        <path id="Path_1274302" data-name="Path 1274302" d="M48.107,180.689l-10.275.011a.965.965,0,0,1-1.054-.938l-.005-20.754a.94.94,0,0,1,.87-1.108l10.573-.007a.933.933,0,0,1,.909.947V179.6a1,1,0,0,1-1.016,1.091m-6.085-17.547-.008-3.441-3.445.014.034,3.4a30.459,30.459,0,0,0,3.42.023m5.268-.026L47.3,159.7l-3.461.009v3.456Zm-5.263,5.2-.012-3.325-3.445-.018.041,3.394Zm5.286.007-.012-3.332-3.458-.012v3.366Zm-5.289,5.269-.009-3.4-3.416.016.006,3.414Zm5.286,0-.008-3.4-3.461,0v3.409Zm-5.288,5.279-.006-3.437H38.57l.033,3.408Zm5.287-.018-.007-3.419H43.84v3.44Z" transform="translate(-30.052 -129.066)" fill="#fff"/>
        <path id="Path_1274303" data-name="Path 1274303" d="M209.634,180.685l-10.444-.008a.832.832,0,0,1-.8-.9l.007-21.144a.767.767,0,0,1,.76-.756l10.571-.006a.871.871,0,0,1,.92.947l0,20.952a.945.945,0,0,1-1.007.913M203.6,163.074l-.045-3.389-3.348,0,0,3.465Zm5.227.072-.008-3.463-3.446.009.033,3.4ZM203.58,168.3l-.026-3.337-3.343,0v3.356Zm5.253,0-.012-3.325h-3.448l.044,3.376Zm-5.254,5.27-.024-3.4-3.372.026.025,3.384Zm5.251,0-.011-3.4-3.416.017.019,3.411Zm-5.228,5.2-.045-3.36-3.349,0v3.427Zm5.226.078-.007-3.437-3.447,0,.033,3.392Z" transform="translate(-162.166 -129.049)" fill="#fff"/>
        <path id="Path_1274304" data-name="Path 1274304" d="M91.189,89.712l-5.212,0a.972.972,0,0,1-1.007-1V83.667a.95.95,0,0,1,1.005-.985l5.3-.008a.855.855,0,0,1,.752.779v5.474a.864.864,0,0,1-.844.786m-.967-1.856L90.2,84.483c-1.166.058-2.164.04-3.379.008v3.381Z" transform="translate(-69.457 -67.579)" fill="#fff"/>
        <path id="Path_1274305" data-name="Path 1274305" d="M187.438,89.75l-5.126-.005a.885.885,0,0,1-.938-.958l.011-5.3a.823.823,0,0,1,.749-.768l5.3,0a.951.951,0,0,1,1,.986v5.046a.974.974,0,0,1-1.007,1m-.827-1.87-.024-3.357c-1.209.038-2.211.048-3.377,0v3.387Z" transform="translate(-148.26 -67.613)" fill="#fff"/>
        <path id="Path_1274306" data-name="Path 1274306" d="M139.664,89.753l-5.551,0a.84.84,0,0,1-.759-.777l-.009-5.3a.865.865,0,0,1,.941-.943l5.3,0a.785.785,0,0,1,.746.761l0,5.481a.845.845,0,0,1-.674.779m-1.11-1.855-.036-3.344-3.343,0-.015,3.363Z" transform="translate(-109 -67.625)" fill="#fff"/>
      </g>
    </g>
  </g>
</svg>
