<svg xmlns="http://www.w3.org/2000/svg" xmlns:xlink="http://www.w3.org/1999/xlink" width="249.97" height="245.398" viewBox="0 0 249.97 245.398">
  <defs>
    <clipPath id="clip-path">
      <rect id="Rectangle_465044" data-name="Rectangle 465044" width="128.425" height="128.415" fill="#174165"/>
    </clipPath>
    <clipPath id="clip-path-2">
      <rect id="Rectangle_456707" data-name="Rectangle 456707" width="63.148" height="65.615" fill="#f5b86e"/>
    </clipPath>
    <clipPath id="clip-path-3">
      <rect id="Rectangle_456710" data-name="Rectangle 456710" width="39.995" height="39.996" fill="#6dceff"/>
    </clipPath>
  </defs>
  <g id="img42" transform="translate(-410.059 -9354.421)">
    <g id="Group_1179599" data-name="Group 1179599" transform="translate(414.63 9354.421)">
      <g id="Group_1179591" data-name="Group 1179591" transform="translate(0 0)">
        <circle id="Ellipse_13609" data-name="Ellipse 13609" cx="122.699" cy="122.699" r="122.699" transform="translate(0)" fill="#fff"/>
        <g id="Group_1190444" data-name="Group 1190444" transform="translate(58.274 55.28)">
          <g id="Group_1190443" data-name="Group 1190443" clip-path="url(#clip-path)">
            <path id="Path_1274307" data-name="Path 1274307" d="M128.358,128.406.031,128.415,0,118.034c-.008-2.714,1.667-4.691,4.133-5.825L4.151,80.75a10.339,10.339,0,0,1,8.244-18.417l.027-8.5a20.474,20.474,0,0,1-3.281-.065L4.955,47.231c-2.173-3.391-.282-7.853,3.338-9.42L8.285,20.72l-4.147-.053L4.154,8.3l45.8-.019,9.513-6.827c3.125-2.243,7.18-1.733,10.213.47l8.758,6.361,45.806.014.016,12.357-4.155.069,0,17.079a6.721,6.721,0,0,1,3.2,9.7l-4.059,6.259a21.145,21.145,0,0,1-3.282.072l.042,8.5a10.341,10.341,0,0,1,8.238,18.422l.016,31.444a6.511,6.511,0,0,1,4.157,6.249Zm-23.95-91.054,7.033-.237L67,5.116a4.542,4.542,0,0,0-5.6,0L16.916,37.155a38.283,38.283,0,0,0,7.411,0L64.21,7.742Zm-65.88-20.8,5.5-4.127L8.308,12.4l.018,4.2Zm81.548.033V12.4l-35.694.043,5.641,4.128ZM97.128,37.241,64.219,12.887,31.188,37.279ZM32.387,20.818l-20-.147.059,14.61Zm83.576-.147-20.079.094,20.085,14.5Zm.891,29.063,2.992-4.47a2.639,2.639,0,0,0-.191-2.736,2.754,2.754,0,0,0-2.513-1.12H11.262a2.75,2.75,0,0,0-2.515,1.121,2.651,2.651,0,0,0-.186,2.736l3.05,4.471ZM66.3,95.13l-.012-32.993,16.537,0,0,33.1L87,95.225l0-33.086H103.54l.005,33.139,8.309,0,.017-14.526a10.316,10.316,0,0,1,0-16.544l-.047-10.37H16.571l-.034,10.37a10.32,10.32,0,0,1-.006,16.548l.021,14.536,8.308-.026,0-33.126H41.4l0,33.1,4.173-.014,0-33.086H62.111l.005,33.093a13.586,13.586,0,0,0,4.184-.1M8.675,66.515A6.2,6.2,0,1,0,12,78.458,6.207,6.207,0,0,0,16.331,70.8a6.133,6.133,0,0,0-7.655-4.287M37.3,95.2l-.012-28.918H28.965l.009,29Zm20.715,0L58,66.282H49.679l.009,29Zm20.715,0-.012-28.918H70.394l.009,29Zm20.715,0-.012-28.918H91.109l.009,29Zm16.949-28.685a6.2,6.2,0,1,0,3.321,11.943,6.207,6.207,0,0,0,4.334-7.657,6.133,6.133,0,0,0-7.655-4.287m-103.948,45.2-.018-28.981a39.779,39.779,0,0,1-4.17,0V111.81a14.532,14.532,0,0,0,4.187-.1m107.716,0-.018-28.981a39.779,39.779,0,0,1-4.17,0V111.81a14.532,14.532,0,0,0,4.187-.1m-8.415-8.122a14.939,14.939,0,0,0,.012-4.18H16.628l.018,4.184Zm0,8.286a14.939,14.939,0,0,0,.012-4.18H16.628l.018,4.184ZM124.2,124.3l.079-6.249a2.125,2.125,0,0,0-2.183-2.075l-115.8,0a2.008,2.008,0,0,0-2.151,2.083l.041,6.245Z" transform="translate(0 0)" fill="#174165"/>
            <path id="Path_1274308" data-name="Path 1274308" d="M144.532,50.228a6.112,6.112,0,0,1,7.655,4.286,6.208,6.208,0,1,1-7.655-4.286m.988,4.042a2.029,2.029,0,0,0-1.181,2.755,2.049,2.049,0,1,0,3.739-1.675,2.027,2.027,0,0,0-2.558-1.08" transform="translate(-82.008 -29.282)" fill="#174165"/>
          </g>
        </g>
      </g>
    </g>
    <g id="Group_1182198" data-name="Group 1182198" transform="translate(410.059 9354.421)">
      <g id="Group_1182195" data-name="Group 1182195" transform="translate(181.289 176.933)">
        <g id="Group_1182154" data-name="Group 1182154" clip-path="url(#clip-path-2)">
          <path id="Path_1002486" data-name="Path 1002486" d="M39.117,37.935c-7.14-3.325-4.864-14.812,3.314-8.512,4.837,2.87,2.368,10.427-3.314,8.512m-1.8,16.317c-4.115,1.195-2.73,8.913,1.437,7.851,3.627-.924,3.052-9.155-1.437-7.851M31.7,16.829c-.529-3.774-7.5-3.535-7.092.268.352,3.309,7.669,3.849,7.092-.268M22.1,35.506c-4.877-2.641-8.87,5.149-5.6,8.724,6.276,6.991,11.3-4.6,5.6-8.724M10.185,26.642c4.382-3.5-1.016-10.249-5.391-6.745C.562,23.41,5.827,30,10.185,26.642M50.962,13.631h0a1.622,1.622,0,0,0-2.183,1.275c-1.654,11.015,12.765,2.521,2.183-1.275M14.853,58.9h0a1.623,1.623,0,0,0-2.183,1.275C11.016,71.19,25.434,62.7,14.853,58.9M63.108,40.491C61,34.466,51.79,37.976,54.229,43.876c-.833-.339,9.647,7.809,8.879-3.385M6.445,47.225C4.982,43.044-1.409,45.48.283,49.575c-.578-.236,6.695,5.419,6.162-2.349M14.466,1.074a1.459,1.459,0,0,0,.715-.648Zm.715-.648L15.65,0a2.191,2.191,0,0,0-.469.424" transform="translate(0 -0.001)" fill="#f5b86e"/>
        </g>
      </g>
      <g id="Group_1182194" data-name="Group 1182194" transform="translate(0 0)">
        <g id="Group_1182160" data-name="Group 1182160" transform="translate(0 0)" clip-path="url(#clip-path-3)">
          <path id="Path_1002489" data-name="Path 1002489" d="M33.051,13.054h-6.11V6.944a6.943,6.943,0,1,0-13.887,0v6.11H6.944a6.944,6.944,0,0,0,0,13.887h6.11v6.11a6.943,6.943,0,1,0,13.887,0v-6.11h6.11a6.944,6.944,0,0,0,0-13.887" transform="translate(0 0)" fill="#6dceff"/>
        </g>
      </g>
    </g>
  </g>
</svg>
