<svg xmlns="http://www.w3.org/2000/svg" xmlns:xlink="http://www.w3.org/1999/xlink" width="84" height="84" viewBox="0 0 84 84">
  <defs>
    <clipPath id="clip-path">
      <rect id="Rectangle_465028" data-name="Rectangle 465028" width="59.124" height="59.127" fill="#12263f"/>
    </clipPath>
  </defs>
  <g id="img8" transform="translate(-706 -1685.277)">
    <g id="Group_1177731" data-name="Group 1177731">
      <g id="Group_1119665" data-name="Group 1119665" transform="translate(530.111 -3835.723)">
        <path id="Path_991847" data-name="Path 991847" d="M5,0H79a5,5,0,0,1,5,5V79a5,5,0,0,1-5,5H5a5,5,0,0,1-5-5V5A5,5,0,0,1,5,0Z" transform="translate(175.889 5521)" fill="#aae5ff"/>
      </g>
      <g id="Group_1190412" data-name="Group 1190412" transform="translate(718.438 1697.714)">
        <g id="Group_1190411" data-name="Group 1190411" clip-path="url(#clip-path)">
          <path id="Path_1274226" data-name="Path 1274226" d="M34.381,54.183a4.9,4.9,0,1,1,.012-1.945l7.227-.019a8.761,8.761,0,0,1,1.694-7.475L38.566,40a13.762,13.762,0,0,1-18,0l-4.744,4.756a8.862,8.862,0,1,1-8.183-3.279l-1.5-6a5.9,5.9,0,1,1,5.6-6.87l4.089-.025a13.549,13.549,0,0,1,3.317-8.01l-4.764-4.739a8.869,8.869,0,1,1,3.272-8.267L24.7,5.214a4.918,4.918,0,0,1,9.76.236,4.895,4.895,0,0,1-3.927,5.308l.027,5.068a13.53,13.53,0,0,1,8.006,3.309l4.743-4.761a8.861,8.861,0,1,1,9.976,2.852l.8,6.528a5.882,5.882,0,0,1-.155,11.655l-2.3,6.083A8.856,8.856,0,1,1,42.339,54.2ZM12.2,11.055a4.833,4.833,0,0,1,2.215,1.932,6.893,6.893,0,1,0-11.066,0,5.076,5.076,0,0,1,2.22-1.947,3.948,3.948,0,0,1,5.948-5.087,4.039,4.039,0,0,1,.684,5.1m41.365,0a4.832,4.832,0,0,1,2.215,1.932,6.892,6.892,0,1,0-11.066,0,5.078,5.078,0,0,1,2.22-1.947,3.95,3.95,0,1,1,6.631.016M28.775,3.093A2.939,2.939,0,0,0,30.33,8.761a2.939,2.939,0,1,0-1.555-5.668M8.283,7.017a1.92,1.92,0,0,0-1.211,2.59,1.984,1.984,0,0,0,2.407,1.148,1.962,1.962,0,1,0-1.2-3.738m41.365,0a1.92,1.92,0,0,0-1.211,2.59,1.984,1.984,0,0,0,2.407,1.148,1.962,1.962,0,1,0-1.2-3.738M28.6,15.809l-.025-5.086a4.835,4.835,0,0,1-3.768-3.472L17.724,9.564a9.148,9.148,0,0,1-1.89,4.82L20.57,19.14A13.6,13.6,0,0,1,28.6,15.809M12.805,14.548a1.819,1.819,0,0,0-1.775-1.69l-4.294,0a1.787,1.787,0,0,0-1.748,1.717,6.91,6.91,0,0,0,7.817-.025m41.365,0a1.819,1.819,0,0,0-1.775-1.69l-4.294,0a1.787,1.787,0,0,0-1.748,1.717,6.91,6.91,0,0,0,7.817-.025M47.419,28.582A5.774,5.774,0,0,1,52.1,23.759l-.754-6.077a8.844,8.844,0,0,1-6.595-1.863L40,20.579a13.538,13.538,0,0,1,3.31,8ZM28.185,17.843A11.811,11.811,0,1,0,41.3,28.178,11.8,11.8,0,0,0,28.185,17.843M5.126,25.72a3.932,3.932,0,1,0,1.6,7.7,3.932,3.932,0,1,0-1.6-7.7m47.273,0a3.932,3.932,0,1,0,4.658,3.04,3.891,3.891,0,0,0-4.658-3.04M14.444,43.291l4.694-4.731a13.551,13.551,0,0,1-3.314-8H11.71a5.733,5.733,0,0,1-3.636,4.512l1.589,6.347a9.616,9.616,0,0,1,4.779,1.87M49.61,41.367l2.231-6.075A5.749,5.749,0,0,1,47.4,30.536l-4.095.027a13.5,13.5,0,0,1-3.309,8l4.759,4.749a9.513,9.513,0,0,1,4.856-1.944M12.2,52.42a4.829,4.829,0,0,1,2.215,1.932,6.893,6.893,0,1,0-11.066,0A5.084,5.084,0,0,1,5.572,52.4a3.948,3.948,0,0,1,5.948-5.087,4.039,4.039,0,0,1,.684,5.1m41.365,0a4.829,4.829,0,0,1,2.215,1.932,6.892,6.892,0,1,0-11.067,0A5.093,5.093,0,0,1,46.936,52.4a3.95,3.95,0,1,1,6.631.016M8.283,48.382a1.92,1.92,0,0,0-1.211,2.59A1.984,1.984,0,0,0,9.479,52.12a1.962,1.962,0,1,0-1.2-3.738m41.365,0a1.92,1.92,0,0,0-1.211,2.59,1.984,1.984,0,0,0,2.407,1.148,1.962,1.962,0,1,0-1.2-3.738M28.966,50.333a2.914,2.914,0,0,0-2.24,3.648,2.945,2.945,0,0,0,5.723-1.388,2.9,2.9,0,0,0-3.483-2.26M12.8,55.912a1.818,1.818,0,0,0-1.774-1.69l-4.295,0a1.788,1.788,0,0,0-1.748,1.718,6.908,6.908,0,0,0,7.817-.026m41.365,0a1.818,1.818,0,0,0-1.774-1.69l-4.295,0a1.788,1.788,0,0,0-1.748,1.718,6.908,6.908,0,0,0,7.817-.026" transform="translate(0 0)" fill="#12263f"/>
          <path id="Path_1274227" data-name="Path 1274227" d="M133.059,132.216c.172,2.06-1.042,3.595-2.877,3.647a3.045,3.045,0,0,1-3.066-3.555,5.891,5.891,0,0,0-.748-3.937,5.1,5.1,0,0,1,.29-6.874,4.962,4.962,0,0,1,6.762-.092,5.035,5.035,0,0,1,.459,6.839,5.718,5.718,0,0,0-.821,3.973m-1.882-2.272a6.623,6.623,0,0,1,1.282-3.131,2.954,2.954,0,1,0-4.74,0,7.578,7.578,0,0,1,1.32,3.148Zm-.126,2.016-1.926,0a2.555,2.555,0,0,0,.117,1.417.913.913,0,0,0,.93.5c.818-.06,1.029-.829.88-1.922" transform="translate(-100.523 -96.459)" fill="#12263f"/>
          <path id="Path_1274228" data-name="Path 1274228" d="M147.119,98a.96.96,0,0,1-.9,1.067.949.949,0,0,1-1.056-.973V96.138a.973.973,0,1,1,1.946,0Z" transform="translate(-116.571 -76.416)" fill="#12263f"/>
          <path id="Path_1274229" data-name="Path 1274229" d="M121.48,107.853c-1.049-.81-1.681-1.659-1.081-2.365a.99.99,0,0,1,1.329-.136c1.056.761,1.744,1.687,1.139,2.41a1.006,1.006,0,0,1-1.387.09" transform="translate(-96.497 -84.444)" fill="#12263f"/>
          <path id="Path_1274230" data-name="Path 1274230" d="M167.909,106.735c-.764,1.06-1.681,1.748-2.4,1.137a.991.991,0,0,1-.136-1.328c.761-1.055,1.691-1.746,2.4-1.139a.99.99,0,0,1,.136,1.329" transform="translate(-132.64 -84.461)" fill="#12263f"/>
        </g>
      </g>
    </g>
  </g>
</svg>
