<svg xmlns="http://www.w3.org/2000/svg" xmlns:xlink="http://www.w3.org/1999/xlink" width="80" height="80" viewBox="0 0 80 80">
  <defs>
    <clipPath id="clip-path">
      <rect id="Rectangle_465015" data-name="Rectangle 465015" width="59.75" height="59.773" fill="#fff"/>
    </clipPath>
  </defs>
  <g id="img15" transform="translate(-175.889 -5521)">
    <rect id="Rectangle_402006" data-name="Rectangle 402006" width="80" height="80" rx="5" transform="translate(175.889 5521)" fill="#854601"/>
    <g id="Group_1190386" data-name="Group 1190386" transform="translate(186.013 5531.113)">
      <g id="Group_1190385" data-name="Group 1190385" clip-path="url(#clip-path)">
        <path id="Path_1274100" data-name="Path 1274100" d="M38.671,224.386c1.248-.8,1.13,1.218,3.04,2.7.666.518,1.26,1.42,2.206,1.509a37.274,37.274,0,0,0,4.85-.148l5.915-3.714a2.462,2.462,0,0,0-3.514-1.024l-3.531,1.835c-.659.342-.95-.733-1.231-1.1a5.7,5.7,0,0,0-4.15-1.841.882.882,0,0,1-.906-.691c-.47-1.935,4.628-.954,6.6,1.564l1.851-1.034a21.954,21.954,0,0,0-8.237-2.729,3.9,3.9,0,0,0-3.474,1.047l-9.79,9.764a.983.983,0,0,1-1.193.254c-.276-.142-.636-.857-.294-1.2l10.343-10.312a4.943,4.943,0,0,1,3.765-1.326,22.991,22.991,0,0,1,10.838,3.634l4.3-2.292a3.7,3.7,0,0,1,5.22,2.377A3.237,3.237,0,0,1,63,224.048a4.729,4.729,0,0,1,1.686,1.714,1.817,1.817,0,0,1-.787,2.306l-8.33,4.8-8.7-2.544-1.7.065a4.629,4.629,0,0,1-4.09-1.512l-6.609,7.654c-.406.47-.945.669-1.409.224a.93.93,0,0,1,.072-1.378l6.627-7.624c-1.058-1.271-2.016-2.781-1.1-3.37M55.4,222.791a14.86,14.86,0,0,1,3.5-1.7,2.026,2.026,0,0,0-2.3-.144l-2.088,1.184a5.312,5.312,0,0,1,.884.663m4.19,1.242a3.2,3.2,0,0,1,1.316-.345c-1.082-1.537-2.815-.633-4.487.636a7.316,7.316,0,0,1-.411,1.639Zm-9.152,5.458L55.331,231l7.724-4.482a1.849,1.849,0,0,0-2.457-.992l-5.128,2.7-2.172-.539Z" transform="translate(-21.693 -177.232)" fill="#fff"/>
        <path id="Path_1274101" data-name="Path 1274101" d="M226.4,107.04c.723,1.315-1.181,1.161-2.08,2.99-1.088,2.215-.314,3.97-1.745,3.733a.856.856,0,0,1-.723-.925c.066-2.047.942-4.505,2.656-5.646l-1.046-1.881a21.156,21.156,0,0,0-2.788,8.387,3.794,3.794,0,0,0,1.042,3.279l9.59,9.6a.983.983,0,0,1,.234,1.2.908.908,0,0,1-1.288.218l-10.026-10.082a5.368,5.368,0,0,1-1.248-4.653,23.791,23.791,0,0,1,3.592-9.928l-2.211-4.069a3.588,3.588,0,0,1-.1-3.424,3.639,3.639,0,0,1,2.378-2.036,3.366,3.366,0,0,1,2.4-1.7,4.108,4.108,0,0,1,1.355-1.5,1.851,1.851,0,0,1,2.631.549l4.821,8.4-2.507,8.664.1,2.38a4.2,4.2,0,0,1-1.6,3.394l7.468,6.417c.467.4.655.947.219,1.41-.389.413-.9.339-1.376-.073l-7.438-6.449a6.308,6.308,0,0,1-1.929,1.317.928.928,0,0,1-1.372-.13.893.893,0,0,1,.433-1.377,5.846,5.846,0,0,0,2.584-2.113c.449-.583,1.2-1.121,1.171-2.032l-.15-4.4-3.653-6.106a2.4,2.4,0,0,0-1.059,3.564Zm4.087-2.371,1.485-4.93-4.463-7.759a2.165,2.165,0,0,0-.755,3.118l2.458,4.511-.579,2.169Zm-3.548-5.519-1.789-3.375a4.524,4.524,0,0,1-.51-1.61,1.9,1.9,0,0,0-.55,2.494l1.174,2.139a2.417,2.417,0,0,1,1.675.351m-3.837,1.388.628-.917a15.848,15.848,0,0,1-1.687-3.454,2.416,2.416,0,0,0,.059,2.656Z" transform="translate(-178.021 -73.417)" fill="#fff"/>
        <path id="Path_1274102" data-name="Path 1274102" d="M6.671,46.984c.307-1.093-.968-3.544,1.452-5.778L.468,34.6c-.462-.4-.665-.946-.219-1.41a.932.932,0,0,1,1.378.067l7.62,6.629c1.377-1.152,3-2.091,3.429-.964.487,1.283-1.321.981-2.76,2.918-.473.637-1.5,1.241-1.495,2.223,0,1.468-.257,3.339.284,4.764L12.215,54.8a2.22,2.22,0,0,0,1.272-3l-2.029-4.048c-.325-.648.714-.947,1.089-1.232,2.312-1.759,1.306-4.755,2.541-5.054,1.93-.467.965,4.641-1.573,6.606l1.047,1.851a22.1,22.1,0,0,0,2.728-8.237,3.9,3.9,0,0,0-1.05-3.474l-9.764-9.79a.985.985,0,0,1-.254-1.192c.14-.277.86-.635,1.2-.295L17.731,37.271a5.128,5.128,0,0,1,1.318,4.144,23.49,23.49,0,0,1-3.626,10.463l2.182,4.039a3.661,3.661,0,0,1,.129,3.453,3.773,3.773,0,0,1-2.4,2.017,3.189,3.189,0,0,1-2.375,1.731,4.56,4.56,0,0,1-1.494,1.54,1.734,1.734,0,0,1-2.45-.535l-4.85-8.368a4.608,4.608,0,0,1,.546-1.78.857.857,0,0,1,1.246-.142c.437.361.314.962.029,1.515l4.483,7.819a1.875,1.875,0,0,0,.97-2.584L8.78,55.588l.537-2.177-1.79-2.9c-.236.642-.668.966-1.074.906a.879.879,0,0,1-.683-1.227Zm9.255,11.987a1.85,1.85,0,0,0,.187-2.122l-1.256-2.2a3.006,3.006,0,0,1-.645.843,18.643,18.643,0,0,1,1.714,3.482m-3.181-2.335c-.368-.312-1.231-.18-1.7-.5l1.895,3.519a3.187,3.187,0,0,1,.372,1.375c1.517-1.075.692-2.7-.569-4.39" transform="translate(0 -21.787)" fill="#fff"/>
        <path id="Path_1274103" data-name="Path 1274103" d="M112.735,15.939c-2.049-.061-4.5-.941-5.642-2.652-.652.38-1.217.7-1.882,1.038,1.553,1.094,3.469,1.21,3.172,2.362a.888.888,0,0,1-1.166.605,31.4,31.4,0,0,1-4.006-2.067l-4.05,2.206a3.549,3.549,0,0,1-3.424.1A3.636,3.636,0,0,1,93.7,15.155a3.38,3.38,0,0,1-1.7-2.4,3.809,3.809,0,0,1-1.626-1.594,1.823,1.823,0,0,1,.672-2.391l8.4-4.827,8.689,2.524c.92.267,3.527-.995,5.741,1.49l6.7-7.744A.827.827,0,0,1,121.8.357a.933.933,0,0,1-.159,1.286l-6.446,7.439a6.29,6.29,0,0,1,1.316,1.928.927.927,0,0,1-.128,1.373A.9.9,0,0,1,115,11.95a5.8,5.8,0,0,0-2.114-2.584c-.581-.445-1.122-1.23-2.032-1.17-1.441.1-3.132-.172-4.5.191l-5.991,3.625a2.23,2.23,0,0,0,2.772,1.351c2.6-.93,4.447-3.155,5.189-1.459.706,1.614,2.862,2.173,4.758,2.353.493.047.636.614.58.96a.855.855,0,0,1-.926.723M99.558,8.546l2.122.607L104.6,7.314l-4.926-1.5-7.8,4.469c.692,1.287,2.073,1.331,3.241.692Zm-.887,3.935a2.9,2.9,0,0,1,.415-1.653L95.8,12.58a4.865,4.865,0,0,1-1.734.572c1.214,1.5,2.842.512,4.605-.671m-.135,3.308,1.912-1.072a3.639,3.639,0,0,0-.942-.662,21.956,21.956,0,0,1-3.3,1.721,2.1,2.1,0,0,0,2.333.014" transform="translate(-73.337 0)" fill="#fff"/>
        <path id="Path_1274104" data-name="Path 1274104" d="M116.493,133.443l3.666,3.6,6.253-6.292a3.967,3.967,0,0,0-5.6-5.622,1,1,0,0,1-1.458-.083,3.966,3.966,0,0,0-5.506,5.7.882.882,0,0,1-.072,1.068c-.188.228-.81.468-1.137.144a5.646,5.646,0,0,1-.276-7.679,5.756,5.756,0,0,1,7.774-.9,5.74,5.74,0,0,1,7.778,8.336l-6.523,6.522a1.807,1.807,0,0,1-2.5.007l-3.46-3.455a.887.887,0,0,1-.133-1.06.778.778,0,0,1,1.194-.285" transform="translate(-90.264 -99.434)" fill="#fff"/>
        <path id="Path_1274105" data-name="Path 1274105" d="M200.777,45.252c-.656-.1-1.007-.422-1-.925a.9.9,0,0,1,1.15-.837l1.481.248a3.966,3.966,0,0,0,3.6-.985l9.608-9.578a.924.924,0,0,1,1.206-.24.905.905,0,0,1,.2,1.276l-9.783,9.784c-1.988,1.988-4.049,1.613-6.454,1.258" transform="translate(-162.463 -26.676)" fill="#fff"/>
      </g>
    </g>
  </g>
</svg>
