<svg xmlns="http://www.w3.org/2000/svg" xmlns:xlink="http://www.w3.org/1999/xlink" width="84" height="84" viewBox="0 0 84 84">
  <defs>
    <clipPath id="clip-path">
      <rect id="Rectangle_465014" data-name="Rectangle 465014" width="60.555" height="60.63" fill="#12263f"/>
    </clipPath>
  </defs>
  <g id="img6" transform="translate(-706 -1685.277)">
    <g id="Group_1177731" data-name="Group 1177731">
      <g id="Group_1119665" data-name="Group 1119665" transform="translate(530.111 -3835.723)">
        <path id="Path_991847" data-name="Path 991847" d="M5,0H79a5,5,0,0,1,5,5V79a5,5,0,0,1-5,5H5a5,5,0,0,1-5-5V5A5,5,0,0,1,5,0Z" transform="translate(175.889 5521)" fill="#aae5ff"/>
      </g>
      <g id="Group_1190384" data-name="Group 1190384" transform="translate(714.723 1696.963)">
        <g id="Group_1190383" data-name="Group 1190383" clip-path="url(#clip-path)">
          <path id="Path_1274090" data-name="Path 1274090" d="M29.059,140.079H3.539c-.83,0-1.42-1.122-1.436-1.725l-.062-2.434a3.858,3.858,0,0,1-1.486-.1A1.154,1.154,0,0,1,0,134.735l.044-3.461A3.8,3.8,0,0,1,3.7,127.485l4.119-.039a4.111,4.111,0,0,1,.908-3.53,3.868,3.868,0,0,1,3.508-1,37.955,37.955,0,0,0-1.868-10.576c-1.345-4.333-2.762-9.006.739-12.189a7.681,7.681,0,0,1,10.245-.145c3.648,3.152,2.341,7.717.977,12.137a37.881,37.881,0,0,0-1.909,10.7,10.329,10.329,0,0,1,2.423.212,3.791,3.791,0,0,1,2.251,4.376c1.445.149,2.84-.13,4.305.117a4.01,4.01,0,0,1,3.187,3.962l-.085,3.75c-.016.7-1.169.809-1.884.6l-.095,2.557c-.022.594-.541,1.657-1.462,1.657M18.4,122.776a41.824,41.824,0,0,1,2.2-12.367,18.033,18.033,0,0,0,.95-5.49,5.067,5.067,0,0,0-5.485-4.606,4.966,4.966,0,0,0-4.972,4.6,15.55,15.55,0,0,0,.893,5.258,43.263,43.263,0,0,1,2.242,12.7Zm12.063,11.044-.005-2.271a1.9,1.9,0,0,0-1.661-1.906l-12.332-.037a1.03,1.03,0,0,1-1.1-1.028,1.074,1.074,0,0,1,1.073-1.109l6.472-.035c.173-.771.079-2.008-.642-2.3l-11.145-.09a1.112,1.112,0,0,0-1.1.809,4.9,4.9,0,0,0-.04,1.611h2.106a1.073,1.073,0,1,1-.025,2.144l-8.169.011A1.665,1.665,0,0,0,2.24,131.2l-.031,2.625Zm-2.085,4.238,0-2.131-24.073,0,.008,2.133Z" transform="translate(0 -79.474)" fill="#12263f"/>
          <path id="Path_1274091" data-name="Path 1274091" d="M107.381,47.775l7.725-.034L115.1,3.477c0-.409-.293-1.234-.776-1.234l-41.734-.01c-.627,0-.946.674-.947,1.185l-.022,11.957a1.026,1.026,0,0,1-1.056.908c-.414,0-1.057-.326-1.055-.91l.045-12.339C69.556,1.118,71.322,0,73.148,0l41.144.048a2.978,2.978,0,0,1,2.55,1.868l.006,48.85L107.042,60.6l-15.278.033a1.073,1.073,0,0,1-.5-1.345c.168-.521.638-.7,1.256-.7l11.656,0,.033-7.394a3.339,3.339,0,0,1,3.172-3.413m-.946,10.257,8.069-8.055-6.987-.032a1.172,1.172,0,0,0-1.158.986Z" transform="translate(-56.293 -0.001)" fill="#12263f"/>
          <path id="Path_1274092" data-name="Path 1274092" d="M179.064,28.857a10.03,10.03,0,1,1-8.192,11.6,10.021,10.021,0,0,1,8.192-11.6m.568,2.09a7.876,7.876,0,1,0,8.92,6.652,7.838,7.838,0,0,0-8.92-6.652" transform="translate(-138.277 -23.251)" fill="#12263f"/>
          <path id="Path_1274093" data-name="Path 1274093" d="M183.463,185.14l-21.538-.007a1.117,1.117,0,0,1-1.1-.946c-.064-.351.162-1.186.748-1.186h22.335c.575,0,.8.839.736,1.19a1.129,1.129,0,0,1-1.185.949" transform="translate(-130.252 -148.218)" fill="#12263f"/>
          <path id="Path_1274094" data-name="Path 1274094" d="M211.136,156.433l-15.041-.009a1.2,1.2,0,0,1-1.1-1.043,1.121,1.121,0,0,1,1.1-1.144l15.12,0a1.1,1.1,0,1,1-.074,2.2" transform="translate(-157.927 -124.919)" fill="#12263f"/>
          <path id="Path_1274095" data-name="Path 1274095" d="M211.231,213.487l-15.163,0a1.186,1.186,0,0,1-1.073-1.052,1.111,1.111,0,0,1,1.1-1.134l15.406.036c.557,0,.876.76.844,1.125a1.134,1.134,0,0,1-1.112,1.03" transform="translate(-157.93 -171.135)" fill="#12263f"/>
          <path id="Path_1274096" data-name="Path 1274096" d="M172.758,154.2a1.091,1.091,0,0,1,1.418.588,1.107,1.107,0,0,1-.676,1.482,1.071,1.071,0,0,1-1.343-.586,1.087,1.087,0,0,1,.6-1.484" transform="translate(-139.347 -124.827)" fill="#12263f"/>
          <path id="Path_1274097" data-name="Path 1274097" d="M138.325,182.819a1.127,1.127,0,0,1,1.516.5,1.083,1.083,0,0,1-.451,1.42,1.106,1.106,0,0,1-1.517-.367,1.091,1.091,0,0,1,.452-1.549" transform="translate(-111.535 -147.972)" fill="#12263f"/>
          <path id="Path_1274098" data-name="Path 1274098" d="M172.878,211.258a1.034,1.034,0,0,1,1.308.8,1.1,1.1,0,0,1-.843,1.357,1.122,1.122,0,0,1-1.276-.772,1.107,1.107,0,0,1,.81-1.387" transform="translate(-139.321 -171.071)" fill="#12263f"/>
          <path id="Path_1274099" data-name="Path 1274099" d="M202.877,70.172c-1.05-1.133-2.045-2.185-3.125-3.219a1.11,1.11,0,0,1-.053-1.566,1.1,1.1,0,0,1,1.59.031l2.381,2.4,4.111-4.905a1.077,1.077,0,0,1,1.6,1.4l-4.727,5.708a1.146,1.146,0,0,1-1.776.148" transform="translate(-161.5 -50.756)" fill="#12263f"/>
        </g>
      </g>
    </g>
  </g>
</svg>
