<svg xmlns="http://www.w3.org/2000/svg" xmlns:xlink="http://www.w3.org/1999/xlink" width="84" height="84" viewBox="0 0 84 84">
  <defs>
    <clipPath id="clip-path">
      <rect id="Rectangle_465024" data-name="Rectangle 465024" width="61.983" height="64.043" fill="#12263f"/>
    </clipPath>
  </defs>
  <g id="img11" transform="translate(-706 -1685.277)">
    <g id="Group_1177731" data-name="Group 1177731">
      <g id="Group_1119665" data-name="Group 1119665" transform="translate(530.111 -3835.723)">
        <path id="Path_991847" data-name="Path 991847" d="M5,0H79a5,5,0,0,1,5,5V79a5,5,0,0,1-5,5H5a5,5,0,0,1-5-5V5A5,5,0,0,1,5,0Z" transform="translate(175.889 5521)" fill="#aae5ff"/>
      </g>
      <g id="Group_1190404" data-name="Group 1190404" transform="translate(717.008 1695.256)">
        <g id="Group_1190403" data-name="Group 1190403" clip-path="url(#clip-path)">
          <path id="Path_1274159" data-name="Path 1274159" d="M175.791,197.455c-2.239-1.939-.1-4.237-.38-4.6-.216-.286-.44-.234-.752-.05a25.513,25.513,0,0,1-7.639,2.936,3.47,3.47,0,0,1-1.431-6.789,19.449,19.449,0,0,0,3.51-1.116l.011-3.794a3.305,3.305,0,0,1,1.186-2.595c2.7-2.171,2.908-3.933,5.612-3.953l3.551-.027a19.737,19.737,0,0,0,1.128-3.536,3.464,3.464,0,0,1,4.258-2.543,3.538,3.538,0,0,1,2.447,4.433,29.659,29.659,0,0,1-2.745,7.08c-.1.186.514.688.695.544a2.993,2.993,0,0,1,4.158,4.3l2.243,2.357c1.323,1.39.491,3.407-.976,4.347a3.322,3.322,0,0,1-.74,2.443l-3.512,3.464a2.671,2.671,0,0,1-3.719-.083l-2.953-2.886a2.963,2.963,0,0,1-3.953.076m-4.937-8.385c-2.833,1.736-6.325,1.137-6.066,3.455a1.561,1.561,0,0,0,1.923,1.35,22.969,22.969,0,0,0,7.5-2.988,6.808,6.808,0,0,1,8.569-8.747,23.979,23.979,0,0,0,2.713-6.9,1.63,1.63,0,0,0-1.279-2.052c-2.228-.358-1.693,2.479-3.393,5.788-.188.365-.763.4-1.127.409l-4.71.072c-1.3,1.6-3.878,3.582-3.9,4.147Zm16.906-.258-3.923-3.892a4.773,4.773,0,0,0-6.651.123c-1.769,1.707-2.2,4.723-.426,6.539l2.428,2.483,2.873-2.842c2.061-2.038,4.284-.024,5.7-2.411m.234-2.384a1.076,1.076,0,0,0,.063-1.447,1.031,1.031,0,0,0-1.568-.064Zm-2.82,12.479,3.672-3.79c-.242-.452-.551-.93-.447-1.27.241-.787,2.187-1.151,1.957-2.176a2.782,2.782,0,0,0-1.369-1.486c-2.049,2.954-4.181,1.017-5.663,2.469l-2.782,2.727L184.16,199a.712.712,0,0,0,1.014-.1m-6.779-2.882-1.521-1.5a1.1,1.1,0,0,0,.129,1.525,1.063,1.063,0,0,0,1.393-.023" transform="translate(-130.323 -137.019)" fill="#12263f"/>
          <path id="Path_1274160" data-name="Path 1274160" d="M187.888,27.227a6.961,6.961,0,0,0,1.578-7.211,7.2,7.2,0,0,0-5.146-4.666c-.445-.109-.523-.718-.452-1.058.392-1.869,5.616.551,7.219,4.709a8.877,8.877,0,0,1-1.456,9.067L185.4,32.4a28.728,28.728,0,0,1,1.995,6.079,3.476,3.476,0,0,1-6.868,1.069,14.475,14.475,0,0,0-1.083-3.305l-3.73-.01a3.337,3.337,0,0,1-2.748-1.337c-1.838-2.442-3.852-2.716-3.855-5.338l-.005-3.7c-1.329-.556-2.587-.8-3.894-1.212a3.438,3.438,0,0,1,1.505-6.663,23.122,23.122,0,0,1,5.806,1.814l4.453-4.381c1.129-1.111,3.866-2.477,4.4-1.2.6,1.425-1.771,1.157-3.4,2.8l-4.774,4.82c-.719.726-.1,1.934.716,2.344a6.115,6.115,0,0,1,1.253-2.574l3.074-3.119a1.022,1.022,0,0,1,1.552,0l3.317,3.288c.463.459,2.237-.352,2.943.734a1.523,1.523,0,0,1-.1,1.741c-.344.512.841.885.966,1.623a1.138,1.138,0,0,1-.438,1.044L183.66,29.7a7.431,7.431,0,0,1-2.789,1.461,2.215,2.215,0,0,0,1.06.911,1.545,1.545,0,0,0,1.518-.39Zm-3.508,13.289c2.287-.6.568-4.046-.492-6.839a3.385,3.385,0,0,1-3.8-.51l-2.438-2.274a7.066,7.066,0,0,1-3.47-3.466L171.908,25a3.417,3.417,0,0,1-.6-3.682,23.01,23.01,0,0,0-4.84-1.508,1.581,1.581,0,0,0-1.677,1.475,1.611,1.611,0,0,0,1.3,1.7,15.908,15.908,0,0,1,4.812,1.749l.077,4.947c.02,1.267,1.727,1.776,3.48,4.118a1.71,1.71,0,0,0,1.444.581l4.707.056c1.844,2.7,1.246,6.736,3.763,6.075m.36-14.509a2,2,0,0,1-.986-2.247c-.561.014-1.2.077-1.559-.278L179,20.358l-2.323,2.36a4.015,4.015,0,0,0,5.875,5.459Z" transform="translate(-130.337 -10.921)" fill="#12263f"/>
          <path id="Path_1274161" data-name="Path 1274161" d="M22.281,21.529c-2.139,1.689-2.974,3.716-4.7,3.741l-4.272.062a23.692,23.692,0,0,0-1.226,3.8,3.448,3.448,0,0,1-4.023,2.324,3.4,3.4,0,0,1-2.644-4.019,25.245,25.245,0,0,1,3.119-8.054c-.013-.172-.519-.432-.674-.321a2.972,2.972,0,0,1-4-.21,2.9,2.9,0,0,1-.01-4.053L.745,11.662a2.639,2.639,0,0,1-.09-3.573L8.452.3c.755-.754,1.721.067,2.264.574a6.678,6.678,0,0,1,2.337,4.587A3.061,3.061,0,0,1,17.3,5.386a2.952,2.952,0,0,1,.153,4.091c-.058.175.352.643.518.555a25.536,25.536,0,0,1,8.014-2.971,3.37,3.37,0,0,1,3.778,2.695,3.415,3.415,0,0,1-2.414,4.038,28.07,28.07,0,0,0-3.7,1.167l-.039,3.876a3.358,3.358,0,0,1-1.334,2.693M4.646,12.892l5.678-5.711a2.9,2.9,0,0,0,.023-3.891L9.174,2.158,2.444,8.874c-.288.287-.53.527-.526.868a1.2,1.2,0,0,0,.343.825ZM16.039,8.151a.949.949,0,0,0-.046-1.431,1.032,1.032,0,0,0-1.422-.014ZM9.333,17.576a4.741,4.741,0,0,0,6.493-.235,4.653,4.653,0,0,0,.183-6.527L12.584,7.33l-.842,1.06L5.917,14.227Zm8.124,5.814c.5-.015.937-.6,1.166-.9,1.4-1.839,3.114-2.608,3.131-3.475l.108-5.245a17.773,17.773,0,0,1,4.756-1.684,1.61,1.61,0,0,0,1.288-2.044,1.667,1.667,0,0,0-2.17-1.08,26.041,26.041,0,0,0-7.02,2.849,6.642,6.642,0,0,1-8.5,8.426,24,24,0,0,0-2.992,7.62,1.523,1.523,0,0,0,1.29,1.77c2.475.364,1.759-3.24,3.6-6.078ZM6.611,17.567,5.17,16.136a1.03,1.03,0,0,0,.113,1.5.962.962,0,0,0,1.327-.066" transform="translate(0 0)" fill="#12263f"/>
          <path id="Path_1274162" data-name="Path 1274162" d="M17.047,180.916a.771.771,0,0,1,.36-.967c.322-.206,1-.27,1.208.108l1.244,2.277a6.65,6.65,0,0,1,8.516,8.606,23.357,23.357,0,0,0,7.4,2.96,1.591,1.591,0,0,0,1.954-1.169,1.639,1.639,0,0,0-1.267-1.953,17.321,17.321,0,0,1-4.826-1.754l-.07-5.14c-.008-.61-.527-.915-.9-1.293l-2.277-2.3c-.5-.5-.81-.9-1.606-.884a28.8,28.8,0,0,1-4.833-.1c-1.871-2.7-1.223-6.793-3.836-6.039a1.687,1.687,0,0,0-1.029,2.1l.272,1.123a.881.881,0,0,1-.707,1.125.972.972,0,0,1-1.156-.86,6.973,6.973,0,0,1-.306-2.5,3.448,3.448,0,0,1,6.759-.349,17.716,17.716,0,0,0,1.179,3.625l4.043.013a3.446,3.446,0,0,1,2.724,1.631c1.485,2,3.508,2.448,3.514,4.693l.011,3.96a15.269,15.269,0,0,0,3.329,1.08,3.474,3.474,0,0,1,2.864,3.877,3.423,3.423,0,0,1-3.767,3,24.1,24.1,0,0,1-7.986-2.965c-.212-.121-.324-.212-.505-.076s-.214.341-.026.58a2.845,2.845,0,0,1-.316,3.864,2.99,2.99,0,0,1-4.106-.029,6.631,6.631,0,0,1-9.276-9.313,2.933,2.933,0,0,1-.072-4.119,2.9,2.9,0,0,1,4.1-.12c.16.034.545-.326.473-.473Zm5.323,14.226L25.5,192a4.725,4.725,0,0,0,.212-6.606,4.626,4.626,0,0,0-6.633-.416l-3.876,3.886a4.765,4.765,0,0,0,7.163,6.276m-6-10.152a1.008,1.008,0,0,0-1.41-.028.908.908,0,0,0-.022,1.448Zm7.954,10.849a1,1,0,0,0,1.466-.061,1.152,1.152,0,0,0,.018-1.4Z" transform="translate(-9.799 -137.047)" fill="#12263f"/>
          <path id="Path_1274163" data-name="Path 1274163" d="M117.174,119.4a9.269,9.269,0,1,0-2.5,2.691.97.97,0,0,1,1.233.4.959.959,0,0,1-.256,1.174,11.17,11.17,0,1,1,3.2-3.4.948.948,0,0,1-1.229.512.929.929,0,0,1-.443-1.386" transform="translate(-78.464 -82.645)" fill="#12263f"/>
          <path id="Path_1274164" data-name="Path 1274164" d="M140.737,160.549c1.871.1,1.143-2.176,2.406-2.371.3-.047.936.247.984.691a3.3,3.3,0,1,1-6.581.034.929.929,0,0,1,.956-.727c1.289.125.517,2.279,2.235,2.372" transform="translate(-110.033 -126.547)" fill="#12263f"/>
          <path id="Path_1274165" data-name="Path 1274165" d="M129.9,144.606a.987.987,0,0,1,.477,1.907.922.922,0,0,1-1.191-.6.981.981,0,0,1,.713-1.305" transform="translate(-103.312 -115.671)" fill="#12263f"/>
          <path id="Path_1274166" data-name="Path 1274166" d="M170.15,144.625a.972.972,0,0,1,1.148.646.955.955,0,1,1-1.809.608.989.989,0,0,1,.661-1.254" transform="translate(-135.561 -115.68)" fill="#12263f"/>
          <path id="Path_1274167" data-name="Path 1274167" d="M241.258,244.811c-.013,1.374-2.023.408-1.976,1.7a1.027,1.027,0,0,1-.579,1.12.884.884,0,0,1-1.16-.4,2.446,2.446,0,0,1,.368-2.411,2.624,2.624,0,0,1,2.387-.97.935.935,0,0,1,.959.96" transform="translate(-189.907 -195.084)" fill="#12263f"/>
          <path id="Path_1274168" data-name="Path 1274168" d="M241.2,266.427a.969.969,0,0,1,1.322.45.924.924,0,0,1-.376,1.279.986.986,0,0,1-.946-1.729" transform="translate(-192.607 -213.063)" fill="#12263f"/>
          <path id="Path_1274169" data-name="Path 1274169" d="M260.377,247.26a.973.973,0,0,1,1.392.375.918.918,0,0,1-.217,1.185,1.05,1.05,0,0,1-1.374-.193.961.961,0,0,1,.2-1.367" transform="translate(-207.998 -197.696)" fill="#12263f"/>
          <path id="Path_1274170" data-name="Path 1274170" d="M235.722,68.476c-.037.88,1.379.221,1.68,1.214a.9.9,0,0,1-.479,1.058,2.2,2.2,0,0,1-2.2-.37,2.407,2.407,0,0,1-.85-2.062.93.93,0,0,1,.934-.986c.638-.021.947.442.918,1.146" transform="translate(-187.104 -53.867)" fill="#12263f"/>
          <path id="Path_1274171" data-name="Path 1274171" d="M238.039,55.057a.906.906,0,0,1,1.288.311.973.973,0,0,1-.311,1.286,1,1,0,0,1-1.221-.164.912.912,0,0,1,.244-1.434" transform="translate(-190.049 -43.929)" fill="#12263f"/>
          <path id="Path_1274172" data-name="Path 1274172" d="M255.16,72.171a.958.958,0,0,1,1.23.326.988.988,0,0,1-.308,1.3.974.974,0,0,1-1.32-.292.917.917,0,0,1,.4-1.333" transform="translate(-203.706 -57.662)" fill="#12263f"/>
          <path id="Path_1274173" data-name="Path 1274173" d="M57.958,68.7a.927.927,0,0,1-.678-1.133c.274-.964,1.327-.555,1.72-.871s-.1-1.537.912-1.753a.913.913,0,0,1,1.083.651A2.566,2.566,0,0,1,57.958,68.7" transform="translate(-45.803 -51.945)" fill="#12263f"/>
          <path id="Path_1274174" data-name="Path 1274174" d="M63.275,50.7a1.027,1.027,0,0,1,1.2.645.932.932,0,0,1-.55,1.189.994.994,0,0,1-1.214-.518.921.921,0,0,1,.568-1.315" transform="translate(-50.095 -40.537)" fill="#12263f"/>
          <path id="Path_1274175" data-name="Path 1274175" d="M43.593,70.325a.954.954,0,0,1,1.194.587.906.906,0,0,1-.5,1.206,1.028,1.028,0,0,1-1.236-.479.911.911,0,0,1,.548-1.314" transform="translate(-34.351 -56.228)" fill="#12263f"/>
          <path id="Path_1274176" data-name="Path 1274176" d="M57.812,247.3c.12-1.291-1.746-.389-1.958-1.54a.94.94,0,0,1,.611-1.106,2.522,2.522,0,0,1,3.037,3.254.929.929,0,0,1-1.077.466.947.947,0,0,1-.613-1.074" transform="translate(-44.671 -195.651)" fill="#12263f"/>
          <path id="Path_1274177" data-name="Path 1274177" d="M61.907,268.569a.988.988,0,0,1,1.071.68,1,1,0,0,1-.709,1.171.92.92,0,0,1-1.191-.688.967.967,0,0,1,.828-1.164" transform="translate(-48.846 -214.858)" fill="#12263f"/>
          <path id="Path_1274178" data-name="Path 1274178" d="M41.989,249.116a.9.9,0,0,1,1.327.437.959.959,0,0,1-.487,1.218,1.01,1.01,0,0,1-1.265-.41.912.912,0,0,1,.425-1.245" transform="translate(-33.17 -199.196)" fill="#12263f"/>
        </g>
      </g>
    </g>
  </g>
</svg>
