<svg xmlns="http://www.w3.org/2000/svg" xmlns:xlink="http://www.w3.org/1999/xlink" width="84" height="84" viewBox="0 0 84 84">
  <defs>
    <clipPath id="clip-path">
      <rect id="Rectangle_465025" data-name="Rectangle 465025" width="61.324" height="61.304" fill="#12263f"/>
    </clipPath>
  </defs>
  <g id="img13" transform="translate(-706 -1685.277)">
    <g id="Group_1177731" data-name="Group 1177731">
      <g id="Group_1119665" data-name="Group 1119665" transform="translate(530.111 -3835.723)">
        <path id="Path_991847" data-name="Path 991847" d="M5,0H79a5,5,0,0,1,5,5V79a5,5,0,0,1-5,5H5a5,5,0,0,1-5-5V5A5,5,0,0,1,5,0Z" transform="translate(175.889 5521)" fill="#aae5ff"/>
      </g>
      <g id="Group_1190406" data-name="Group 1190406" transform="translate(717.338 1696.626)">
        <g id="Group_1190405" data-name="Group 1190405" clip-path="url(#clip-path)">
          <path id="Path_1274179" data-name="Path 1274179" d="M48.508,183.511l-.026,4.52,8.227,3.266a2.092,2.092,0,0,1,1.455,1.952l-.01,2.939a.872.872,0,0,1-.942.832.935.935,0,0,1-.861-.955l-.036-2.679H5.006l-.037,2.677a.917.917,0,0,1-.861.958.874.874,0,0,1-.941-.832l-.008-2.949a1.952,1.952,0,0,1,1.2-1.812l8.482-3.4-.011-4.414A3.826,3.826,0,0,0,9,179.856l-5.54-.02a1.59,1.59,0,0,0-1.682,1.534l-.049,15.056c0,.512-.712.65-1,.576A.916.916,0,0,1,0,196.057l.033-14.922a3.389,3.389,0,0,1,2.685-3.078,5.971,5.971,0,1,1,8.583-8.3,6.021,6.021,0,0,1-.407,8.614,5.6,5.6,0,0,1,3.678,4.854l.071,4.5,6.624-.021.028-4.087a5.694,5.694,0,0,1,5.083-5.569,5.98,5.98,0,1,1,8.567,0,5.7,5.7,0,0,1,5.082,5.57l.029,4.09,6.657,0,.06-4.666c.028-2.124,1.66-3.793,3.654-4.668a5.981,5.981,0,1,1,8.021-8.871,5.946,5.946,0,0,1,.145,8.555,3.466,3.466,0,0,1,2.731,3.46l-.011,14.541a.909.909,0,0,1-.718.95c-.287.074-1-.07-1-.58l-.049-15.055a1.591,1.591,0,0,0-1.681-1.535l-5.542.02a3.783,3.783,0,0,0-3.814,3.655M6.333,169.729a4.179,4.179,0,1,0,4.744,3.477,4.162,4.162,0,0,0-4.744-3.477m23.75-.007a4.182,4.182,0,1,0,4.717,3.55,4.185,4.185,0,0,0-4.717-3.55m23.753,0a4.177,4.177,0,1,0,4.683,3.593,4.173,4.173,0,0,0-4.683-3.593m-1.445,21.911-4.907-2.086-16.974-.015c-.54,0-.7-.674-.663-1.017a.756.756,0,0,1,.7-.772l7.651-.036L38.2,183.6a3.766,3.766,0,0,0-3.729-3.73H26.846a3.7,3.7,0,0,0-3.707,3.536l-.022,4.3,3.294.024a.9.9,0,0,1,.962.959.914.914,0,0,1-.941.863l-12.59,0-4.91,2.084Z" transform="translate(0 -135.721)" fill="#12263f"/>
          <path id="Path_1274180" data-name="Path 1274180" d="M59.674,11.456c.112-1,3-.006,3.011-1.366l.05-7.21a1.069,1.069,0,0,0-1.011-1.115l-22.659-.01A1.126,1.126,0,0,0,37.923,2.9L37.938,9.9a1.033,1.033,0,0,0,1.083,1.019l6.092.038c.456,0,.611.543.613.831a.805.805,0,0,1-.774.869L38.429,12.6a2.568,2.568,0,0,1-2.265-2.427L36.177,2.5A2.585,2.585,0,0,1,38.658.039L61.614,0a2.691,2.691,0,0,1,2.85,2.492l0,7.668A2.8,2.8,0,0,1,61.359,12.7a2,2,0,0,1-.866,2.169,1.7,1.7,0,0,1-2.135-.312L56.4,12.667l-7.43-.012a.827.827,0,0,1-.809-.871.815.815,0,0,1,.814-.861l8.338.022,2.173,2.148Z" transform="translate(-29.235 0)" fill="#12263f"/>
          <path id="Path_1274181" data-name="Path 1274181" d="M19.093,91.772l-2.1,2.014a1.685,1.685,0,0,1-2.044.107,2.1,2.1,0,0,1-.759-2.107c-1.355.067-3.059-.857-3.062-2.359l-.018-7.885a2.667,2.667,0,0,1,2.67-2.462l18.193.024a2.892,2.892,0,0,1,2.652,3l-.057,7.06a2.7,2.7,0,0,1-2.778,2.6Zm-.774-1.789,13.273.006a1.087,1.087,0,0,0,1.182-1.146V81.93a.965.965,0,0,0-1-1.033l-17.989,0a.922.922,0,0,0-.94.886l-.023,7.046c-.006,1.843,2.4.7,2.926,1.48.34.5.187,1.139.23,1.877Z" transform="translate(-8.98 -63.929)" fill="#12263f"/>
          <path id="Path_1274182" data-name="Path 1274182" d="M208.015,82a1.038,1.038,0,0,0-1.141-1.155l-3.727-.026a.854.854,0,0,1-.854-.924.91.91,0,0,1,.936-.869l3.664-.005a2.724,2.724,0,0,1,2.835,2.479l.005,7.685a2.818,2.818,0,0,1-3.1,2.554,2.045,2.045,0,0,1-.748,2.1,1.7,1.7,0,0,1-2.04-.106l-2.06-2-12.743-.011a2.706,2.706,0,0,1-2.777-2.6l-.057-7.054a2.882,2.882,0,0,1,2.643-3L199,79.028a.934.934,0,0,1,.883.878.9.9,0,0,1-.955.932l-9.883.018a.983.983,0,0,0-1.006,1.031l0,6.915a1.069,1.069,0,0,0,1.011,1.128l13.5.024,2.306,2.184c.032-.727-.116-1.374.224-1.873.534-.784,2.924.382,2.925-1.481Z" transform="translate(-150.532 -63.884)" fill="#12263f"/>
          <path id="Path_1274183" data-name="Path 1274183" d="M101.662,20.731H88.827a.882.882,0,0,1-1-.893c0-.53.37-.872,1-.872H101.66a.889.889,0,1,1,0,1.764" transform="translate(-71.002 -15.332)" fill="#12263f"/>
          <path id="Path_1274184" data-name="Path 1274184" d="M68.83,39.7l-13.092.018a.832.832,0,0,1-.788-.885.821.821,0,0,1,.792-.869l13.006,0a.8.8,0,0,1,.778.705c.07.333-.073,1.033-.7,1.033" transform="translate(-44.422 -30.69)" fill="#12263f"/>
          <path id="Path_1274185" data-name="Path 1274185" d="M238.243,118.8l-10.342.017a.878.878,0,0,1-.965-.742c-.056-.315.091-1,.617-1l10.686-.027a.851.851,0,0,1,.838.858.871.871,0,0,1-.834.893" transform="translate(-183.446 -94.623)" fill="#12263f"/>
          <path id="Path_1274186" data-name="Path 1274186" d="M214.37,99.83l-8.148-.005a.9.9,0,1,1,.013-1.8l8.382.024c.449,0,.718.581.722.865a.9.9,0,0,1-.969.916" transform="translate(-165.985 -79.244)" fill="#12263f"/>
          <path id="Path_1274187" data-name="Path 1274187" d="M58.495,20.677l-2.586.047a.885.885,0,1,1,0-1.761l2.3.006a.87.87,0,0,1,.91.72c.067.333-.069.978-.625.988" transform="translate(-44.413 -15.33)" fill="#12263f"/>
          <path id="Path_1274188" data-name="Path 1274188" d="M271.912,99.716l-2.766.016c-.489,0-.7-.521-.678-.876a.911.911,0,0,1,.874-.882l2.3-.015a.927.927,0,0,1,.988.7.826.826,0,0,1-.72,1.056" transform="translate(-217.03 -79.191)" fill="#12263f"/>
          <path id="Path_1274189" data-name="Path 1274189" d="M40.963,118.761l-10.431,0a.879.879,0,0,1-.834-.892.9.9,0,0,1,1.022-.873l10.5.034c.464,0,.627.559.628.83a.841.841,0,0,1-.885.9" transform="translate(-24.007 -94.578)" fill="#12263f"/>
          <path id="Path_1274190" data-name="Path 1274190" d="M71.666,99.805l-8.149.033a.913.913,0,1,1-.18-1.813l8.223,0a.891.891,0,0,1,.9.721.867.867,0,0,1-.789,1.064" transform="translate(-50.487 -79.241)" fill="#12263f"/>
          <path id="Path_1274191" data-name="Path 1274191" d="M33.3,99.687c-1.739.308-3.624.224-3.595-.857a.923.923,0,0,1,1.015-.876l2.118,0a.987.987,0,0,1,1.007.635.809.809,0,0,1-.545,1.1" transform="translate(-24.011 -79.184)" fill="#12263f"/>
        </g>
      </g>
    </g>
  </g>
</svg>
