<svg xmlns="http://www.w3.org/2000/svg" xmlns:xlink="http://www.w3.org/1999/xlink" width="97.668" height="98.001" viewBox="0 0 97.668 98.001">
  <defs>
    <clipPath id="clip-path">
      <rect id="Rectangle_465021" data-name="Rectangle 465021" width="54.529" height="54.596" fill="#174165"/>
    </clipPath>
    <clipPath id="clip-path-2">
      <rect id="Rectangle_456707" data-name="Rectangle 456707" width="25.382" height="26.373" fill="#f5b86e"/>
    </clipPath>
    <clipPath id="clip-path-3">
      <rect id="Rectangle_456710" data-name="Rectangle 456710" width="16.076" height="16.076" fill="#6dceff"/>
    </clipPath>
  </defs>
  <g id="img15" transform="translate(-411.451 -9354.88)">
    <g id="Group_1179599" data-name="Group 1179599" transform="translate(411.451 9355.213)">
      <g id="Group_1179591" data-name="Group 1179591" transform="translate(0 0)">
        <circle id="Ellipse_13609" data-name="Ellipse 13609" cx="48.834" cy="48.834" r="48.834" fill="#fff"/>
        <g id="Group_1190398" data-name="Group 1190398" transform="translate(21.569 21.536)">
          <g id="Group_1190397" data-name="Group 1190397" clip-path="url(#clip-path)">
            <path id="Path_1274129" data-name="Path 1274129" d="M47.858,53.58,37.746,43.527c-.566-.563-.422-1.531-.47-2.257l-6.342-7.141a18.9,18.9,0,0,1-13.1,4.082,19.127,19.127,0,1,1,17.006-8.181l6.528,7.341a3.128,3.128,0,0,1,2.261.609l9.543,9.375a4.151,4.151,0,0,1,.405,5.709,3.931,3.931,0,0,1-5.718.518M17.8,2.108A17.215,17.215,0,1,0,36.327,17.893,17.219,17.219,0,0,0,17.8,2.108M38.237,39.655l1.4-1.358-5.928-6.678L32.286,33.06Zm10.647,12.56a2.339,2.339,0,0,0,3.3-.2,2.267,2.267,0,0,0-.176-3.162L43.1,39.873c-.5-.5-1.35-1.076-1.934-.5l-1.895,1.876a1.307,1.307,0,0,0,.173,1.593Z" transform="translate(0 0)" fill="#174165"/>
            <path id="Path_1274130" data-name="Path 1274130" d="M63.4,225.723a4.825,4.825,0,0,1,.077,1.85l-31.9-.048a4.311,4.311,0,0,1-4.3-4.18l-.064-9.377,1.849,0-.006,9.023a2.638,2.638,0,0,0,2.648,2.734Z" transform="translate(-22.571 -177.461)" fill="#174165"/>
            <path id="Path_1274131" data-name="Path 1274131" d="M220.786,62.23l.006-29.8a2.614,2.614,0,0,0-2.559-2.765l-10.107-.04.032-1.832,10.078.045a4.4,4.4,0,0,1,4.358,4.473l.033,29.924Z" transform="translate(-172.616 -23.051)" fill="#174165"/>
            <path id="Path_1274132" data-name="Path 1274132" d="M76.483,258.1H48.406a6.72,6.72,0,0,1,.038-1.825H76.487Z" transform="translate(-40.111 -212.548)" fill="#174165"/>
            <path id="Path_1274133" data-name="Path 1274133" d="M73.033,236.949l-24.451,0,0-1.826,24.439,0Z" transform="translate(-40.29 -195.009)" fill="#174165"/>
            <path id="Path_1274134" data-name="Path 1274134" d="M231.948,56.339l-8.1.016-.023-1.807h8.1a4.809,4.809,0,0,1,.02,1.792" transform="translate(-185.637 -45.24)" fill="#174165"/>
            <path id="Path_1274135" data-name="Path 1274135" d="M240.89,82.757l-6.3,0V80.9l6.291-.006Z" transform="translate(-194.563 -67.093)" fill="#174165"/>
            <path id="Path_1274136" data-name="Path 1274136" d="M240.887,135.838l-6.306.007,0-1.845,6.285.012a6.927,6.927,0,0,1,.017,1.826" transform="translate(-194.558 -111.137)" fill="#174165"/>
            <path id="Path_1274137" data-name="Path 1274137" d="M240.885,109.434l-6.289.007,0-1.765,6.274-.005a5.21,5.21,0,0,1,.016,1.763" transform="translate(-194.569 -89.301)" fill="#174165"/>
            <path id="Path_1274138" data-name="Path 1274138" d="M240.914,162.584l-6.307-.006,0-1.776h6.283Z" transform="translate(-194.577 -133.366)" fill="#174165"/>
            <path id="Path_1274139" data-name="Path 1274139" d="M245.294,189.094l-5.4-.037,0-1.771,5.418.005Z" transform="translate(-198.964 -155.332)" fill="#174165"/>
            <path id="Path_1274140" data-name="Path 1274140" d="M35.581,22.773A15.4,15.4,0,1,1,22.192,40.085,15.376,15.376,0,0,1,35.581,22.773m1.542,1.7A13.592,13.592,0,1,0,51.047,37.71,13.582,13.582,0,0,0,37.123,24.473" transform="translate(-18.294 -18.79)" fill="#174165"/>
            <path id="Path_1274141" data-name="Path 1274141" d="M47.48,87.2a6.251,6.251,0,0,1,1.958-2.128A14.477,14.477,0,0,1,69.78,87.294a14.49,14.49,0,0,1-22.3-.1m9.352,3.325a3.976,3.976,0,0,1-1.963-3.408,4.112,4.112,0,0,1,1.9-3.235,12.525,12.525,0,0,0-7.036,3.291,12.39,12.39,0,0,0,7.094,3.352m10.524-3.341a12.137,12.137,0,0,0-7.025-3.294,3.844,3.844,0,0,1,1.853,3.536,3.789,3.789,0,0,1-2.169,3.144,13.149,13.149,0,0,0,7.341-3.386m-8.99-1.791a1.8,1.8,0,0,0-1.6,2.118,1.833,1.833,0,0,0,1.98,1.478,1.868,1.868,0,0,0,1.6-1.99,1.83,1.83,0,0,0-1.974-1.606" transform="translate(-39.379 -67.915)" fill="#174165"/>
            <path id="Path_1274142" data-name="Path 1274142" d="M88.064,61.614l-12.642.011V59.8l12.6,0Z" transform="translate(-62.554 -49.597)" fill="#174165"/>
            <path id="Path_1274143" data-name="Path 1274143" d="M88.034,157.4l-12.6,0,0-1.743,12.593-.01Z" transform="translate(-62.565 -129.096)" fill="#174165"/>
          </g>
        </g>
      </g>
    </g>
    <g id="Group_1182198" data-name="Group 1182198" transform="translate(412.044 9354.88)">
      <g id="Group_1182195" data-name="Group 1182195" transform="translate(71.386 71.627)">
        <g id="Group_1182154" data-name="Group 1182154" clip-path="url(#clip-path-2)">
          <path id="Path_1002486" data-name="Path 1002486" d="M15.723,15.248c-2.87-1.337-1.955-5.954,1.332-3.421,1.944,1.154.952,4.191-1.332,3.421M15,21.807c-1.654.48-1.1,3.582.578,3.156,1.458-.371,1.227-3.68-.578-3.156M12.74,6.765c-.212-1.517-3.013-1.421-2.851.108.141,1.33,3.083,1.547,2.851-.108M8.883,14.272c-1.96-1.061-3.565,2.07-2.253,3.506,2.522,2.81,4.541-1.849,2.253-3.506M4.094,10.709A1.736,1.736,0,0,0,1.927,8a1.737,1.737,0,0,0,2.167,2.711m16.39-5.23h0a.652.652,0,0,0-.878.512c-.665,4.427,5.131,1.013.878-.512M5.97,23.675h0a.652.652,0,0,0-.878.512c-.665,4.427,5.13,1.013.878-.512m19.4-7.4A1.91,1.91,0,1,0,21.8,17.636c-.335-.136,3.877,3.139,3.569-1.361M2.591,18.982a1.325,1.325,0,1,0-2.477.944c-.232-.095,2.691,2.178,2.477-.944M5.815.432A.586.586,0,0,0,6.1.172ZM6.1.172,6.291,0A.881.881,0,0,0,6.1.172" transform="translate(0 -0.001)" fill="#f5b86e"/>
        </g>
      </g>
      <g id="Group_1182194" data-name="Group 1182194" transform="translate(0 0)">
        <g id="Group_1182160" data-name="Group 1182160" transform="translate(0 0)" clip-path="url(#clip-path-3)">
          <path id="Path_1002489" data-name="Path 1002489" d="M13.285,5.247H10.829V2.791a2.791,2.791,0,1,0-5.582,0V5.247H2.791a2.791,2.791,0,0,0,0,5.582H5.247v2.456a2.791,2.791,0,1,0,5.582,0V10.829h2.456a2.791,2.791,0,0,0,0-5.582" transform="translate(0 0)" fill="#6dceff"/>
        </g>
      </g>
    </g>
  </g>
</svg>
