<svg xmlns="http://www.w3.org/2000/svg" xmlns:xlink="http://www.w3.org/1999/xlink" width="97.668" height="98" viewBox="0 0 97.668 98">
  <defs>
    <clipPath id="clip-path">
      <rect id="Rectangle_465022" data-name="Rectangle 465022" width="64.371" height="64.323" fill="#174165"/>
    </clipPath>
    <clipPath id="clip-path-2">
      <rect id="Rectangle_456707" data-name="Rectangle 456707" width="25.382" height="26.373" fill="#f5b86e"/>
    </clipPath>
    <clipPath id="clip-path-3">
      <rect id="Rectangle_456710" data-name="Rectangle 456710" width="16.076" height="16.076" fill="#6dceff"/>
    </clipPath>
  </defs>
  <g id="img16" transform="translate(-411.393 -9354.88)">
    <g id="Group_1179599" data-name="Group 1179599" transform="translate(411.393 9354.88)">
      <g id="Group_1179591" data-name="Group 1179591" transform="translate(0 0)">
        <circle id="Ellipse_13609" data-name="Ellipse 13609" cx="48.834" cy="48.834" r="48.834" fill="#fff"/>
        <g id="Group_1190400" data-name="Group 1190400" transform="translate(16.649 12.782)">
          <g id="Group_1190399" data-name="Group 1190399" clip-path="url(#clip-path)">
            <path id="Path_1274144" data-name="Path 1274144" d="M91.677,127.638a2.787,2.787,0,0,1-4.3.607,2.656,2.656,0,0,1-4.022.567l-6.145-6.094a2.267,2.267,0,0,1-2.563,1.039l-2.02-.494a2.146,2.146,0,0,1-1.531-2.78l2.775-11.622a1.884,1.884,0,0,1,2.208-1.38l2.768.648a1.827,1.827,0,0,1,1.3,1.675l2.363,0c-1.624-2.464-2.982-8.77-1.363-9.185l7.038-1.807c2.467.052,4.88,1.459,7.289,1.992.545.121.465,1.344.4,1.667a14.411,14.411,0,0,1-2.319,7.691,2.815,2.815,0,0,0,2.719.767c-.345-1.4.176-2.626,1.5-2.914l2.442-.53a1.993,1.993,0,0,1,2.338,1.711l2.664,11.3a2.078,2.078,0,0,1-1.371,2.715l-2.564.612a1.9,1.9,0,0,1-1.748-.592l-1.486.179c-.125,1.385-1.224,1.762-2.21,2.372-.475.615-.692,1.647-1.431,1.907a2.864,2.864,0,0,1-2.739-.04m-3.436-15.6c3.659-1.679,5.5-5.791,5.473-9.584l-5.555-1.687-5.55,1.68c-.037,3.811,1.927,8.188,5.633,9.591m-12.9,9.536,2.685-11.489-2.175-.5-2.745,11.6a5.2,5.2,0,0,0,2.234.385m27.869-.392-2.748-11.6-2.172.5,2.727,11.586ZM93.292,124.7l-4.51-4.466a1.086,1.086,0,1,1,1.537-1.533l4.894,4.822c.21.207.667-.152.722-.34a.794.794,0,0,0-.213-.8l-5.415-5.366a1.239,1.239,0,0,0-1.582-.088l-1.664,1.122a5.06,5.06,0,0,1-5.555.117A2.121,2.121,0,0,1,81.063,115l2.66-3.035h-4l-1.936,8.355,6.933,6.91a.576.576,0,0,0,.815-.047.618.618,0,0,0,.035-.776l-2.014-2.02a1.079,1.079,0,0,1-.064-1.571c.56-.546,1.184-.317,1.672.168L89,126.8a.642.642,0,0,0,.832-.153c.054-.136.14-.486-.033-.663l-3.843-3.952c-.421-.433-.06-1.259.321-1.454a1.126,1.126,0,0,1,1.438.3L92.5,125.6a.644.644,0,0,0,1.009.044c.236-.286.129-.608-.217-.951m-5.91-9.42a3.394,3.394,0,0,1,4.312.144l5.735,5.673a.99.99,0,0,0,1.265,0L96.828,113a5.781,5.781,0,0,1-4.654-1.095c-1.219.936-2.459,2.122-4,2.29-.923.1-1.722-.737-2.541-1.111l-2.989,3.279a2.541,2.541,0,0,0,2.849.108Z" transform="translate(-55.977 -77.883)" fill="#174165"/>
            <path id="Path_1274145" data-name="Path 1274145" d="M123.491,10.982l-6.286-.04a3.379,3.379,0,0,0-3.4,2.773l-.086,3.53a1.008,1.008,0,0,1-1.059.954,1.018,1.018,0,0,1-1.022-1.075l.012-3.184c.01-2.657,2.074-4.657,4.841-5.074a7.419,7.419,0,0,1-1.11-4.446,4.819,4.819,0,0,1,9.6,0,7.377,7.377,0,0,1-1.109,4.443,5.377,5.377,0,0,1,4.855,5.29v2.972a1.022,1.022,0,0,1-1.023,1.075,1.01,1.01,0,0,1-1.058-.954l-.086-3.539a3.1,3.1,0,0,0-3.069-2.726m-2.038-2.644a4.385,4.385,0,0,0,1.424-2.95,2.779,2.779,0,0,0-2.6-3.287,2.747,2.747,0,0,0-2.819,2.931,4.989,4.989,0,0,0,.962,2.834,2.107,2.107,0,0,0,3.035.472" transform="translate(-87.996 0)" fill="#174165"/>
            <path id="Path_1274146" data-name="Path 1274146" d="M235.136,182.26l-6.594-.075a3.252,3.252,0,0,0-3.351,2.943l-.051,3.39a.966.966,0,0,1-1.149.912,1.048,1.048,0,0,1-.944-1.133l.017-3.167c.014-2.614,2.1-4.535,4.811-5.047a7.173,7.173,0,0,1-.925-5.253,4.809,4.809,0,0,1,9.437.745,6.949,6.949,0,0,1-1.111,4.5,5.635,5.635,0,0,1,4.909,5.682l-.008,2.537a1.049,1.049,0,0,1-.95,1.137.969.969,0,0,1-1.146-.911l-.015-2.99a3.168,3.168,0,0,0-2.932-3.271m-.859-6.461a2.654,2.654,0,0,0-2.837-2.452,2.7,2.7,0,0,0-2.534,2.883c.075,2.016,1.1,3.842,2.708,3.807,1.743-.038,2.8-2.055,2.663-4.239" transform="translate(-175.815 -134.978)" fill="#174165"/>
            <path id="Path_1274147" data-name="Path 1274147" d="M11.942,182.232l-6.619-.018a3.364,3.364,0,0,0-3.216,3.529l0,2.78a.967.967,0,0,1-1.144.913A1.054,1.054,0,0,1,.01,188.3L0,185.761a5.633,5.633,0,0,1,4.909-5.682,6.947,6.947,0,0,1-1.111-4.5,4.808,4.808,0,0,1,9.568,0,6.956,6.956,0,0,1-1.111,4.5c2.659.463,4.85,2.369,4.865,5.056l.018,3.167a1.051,1.051,0,0,1-.944,1.134.97.97,0,0,1-1.149-.911l-.052-3.4a3.116,3.116,0,0,0-3.052-2.9m-1.674-3.025a4.792,4.792,0,0,0,1.006-3.193,2.68,2.68,0,0,0-2.694-2.667A2.64,2.64,0,0,0,5.909,175.8a4.57,4.57,0,0,0,1.117,3.552,2.107,2.107,0,0,0,3.241-.147" transform="translate(0 -134.981)" fill="#174165"/>
            <path id="Path_1274148" data-name="Path 1274148" d="M102.35,267.6a1.113,1.113,0,0,1,1.457-.072,1.069,1.069,0,0,1,.132,1.507,28.043,28.043,0,0,1-34.614,0,1.063,1.063,0,0,1,1.5-1.5,25.972,25.972,0,0,0,31.526.063" transform="translate(-54.447 -210.69)" fill="#174165"/>
            <path id="Path_1274149" data-name="Path 1274149" d="M218.164,72.51c.1.957-.343,1.36-1.025,1.4-.563.03-1.014-.351-1.08-1.084a26.127,26.127,0,0,0-14.977-21.26,1.039,1.039,0,0,1-.636-1.332,1.053,1.053,0,0,1,1.5-.592A28.241,28.241,0,0,1,218.164,72.51" transform="translate(-157.951 -39.033)" fill="#174165"/>
            <path id="Path_1274150" data-name="Path 1274150" d="M21.685,72.741c-.085.878-.489,1.23-1.09,1.212A1.038,1.038,0,0,1,19.567,72.7,28.21,28.21,0,0,1,35.793,49.684a1.077,1.077,0,0,1,1.439.45,1.014,1.014,0,0,1-.432,1.4A26.16,26.16,0,0,0,21.685,72.741" transform="translate(-15.417 -39.073)" fill="#174165"/>
            <path id="Path_1274151" data-name="Path 1274151" d="M129.025,67.7a1.074,1.074,0,0,1-.94,1.178.935.935,0,0,1-1.148-.861l-.01-2.748a1.044,1.044,0,0,1,1.1-.959,1.077,1.077,0,0,1,.992,1.182Z" transform="translate(-100.049 -50.685)" fill="#174165"/>
            <path id="Path_1274152" data-name="Path 1274152" d="M169.3,67.68a1.018,1.018,0,0,1-.991,1.176,1.051,1.051,0,0,1-1.126-1.087V65.46a1.091,1.091,0,0,1,.989-1.187,1.041,1.041,0,0,1,1.1.967Z" transform="translate(-131.779 -50.659)" fill="#174165"/>
            <path id="Path_1274153" data-name="Path 1274153" d="M240.309,239a1.062,1.062,0,0,1-.995,1.23,1.05,1.05,0,0,1-1.125-1.144v-2.3a1.061,1.061,0,0,1,.751-1.056c.512-.151,1.28.029,1.3.649Z" transform="translate(-187.75 -185.769)" fill="#174165"/>
            <path id="Path_1274154" data-name="Path 1274154" d="M57.688,239.175a1.044,1.044,0,0,1-.923,1.03c-1.339.249-1.373-1.634-1.114-3.838a.931.931,0,0,1,1.114-.689,1.1,1.1,0,0,1,.93,1.1Z" transform="translate(-43.766 -185.762)" fill="#174165"/>
            <path id="Path_1274155" data-name="Path 1274155" d="M17.451,239.223a.956.956,0,0,1-.967,1.015,1.024,1.024,0,0,1-1.08-.952l.011-2.637a1.018,1.018,0,0,1,.874-.943c.455-.074,1.1.122,1.112.685Z" transform="translate(-12.143 -185.781)" fill="#174165"/>
            <path id="Path_1274156" data-name="Path 1274156" d="M280.907,239.161a1.039,1.039,0,0,1-1.082,1.075,1.007,1.007,0,0,1-.981-1.12l.062-2.729c.013-.561.654-.759,1.114-.684a1.015,1.015,0,0,1,.871.945Z" transform="translate(-219.796 -185.779)" fill="#174165"/>
            <path id="Path_1274157" data-name="Path 1274157" d="M136.995,125.963a1.125,1.125,0,0,1-.377-1.354,1.02,1.02,0,0,1,1.425-.478,3.3,3.3,0,0,1,.993.839l1.928-2.041c.315-.334.618-.656,1.054-.656a1.153,1.153,0,0,1,1.023.807c.31.8-1.678,2.434-3.086,4.116a1.071,1.071,0,0,1-1.6.041Z" transform="translate(-107.61 -96.381)" fill="#174165"/>
          </g>
        </g>
      </g>
    </g>
    <g id="Group_1182198" data-name="Group 1182198" transform="translate(412.044 9354.88)">
      <g id="Group_1182195" data-name="Group 1182195" transform="translate(71.386 71.627)">
        <g id="Group_1182154" data-name="Group 1182154" clip-path="url(#clip-path-2)">
          <path id="Path_1002486" data-name="Path 1002486" d="M15.723,15.248c-2.87-1.337-1.955-5.954,1.332-3.421,1.944,1.154.952,4.191-1.332,3.421M15,21.807c-1.654.48-1.1,3.582.578,3.156,1.458-.371,1.227-3.68-.578-3.156M12.74,6.765c-.212-1.517-3.013-1.421-2.851.108.141,1.33,3.083,1.547,2.851-.108M8.883,14.272c-1.96-1.061-3.565,2.07-2.253,3.506,2.522,2.81,4.541-1.849,2.253-3.506M4.094,10.709A1.736,1.736,0,0,0,1.927,8a1.737,1.737,0,0,0,2.167,2.711m16.39-5.23h0a.652.652,0,0,0-.878.512c-.665,4.427,5.131,1.013.878-.512M5.97,23.675h0a.652.652,0,0,0-.878.512c-.665,4.427,5.13,1.013.878-.512m19.4-7.4A1.91,1.91,0,1,0,21.8,17.636c-.335-.136,3.877,3.139,3.569-1.361M2.591,18.982a1.325,1.325,0,1,0-2.477.944c-.232-.095,2.691,2.178,2.477-.944M5.815.432A.586.586,0,0,0,6.1.172ZM6.1.172,6.291,0A.881.881,0,0,0,6.1.172" transform="translate(0 -0.001)" fill="#f5b86e"/>
        </g>
      </g>
      <g id="Group_1182194" data-name="Group 1182194" transform="translate(0 0)">
        <g id="Group_1182160" data-name="Group 1182160" transform="translate(0 0)" clip-path="url(#clip-path-3)">
          <path id="Path_1002489" data-name="Path 1002489" d="M13.285,5.247H10.829V2.791a2.791,2.791,0,1,0-5.582,0V5.247H2.791a2.791,2.791,0,0,0,0,5.582H5.247v2.456a2.791,2.791,0,1,0,5.582,0V10.829h2.456a2.791,2.791,0,0,0,0-5.582" transform="translate(0 0)" fill="#6dceff"/>
        </g>
      </g>
    </g>
  </g>
</svg>
