<svg xmlns="http://www.w3.org/2000/svg" xmlns:xlink="http://www.w3.org/1999/xlink" width="84" height="84" viewBox="0 0 84 84">
  <defs>
    <clipPath id="clip-path">
      <rect id="Rectangle_465018" data-name="Rectangle 465018" width="60.519" height="60.532" fill="#12263f"/>
    </clipPath>
  </defs>
  <g id="img17" transform="translate(-706 -1685.278)">
    <g id="Group_1177731" data-name="Group 1177731">
      <g id="Group_1119665" data-name="Group 1119665" transform="translate(530.111 -3835.723)">
        <path id="Path_991847" data-name="Path 991847" d="M5,0H79a5,5,0,0,1,5,5V79a5,5,0,0,1-5,5H5a5,5,0,0,1-5-5V5A5,5,0,0,1,5,0Z" transform="translate(175.889 5521)" fill="#aae5ff"/>
      </g>
      <g id="Group_1190392" data-name="Group 1190392" transform="translate(717.741 1697.011)">
        <g id="Group_1190391" data-name="Group 1190391" clip-path="url(#clip-path)">
          <path id="Path_1274110" data-name="Path 1274110" d="M31.364,104.8a1.168,1.168,0,0,1-1.016.739,1.151,1.151,0,0,1-1.162-.668l-3.767-8.535-6.227,1.538a8.372,8.372,0,0,0-6.133,7.426L13,111.461l4.152.007.055-5.386a1.135,1.135,0,0,1,2.246.006l.038,5.355,5.361.056a1.127,1.127,0,0,1,1.091,1.119,1.151,1.151,0,0,1-1.187,1.218L12.1,113.86a1.348,1.348,0,0,1-1.479-1.36l-.016-3.383L1.14,109.1A1.135,1.135,0,0,1,0,107.963l.01-8.122a8.017,8.017,0,0,1,6.145-7.818l4.011-.959a2.772,2.772,0,0,0-.072-1.691,7.727,7.727,0,0,1-3.474-6.363L6.6,78.844a8,8,0,0,1,4.606-7.49,7.866,7.866,0,0,1,9.054,1.932A10.468,10.468,0,0,1,30.34,65.771,10.622,10.622,0,0,1,40.3,73.226a7.817,7.817,0,0,1,13.6,5.425l-.023,4.543a7.605,7.605,0,0,1-3.457,6.182,2.794,2.794,0,0,0-.08,1.692l3.871.912a8.09,8.09,0,0,1,6.29,7.86l.01,8.124a1.136,1.136,0,0,1-1.14,1.134l-9.477.019-.016,3.38a1.334,1.334,0,0,1-1.466,1.36l-13.044-.011a1.2,1.2,0,0,1-1.315-1.235,1.236,1.236,0,0,1,1.348-1.143l5.628-.021-.008-4.992a1.192,1.192,0,0,1,.893-1.313,1.1,1.1,0,0,1,1.387.939l.061,5.389,4.132-.035-.065-6.116a8.474,8.474,0,0,0-6.414-7.529l-5.936-1.439ZM33.72,73.687l4.567,2.59a8.04,8.04,0,1,0-16.018.9l3.84-.011c4.645-.013,6.349-4.2,7.611-3.48M12.781,78.859a13.826,13.826,0,0,0,6.845-1.916A5.436,5.436,0,0,0,8.987,78.864Zm35.336.012,3.415-.011a5.436,5.436,0,0,0-10.639-1.921,14.314,14.314,0,0,0,7.224,1.932M22.232,82.192a8.017,8.017,0,0,0,7.93,8.158,7.894,7.894,0,0,0,8.124-7.714l-.018-3.6-4.754-2.76a10.4,10.4,0,0,1-7.233,3.271l-4,.05ZM9.082,83.848a5.429,5.429,0,0,0,10.765-1.024l-.009-3.331c-3.526,1.7-6.891,1.9-10.826,1.751a9.769,9.769,0,0,0,.07,2.6m42.375-2.612c-4.02.18-7.373-.1-10.761-1.737l-.019,3.326a5.424,5.424,0,0,0,10.774.928,7.064,7.064,0,0,0,.006-2.517M21.824,91.806a12.176,12.176,0,0,1,3.084,1.137,5.583,5.583,0,0,0,0-1.73,11.107,11.107,0,0,1-3.892-4.164A9.008,9.008,0,0,1,18.57,89.46a3.616,3.616,0,0,0,.052,1.587Zm15.889.258,4.179-1.023a3.447,3.447,0,0,0,.055-1.575A9.136,9.136,0,0,1,39.5,87.049,10.064,10.064,0,0,1,35.62,91.2a3.438,3.438,0,0,0,.042,1.752,7.07,7.07,0,0,1,2.051-.89m-21.571.1a3.093,3.093,0,0,0,.021-1.692,8.641,8.641,0,0,1-3.482.033,3.67,3.67,0,0,0,.027,1.727l1.723,4.075Zm31.674-.024a3.238,3.238,0,0,0,.02-1.636,8.605,8.605,0,0,1-3.48-.032,3.121,3.121,0,0,0,.018,1.693l1.713,4.149Zm-14.5,2.344-.062-2.21a11.264,11.264,0,0,1-5.987.012c.079.763-.241,1.678.061,2.372l2.926,6.712ZM7.071,101.543l.036,5.177,3.5,0a11.3,11.3,0,0,1,2.451-7.472l-2.466-5.862-3.971.967a5.914,5.914,0,0,0-4.272,5.867l.019,6.479,2.34.014.048-5.323a1.107,1.107,0,0,1,1.187-1.051,1.128,1.128,0,0,1,1.124,1.2m15.549-7-4.412-1.167L17.149,96.11a52.675,52.675,0,0,1,5.471-1.569m20.709,1.53-1.076-2.717L37.83,94.559c1.954.569,3.665.8,5.5,1.512m12.46,5.57.01,5.077,2.367-.023-.042-7.046a5.643,5.643,0,0,0-4.512-5.369l-3.743-.851-2.432,5.831a11.354,11.354,0,0,1,2.451,7.463l3.521-.007.044-5.246a1.124,1.124,0,0,1,1.3-1.124,1.206,1.206,0,0,1,1.035,1.3" transform="translate(0 -53.328)" fill="#12263f"/>
          <path id="Path_1274111" data-name="Path 1274111" d="M156.1,27.875a1.179,1.179,0,0,1-1.1,1.338,1.152,1.152,0,0,1-1.235-1.247l-.006-2.848a1.182,1.182,0,1,1,2.344,0Z" transform="translate(-124.668 -19.285)" fill="#12263f"/>
          <path id="Path_1274112" data-name="Path 1274112" d="M181.905,17.4a1.2,1.2,0,0,1-1.66.164,1.177,1.177,0,0,1-.063-1.782l1.8-1.782a1.173,1.173,0,0,1,1.651,1.661Z" transform="translate(-145.789 -11.112)" fill="#12263f"/>
          <path id="Path_1274113" data-name="Path 1274113" d="M122.042,15.943a1.149,1.149,0,0,1-.055,1.722,1.181,1.181,0,0,1-1.7-.155L118.695,15.9a1.147,1.147,0,0,1-.145-1.483,1.064,1.064,0,0,1,1.465-.4,13.68,13.68,0,0,1,2.027,1.92" transform="translate(-95.955 -11.24)" fill="#12263f"/>
          <path id="Path_1274114" data-name="Path 1274114" d="M267.449,17.922a1.683,1.683,0,0,1-.474,1.37,1.278,1.278,0,0,1-1.326.088c-.474-.238-.567-.791-.6-1.38-.041-.793.289-1.5,1.08-1.587.771-.085,1.358.543,1.318,1.508" transform="translate(-214.906 -13.302)" fill="#12263f"/>
          <path id="Path_1274115" data-name="Path 1274115" d="M267.465,48.264c-.01.64-.069,1.185-.532,1.479a1.2,1.2,0,0,1-1.308.008,1.539,1.539,0,0,1-.55-1.4c-.017-.81.289-1.438,1.034-1.524.789-.091,1.371.453,1.356,1.434" transform="translate(-214.928 -37.963)" fill="#12263f"/>
          <path id="Path_1274116" data-name="Path 1274116" d="M250.362,33.752a1.127,1.127,0,0,1,.613,1.389c-.207.74-.859.837-1.565.836-.684,0-1.235-.16-1.458-.773a1.131,1.131,0,0,1,.735-1.5,3.049,3.049,0,0,1,1.675.048" transform="translate(-200.988 -27.251)" fill="#12263f"/>
          <path id="Path_1274117" data-name="Path 1274117" d="M57.4,33.707A1.087,1.087,0,0,1,58.2,35c-.126.741-.7.964-1.42.973-.682.008-1.264-.006-1.566-.657a1.18,1.18,0,0,1,.519-1.564,2.966,2.966,0,0,1,1.661-.048" transform="translate(-44.682 -27.254)" fill="#12263f"/>
          <path id="Path_1274118" data-name="Path 1274118" d="M280.623,33.691a1.111,1.111,0,0,1,.813,1.338c-.156.744-.707.976-1.469.949-.645-.023-1.255-.032-1.529-.689a1.171,1.171,0,0,1,.514-1.516,3.009,3.009,0,0,1,1.671-.081" transform="translate(-225.687 -27.255)" fill="#12263f"/>
          <path id="Path_1274119" data-name="Path 1274119" d="M43.451,16.464c1.013.4.893,2.432.193,2.866a1.29,1.29,0,0,1-1.335-.012,2.045,2.045,0,0,1-.025-2.656,1.2,1.2,0,0,1,1.167-.2" transform="translate(-33.897 -13.289)" fill="#12263f"/>
          <path id="Path_1274120" data-name="Path 1274120" d="M44.2,48.262c-.032.608.036,1.157-.432,1.481a1.231,1.231,0,0,1-1.32.026c-.508-.307-.572-.8-.589-1.416-.022-.816.312-1.48,1.065-1.522s1.327.449,1.275,1.43" transform="translate(-33.942 -37.97)" fill="#12263f"/>
          <path id="Path_1274121" data-name="Path 1274121" d="M26.9,33.69a1.124,1.124,0,0,1,.884,1.382c-.166.7-.792.935-1.534.926-.687-.008-1.242-.167-1.485-.774a1.14,1.14,0,0,1,.76-1.518A3.264,3.264,0,0,1,26.9,33.69" transform="translate(-20.021 -27.264)" fill="#12263f"/>
          <path id="Path_1274122" data-name="Path 1274122" d="M154.583.063a1.18,1.18,0,0,1,1.47.632,1.188,1.188,0,0,1-.662,1.533,1.141,1.141,0,0,1-1.449-.56,1.122,1.122,0,0,1,.641-1.605" transform="translate(-124.713 0)" fill="#12263f"/>
          <path id="Path_1274123" data-name="Path 1274123" d="M154.287,307.693a1.17,1.17,0,0,1,1.608.487,1.157,1.157,0,0,1-.5,1.547,1.205,1.205,0,0,1-1.473-.323,1.162,1.162,0,0,1,.362-1.711" transform="translate(-124.621 -249.367)" fill="#12263f"/>
          <path id="Path_1274124" data-name="Path 1274124" d="M147.87,165.925c.92.778,2.022-1.12,2.991.085a1.225,1.225,0,0,1-.237,1.744,3.356,3.356,0,0,1-4.235.029,1.194,1.194,0,1,1,1.481-1.858" transform="translate(-118.257 -134.27)" fill="#12263f"/>
          <path id="Path_1274125" data-name="Path 1274125" d="M133.463,144.639a1.162,1.162,0,0,1,1.047,2.076,1.187,1.187,0,0,1-1.549-.449,1.174,1.174,0,0,1,.5-1.626" transform="translate(-107.69 -117.18)" fill="#12263f"/>
          <path id="Path_1274126" data-name="Path 1274126" d="M175.329,144.675a1.16,1.16,0,1,1-.518,1.633,1.15,1.15,0,0,1,.518-1.633" transform="translate(-141.615 -117.217)" fill="#12263f"/>
        </g>
      </g>
    </g>
  </g>
</svg>
