<svg xmlns="http://www.w3.org/2000/svg" xmlns:xlink="http://www.w3.org/1999/xlink" width="97.668" height="98" viewBox="0 0 97.668 98">
  <defs>
    <clipPath id="clip-path">
      <rect id="Rectangle_465020" data-name="Rectangle 465020" width="54.216" height="54.226" fill="#174165"/>
    </clipPath>
    <clipPath id="clip-path-2">
      <rect id="Rectangle_456707" data-name="Rectangle 456707" width="25.382" height="26.373" fill="#f5b86e"/>
    </clipPath>
    <clipPath id="clip-path-3">
      <rect id="Rectangle_456710" data-name="Rectangle 456710" width="16.076" height="16.076" fill="#6dceff"/>
    </clipPath>
  </defs>
  <g id="img14" transform="translate(-411.393 -9354.88)">
    <g id="Group_1179599" data-name="Group 1179599" transform="translate(411.393 9354.88)">
      <g id="Group_1179591" data-name="Group 1179591" transform="translate(0 0)">
        <circle id="Ellipse_13609" data-name="Ellipse 13609" cx="48.834" cy="48.834" r="48.834" fill="#fff"/>
        <g id="Group_1190396" data-name="Group 1190396" transform="translate(21.726 21.721)">
          <g id="Group_1190395" data-name="Group 1190395" clip-path="url(#clip-path)">
            <path id="Path_1274128" data-name="Path 1274128" d="M47.524,54.193l-13.289.032a3.508,3.508,0,0,1-1.88-.518l-3.723-2.215-9.122.011a3.123,3.123,0,0,1-4.62,1.239,3.281,3.281,0,0,1-3.07,1.435,3.224,3.224,0,0,1-2.64-2.147,3.141,3.141,0,0,1-4.462-1.789,3.3,3.3,0,0,1-3.1-.079A3.131,3.131,0,0,1,.024,47.585L0,33.886a2.738,2.738,0,0,1,.432-1.438l2.284-3.823L2.7,19.5a3.118,3.118,0,0,1-1.228-4.616A3.3,3.3,0,0,1,.031,11.81,3.233,3.233,0,0,1,2.18,9.167,3.139,3.139,0,0,1,3.968,4.706a3.341,3.341,0,0,1,.08-3.115A3.14,3.14,0,0,1,6.623.015l14.313,0c1.624.831,3,1.729,4.557,2.668L34.71,2.7a3.108,3.108,0,0,1,4.67-1.2A3.075,3.075,0,0,1,42.4.02a3.283,3.283,0,0,1,2.66,2.158A3.115,3.115,0,0,1,49.5,3.961a3.245,3.245,0,0,1,3.207.145,3.185,3.185,0,0,1,1.5,2.671l0,13.536a3.017,3.017,0,0,1-.5,1.537l-2.189,3.635L51.511,34.7a3.121,3.121,0,0,1,1.2,4.661,3.1,3.1,0,0,1,1.474,3.033,3.229,3.229,0,0,1-2.145,2.639,3.142,3.142,0,0,1-1.789,4.46,3.3,3.3,0,0,1-.083,3.1,3.11,3.11,0,0,1-2.647,1.6M14.4,18.1a.878.878,0,0,1,.744,1.446l-2.5,3.084a1.1,1.1,0,0,0,1.721,1.378L20.68,17.8l2.92-2.854a2.206,2.206,0,0,1,1.487-.487l3.075-.037a2.906,2.906,0,0,1,1.1-3.253,2.99,2.99,0,0,1,3.517.092,7.357,7.357,0,0,0,1.571,1.157l.007-7.881-7.922.011a5.041,5.041,0,0,1-1.749-.277L20.627,1.838,6.95,1.817A1.376,1.376,0,0,0,5.424,3.123a1.408,1.408,0,0,0,1.387,1.4l4.345.067c.463.007.583.583.562.9a.758.758,0,0,1-.708.783l-6.05.051a1.356,1.356,0,1,0,.117,2.707l3.873,0a.908.908,0,0,1,.993.874.921.921,0,0,1-.954.934l-5.931.013a1.278,1.278,0,0,0-1.226,1.413A1.362,1.362,0,0,0,3.22,13.551l5.931.014A.887.887,0,0,1,9.933,14.6a.939.939,0,0,1-.966.778l-5.239.054c-.673.007-1.08.834-1.008,1.4a1.438,1.438,0,0,0,1.253,1.232ZM41.772,34.321l7.915.021L49.7,25.92a3.321,3.321,0,0,1,.239-1.243L52.4,20.506l-.01-13.733a1.346,1.346,0,0,0-1.306-1.36,1.363,1.363,0,0,0-1.382,1.249l-.089,4.48c-.009.465-.574.585-.9.564A.748.748,0,0,1,47.942,11L47.89,4.945a1.394,1.394,0,0,0-1.381-1.334,1.35,1.35,0,0,0-1.327,1.454l0,3.874a.911.911,0,1,1-1.816.039l-.007-5.936a1.3,1.3,0,0,0-1.416-1.225,1.363,1.363,0,0,0-1.277,1.395l0,5.765a.911.911,0,1,1-1.819-.016l.007-4.742A1.382,1.382,0,0,0,37.527,2.7a1.43,1.43,0,0,0-1.375,1.262L36.1,14.553a.856.856,0,0,1-.557.74.807.807,0,0,1-.878-.162l-3.082-2.488A1.109,1.109,0,0,0,30.2,14.37l8.561,8.686a2.584,2.584,0,0,1,.99,1.895l.03,3.216a2.917,2.917,0,0,1,3.169,4.6ZM29.485,37.9l8.482-8.377-.032-4.752-8.345-8.49-4.753-.043-8.547,8.38v4.8l5.472,5.561,2.948,2.982ZM13.592,44.991c0-.567.68-.783,1.013-.716a.93.93,0,0,1,.768.966l-.006,4.739A1.38,1.38,0,0,0,16.695,51.5a1.433,1.433,0,0,0,1.374-1.262l.053-10.589a.863.863,0,0,1,1.443-.589l3.084,2.5a1.1,1.1,0,0,0,1.5-.209,1.033,1.033,0,0,0,.036-1.321L19.3,35.081l-3.941-4.02a2.58,2.58,0,0,1-.883-1.8l-.039-3.211a2.88,2.88,0,0,1-3.356-1.178,2.933,2.933,0,0,1,.35-3.628,6.618,6.618,0,0,0,1-1.364l-7.9-.018-.011,8.256a3.207,3.207,0,0,1-.3,1.515l-2.4,4.061.009,13.734a1.347,1.347,0,0,0,1.305,1.361,1.366,1.366,0,0,0,1.382-1.25l.09-4.482c.009-.461.568-.587.9-.56.241.019.746.153.751.564l.076,6.2A1.4,1.4,0,0,0,7.712,50.59a1.352,1.352,0,0,0,1.326-1.454l0-3.874a.91.91,0,1,1,1.816-.039l.011,5.931a1.276,1.276,0,0,0,1.412,1.226,1.356,1.356,0,0,0,1.277-1.394Zm29.546,2.956,6.129-.071a1.4,1.4,0,0,0,1.33-1.253,1.258,1.258,0,0,0-1.116-1.4l-4.206-.036a.916.916,0,1,1-.042-1.828l5.935-.008a1.291,1.291,0,0,0,1.217-1.416A1.344,1.344,0,0,0,51,40.66l-5.764,0a.913.913,0,1,1,.015-1.823l4.74.008a1.383,1.383,0,0,0,1.52-1.328,1.423,1.423,0,0,0-1.263-1.373L39.818,36.1a.883.883,0,0,1-.9-.573.874.874,0,0,1,.156-.876l2.5-3.082a1.109,1.109,0,0,0-1.644-1.465l-8.607,8.477a2.993,2.993,0,0,1-2.214,1.173l-3.048.019a2.926,2.926,0,0,1-1.1,3.259,2.979,2.979,0,0,1-3.518-.1,7.317,7.317,0,0,0-1.571-1.156v7.9l8.719.028a2.671,2.671,0,0,1,1.37.464l3.746,2.222,13.73-.01a1.345,1.345,0,0,0,1.36-1.306A1.361,1.361,0,0,0,47.548,49.7l-4.482-.09c-.461-.009-.587-.57-.561-.9.02-.255.145-.756.632-.761" transform="translate(0 0.001)" fill="#174165"/>
          </g>
        </g>
      </g>
    </g>
    <g id="Group_1182198" data-name="Group 1182198" transform="translate(412.044 9354.88)">
      <g id="Group_1182195" data-name="Group 1182195" transform="translate(71.386 71.627)">
        <g id="Group_1182154" data-name="Group 1182154" clip-path="url(#clip-path-2)">
          <path id="Path_1002486" data-name="Path 1002486" d="M15.723,15.248c-2.87-1.337-1.955-5.954,1.332-3.421,1.944,1.154.952,4.191-1.332,3.421M15,21.807c-1.654.48-1.1,3.582.578,3.156,1.458-.371,1.227-3.68-.578-3.156M12.74,6.765c-.212-1.517-3.013-1.421-2.851.108.141,1.33,3.083,1.547,2.851-.108M8.883,14.272c-1.96-1.061-3.565,2.07-2.253,3.506,2.522,2.81,4.541-1.849,2.253-3.506M4.094,10.709A1.736,1.736,0,0,0,1.927,8a1.737,1.737,0,0,0,2.167,2.711m16.39-5.23h0a.652.652,0,0,0-.878.512c-.665,4.427,5.131,1.013.878-.512M5.97,23.675h0a.652.652,0,0,0-.878.512c-.665,4.427,5.13,1.013.878-.512m19.4-7.4A1.91,1.91,0,1,0,21.8,17.636c-.335-.136,3.877,3.139,3.569-1.361M2.591,18.982a1.325,1.325,0,1,0-2.477.944c-.232-.095,2.691,2.178,2.477-.944M5.815.432A.586.586,0,0,0,6.1.172ZM6.1.172,6.291,0A.881.881,0,0,0,6.1.172" transform="translate(0 -0.001)" fill="#f5b86e"/>
        </g>
      </g>
      <g id="Group_1182194" data-name="Group 1182194" transform="translate(0 0)">
        <g id="Group_1182160" data-name="Group 1182160" transform="translate(0 0)" clip-path="url(#clip-path-3)">
          <path id="Path_1002489" data-name="Path 1002489" d="M13.285,5.247H10.829V2.791a2.791,2.791,0,1,0-5.582,0V5.247H2.791a2.791,2.791,0,0,0,0,5.582H5.247v2.456a2.791,2.791,0,1,0,5.582,0V10.829h2.456a2.791,2.791,0,0,0,0-5.582" transform="translate(0 0)" fill="#6dceff"/>
        </g>
      </g>
    </g>
  </g>
</svg>
