<svg xmlns="http://www.w3.org/2000/svg" xmlns:xlink="http://www.w3.org/1999/xlink" width="84" height="84" viewBox="0 0 84 84">
  <defs>
    <clipPath id="clip-path">
      <rect id="Rectangle_465016" data-name="Rectangle 465016" width="61.312" height="55.734" fill="#12263f"/>
    </clipPath>
  </defs>
  <g id="img2" transform="translate(-706 -1685.278)">
    <g id="Group_1177731" data-name="Group 1177731">
      <g id="Group_1119665" data-name="Group 1119665" transform="translate(530.111 -3835.723)">
        <path id="Path_991847" data-name="Path 991847" d="M5,0H79a5,5,0,0,1,5,5V79a5,5,0,0,1-5,5H5a5,5,0,0,1-5-5V5A5,5,0,0,1,5,0Z" transform="translate(175.889 5521)" fill="#aae5ff"/>
      </g>
      <g id="Group_1190388" data-name="Group 1190388" transform="translate(717.344 1699.409)">
        <g id="Group_1190387" data-name="Group 1190387" clip-path="url(#clip-path)">
          <path id="Path_1274106" data-name="Path 1274106" d="M1.807,26.055a.878.878,0,0,1,.439-1.21c1.376-.46,1.547,2,3.68,4.172l2.948,3,4.582-4.511a5.023,5.023,0,0,1,5.894-.723,5.251,5.251,0,0,1,2.688,5.544,5.521,5.521,0,0,1,4.575,1.38c1.32,1.121,1.6,3.025,1.616,4.636,1.634-.007,3.565.33,4.707,1.7A5.286,5.286,0,0,1,34.1,45.052l1.981,1.909a3.3,3.3,0,0,0,4.542-.042,3.241,3.241,0,0,0,.39-4.528l-7.96-8.084a.985.985,0,0,1,.094-1.15.838.838,0,0,1,1.125-.1l7.47,7.465a3.49,3.49,0,0,0,5,.282A3.442,3.442,0,0,0,46.8,35.85l-7.644-7.664a.928.928,0,0,1,.22-1.245.859.859,0,0,1,1.109.1l7.775,7.718a3.346,3.346,0,0,0,4.644-.124,3.433,3.433,0,0,0-.01-4.906L36.784,13.591l-5.613,5.574A5.184,5.184,0,0,1,23.6,12.13l5.762-5.893A16.353,16.353,0,0,0,2.288,22.125a.909.909,0,0,1-.548,1.06.848.848,0,0,1-1.15-.5A18.153,18.153,0,0,1,30.652,4.967,18.254,18.254,0,0,1,47.906.623a.908.908,0,0,1,.6,1.064.814.814,0,0,1-.984.67A16.427,16.427,0,0,0,32.09,6.111l-6.9,6.872a3.416,3.416,0,0,0,4.827,4.831l6.143-6.1a.857.857,0,0,1,1.263.019L54.351,28.655c.265.265.309.579.673.765A16.354,16.354,0,0,0,50.533,3.546a.9.9,0,0,1-.373-1.122c.146-.337.625-.736,1.051-.529a18.154,18.154,0,0,1,4.512,29.386,5.9,5.9,0,0,1-1.46,4.563,6.194,6.194,0,0,1-4.59,1.608,6.263,6.263,0,0,1-1.62,4.6A5.879,5.879,0,0,1,43.5,43.5a5.591,5.591,0,0,1-1.591,4.675,5.408,5.408,0,0,1-4.569,1.38,5.208,5.208,0,0,1-2.614,5.5,5.069,5.069,0,0,1-6.032-.7l-1.5-1.479a5.29,5.29,0,0,1-6.048.513,5.222,5.222,0,0,1-2.482-5.459,5.309,5.309,0,0,1-4.641-1.418A5.433,5.433,0,0,1,12.526,41.8a5.191,5.191,0,0,1-4.9-8.488l-3.15-3.225a15.135,15.135,0,0,1-2.672-4.031M13.794,39.237l5.761-5.791a3.191,3.191,0,0,0-.282-4.493,3.272,3.272,0,0,0-4.443-.259L8.975,34.531a3.273,3.273,0,0,0,.28,4.637,3.252,3.252,0,0,0,4.538.07m6.533,5.768,5.186-5.234a3.318,3.318,0,0,0-.089-4.67,3.261,3.261,0,0,0-4.484-.29l-5.93,5.936c-1.356,1.358-.792,3.585.488,4.652a3.447,3.447,0,0,0,4.83-.395m5.8,6.371,5.559-5.593a3.409,3.409,0,0,0-5-4.628L21.26,46.608a3.411,3.411,0,0,0,4.87,4.768m3.788,1.659a3.416,3.416,0,0,0,4.676-4.979l-1.336-1.264-4.78,4.8Z" transform="translate(0 -0.001)" fill="#12263f"/>
        </g>
      </g>
    </g>
  </g>
</svg>
