<svg xmlns="http://www.w3.org/2000/svg" xmlns:xlink="http://www.w3.org/1999/xlink" width="396" height="246" viewBox="0 0 396 246">
  <defs>
    <clipPath id="clip-path">
      <rect id="Rectangle_465001" data-name="Rectangle 465001" width="342.099" height="241.92" fill="none"/>
    </clipPath>
    <clipPath id="clip-path-4">
      <rect id="Rectangle_464981" data-name="Rectangle 464981" width="41.995" height="47.135" fill="none"/>
    </clipPath>
    <clipPath id="clip-path-5">
      <rect id="Rectangle_464982" data-name="Rectangle 464982" width="6.071" height="6.994" fill="none"/>
    </clipPath>
    <clipPath id="clip-path-6">
      <rect id="Rectangle_464983" data-name="Rectangle 464983" width="48.747" height="37.784" fill="none"/>
    </clipPath>
    <clipPath id="clip-path-7">
      <rect id="Rectangle_464985" data-name="Rectangle 464985" width="3.237" height="10.603" fill="none"/>
    </clipPath>
    <clipPath id="clip-path-8">
      <rect id="Rectangle_464986" data-name="Rectangle 464986" width="5.763" height="5.847" fill="none"/>
    </clipPath>
    <clipPath id="clip-path-9">
      <rect id="Rectangle_464988" data-name="Rectangle 464988" width="59.97" height="70.168" fill="none"/>
    </clipPath>
    <clipPath id="clip-path-10">
      <rect id="Rectangle_464990" data-name="Rectangle 464990" width="41.052" height="30.17" fill="none"/>
    </clipPath>
    <clipPath id="clip-path-11">
      <rect id="Rectangle_464992" data-name="Rectangle 464992" width="22.107" height="5.591" fill="none"/>
    </clipPath>
    <clipPath id="clip-path-12">
      <rect id="Rectangle_464993" data-name="Rectangle 464993" width="13.753" height="36.353" fill="none"/>
    </clipPath>
    <clipPath id="clip-path-13">
      <rect id="Rectangle_464995" data-name="Rectangle 464995" width="26.567" height="7.902" fill="none"/>
    </clipPath>
    <clipPath id="clip-path-14">
      <rect id="Rectangle_464997" data-name="Rectangle 464997" width="26.567" height="7.903" fill="none"/>
    </clipPath>
  </defs>
  <g id="img3" transform="translate(-1018 -805)">
    <rect id="Rectangle_464720" data-name="Rectangle 464720" width="396" height="246" transform="translate(1018 805)" fill="none"/>
    <g id="Group_1190355" data-name="Group 1190355" transform="translate(1045 807)">
      <g id="Group_1190354" data-name="Group 1190354" clip-path="url(#clip-path)">
        <g id="Group_1190315" data-name="Group 1190315">
          <g id="Group_1190314" data-name="Group 1190314" clip-path="url(#clip-path)">
            <path id="Path_1273425" data-name="Path 1273425" d="M326.1,554.516H47.984c-8.8,0-15.995,3.287-15.995,7.306,0,2.782,3.452,5.213,8.5,6.446H15.994C7.2,568.268,0,571.555,0,575.573s7.2,7.305,15.994,7.305h8.534c-2.383,1.277-3.829,2.928-3.829,4.727v2.922c0,4.018,7.2,7.306,15.995,7.306h273.98c8.8,0,15.994-3.288,15.994-7.306v-2.922c0-4.018-7.2-7.306-15.994-7.306l-18.629.162a10.705,10.705,0,0,0,5.269-1.539,4.772,4.772,0,0,0,1.506-6.817c-.859-1.472-2.236-2.639-5.645-3.078l32.93.1c8.8,0,15.995-3.288,15.995-7.306s-7.2-7.306-15.995-7.306" transform="translate(0 -355.914)" fill="#f5b86e"/>
          </g>
        </g>
        <g id="Group_1190353" data-name="Group 1190353">
          <g id="Group_1190352" data-name="Group 1190352" clip-path="url(#clip-path)">
            <path id="Path_1273426" data-name="Path 1273426" d="M208.513.155c-6.626.759-14.141,5.862-15,11.816-3.059-5.18-13.74-6.627-20.154-4.806-16.929,4.805-18.957,25.145-9.11,36.6,5.3,6.168,12.144,11.124,19.378,15.358,6.058,3.546,21.27,10.6,21.3,10.558.047.025,11.427-12.289,15.679-17.874,5.077-6.67,9.518-13.858,12.071-21.58C237.425,15.886,226-1.847,208.513.155" transform="translate(-101.622 0)" fill="#d34e4e"/>
            <g id="Group_1190318" data-name="Group 1190318" transform="translate(90.467 22.734)" opacity="0.12" style="mix-blend-mode: multiply;isolation: isolate">
              <g id="Group_1190317" data-name="Group 1190317">
                <g id="Group_1190316" data-name="Group 1190316" clip-path="url(#clip-path-4)">
                  <path id="Path_1273427" data-name="Path 1273427" d="M290.163,73.267a95.361,95.361,0,0,1-11.831,17.116c-4.414,5.069-9.826,9.8-16.316,12.3a24.04,24.04,0,0,1-9.423,1.655c6.325,3.15,13.147,6.3,13.17,6.273.047.025,11.427-12.289,15.679-17.874,5.077-6.67,9.518-13.858,12.071-21.58a21.713,21.713,0,0,0,1.058-7.681,69.139,69.139,0,0,1-4.406,9.791" transform="translate(-252.592 -63.476)"/>
                </g>
              </g>
            </g>
            <path id="Path_1273428" data-name="Path 1273428" d="M242.649,50.246,229.2,53.263l-8.4-16.776a.964.964,0,0,0-1.774.351l-4.354,32.957q-.126.955-.252,1.909L203.281,52.779l-1.786-3.035a.973.973,0,0,0-1.722.126l-3.218,10.9-15.126,2.992a.883.883,0,1,0,.343,1.732l15.7-3.105a.94.94,0,0,0,.71-.586l2.757-9.342,11.427,19.416,1.786,3.035a.965.965,0,0,0,1.774-.351L220.275,41.6l.208-1.577,7.344,14.665a.944.944,0,0,0,1.013.46l14.152-3.175a.883.883,0,1,0-.343-1.732" transform="translate(-115.977 -23.118)" fill="#fff"/>
            <path id="Path_1273429" data-name="Path 1273429" d="M698.881,59.241h0a.388.388,0,0,1-.516.187l-15.118-7.056a.388.388,0,0,1,.328-.7l15.118,7.057a.388.388,0,0,1,.187.516" transform="translate(-438.395 -33.14)" fill="#3b455a"/>
            <path id="Path_1273430" data-name="Path 1273430" d="M717.784,66.317l-.844,1.808-8.069-3.767a1,1,0,1,1,.844-1.808Z" transform="translate(-454.616 -40.088)" fill="#8ec3cb"/>
            <path id="Path_1273431" data-name="Path 1273431" d="M891.346,148.353l-1.148,2.189-9.717-5.1-3.473,6.621,9.718,5.1-1.148,2.189a1.809,1.809,0,0,0,3.2,1.68l5.769-11a1.809,1.809,0,0,0-3.2-1.68" transform="translate(-562.903 -93.353)" fill="#474ebb"/>
            <g id="Group_1190321" data-name="Group 1190321" transform="translate(319.657 55.005)" opacity="0.12">
              <g id="Group_1190320" data-name="Group 1190320">
                <g id="Group_1190319" data-name="Group 1190319" clip-path="url(#clip-path-5)">
                  <path id="Path_1273432" data-name="Path 1273432" d="M892.511,160.2l3.473-6.621,2.6,1.363-5.359,5.631Z" transform="translate(-892.511 -153.578)"/>
                </g>
              </g>
            </g>
            <path id="Path_1273433" data-name="Path 1273433" d="M884.859,134.8l-8.265,15.756a.992.992,0,0,1-1.34.418l-3.82-2,9.186-17.513,3.82,2a.992.992,0,0,1,.418,1.339" transform="translate(-559.327 -84.373)" fill="#3b455a"/>
            <path id="Path_1273434" data-name="Path 1273434" d="M789.254,81.194a1.7,1.7,0,0,0-2.174.8l-.674,1.286a1.637,1.637,0,0,1-2.21.689L740.019,60.8a2.571,2.571,0,0,0-1.733-.237l-12.646,2.71a.82.82,0,0,0-.556.424l-1.309,2.514a.822.822,0,0,0-.029.7l4.978,11.888a2.571,2.571,0,0,0,1.178,1.284l44.181,23.175a1.637,1.637,0,0,1,.689,2.209l-.675,1.286a1.7,1.7,0,0,0,.578,2.243,1.665,1.665,0,0,0,2.343-.646l13.036-24.853a1.665,1.665,0,0,0-.8-2.3" transform="translate(-464.492 -38.832)" fill="#8ec3cb"/>
            <g id="Group_1190324" data-name="Group 1190324" transform="translate(260.938 24.175)" opacity="0.17">
              <g id="Group_1190323" data-name="Group 1190323">
                <g id="Group_1190322" data-name="Group 1190322" clip-path="url(#clip-path-6)">
                  <path id="Path_1273435" data-name="Path 1273435" d="M743.218,67.829a2.764,2.764,0,0,0-1.61-.309l-11.457,1.428a.616.616,0,0,0-.484.316l-1.041,2a.618.618,0,0,0,.019.576L734,82.034a2.766,2.766,0,0,0,1.167,1.142l42.147,22.108Z" transform="translate(-728.563 -67.5)" fill="#dbe8eb"/>
                </g>
              </g>
            </g>
            <path id="Path_1273436" data-name="Path 1273436" d="M799.866,127.745l-2.947,5.618-1.077-.565,2.947-5.618a.114.114,0,0,1,.154-.048l.876.46a.114.114,0,0,1,.048.154" transform="translate(-510.808 -81.591)" fill="#3b455a"/>
            <path id="Path_1273437" data-name="Path 1273437" d="M757.869,105.715l-2.947,5.618-1.077-.565,2.947-5.618a.114.114,0,0,1,.154-.048l.876.46a.114.114,0,0,1,.048.154" transform="translate(-483.852 -67.451)" fill="#3b455a"/>
            <path id="Path_1273438" data-name="Path 1273438" d="M841.863,149.774l-2.947,5.618-1.077-.565,2.947-5.618a.114.114,0,0,1,.154-.048l.876.46a.114.114,0,0,1,.048.154" transform="translate(-537.763 -95.73)" fill="#3b455a"/>
            <path id="Path_1273439" data-name="Path 1273439" d="M819.486,146.559l-1.492,2.846-.884-.464,1.493-2.846a.093.093,0,0,1,.126-.039l.719.377a.093.093,0,0,1,.039.126" transform="translate(-524.458 -93.738)" fill="#3b455a"/>
            <path id="Path_1273440" data-name="Path 1273440" d="M777.489,124.53,776,127.375l-.884-.464,1.493-2.846a.093.093,0,0,1,.126-.039l.718.377a.093.093,0,0,1,.039.126" transform="translate(-497.502 -79.599)" fill="#3b455a"/>
            <path id="Path_1273441" data-name="Path 1273441" d="M356.209,420.259l-1.862,25.47L348.185,487.9h-4.739l-2.993-38.908-1.326-31.479Z" transform="translate(-217.667 -267.976)" fill="#ccd2d9"/>
            <path id="Path_1273442" data-name="Path 1273442" d="M351.262,612.462v2.562l5.124,2.562,2.562-2.562-2.562-2.562Z" transform="translate(-225.456 -393.106)" fill="#3b455a"/>
            <path id="Path_1273443" data-name="Path 1273443" d="M293.1,403.022l1.8,35.7,4.124,40.985h4.854l3.945-38.831,5.763-40.872Z" transform="translate(-188.124 -256.742)" fill="#ccd2d9"/>
            <path id="Path_1273444" data-name="Path 1273444" d="M309.007,620.932v2.624l-5.249,2.625-2.624-2.625,2.624-2.624Z" transform="translate(-193.281 -398.543)" fill="#3b455a"/>
            <path id="Path_1273445" data-name="Path 1273445" d="M325.034,216.78l-4.967-.486a24.924,24.924,0,0,1,.264-3.967c-1.38-.484-2.976-1.209-3.218-2.651a4.127,4.127,0,0,1,.08-1.373q.482-2.816.965-5.632a5.036,5.036,0,0,1,.582-1.874,4.226,4.226,0,0,1,2.958-1.6,10.283,10.283,0,0,1,8.329,2.017,4.506,4.506,0,0,1,1.409,1.853,6.11,6.11,0,0,1-.2,3.568q-.423,1.622-.847,3.243c-.324,1.243-.794,2.657-1.991,3.125-.636.248-1.386.177-1.962.544-1.014.647-.875,2.156-1.4,3.238" transform="translate(-203.517 -127.742)" fill="#efbfa5"/>
            <path id="Path_1273446" data-name="Path 1273446" d="M325.745,179.367a13.393,13.393,0,0,0-.094-4.3c-.186-.88-1.311-3.65-.968-4.431-.64,1.356-2.366,1.73-3.857,1.879-5.589.558-11.826-.824-16.964,2.045a6.637,6.637,0,0,0-2.269,2.244,9.994,9.994,0,0,0-.013,10.57,14.318,14.318,0,0,0,1.558,1.958c1.174,1.269,2.578,2.837,4.19,3.306.037-1.442-1.283-5.988-.177-7.172,1.553-1.661,4.377-1.337,6.395-1.05a29.641,29.641,0,0,0,7.724.041,9.1,9.1,0,0,0,2.478-.526c1.871-.782,1.805-2.52,1.973-4.295.009-.086.017-.174.026-.267" transform="translate(-192.601 -109.521)" fill="#3b455a"/>
            <path id="Path_1273447" data-name="Path 1273447" d="M238.068,170.507l-.6-3.084,1.583-2.274-.312-.58-.73.355.774-2.264-.688-1.815-2.5-.66-2.455,1.049-.392,2.55,1.114,2.859.642,4.257Z" transform="translate(-149.388 -102.814)" fill="#efbfa5"/>
            <path id="Path_1273448" data-name="Path 1273448" d="M240.215,182.4l-4.735-.3,2.114,25.834,20.1,10.631,4.631-12.547-15.891-7.309Z" transform="translate(-151.141 -116.884)" fill="#ebb044"/>
            <path id="Path_1273449" data-name="Path 1273449" d="M396.883,138.723l.161-3.138-1.889-2.028.227-.619.773.248-1.086-2.132.425-1.895,2.38-1.006,2.578.692.748,2.469-.7,2.987-.034,4.305Z" transform="translate(-253.573 -82.256)" fill="#efbfa5"/>
            <path id="Path_1273450" data-name="Path 1273450" d="M365.182,150.08l4.646-.962.368,17.873-1.826,13.814-11.88,17.435-9.726-14.072,11.293-8.3Z" transform="translate(-222.57 -95.711)" fill="#ebb044"/>
            <path id="Path_1273451" data-name="Path 1273451" d="M296.224,245.035l-15.694.664-7.922,30.153-6.542,41.8,50.508,1.228L304.7,259.8Z" transform="translate(-170.774 -157.274)" fill="#ebb044"/>
            <path id="Path_1273452" data-name="Path 1273452" d="M558.305,196.836l-.577-3.014,1.554-2.214-.3-.568-.714.343.764-2.207-.665-1.775-2.437-.653-2.4,1.015-.392,2.488,1.077,2.8.611,4.159Z" transform="translate(-355.028 -119.864)" fill="#c1796b"/>
            <path id="Path_1273453" data-name="Path 1273453" d="M559.519,206.087l-4.741,4.029.673,20.691,7.975,5.554,15.24-1.952-2.033-13.095L563.9,223.766Z" transform="translate(-356.082 -132.276)" fill="#474ebb"/>
            <path id="Path_1273454" data-name="Path 1273454" d="M690.405,603.835l.6,2.734-4.723,3.894-3.256-2.155,2.064-3.314,4.723-3.893Z" transform="translate(-438.395 -385.814)" fill="#3b455a"/>
            <path id="Path_1273455" data-name="Path 1273455" d="M632.307,374l5.271,12.154.5,34.195,10.837,36.781-5.039,2.235-22.115-42.708-2.517-13.527-1-28.489Z" transform="translate(-396.815 -240.049)" fill="#474ebb"/>
            <path id="Path_1273456" data-name="Path 1273456" d="M585.524,375.821l-.414,35.836,6.753,46.206h5.193l3.28-42.635,7.105-42.634Z" transform="translate(-375.55 -239.148)" fill="#474ebb"/>
            <path id="Path_1273457" data-name="Path 1273457" d="M603.285,608.947v2.808l-5.615,2.808-2.808-2.808,2.808-2.808Z" transform="translate(-381.81 -390.85)" fill="#3a332d"/>
            <path id="Path_1273458" data-name="Path 1273458" d="M583.337,245.2l13.793-.511s8.252,7.24,12.516,26.054c4.342,19.157-.8,46.736-.8,46.736s-37.006-4.932-43.073-5.694l9.257-37.825Z" transform="translate(-363.138 -157.053)" fill="#474ebb"/>
            <path id="Path_1273459" data-name="Path 1273459" d="M617.113,219.094l4.832-.472a24.236,24.236,0,0,0-.256-3.859c1.343-.47,2.895-1.176,3.131-2.579a3.99,3.99,0,0,0-.077-1.336q-.469-2.739-.939-5.478a4.912,4.912,0,0,0-.566-1.823,4.112,4.112,0,0,0-2.878-1.561,10,10,0,0,0-8.1,1.962,4.383,4.383,0,0,0-1.37,1.8,5.941,5.941,0,0,0,.194,3.471q.413,1.577.824,3.155c.315,1.209.773,2.585,1.936,3.04.618.241,1.348.172,1.908.529.987.629.852,2.1,1.364,3.15" transform="translate(-391.97 -129.537)" fill="#c1796b"/>
            <path id="Path_1273460" data-name="Path 1273460" d="M584.673,184.829a15.539,15.539,0,0,1,.395-3.66c.43-1.962,2.744-2.843,4.748-2.982,4.327-.3,8.5-2.262,12.728-.748,2.415.866,5.659,1.073,7.845,2.294a6.453,6.453,0,0,1,2.207,2.183,9.723,9.723,0,0,1,.013,10.282,13.888,13.888,0,0,1-1.516,1.905c-1.141,1.235-2.507,2.76-4.076,3.216-.035-1.4,1.248-5.825.173-6.976-1.707-1.827-5.574-1.2-7.7-.749-2.314.487-4.379,2.122-6.673,2.469a8.649,8.649,0,0,1-5.159-1.418,6.561,6.561,0,0,1-2.988-5.816" transform="translate(-375.268 -113.524)" fill="#3b455a"/>
            <path id="Path_1273461" data-name="Path 1273461" d="M597.323,249.6l-14.5,58-1.189,7.607,18.066,2.377s-.713-27.775-.475-31.479,2.917-11.713,3.328-20.343c.238-4.992,1.823-13.958.713-16.878Z" transform="translate(-373.318 -159.747)" fill="#fff"/>
            <path id="Path_1273462" data-name="Path 1273462" d="M76.754,614.078l-.075.777-.248,2.578-5.22,2.236-2.238-2.75,2.734-2.407.252-.108.03.321Z" transform="translate(-44.271 -394.143)" fill="#3b455a"/>
            <path id="Path_1273463" data-name="Path 1273463" d="M74.054,532.943l-.265.036H73.51l-4.486.647-4.162-43.845-.509-2.056c3.9.057,8.546.116,13.222.153Z" transform="translate(-41.305 -313.044)" fill="#c1796b"/>
            <path id="Path_1273464" data-name="Path 1273464" d="M122.1,488.087l-.961,11.393L111.5,529.017l-4.708-.626-.077.577-.027,0,3.47-30.44-2.971-10.4c5.465.034,10.81.033,14.91-.04" transform="translate(-68.48 -313.276)" fill="#c1796b"/>
            <path id="Path_1273465" data-name="Path 1273465" d="M111.065,602.281l.3.039,2.154,2.956-2.851,2.291-4.656-3.289.272-2.046,4.6.612Z" transform="translate(-68.041 -386.54)" fill="#3b455a"/>
            <path id="Path_1273466" data-name="Path 1273466" d="M111.552,601.246l-.184.563-4.6-.612.077-.577Z" transform="translate(-68.528 -385.505)" fill="#3e3d3b"/>
            <path id="Path_1273467" data-name="Path 1273467" d="M49.468,295.794c-.6,2.85-2.861,4.941-5.064,6.921A119.958,119.958,0,0,1,49.337,291.7a9.732,9.732,0,0,1,.13,4.094" transform="translate(-28.501 -187.226)" fill="#8ec3cb"/>
            <path id="Path_1273468" data-name="Path 1273468" d="M32.624,335.694s4.257.084,10.244.172c3.905.057,8.546.115,13.222.152l2.442.017c5.465.034,10.81.032,14.91-.04,3.1-.054,5.485-.15,6.676-.3l-10-51.711-.039-.16L67.423,273l-3.877-15.783-9.666-4.606a5.62,5.62,0,0,1-2.759-1.315l-.351-.167a7.829,7.829,0,0,0,.411,1.228q.1.227.213.433c.806,1.469,2.053,2.849,2.022,4.525a3.956,3.956,0,0,1-.136.915,15.293,15.293,0,0,1-.569,1.6c-2.146,5.619.213,11.962,3.7,16.71,1.787,2.432,4.147,4.54,5.165,7.381a6.292,6.292,0,0,1,.333,1.539c.237,2.56-.968,5.348-3.433,5.765a6.648,6.648,0,0,0-1.73.308c-1.822.846-1.034,3.833-2.382,5.322-.871.962-2.344,1-3.641.958a2.338,2.338,0,0,1-1.228-.263c-.758-.495-.685-1.6-.909-2.472A4.553,4.553,0,0,0,45,292.1a22.7,22.7,0,0,0-4.9-.162,12.542,12.542,0,0,1-5.949-1.266,7.809,7.809,0,0,1-1.928-1.454c-3.23,19.753.408,46.477.408,46.477" transform="translate(-19.82 -161.185)" fill="#8ec3cb"/>
            <path id="Path_1273469" data-name="Path 1273469" d="M85.69,226.327c-.906-3.925.076-10.126,2.7-12.441a4.984,4.984,0,0,1,3.526-1.084c.622,0,.829.156,1.15.1a6.358,6.358,0,0,1,1.513,4.246c-.1,1.222-.805,2.154-.862,3.466-.112,2.389-3.528,4.787-2.216,7.16a5.619,5.619,0,0,1-2.654.237L86.09,226.7q-.206-.175-.4-.369" transform="translate(-54.788 -136.586)" fill="#c1796b"/>
            <path id="Path_1273470" data-name="Path 1273470" d="M90.155,252.909a5.617,5.617,0,0,1-2.759-1.315Z" transform="translate(-56.095 -161.484)" fill="#e1cfb5"/>
            <path id="Path_1273471" data-name="Path 1273471" d="M104.187,217.339c.056-1.313.76-2.244.862-3.466a6.358,6.358,0,0,0-1.513-4.246,1.583,1.583,0,0,0,.548-.242,3.53,3.53,0,0,0,1.111-1.685,5.519,5.519,0,0,1,2.351,4.285,16,16,0,0,1-.529,7.046,8.709,8.709,0,0,1-4.665,5.333c-.128.05-.254.093-.38.135-1.312-2.372,2.1-4.771,2.216-7.16" transform="translate(-65.257 -133.311)" fill="#c1796b"/>
            <path id="Path_1273472" data-name="Path 1273472" d="M29.7,247.706A6.2,6.2,0,0,0,31.4,250.94q.1-.634.217-1.259-.113.624-.217,1.259a7.8,7.8,0,0,0,1.928,1.454,12.542,12.542,0,0,0,5.949,1.266,22.693,22.693,0,0,1,4.9.162,4.553,4.553,0,0,1,3.592,2.982c.223.877.15,1.978.908,2.472a2.338,2.338,0,0,0,1.229.264c1.3.037,2.77,0,3.641-.958,1.348-1.489.561-4.476,2.382-5.322a6.627,6.627,0,0,1,1.73-.308c2.465-.417,3.67-3.205,3.434-5.765a6.285,6.285,0,0,0-.333-1.539c-1.018-2.841-3.378-4.949-5.165-7.381-3.489-4.748-5.848-11.091-3.7-16.71a15.269,15.269,0,0,0,.569-1.6,3.953,3.953,0,0,0,.136-.915c.031-1.676-1.216-3.055-2.022-4.525q-.113-.206-.213-.434a7.824,7.824,0,0,1-.411-1.227c-.017-.067-.033-.134-.049-.2a9.754,9.754,0,0,1-1.838-10.479q.139-.292.294-.572-.155.279-.294.572a9.754,9.754,0,0,0,1.838,10.479c-.906-3.925.076-10.126,2.7-12.44a4.986,4.986,0,0,1,3.526-1.085c.621,0,.829.156,1.15.1a1.575,1.575,0,0,0,.548-.242,3.529,3.529,0,0,0,1.111-1.685,5.52,5.52,0,0,1,2.351,4.285,16,16,0,0,1-.529,7.046,8.708,8.708,0,0,1-4.665,5.333c-.128.05-.254.094-.38.135a3.113,3.113,0,0,0,.424.59c1.2,1.318,3.121,1.624,4.887,1.852a1.306,1.306,0,0,0,.64-.024.919.919,0,0,0,.5-.868,3.734,3.734,0,0,0-.223-1.039c-1.026-3.575.793-7.658,1.1-11.262s-.44-7.511-3.327-9.943a7.777,7.777,0,0,0-1.42.546q-.068-.09-.14-.177c-4.179-5.018-10.079-.728-13.253,3.1a27.749,27.749,0,0,0-5.8,10.794,43.253,43.253,0,0,0-.852,13.09c.231,2.237,1.116,4.433,1.583,6.623a9.726,9.726,0,0,1,.131,4.094c-.605,2.85-2.861,4.941-5.064,6.92q-.3.771-.6,1.565t-.591,1.61q-.19.526-.367,1.069.177-.543.367-1.069.293-.817.591-1.61t.6-1.565c-.3.274-.609.546-.906.817-2.454,2.232-4.867,5.222-4.31,8.492m21.973-49.67a9.8,9.8,0,0,1,1-.58,9.8,9.8,0,0,0-1,.58" transform="translate(-19.008 -122.908)" fill="#3b455a"/>
            <path id="Path_1273473" data-name="Path 1273473" d="M775.96,416.846l20.369-7.491-4.2,35.683,2.433,30.785.215,1.958-4,.106-9.331-28.819L776.7,419.853Z" transform="translate(-498.046 -262.743)" fill="#efbfa5"/>
            <path id="Path_1273474" data-name="Path 1273474" d="M807.6,600.514l4.167-.105,1.064,3.516-.105.031.026,0-6.889,4.082-3.276.364-.416-3.744.885-.648Z" transform="translate(-514.87 -385.37)" fill="#3b455a"/>
            <path id="Path_1273475" data-name="Path 1273475" d="M737.22,423.8l6.257,62.53,4.027.592,3.912-34.832,7.022-32.855Z" transform="translate(-473.182 -269.084)" fill="#efbfa5"/>
            <path id="Path_1273476" data-name="Path 1273476" d="M744.747,606.528l-5.34,3.028.5,2.52,9.542-1.438-.561-3.631Z" transform="translate(-474.585 -389.297)" fill="#3b455a"/>
            <path id="Path_1273477" data-name="Path 1273477" d="M708.2,332.685c-1.289-.9-1.317-2.453-1.314-4.014a38.971,38.971,0,0,1,1.2-8.774,131.8,131.8,0,0,0,3.367-18.7c1.648-17.893,7.3-29.9,7.3-29.9l1.823-4.862q.544-.948,1.131-1.874c2.277-3.573,6.231-9.646,10.46-10.64l.267-.061c4.446-.976,10.143-.523,14.161,1.639a14.033,14.033,0,0,1,2.113,1.5c1.965,1.585,3.567,2.443,4.414,4.858a44.113,44.113,0,0,1,1.312,6.558c.824,4.415,1.315,8.883,1.973,13.323,1.234,8.327,2.281,16.681,3.6,25,.679,4.279,1.363,8.566,1.684,12.89.283,3.823,3.732,7.7,5.67,11.131.674,1.192-9.011,4.281-9.879,4.484-4.018.935-8.292.7-12.434.715q-13.615.061-27.211-.839c-3.01-.2-6.718-.774-9.389-2.272q-.132-.074-.249-.156" transform="translate(-453.712 -162.626)" fill="#d34e4e"/>
            <path id="Path_1273478" data-name="Path 1273478" d="M756.158,253.28s5.113-1.38,5.819,10.156,1.884,40.729,3.531,48.734,4.12,23.705,4.12,23.705l-15.656.544-17.893-1.413s6.121-11.3,7.063-19.305-.706-38.14,3.3-49.44,4.842-12.778,9.719-12.981" transform="translate(-472.45 -162.533)" fill="#fff"/>
            <path id="Path_1273479" data-name="Path 1273479" d="M712.9,279.968l-8.165-1.259v-7.034l19.7-15.015,6.356-1.883-3.061,8.24Z" transform="translate(-452.332 -163.528)" fill="#d34e4e"/>
            <path id="Path_1273480" data-name="Path 1273480" d="M763.77,210.327c-.774,2.323.346,4.8,1.329,6.916.872,1.877,1.175,3.113-1.038,3.619-1.247.285-3.459.818-4.552-.137-.828-.723-.362-2.956.04-3.843.308-.678,1.122-1.021,1.412-1.707a2.4,2.4,0,0,0,.141-.9,12.47,12.47,0,0,0-.512-3.708,12.647,12.647,0,0,1-.642-2.464c-.106-1.228.763-2.66,1.22-3.789.849-2.1,3.806-4.918,6.281-3.269a3.617,3.617,0,0,1,1.167,1.629,3.009,3.009,0,0,1,.324,1.16c.019,1.612-1.453,1.885-2.47,2.652a8.079,8.079,0,0,0-2.7,3.843" transform="translate(-487.192 -128.72)" fill="#3b455a"/>
            <path id="Path_1273481" data-name="Path 1273481" d="M775.743,223.865a6.981,6.981,0,0,1-4.633-4.362,13.98,13.98,0,0,1-.626-6.525c.743-7.3,9.827-6.834,12.9-1.237,2.681,4.878-1.4,13.594-7.645,12.124" transform="translate(-494.457 -133.194)" fill="#efbfa5"/>
            <path id="Path_1273482" data-name="Path 1273482" d="M785.3,247.7q.053,1.248.108,2.5a.382.382,0,0,0,.492.439l2.034-.071a2.217,2.217,0,0,0,.982-.186,1.865,1.865,0,0,0,.679-1.956,6.31,6.31,0,0,1-.21-2.183c-1.4.69-2.73-.869-4.13-.179Z" transform="translate(-504.014 -157.819)" fill="#efbfa5"/>
            <path id="Path_1273483" data-name="Path 1273483" d="M780.992,186.942c2.385.811,3.915,3.223,6.243,4.187,1.335.553,2.915.623,4,1.572,2.441,2.128.479,6.592,2.484,9.134.417.529.979.928,1.4,1.456a7.151,7.151,0,0,1,1.1,4.14,4.568,4.568,0,0,1-.035,1.01c-.313,3.348-5.175,3.135-7.105,2.921-2.119-.235-1.413-1.413-1.413-1.413l.077-.094a4.052,4.052,0,0,0-1.424-3.675,4.972,4.972,0,0,1-1.145-1c-.628-.958-.029-2.228-.121-3.37-.371-4.6-8.088-3.612-10.265-6.886-2.67-4.014,1.694-9.508,6.2-7.977" transform="translate(-496.774 -119.819)" fill="#3b455a"/>
            <path id="Path_1273484" data-name="Path 1273484" d="M837.966,162.417l-2.954-4.133-1.822,1.185,1.4,3.278-1.121.161,2.958,3.229,2.06-.977Z" transform="translate(-534.78 -101.594)" fill="#efbfa5"/>
            <path id="Path_1273485" data-name="Path 1273485" d="M811.61,207.6l15.452-12.481-5.736-19.067,5.7-2.32,10.625,25.142-15.473,19.52Z" transform="translate(-520.928 -111.509)" fill="#d34e4e"/>
            <path id="Path_1273486" data-name="Path 1273486" d="M748.235,321.361l4.615-.763-.24-1.987-3.276-.177.322-.992-3.87,1.134-.029,2.1Z" transform="translate(-478.661 -203.748)" fill="#efbfa5"/>
            <path id="Path_1273487" data-name="Path 1273487" d="M709.369,307.542l-.024.4,11.294,3.455-.27,4.161-15.632-4.009Z" transform="translate(-452.332 -197.395)" fill="#d34e4e"/>
            <path id="Path_1273488" data-name="Path 1273488" d="M554.133,551.025h-44.8a6.407,6.407,0,0,1-6.407-6.407V514.249a6.407,6.407,0,0,1,6.407-6.407h44.8a6.407,6.407,0,0,1,6.407,6.407v30.369a6.407,6.407,0,0,1-6.407,6.407" transform="translate(-322.803 -325.956)" fill="#d34e4e"/>
            <path id="Path_1273489" data-name="Path 1273489" d="M568.751,483.967v-8.28A1.5,1.5,0,0,0,567.2,474.3H544.763a1.5,1.5,0,0,0-1.553,1.384v8.26a2.351,2.351,0,0,0-2.263,2.368h7.612a2.351,2.351,0,0,0-2.242-2.367v-6.877h19.328v6.873h-.156a2.351,2.351,0,0,0-2.33,2.371h7.611a2.356,2.356,0,0,0-2.019-2.348" transform="translate(-347.204 -304.429)" fill="#d34e4e"/>
            <path id="Path_1273490" data-name="Path 1273490" d="M569.754,536.062H559.52V525.647a.719.719,0,0,0-.7-.715H553a.719.719,0,0,0-.7.715v10.415H542.064a.719.719,0,0,0-.7.715V542.7a.666.666,0,0,0,.2.5.642.642,0,0,0,.5.215H552.3v10.415a.719.719,0,0,0,.7.715h5.816a.642.642,0,0,0,.492-.205.664.664,0,0,0,.211-.51V543.41h10.234a.719.719,0,0,0,.7-.715v-5.919a.719.719,0,0,0-.7-.715" transform="translate(-347.471 -336.925)" fill="#fff"/>
            <path id="Path_1273491" data-name="Path 1273491" d="M293.723,276.536a13.452,13.452,0,1,0,10.284-16.047,13.475,13.475,0,0,0-10.284,16.047" transform="translate(-188.325 -166.996)" fill="#3b455a"/>
            <path id="Path_1273492" data-name="Path 1273492" d="M305.372,283.208a9.246,9.246,0,1,0,7.069-11.03,9.263,9.263,0,0,0-7.069,11.03" transform="translate(-195.865 -174.56)" fill="#ccd2d9"/>
            <rect id="Rectangle_464984" data-name="Rectangle 464984" width="3.605" height="43.035" transform="matrix(0.977, -0.212, 0.212, 0.977, 117.972, 112.569)" fill="#ccd2d9"/>
            <path id="Path_1273493" data-name="Path 1273493" d="M322.615,293.72a3.165,3.165,0,1,0,2.42-3.776,3.171,3.171,0,0,0-2.42,3.776" transform="translate(-207.022 -186.053)" fill="#3b455a"/>
            <g id="Group_1190327" data-name="Group 1190327" transform="translate(116.381 109.569)" opacity="0.13">
              <g id="Group_1190326" data-name="Group 1190326">
                <g id="Group_1190325" data-name="Group 1190325" clip-path="url(#clip-path-7)">
                  <path id="Path_1273494" data-name="Path 1273494" d="M325.96,306.252l2.224,10.252a16.254,16.254,0,0,1-3.238-.134l.453-10.442Z" transform="translate(-324.946 -305.927)"/>
                </g>
              </g>
            </g>
            <path id="Path_1273495" data-name="Path 1273495" d="M411.071,397.029c-.783.139-1.453.814-2.321.731.194,1.237-.245-1.636-.124-.386q.242,2.506.3,5.03.033,1.43,0,2.863c0,.165-.038,1.06-.008.383-.011.252-.02.5-.032.755q-.036.728-.09,1.457a50.122,50.122,0,0,1-.863,6.335c-.219,1.07-.478,2.138-.785,3.2q-.241.835-.523,1.664c-.08.236-.166.471-.249.707-.016.044-.043.116-.064.172s-.034.089-.052.133a30.56,30.56,0,0,1-3.128,5.941c-.16.232-.327.462-.494.692.174-.241-.266.342-.356.452q-.485.6-1.014,1.175a26.306,26.306,0,0,1-2.4,2.28c.163-.143-.516.4-.643.493q-.369.27-.751.528-.692.468-1.426.9-.495.288-1.006.556c-.114.06-.232.117-.345.178l-.033.018-.035.015c-.553.242-1.1.492-1.662.715q-1.067.419-2.176.757-.466.142-.938.271c-.14.039-.282.075-.423.112l-.028.006a43.578,43.578,0,0,1-4.559.761c-.441.044-.88.074-1.321.106l-.085.005-.053,0-.3.015.177-.009-.173.005c-.663,0-1.324.005-1.983-.027q-1.059-.052-2.1-.184c-.293-.037-.581-.086-.873-.126l-.019,0-.044-.01c-.124-.028-.251-.049-.376-.075a24.982,24.982,0,0,1-3.583-1.028c-.173-.064-1.233-.515-.567-.216-.246-.11-.495-.217-.738-.331q-.774-.362-1.508-.768a27.9,27.9,0,0,1-2.81-1.8c-.069-.052-.162-.12-.2-.154-.136-.108-.275-.215-.41-.325q-.306-.247-.6-.5-.633-.539-1.227-1.1a33.852,33.852,0,0,1-2.385-2.512q-.594-.691-1.148-1.4c-.1-.134-.484-.646-.271-.354-.152-.208-.3-.416-.453-.626a53.639,53.639,0,0,1-6.142-11.678q-.543-1.394-1.023-2.8c-.085-.248-.166-.5-.249-.744l-.02-.06-.036-.114c-.134-.429-.268-.857-.4-1.287q-.665-2.227-1.19-4.486c-.322-1.384-.626-2.777-.825-4.181-.393-2.766-5.984-1.972-5.591.79.014.1.032.195.045.292a50.369,50.369,0,0,0,1.375,6.268,73.745,73.745,0,0,0,4.1,11.584c3.74,8.2,9.644,16.875,20.157,20.676,11.01,3.981,25.494.47,33.189-7.444,7.271-7.478,9.047-17.248,9.322-26.02.133-4.228.572-4.405-.145-8.572-.981.419-2.269.126-3.288.307m-21.617,38.119c.389-.1.145-.034,0,0M406.3,420h0" transform="translate(-222.272 -254.634)" fill="#7fc5a3"/>
            <path id="Path_1273496" data-name="Path 1273496" d="M527.58,155.577l12.076-2.024a1.637,1.637,0,0,1,1.856,1.328q2.311,13.8,4.622,27.6l.652,3.893a1.612,1.612,0,0,1-3.178.533q-2.311-13.8-4.622-27.6-.193-1.149-.385-2.3l-10.487,1.757a1.618,1.618,0,0,1-.534-3.19" transform="translate(-337.795 -98.544)" fill="#ccd2d9"/>
            <path id="Path_1273497" data-name="Path 1273497" d="M513.345,161.921l3.667-.615-1.068-6.379-3.667.615a2.726,2.726,0,0,0-2.239,3.139l.168,1a2.727,2.727,0,0,0,3.14,2.238" transform="translate(-327.341 -99.439)" fill="#3b455a"/>
            <path id="Path_1273498" data-name="Path 1273498" d="M526.218,160.134l3.108-.521a3.15,3.15,0,0,0,2.587-3.627l-.194-1.159a3.15,3.15,0,0,0-3.628-2.586l-3.107.521Z" transform="translate(-336.958 -97.687)" fill="#ccd2d9"/>
            <path id="Path_1273499" data-name="Path 1273499" d="M417.805,173.339l-12.077,2.024a1.638,1.638,0,0,0-1.322,1.861q2.311,13.8,4.622,27.6.326,1.947.652,3.893a1.612,1.612,0,0,0,3.178-.532q-2.311-13.8-4.622-27.6-.193-1.149-.385-2.3l10.487-1.757a1.618,1.618,0,0,0-.534-3.19" transform="translate(-259.553 -111.24)" fill="#ccd2d9"/>
            <path id="Path_1273500" data-name="Path 1273500" d="M448.308,172.825l-3.667.615-1.069-6.38,3.667-.614a2.726,2.726,0,0,1,3.14,2.238l.168,1a2.726,2.726,0,0,1-2.239,3.139" transform="translate(-284.705 -106.808)" fill="#3b455a"/>
            <path id="Path_1273501" data-name="Path 1273501" d="M435.672,173.984l-3.107.521a3.15,3.15,0,0,1-3.628-2.586l-.194-1.159a3.15,3.15,0,0,1,2.587-3.627l3.107-.521Z" transform="translate(-275.158 -106.939)" fill="#ccd2d9"/>
            <g id="Group_1190330" data-name="Group 1190330" transform="translate(186.491 144.043)" opacity="0.13">
              <g id="Group_1190329" data-name="Group 1190329">
                <g id="Group_1190328" data-name="Group 1190328" clip-path="url(#clip-path-8)">
                  <path id="Path_1273502" data-name="Path 1273502" d="M520.7,403.755s.228,1.978.382,4.272l5.38-3.467-.373-2.38Z" transform="translate(-520.701 -402.18)"/>
                </g>
              </g>
            </g>
            <path id="Path_1273503" data-name="Path 1273503" d="M477.428,241.524a93.569,93.569,0,0,1,2.1,17.576c.354,10.407-.6,21.976-6.769,30.74-6.526,9.275-19.6,13.22-29.991,8.325-9.926-4.673-15.952-15.057-19.957-24.85a112.232,112.232,0,0,1-4.566-13.812c-.649-2.455-1.292-4.95-1.7-7.461-.019-.116-.042-.231-.062-.347-.552-3.284,4.532-4.141,5.085-.852.281,1.67.656,3.329,1.048,4.976q.639,2.687,1.4,5.342c.148.512.3,1.023.453,1.534.2.676-.12-.371.063.207.093.3.186.592.28.887q.54,1.682,1.134,3.344a77.793,77.793,0,0,0,6.453,13.954c.169.28.341.557.513.835-.323-.521.109.167.221.338q.559.854,1.152,1.685c.744,1.04,1.531,2.05,2.366,3.018q.586.68,1.2,1.329.291.3.589.6c.132.131.266.261.4.391.108.106.543.5.057.059a29.309,29.309,0,0,0,2.849,2.3q.7.493,1.439.935c.232.139.468.269.7.4-.633-.366.373.186.536.264a20.618,20.618,0,0,0,3.365,1.275c.116.033.235.06.351.1.6.182-.558-.1.059.016.271.052.54.114.811.162q.966.173,1.945.25c.608.048,1.215.058,1.825.063.16,0,.626-.028,0,0,.132-.007.265-.01.4-.02.4-.031.805-.059,1.207-.1a30.571,30.571,0,0,0,4.137-.833c.123-.032.487-.157-.073.026.16-.052.321-.1.48-.159q.424-.146.843-.307c.663-.256,1.313-.545,1.948-.865.505-.255.986-.544,1.478-.823.553-.313-.456.328.06-.038.1-.071.2-.136.305-.206q.451-.311.886-.645.645-.5,1.249-1.042.333-.3.653-.615c.128-.126.908-.971.42-.418a25.591,25.591,0,0,0,2.188-2.827q.447-.676.851-1.379c.084-.146.539-1,.212-.369.166-.324.332-.648.49-.976a37.9,37.9,0,0,0,2.464-7c.031-.122.06-.245.09-.368-.146.6-.037.158,0,.006.06-.278.122-.556.18-.835q.2-.979.365-1.967.313-1.884.5-3.785a74.489,74.489,0,0,0,.356-7.506q0-.864-.018-1.728c-.006-.3-.015-.6-.022-.9.02.8-.011-.259-.019-.454q-.072-1.7-.2-3.4-.229-2.995-.627-5.974c-.308-2.317-.736-4.6-1.161-6.9-.021-.111-.048-.222-.073-.333a2.578,2.578,0,1,1,5.085-.852" transform="translate(-267.292 -153.633)" fill="#7fc5a3"/>
            <path id="Path_1273504" data-name="Path 1273504" d="M456.07,520.963l0-.019.24-.061h.01l0,.01s0,.006-.008.01H456.3c-.024.009-.084.025-.232.059" transform="translate(-292.723 -334.325)" fill="#a0a2a5"/>
            <path id="Path_1273505" data-name="Path 1273505" d="M509.867,472.7l-.019-.008.008-.019.018.008Z" transform="translate(-327.243 -303.384)" fill="#a0a2a5"/>
            <path id="Path_1273506" data-name="Path 1273506" d="M516.151,380.562l0-.02.09-.008v.02Z" transform="translate(-331.288 -244.244)" fill="#a0a2a5"/>
            <path id="Path_1273507" data-name="Path 1273507" d="M530.248,383.7l-.006-.019c.038-.013.163-.053.17-.054l.009,0,0,.009s0,.006-.008.011h0a1.553,1.553,0,0,1-.165.053" transform="translate(-340.333 -246.227)" fill="#a0a2a5"/>
            <path id="Path_1273508" data-name="Path 1273508" d="M565.933,339.54h0l-.02-.005v-.009c.007-.027.016-.066.029-.119l0-.019.018-.074v0l.019,0c-.009.037-.017.069-.023.1l-.031.128" transform="translate(-363.229 -217.785)" fill="#a0a2a5"/>
            <path id="Path_1273509" data-name="Path 1273509" d="M565.9,340.041l-.02,0s0-.006,0-.017l.02.005,0,.016" transform="translate(-363.209 -218.24)" fill="#a0a2a5"/>
            <path id="Path_1273510" data-name="Path 1273510" d="M516.367,386.158v-.02h.013l.127-.006v.02l-.043,0-.1,0Z" transform="translate(-331.427 -247.837)" fill="#a0a2a5"/>
            <rect id="Rectangle_464987" data-name="Rectangle 464987" width="74.953" height="56.503" transform="translate(40.024 171.311) rotate(-80.719)" fill="#3b455a"/>
            <g id="Group_1190333" data-name="Group 1190333" transform="translate(44.706 108.348)" opacity="0.26">
              <g id="Group_1190332" data-name="Group 1190332">
                <g id="Group_1190331" data-name="Group 1190331" clip-path="url(#clip-path-9)">
                  <path id="Path_1273511" data-name="Path 1273511" d="M124.824,362.984l.835.137,49,9.566,10.139-70.168-2.4.28Z" transform="translate(-124.824 -302.518)" fill="#040909"/>
                </g>
              </g>
            </g>
            <rect id="Rectangle_464989" data-name="Rectangle 464989" width="69.346" height="50.804" transform="translate(43.356 168.593) rotate(-80.719)" fill="#f7f7f7"/>
            <g id="Group_1190336" data-name="Group 1190336" transform="translate(49.318 99.848)" opacity="0.05">
              <g id="Group_1190335" data-name="Group 1190335">
                <g id="Group_1190334" data-name="Group 1190334" clip-path="url(#clip-path-10)">
                  <path id="Path_1273512" data-name="Path 1273512" d="M142.69,278.786l36.063,5.893L137.7,308.956Z" transform="translate(-137.701 -278.786)"/>
                </g>
              </g>
            </g>
            <g id="Group_1190339" data-name="Group 1190339" transform="translate(68.447 102.111)" opacity="0.12">
              <g id="Group_1190338" data-name="Group 1190338">
                <g id="Group_1190337" data-name="Group 1190337" clip-path="url(#clip-path-11)">
                  <rect id="Rectangle_464991" data-name="Rectangle 464991" width="2.059" height="22.064" transform="translate(0 2.032) rotate(-80.719)"/>
                </g>
              </g>
            </g>
            <path id="Path_1273513" data-name="Path 1273513" d="M209.757,266.032l-.338-.055.037-.226c.348-2.134-1.367-4.189-3.832-4.592l-3.247-.53c-2.465-.4-4.746,1-5.094,3.134l-.037.226-.338-.055c-2.465-.4-4.746,1-5.094,3.133l-.7,4.316,21.775,3.559.7-4.316c.348-2.133-1.367-4.189-3.832-4.592m-3.57-.492-5.737-.938a1.074,1.074,0,1,1,.346-2.12l5.737.937a1.074,1.074,0,1,1-.346,2.12" transform="translate(-122.662 -167.238)" fill="#bec6cc"/>
            <g id="Group_1190342" data-name="Group 1190342" transform="translate(51.994 120.366)" opacity="0.47">
              <g id="Group_1190341" data-name="Group 1190341">
                <g id="Group_1190340" data-name="Group 1190340" clip-path="url(#clip-path-12)">
                  <path id="Path_1273514" data-name="Path 1273514" d="M166.522,337.282l-7.362-1.2a.393.393,0,0,0-.446.318l-1.2,7.317a.393.393,0,0,0,.321.444l7.362,1.2a.359.359,0,0,0,.276-.059l.015-.01.006,0a.36.36,0,0,0,.149-.245l1.2-7.317a.394.394,0,0,0-.321-.444m-1.579,7.255-6.594-1.078,1.071-6.555,6.595,1.078-1.071,6.555" transform="translate(-153.094 -336.074)" fill="#c0c4c9"/>
                  <path id="Path_1273515" data-name="Path 1273515" d="M160.351,375.058l-7.362-1.2a.393.393,0,0,0-.446.318l-1.2,7.317a.393.393,0,0,0,.321.444l7.362,1.2a.358.358,0,0,0,.276-.059l.015-.01.008-.006a.354.354,0,0,0,.146-.242l1.2-7.317a.393.393,0,0,0-.321-.444m-1.579,7.255-6.595-1.078q.536-3.278,1.071-6.555l6.595,1.078-1.071,6.555" transform="translate(-149.134 -360.32)" fill="#c0c4c9"/>
                  <path id="Path_1273516" data-name="Path 1273516" d="M154.18,412.835l-7.361-1.2a.393.393,0,0,0-.446.318l-1.2,7.317a.393.393,0,0,0,.321.444l7.361,1.2a.358.358,0,0,0,.276-.059l.015-.01.008-.006a.354.354,0,0,0,.146-.242l1.2-7.317a.393.393,0,0,0-.321-.444M152.6,420.09l-6.595-1.078q.536-3.278,1.071-6.555l6.595,1.078L152.6,420.09" transform="translate(-145.173 -384.568)" fill="#c0c4c9"/>
                </g>
              </g>
            </g>
            <path id="Path_1273517" data-name="Path 1273517" d="M167.769,339.715l1.784-.284.665,1.836,9.03-4.472.91.341-10.651,6.126Z" transform="translate(-107.682 -216.17)" fill="#d34e4e"/>
            <path id="Path_1273518" data-name="Path 1273518" d="M159.729,378.169l1.784-.284.665,1.835,9.03-4.472.91.341-10.651,6.126Z" transform="translate(-102.521 -240.852)" fill="#d34e4e"/>
            <path id="Path_1273519" data-name="Path 1273519" d="M153.46,413.854l1.784-.284.665,1.835,9.03-4.472.91.341L155.2,417.4Z" transform="translate(-98.498 -263.756)" fill="#d34e4e"/>
            <g id="Group_1190345" data-name="Group 1190345" transform="translate(64.647 152.38)" opacity="0.32">
              <g id="Group_1190344" data-name="Group 1190344">
                <g id="Group_1190343" data-name="Group 1190343" clip-path="url(#clip-path-13)">
                  <rect id="Rectangle_464994" data-name="Rectangle 464994" width="3.707" height="26.314" transform="translate(0 3.659) rotate(-80.719)" fill="#8ec3cb"/>
                </g>
              </g>
            </g>
            <g id="Group_1190348" data-name="Group 1190348" transform="translate(66.987 138.049)" opacity="0.32">
              <g id="Group_1190347" data-name="Group 1190347">
                <g id="Group_1190346" data-name="Group 1190346" clip-path="url(#clip-path-14)">
                  <rect id="Rectangle_464996" data-name="Rectangle 464996" width="3.707" height="26.314" transform="translate(0 3.659) rotate(-80.719)" fill="#8ec3cb"/>
                </g>
              </g>
            </g>
            <g id="Group_1190351" data-name="Group 1190351" transform="translate(69.328 123.719)" opacity="0.32">
              <g id="Group_1190350" data-name="Group 1190350">
                <g id="Group_1190349" data-name="Group 1190349" clip-path="url(#clip-path-14)">
                  <rect id="Rectangle_464998" data-name="Rectangle 464998" width="3.707" height="26.314" transform="translate(0 3.659) rotate(-80.719)" fill="#8ec3cb"/>
                </g>
              </g>
            </g>
            <path id="Path_1273520" data-name="Path 1273520" d="M699.425,354.877l-25.284,6.135a17.218,17.218,0,1,1-8.122-33.462l25.22-6.119Z" transform="translate(-418.911 -206.309)" fill="#e0e0e0"/>
            <path id="Path_1273521" data-name="Path 1273521" d="M771.16,340.961,799.587,334a16.008,16.008,0,0,0,11.782-19.332l-.57-2.349a16.009,16.009,0,0,0-19.331-11.781l-28.43,6.957Z" transform="translate(-489.752 -192.61)" fill="#3b455a"/>
            <path id="Path_1273522" data-name="Path 1273522" d="M709.331,356.715l-6.424,1.559-.6.146-1.122-4.623-.563-2.32a.5.5,0,0,0-.6-.36l-3.993.969a.5.5,0,0,0-.366.594l1.541,6.348.144.595-4.679,1.135-2.347.569a.5.5,0,0,0-.366.594q.479,1.973.958,3.945a.45.45,0,0,0,.219.3.46.46,0,0,0,.379.059l6.424-1.559.6-.146q.561,2.312,1.122,4.623l.563,2.32a.5.5,0,0,0,.6.36l3.993-.969a.46.46,0,0,0,.3-.219.451.451,0,0,0,.062-.375l-1.541-6.348-.144-.595,4.679-1.135,2.347-.569a.5.5,0,0,0,.367-.594l-.958-3.945a.5.5,0,0,0-.6-.36" transform="translate(-442.836 -225.354)" fill="#3b455a"/>
            <path id="Path_1273523" data-name="Path 1273523" d="M568.543,335.6l-3.232,1.022-2.631-1.42-.584.4.469.739-2.521-.553-1.862.959-.4,2.758,1.424,2.5,2.781.109,2.929-1.542,4.485-1.207Z" transform="translate(-358.008 -215.148)" fill="#c1796b"/>
            <path id="Path_1273524" data-name="Path 1273524" d="M580.158,294.072l15.059-3.531c1.351-.317,2.752-.385,4.1-.712,1.976-.478,2.517-.645,2.794-2.529.8-5.461-.218-11.126.607-16.506a52.112,52.112,0,0,1,5.92-.64c3.305.044,3.018,2.317,3.2,4.85.221,3,.352,6.018.372,9.03.017,2.5.841,13.322-2.826,14.114-2.628.576-29.109,1.986-29.1,2.529,0-.219-.139-6.6-.139-6.6" transform="translate(-372.372 -173.396)" fill="#474ebb"/>
            <path id="Path_1273525" data-name="Path 1273525" d="M175.141,363.312c.63-.2,5.306.977,5,1.386a8.557,8.557,0,0,1-1.186,1.18c1.333.813,5.506,2.228,2.529,3.74-1.29.655-4.724-.266-5.743-1.139l-.069-.059L174.014,364a2.376,2.376,0,0,1,1.127-.685" transform="translate(-111.69 -233.176)" fill="#c1796b"/>
            <path id="Path_1273526" data-name="Path 1273526" d="M122.125,327.465l18.563,13.481.021.057,1.655,4.424.43,1.149c-10-1.3-10.866-3.953-20.3-8.033Z" transform="translate(-78.385 -210.182)" fill="#8ec3cb"/>
          </g>
        </g>
      </g>
    </g>
  </g>
</svg>
