<svg xmlns="http://www.w3.org/2000/svg" xmlns:xlink="http://www.w3.org/1999/xlink" width="84" height="84" viewBox="0 0 84 84">
  <defs>
    <clipPath id="clip-path">
      <rect id="Rectangle_465017" data-name="Rectangle 465017" width="58.688" height="58.684" fill="#12263f"/>
    </clipPath>
  </defs>
  <g id="img5" transform="translate(-706 -1685.277)">
    <g id="Group_1177731" data-name="Group 1177731">
      <g id="Group_1119665" data-name="Group 1119665" transform="translate(530.111 -3835.723)">
        <path id="Path_991847" data-name="Path 991847" d="M5,0H79a5,5,0,0,1,5,5V79a5,5,0,0,1-5,5H5a5,5,0,0,1-5-5V5A5,5,0,0,1,5,0Z" transform="translate(175.889 5521)" fill="#aae5ff"/>
      </g>
      <g id="Group_1190390" data-name="Group 1190390" transform="translate(718.656 1697.936)">
        <g id="Group_1190389" data-name="Group 1190389" clip-path="url(#clip-path)">
          <path id="Path_1274107" data-name="Path 1274107" d="M28.432,21.839,28.42,38.116a1.106,1.106,0,0,1-1.01,1.148,1.123,1.123,0,0,1-1.26-1.059l-.021-12.54a1.369,1.369,0,1,0-2.738,0l-.009,14.042a1.345,1.345,0,0,1-1.123,1.365,1.287,1.287,0,0,1-1.576-.861l-.914-3.664A1.5,1.5,0,0,0,18.127,35.3,1.456,1.456,0,0,0,16.9,37l1.4,7.048a9.543,9.543,0,0,0,2.4,4.768l3.543,3.756.14,4.814a1.176,1.176,0,0,1-1.019,1.29,1.062,1.062,0,0,1-1.236-1.033l-.151-4.057c-.658-1.125-1.9-1.933-2.748-2.932a14.476,14.476,0,0,1-3.308-6.782l-1.3-6.787a3.578,3.578,0,0,1,2.027-3.7,3.812,3.812,0,0,1,4.438.786l.014-8.5a3.619,3.619,0,0,1,1.412-2.917,3.77,3.77,0,0,1,3.62-.535c-.216-.915.465-1.635.473-2.413l.07-6.613a1.374,1.374,0,0,0-1.3-1.374,1.345,1.345,0,0,0-1.429,1.37l-.025,5.436a1.111,1.111,0,0,1-1.1,1.046A1.123,1.123,0,0,1,21.643,18.5l-.031-11.16a1.292,1.292,0,0,0-1.348-1.188,1.367,1.367,0,0,0-1.372,1.371l-.028,12.627a1.074,1.074,0,0,1-1,.977c-.417.043-1.185-.2-1.187-.79l-.052-16.59a1.4,1.4,0,0,0-1.141-1.43,1.31,1.31,0,0,0-1.6,1.157l-.042,16.6a1.145,1.145,0,0,1-2.287-.11L11.526,7.343a1.293,1.293,0,0,0-1.349-1.19A1.372,1.372,0,0,0,8.8,7.526L8.8,21.44A1.44,1.44,0,0,1,7.6,22.959a1.406,1.406,0,0,1-1.59-1.109l-.917-3.662a1.4,1.4,0,0,0-1.7-.983A1.39,1.39,0,0,0,2.323,18.89l1.31,6.632a10.467,10.467,0,0,0,2.679,5.387L9.8,34.487l.012,23a1.18,1.18,0,0,1-1.1,1.188,1.159,1.159,0,0,1-1.2-1.294L7.5,35.3,4.19,31.925a10.351,10.351,0,0,1-2.626-5.238l-1.5-7.481a3.676,3.676,0,0,1,1.938-3.925,3.733,3.733,0,0,1,4.506.78l.121-9.111C6.664,4.6,9.4,3.259,11.528,4.085A3.726,3.726,0,0,1,15.14,0,3.65,3.65,0,0,1,18.871,4.09a3.69,3.69,0,0,1,3.453.392,3.51,3.51,0,0,1,1.6,2.77l.056,2.482a3.859,3.859,0,0,1,3.57.546,3.8,3.8,0,0,1,1.425,3.095L28.963,18.2a3.718,3.718,0,0,1,3.323.921,3.855,3.855,0,0,1,1.206,3.1,4.257,4.257,0,0,1,2.715-.015l.012-9.293a3.757,3.757,0,0,1,1.5-3.027A3.817,3.817,0,0,1,41.291,9.4a3.673,3.673,0,1,1,7.3-.011,3.879,3.879,0,0,1,3.449.405,3.508,3.508,0,0,1,1.6,2.772l.058,2.5a3.68,3.68,0,0,1,5,3.444l-.014,11.365a13.168,13.168,0,0,1-2.111,7.041,1.166,1.166,0,0,1-1.539.384,1.1,1.1,0,0,1-.449-1.475,11.422,11.422,0,0,0,1.8-5.771V18.329a1.359,1.359,0,0,0-2.7-.006l-.031,6.934a1.13,1.13,0,0,1-1.114,1.18,1.1,1.1,0,0,1-1.169-1.154l-.012-12.447a1.37,1.37,0,1,0-2.74.013l-.031,12.619a1.067,1.067,0,0,1-1.164.968,1.119,1.119,0,0,1-1.107-1.22L46.289,8.8a1.275,1.275,0,0,0-1.264-1.18,1.288,1.288,0,0,0-1.439,1.176l-.019,15.174a1.149,1.149,0,0,1-1.111,1.246,1.176,1.176,0,0,1-1.18-1.2l-.007-11.184a1.372,1.372,0,0,0-2.743.017L38.512,27.9a3.716,3.716,0,0,1,5.045,3.354L43.54,42.793a13.072,13.072,0,0,1-3.254,8.485l-2.122,2.153-.033,4.139a1.094,1.094,0,0,1-1.023,1.105,1.022,1.022,0,0,1-1.17-.908l.008-5.29,2.709-2.835a9.961,9.961,0,0,0,2.595-6.916l.023-11.37a1.371,1.371,0,0,0-1.381-1.4,1.358,1.358,0,0,0-1.378,1.4L38.5,38.126A1.1,1.1,0,0,1,37.5,39.263a1.114,1.114,0,0,1-1.262-1.058l-.02-12.54a1.369,1.369,0,1,0-2.737,0L33.46,38.206a1.133,1.133,0,0,1-2.264-.089l-.011-16.291a1.377,1.377,0,1,0-2.754.012" transform="translate(0 0)" fill="#12263f"/>
          <path id="Path_1274108" data-name="Path 1274108" d="M280.292,254.293a1.16,1.16,0,0,1-1.1,1.1A1.126,1.126,0,0,1,278,254.28l0-12.253a1.135,1.135,0,0,1,1.032-1.118,1.152,1.152,0,0,1,1.25,1Z" transform="translate(-227.01 -196.716)" fill="#12263f"/>
          <path id="Path_1274109" data-name="Path 1274109" d="M278.814,212.873a1.13,1.13,0,0,1,1.456.742,1.159,1.159,0,0,1-.594,1.355,1.136,1.136,0,1,1-.862-2.1" transform="translate(-227.041 -173.776)" fill="#12263f"/>
        </g>
      </g>
    </g>
  </g>
</svg>
