<svg xmlns="http://www.w3.org/2000/svg" xmlns:xlink="http://www.w3.org/1999/xlink" width="84" height="84" viewBox="0 0 84 84">
  <defs>
    <clipPath id="clip-path">
      <rect id="Rectangle_465012" data-name="Rectangle 465012" width="56.916" height="57.879" fill="#12263f"/>
    </clipPath>
  </defs>
  <g id="img17" transform="translate(-706 -1685.277)">
    <g id="Group_1177731" data-name="Group 1177731">
      <g id="Group_1119665" data-name="Group 1119665" transform="translate(530.111 -3835.723)">
        <path id="Path_991847" data-name="Path 991847" d="M5,0H79a5,5,0,0,1,5,5V79a5,5,0,0,1-5,5H5a5,5,0,0,1-5-5V5A5,5,0,0,1,5,0Z" transform="translate(175.889 5521)" fill="#aae5ff"/>
      </g>
      <g id="Group_1190380" data-name="Group 1190380" transform="translate(719.542 1698.338)">
        <g id="Group_1190379" data-name="Group 1190379" clip-path="url(#clip-path)">
          <path id="Path_1274082" data-name="Path 1274082" d="M36.143,96.609a.952.952,0,0,1-1.012-.929V80.491l-5.725,0,.013,14.189,3.761.017-.02,1.913H23.753V94.684l3.746,0V80.475l-5.716.018V95.68a.929.929,0,0,1-.926.921l-5.6,0a1.008,1.008,0,0,1-1.041-.955l-.007-13.3-8.526,0,0,14.226H3.807l0-14.282A4.8,4.8,0,0,1,0,77.42v-13.9a4.81,4.81,0,0,1,3.965-4.8,6.634,6.634,0,1,1,8.183.735,4.6,4.6,0,0,1,2.028,3.507l.041,7.056H18l.043-5.057a6.608,6.608,0,0,1,5.8-6.265,6.632,6.632,0,1,1,9.211-.005A6.807,6.807,0,0,1,38.9,65.845l0,4.173,3.809,0,.016-6.877a4.808,4.808,0,0,1,2.032-3.69,6.623,6.623,0,1,1,8.2-.748,4.864,4.864,0,0,1,3.967,4.816v13.9a4.76,4.76,0,0,1-3.8,4.855l-.011,14.3-1.871.007,0-14.229H42.71L42.7,95.65a1,1,0,0,1-1.042.954ZM7.472,49.311A4.687,4.687,0,0,0,3.98,55.146a4.726,4.726,0,1,0,3.493-5.835m19.9.013a4.719,4.719,0,1,0,5.687,3.507,4.713,4.713,0,0,0-5.687-3.507m19.893,0A4.724,4.724,0,1,0,52.973,52.8a4.725,4.725,0,0,0-5.706-3.469M7.6,75.707l0-9.431,1.881-.007.011,8.5,13.291-.009-.021-2.8-9.45-.007a.948.948,0,0,1-.939-.839l-.051-7.971a2.635,2.635,0,0,0-2.3-2.478H4.226a2.694,2.694,0,0,0-2.339,2.662L1.91,77.766a2.8,2.8,0,0,0,2.856,2.712L15.26,80.5c.547,0,.883.575.883,1.1l.007,13.045h3.791l-.016-15.03a2.911,2.911,0,0,0-3.036-2.95l-8.316.01a.971.971,0,0,1-.978-.974m25.663-5.668,3.727-.028.031-4.335A4.827,4.827,0,0,0,31.944,60.6l-2.638,7a.94.94,0,0,1-1.694,0l-2.648-7.006a4.726,4.726,0,0,0-5.047,4.715l0,4.707,3.811.034a.946.946,0,0,1,.922.867l.018,3.845,7.573,0,.018-3.847a.97.97,0,0,1,1-.876m-3.364-9.417-2.885-.015L28.459,64.4ZM39.742,76.7a2.816,2.816,0,0,0-2.754,2.913V94.682l3.777-.029.007-13.045a1.015,1.015,0,0,1,.884-1.1l10.663-.044a2.763,2.763,0,0,0,2.687-2.692l.021-14.446a2.745,2.745,0,0,0-2.5-2.7l-5.478,0a2.7,2.7,0,0,0-2.453,2.52l-.052,7.965a.945.945,0,0,1-.939.839l-9.452.015.005,2.807,13.269-.007.008-8.493,1.884.007-.012,9.516a.948.948,0,0,1-.969.883Zm-4.5,1.841a6.265,6.265,0,0,1,.726-1.861l-15.022,0a14.582,14.582,0,0,1,.819,1.9Z" transform="translate(0 -38.733)" fill="#12263f"/>
          <path id="Path_1274083" data-name="Path 1274083" d="M58.716,9.276a1.037,1.037,0,0,1-1.039.072.826.826,0,0,1-.49-.7l-.042-1.984-3.622,0A1.019,1.019,0,0,1,52.447,5.6l-.008-4.522A.971.971,0,0,1,53.344.017L66.528,0a1.03,1.03,0,0,1,1.1,1.078V5.616a1.034,1.034,0,0,1-1.1,1.052l-4.32,0Zm3.048-4.45,3.95-.119-.007-2.8L54.4,1.924,54.37,4.71l3.975.079c.725.014.841,1.084.739,1.727Z" transform="translate(-42.956 0)" fill="#12263f"/>
          <path id="Path_1274084" data-name="Path 1274084" d="M185.463,17.776l-1.925,0V15.953h1.915Z" transform="translate(-150.347 -13.069)" fill="#12263f"/>
          <path id="Path_1274085" data-name="Path 1274085" d="M206.547,17.614l-1.849.034-.033-1.845,1.843-.036Z" transform="translate(-167.655 -12.916)" fill="#12263f"/>
          <path id="Path_1274086" data-name="Path 1274086" d="M227.515,17.724l-1.92.008V15.895l1.909.009Z" transform="translate(-184.8 -13.021)" fill="#12263f"/>
          <path id="Path_1274087" data-name="Path 1274087" d="M153.963,174.938l-1.887.05a9.549,9.549,0,0,1,0-1.92l1.837,0Z" transform="translate(-124.535 -141.77)" fill="#12263f"/>
        </g>
      </g>
    </g>
  </g>
</svg>
