<svg xmlns="http://www.w3.org/2000/svg" xmlns:xlink="http://www.w3.org/1999/xlink" width="97.668" height="98" viewBox="0 0 97.668 98">
  <defs>
    <clipPath id="clip-path">
      <rect id="Rectangle_465010" data-name="Rectangle 465010" width="63.716" height="63.72" fill="#174165"/>
    </clipPath>
    <clipPath id="clip-path-2">
      <rect id="Rectangle_456707" data-name="Rectangle 456707" width="25.382" height="26.373" fill="#f5b86e"/>
    </clipPath>
    <clipPath id="clip-path-3">
      <rect id="Rectangle_456710" data-name="Rectangle 456710" width="16.076" height="16.076" fill="#6dceff"/>
    </clipPath>
  </defs>
  <g id="img15" transform="translate(-411.393 -9354.88)">
    <g id="Group_1179599" data-name="Group 1179599" transform="translate(411.393 9354.88)">
      <g id="Group_1179591" data-name="Group 1179591" transform="translate(0 0)">
        <circle id="Ellipse_13609" data-name="Ellipse 13609" cx="48.834" cy="48.834" r="48.834" fill="#fff"/>
        <g id="Group_1190376" data-name="Group 1190376" transform="translate(16.976 16.974)">
          <g id="Group_1190375" data-name="Group 1190375" clip-path="url(#clip-path)">
            <path id="Path_1274075" data-name="Path 1274075" d="M90.323,93.648l-7.018.09-.05,3.391a3.71,3.71,0,0,1-3.817,3.385l-11.99.023A3.933,3.933,0,0,1,63.4,97.121l-.049-3.4-6.721-.023a3.023,3.023,0,0,1-3.052-3.037l-.007-9.707a7.555,7.555,0,0,1,4.2-6.691,4.663,4.663,0,1,1,6.366.074,7.346,7.346,0,0,1,3.682,3.758,12.452,12.452,0,0,1,2-1.047,5.372,5.372,0,1,1,7.339-7.833,5.4,5.4,0,0,1-.343,7.874,9.372,9.372,0,0,1,1.993.974,7.609,7.609,0,0,1,3.687-3.733,4.677,4.677,0,0,1-.169-6.71,4.622,4.622,0,0,1,6.514-.126,4.676,4.676,0,0,1,0,6.786,7.42,7.42,0,0,1,4.225,6.674l0,9.711a2.91,2.91,0,0,1-2.754,2.985m-30.3-25.311a2.716,2.716,0,1,0,3.541,1.6,2.68,2.68,0,0,0-3.541-1.6m24.615.013a2.672,2.672,0,0,0-1.381,3.772,2.717,2.717,0,0,0,4.956-2.206,2.7,2.7,0,0,0-3.575-1.566M72.4,69.665a3.407,3.407,0,0,0-2.333,4.408,3.446,3.446,0,0,0,6.581-2.044A3.4,3.4,0,0,0,72.4,69.665M63.367,91.7l.033-6.114a9.089,9.089,0,0,1,2.815-6.155,5.41,5.41,0,0,0-5.945-3.858,5.3,5.3,0,0,0-4.737,5.066l-.053,9.918a1.159,1.159,0,0,0,1.135,1.181Zm26.569.047a1.181,1.181,0,0,0,1.242-1.191l-.053-9.918A5.328,5.328,0,0,0,86.2,75.547a5.407,5.407,0,0,0-5.754,3.882,9.113,9.113,0,0,1,2.815,6.159l.04,6.138ZM79.262,98.609a2.175,2.175,0,0,0,2.17-2.18L81.36,85.882a8.058,8.058,0,0,0-8.138-7.52c-4.081.057-7.9,3.255-7.925,7.521l-.071,10.543A2.211,2.211,0,0,0,67.5,98.618Z" transform="translate(-41.472 -51.253)" fill="#174165"/>
            <path id="Path_1274076" data-name="Path 1274076" d="M132.361,10.314l-2.431,2.867a.969.969,0,0,1-1.508,0l-2.383-2.8a1.009,1.009,0,0,1,.09-1.554c.957-.691,1.43.672,2.131.888L128.252.907A.911.911,0,0,1,129.166,0a31.886,31.886,0,0,1,30.4,22.3.971.971,0,1,1-1.826.659,29.747,29.747,0,0,0-27.647-21l.034,7.828c.534-.143.58-.584.775-.774a1.053,1.053,0,0,1,1.319-.166.96.96,0,0,1,.138,1.475" transform="translate(-97.319 0)" fill="#174165"/>
            <path id="Path_1274077" data-name="Path 1274077" d="M37.394,187.913l2.535,2.995a.948.948,0,0,1-.183,1.413c-.847.578-1.291-.328-2.1-.95l-.029,8.87a.907.907,0,0,1-.916.909A31.892,31.892,0,0,1,6.309,178.857a1.006,1.006,0,0,1,.459-1.2c.3-.21,1.138-.173,1.31.4A29.8,29.8,0,0,0,35.78,199.2l0-7.748c-.614-.033-.934,1.447-1.981.945a.994.994,0,0,1-.238-1.631l2.386-2.807a.951.951,0,0,1,1.45-.049" transform="translate(-4.839 -137.43)" fill="#174165"/>
            <path id="Path_1274078" data-name="Path 1274078" d="M8.262,35.776a1.277,1.277,0,0,1,.5.828,1.108,1.108,0,0,1-.443.956L5.483,39.924a.968.968,0,0,1-1.309-.041.888.888,0,0,1-.136-1.192l.977-1.05L.9,37.622A.906.906,0,0,1,0,36.7,31.876,31.876,0,0,1,22.291,6.31a.971.971,0,1,1,.666,1.824A29.782,29.782,0,0,0,1.934,35.681l3.076.058-.863-.924a.913.913,0,0,1-.079-1.187.929.929,0,0,1,1.271-.236Z" transform="translate(0 -4.839)" fill="#174165"/>
            <path id="Path_1274079" data-name="Path 1274079" d="M178.039,157.775A29.831,29.831,0,0,0,199.2,130.165l-3.076-.073.977,1.05a.888.888,0,0,1-.137,1.191.96.96,0,0,1-1.309.046l-2.835-2.373a1.172,1.172,0,0,1-.445-.765,1.119,1.119,0,0,1,.44-.956l2.982-2.445a.945.945,0,0,1,1.272.238.916.916,0,0,1-.078,1.19l-.861.921,4.11.039a.909.909,0,0,1,.9.916,31.9,31.9,0,0,1-22.29,30.4,1.013,1.013,0,0,1-1.2-.46c-.206-.292-.179-1.13.39-1.3" transform="translate(-137.427 -97.29)" fill="#174165"/>
          </g>
        </g>
      </g>
    </g>
    <g id="Group_1182198" data-name="Group 1182198" transform="translate(412.044 9354.88)">
      <g id="Group_1182195" data-name="Group 1182195" transform="translate(71.386 71.627)">
        <g id="Group_1182154" data-name="Group 1182154" clip-path="url(#clip-path-2)">
          <path id="Path_1002486" data-name="Path 1002486" d="M15.723,15.248c-2.87-1.337-1.955-5.954,1.332-3.421,1.944,1.154.952,4.191-1.332,3.421M15,21.807c-1.654.48-1.1,3.582.578,3.156,1.458-.371,1.227-3.68-.578-3.156M12.74,6.765c-.212-1.517-3.013-1.421-2.851.108.141,1.33,3.083,1.547,2.851-.108M8.883,14.272c-1.96-1.061-3.565,2.07-2.253,3.506,2.522,2.81,4.541-1.849,2.253-3.506M4.094,10.709A1.736,1.736,0,0,0,1.927,8a1.737,1.737,0,0,0,2.167,2.711m16.39-5.23h0a.652.652,0,0,0-.878.512c-.665,4.427,5.131,1.013.878-.512M5.97,23.675h0a.652.652,0,0,0-.878.512c-.665,4.427,5.13,1.013.878-.512m19.4-7.4A1.91,1.91,0,1,0,21.8,17.636c-.335-.136,3.877,3.139,3.569-1.361M2.591,18.982a1.325,1.325,0,1,0-2.477.944c-.232-.095,2.691,2.178,2.477-.944M5.815.432A.586.586,0,0,0,6.1.172ZM6.1.172,6.291,0A.881.881,0,0,0,6.1.172" transform="translate(0 -0.001)" fill="#f5b86e"/>
        </g>
      </g>
      <g id="Group_1182194" data-name="Group 1182194" transform="translate(0 0)">
        <g id="Group_1182160" data-name="Group 1182160" transform="translate(0 0)" clip-path="url(#clip-path-3)">
          <path id="Path_1002489" data-name="Path 1002489" d="M13.285,5.247H10.829V2.791a2.791,2.791,0,1,0-5.582,0V5.247H2.791a2.791,2.791,0,0,0,0,5.582H5.247v2.456a2.791,2.791,0,1,0,5.582,0V10.829h2.456a2.791,2.791,0,0,0,0-5.582" transform="translate(0 0)" fill="#6dceff"/>
        </g>
      </g>
    </g>
  </g>
</svg>
