<svg xmlns="http://www.w3.org/2000/svg" xmlns:xlink="http://www.w3.org/1999/xlink" width="97.668" height="98" viewBox="0 0 97.668 98">
  <defs>
    <clipPath id="clip-path">
      <rect id="Rectangle_465019" data-name="Rectangle 465019" width="59.079" height="58.72" fill="#174165"/>
    </clipPath>
    <clipPath id="clip-path-2">
      <rect id="Rectangle_456707" data-name="Rectangle 456707" width="25.382" height="26.373" fill="#f5b86e"/>
    </clipPath>
    <clipPath id="clip-path-3">
      <rect id="Rectangle_456710" data-name="Rectangle 456710" width="16.076" height="16.076" fill="#6dceff"/>
    </clipPath>
  </defs>
  <g id="img13" transform="translate(-411.393 -9354.88)">
    <g id="Group_1179599" data-name="Group 1179599" transform="translate(411.393 9354.88)">
      <g id="Group_1179591" data-name="Group 1179591" transform="translate(0 0)">
        <circle id="Ellipse_13609" data-name="Ellipse 13609" cx="48.834" cy="48.834" r="48.834" fill="#fff"/>
        <g id="Group_1190394" data-name="Group 1190394" transform="translate(19.294 19.474)">
          <g id="Group_1190393" data-name="Group 1190393" clip-path="url(#clip-path)">
            <path id="Path_1274127" data-name="Path 1274127" d="M52.171,25.357l-1.6.083-.112,6.61,7.755.028a.855.855,0,0,1,.8,1.139l-1.772,4.139a3.083,3.083,0,0,1-2.739,1.893l-8.07.059L45.16,43.231a4.424,4.424,0,0,1-4.04,3.364l-10.695.048,0,4.845,7.442.022a3.618,3.618,0,0,1,3.192,2.483L42.5,57.387a.989.989,0,0,1,.009.84.916.916,0,0,1-.75.492H17.313a.915.915,0,0,1-.75-.492.979.979,0,0,1,.011-.841L18.009,54a3.721,3.721,0,0,1,3.41-2.506l7.228,0,0-4.847-10.7-.048A4.329,4.329,0,0,1,13.97,43.4l-1.339-4.1-7.87-.027c-2.931-.01-3.43-3.33-4.729-6.06-.132-.423.145-1.1.654-1.109l7.845-.062L8.488,21.307A2.682,2.682,0,0,1,4.9,18.986l-.038-8.012c-.013-2.782,2.15-4.2,4.948-5.017A3.877,3.877,0,0,1,10.5.988,3.838,3.838,0,0,1,15.56.919a3.873,3.873,0,0,1,.751,5.064c2.447.58,4.906,2.167,4.9,4.52l-.018,8.571A2.612,2.612,0,0,1,17.678,21.3l-.1,10.77,7.931.04c.47,0,.667.776.562,1.194l-1.9,4.277a3.04,3.04,0,0,1-2.731,1.695l-6.878.053,1.213,3.782a2.561,2.561,0,0,0,2.661,1.753l22.382-.01a2.483,2.483,0,0,0,2.472-1.737l1.214-3.787-6.872-.061a3.678,3.678,0,0,1-3.178-2.54l-1.436-3.439c-.161-.385.075-1.178.543-1.18l7.938-.039-.086-6.631-1.544-.07a.89.89,0,0,1-.8-1.146l.989-4.11c-1.714.035-3.3-1.437-2.9-3.105l1.658-6.846A4.988,4.988,0,0,1,42.854,6.14a3.892,3.892,0,0,1,.535-5.114A3.852,3.852,0,0,1,48.471.894a3.942,3.942,0,0,1,.693,5.259,4.6,4.6,0,0,1,3.8,3.289l1.881,7.525c.434,1.736-1.2,3.212-2.927,3.157l1.045,4.22a.822.822,0,0,1-.792,1.012m-39.5-23.52a2.093,2.093,0,0,0-1.617,2.521,2.063,2.063,0,0,0,4.016-.947,2.051,2.051,0,0,0-2.4-1.574m32.881.011a2.045,2.045,0,0,0-1.47,2.742A2.057,2.057,0,0,0,48,3.362a2.085,2.085,0,0,0-2.45-1.513M13.96,22.265l.013,8.847a.953.953,0,0,0,.792.937c.4.08,1.045-.143,1.046-.724l.016-19a.859.859,0,0,1,.89-.957.883.883,0,0,1,.912.94l0,6.327a.954.954,0,0,0,.865,1.032.888.888,0,0,0,.969-.819l-.034-8.329c-.007-1.739-3.3-3.075-4.752-2.964a12.993,12.993,0,0,1-3.19,0c-1.061-.159-2.269.547-3.234.956a2.6,2.6,0,0,0-1.591,2.437l-.007,7.689A.963.963,0,0,0,7.69,19.662a.936.936,0,0,0,.824-1.029l-.007-6.36a.89.89,0,0,1,.965-.908.906.906,0,0,1,.8.917l.014,18.78a.96.96,0,1,0,1.918.048l-.011-8.767a.879.879,0,0,1,.828-1.007.9.9,0,0,1,.938.929m36.963,1.267L48.148,12.473A.91.91,0,0,1,48.94,11.4a.882.882,0,0,1,.946.681L51.244,17.5a1.01,1.01,0,0,0,1.158.743c.3-.052.824-.423.707-.9L51.4,10.377c-.61-2.489-2.876-2.72-5.428-2.718-2.326,0-4.717.219-5.267,2.424l-1.8,7.225a.8.8,0,0,0,.819.945c.393.014.837-.037.966-.531l1.544-5.9c.131-.5.838-.489,1.125-.341a.869.869,0,0,1,.491,1.011l-2.788,11.1ZM45.108,31.01,45.1,25.438a5.376,5.376,0,0,0-1.834.013l.011,5.889a.812.812,0,0,0,1.032.705.994.994,0,0,0,.8-1.037m3.675-.028.014-5.561-1.936.01.013,5.677a.956.956,0,0,0,.96.961.986.986,0,0,0,.949-1.087M21.3,37.514a1.692,1.692,0,0,0,1.559-1.242l.981-2.386L2.317,33.879c.829,2.07,1.041,3.67,2.9,3.667Zm32.879.008a1.689,1.689,0,0,0,1.523-1.05l1.065-2.587-21.544,0,1.219,2.844a1.57,1.57,0,0,0,1.433.8ZM40.3,56.949,39.087,54a1.951,1.951,0,0,0-1.667-.743l-15.983.01a1.834,1.834,0,0,0-1.734,1.35l-.927,2.346Z" transform="translate(0 0)" fill="#174165"/>
          </g>
        </g>
      </g>
    </g>
    <g id="Group_1182198" data-name="Group 1182198" transform="translate(412.044 9354.88)">
      <g id="Group_1182195" data-name="Group 1182195" transform="translate(71.386 71.627)">
        <g id="Group_1182154" data-name="Group 1182154" clip-path="url(#clip-path-2)">
          <path id="Path_1002486" data-name="Path 1002486" d="M15.723,15.248c-2.87-1.337-1.955-5.954,1.332-3.421,1.944,1.154.952,4.191-1.332,3.421M15,21.807c-1.654.48-1.1,3.582.578,3.156,1.458-.371,1.227-3.68-.578-3.156M12.74,6.765c-.212-1.517-3.013-1.421-2.851.108.141,1.33,3.083,1.547,2.851-.108M8.883,14.272c-1.96-1.061-3.565,2.07-2.253,3.506,2.522,2.81,4.541-1.849,2.253-3.506M4.094,10.709A1.736,1.736,0,0,0,1.927,8a1.737,1.737,0,0,0,2.167,2.711m16.39-5.23h0a.652.652,0,0,0-.878.512c-.665,4.427,5.131,1.013.878-.512M5.97,23.675h0a.652.652,0,0,0-.878.512c-.665,4.427,5.13,1.013.878-.512m19.4-7.4A1.91,1.91,0,1,0,21.8,17.636c-.335-.136,3.877,3.139,3.569-1.361M2.591,18.982a1.325,1.325,0,1,0-2.477.944c-.232-.095,2.691,2.178,2.477-.944M5.815.432A.586.586,0,0,0,6.1.172ZM6.1.172,6.291,0A.881.881,0,0,0,6.1.172" transform="translate(0 -0.001)" fill="#f5b86e"/>
        </g>
      </g>
      <g id="Group_1182194" data-name="Group 1182194" transform="translate(0 0)">
        <g id="Group_1182160" data-name="Group 1182160" transform="translate(0 0)" clip-path="url(#clip-path-3)">
          <path id="Path_1002489" data-name="Path 1002489" d="M13.285,5.247H10.829V2.791a2.791,2.791,0,1,0-5.582,0V5.247H2.791a2.791,2.791,0,0,0,0,5.582H5.247v2.456a2.791,2.791,0,1,0,5.582,0V10.829h2.456a2.791,2.791,0,0,0,0-5.582" transform="translate(0 0)" fill="#6dceff"/>
        </g>
      </g>
    </g>
  </g>
</svg>
