<svg xmlns="http://www.w3.org/2000/svg" xmlns:xlink="http://www.w3.org/1999/xlink" width="154.659" height="150.151" viewBox="0 0 154.659 150.151">
  <defs>
    <clipPath id="clip-path">
      <rect id="Rectangle_456707" data-name="Rectangle 456707" width="38.993" height="40.516" fill="#ff9595"/>
    </clipPath>
    <clipPath id="clip-path-2">
      <rect id="Rectangle_465030" data-name="Rectangle 465030" width="91.619" height="91.638" fill="#fff"/>
    </clipPath>
    <clipPath id="clip-path-3">
      <rect id="Rectangle_456710" data-name="Rectangle 456710" width="22.098" height="22.099" fill="#ff9595"/>
    </clipPath>
  </defs>
  <g id="img15" transform="translate(20673.059 -522.268)">
    <g id="Group_1182195" data-name="Group 1182195" transform="translate(-20557.393 630.545)">
      <g id="Group_1182154" data-name="Group 1182154" clip-path="url(#clip-path)">
        <path id="Path_1002486" data-name="Path 1002486" d="M24.154,23.425c-4.409-2.053-3-9.146,2.047-5.256,2.987,1.772,1.462,6.439-2.047,5.256M23.043,33.5c-2.541.738-1.686,5.5.888,4.848,2.24-.57,1.884-5.653-.888-4.848m-3.47-23.108c-.326-2.33-4.629-2.183-4.379.165.217,2.043,4.736,2.376,4.379-.165M13.647,21.925c-3.012-1.63-5.477,3.18-3.461,5.387,3.875,4.317,6.975-2.841,3.461-5.387M6.289,16.452c2.705-2.162-.628-6.328-3.329-4.165-2.613,2.169.637,6.236,3.329,4.165M31.468,8.417h0A1,1,0,0,0,30.12,9.2c-1.021,6.8,7.882,1.557,1.348-.787M9.171,36.37h0a1,1,0,0,0-1.348.787c-1.021,6.8,7.882,1.556,1.348-.787M38.968,25c-1.3-3.721-6.989-1.553-5.483,2.09-.514-.21,5.957,4.822,5.483-2.09M3.98,29.161c-.9-2.582-4.85-1.078-3.8,1.451-.357-.145,4.134,3.346,3.8-1.451M8.933.663a.9.9,0,0,0,.441-.4Zm.441-.4L9.664,0a1.353,1.353,0,0,0-.29.262" transform="translate(0 -0.001)" fill="#ff9595"/>
      </g>
    </g>
    <g id="Group_1179591" data-name="Group 1179591" transform="translate(-20673.059 522.421)">
      <path id="Path_1002463" data-name="Path 1002463" d="M75,0A75,75,0,1,1,0,75,75,75,0,0,1,75,0Z" transform="translate(0)" fill="#783534"/>
      <g id="Group_1190416" data-name="Group 1190416" transform="translate(29.189 29.18)">
        <g id="Group_1190415" data-name="Group 1190415" clip-path="url(#clip-path-2)">
          <path id="Path_1274235" data-name="Path 1274235" d="M70.775,141.646a1.434,1.434,0,0,1-1.548-1.506l-.163-16.968c-.032-3.392-6.348-6.669-9.56-10.705a14.3,14.3,0,0,1-3.132-10.187l.681-9.377c.34-4.679,5.271-8.777,10.275-9.492l.1-3.994a6.681,6.681,0,0,1,3.678-5.638c2.537-1.38,5.27-.4,7.286.723,1.542-2.056,3.807-3.936,6.631-3.594a6.627,6.627,0,0,1,5.891,4.938,6.811,6.811,0,0,1,6.16-.934,6.681,6.681,0,0,1,4.15,4.126,6.669,6.669,0,0,1,10.745,5.3l-.069,8.782a15.3,15.3,0,0,0,.141,2.979c1.8,10.534,3.988,20.351-3.869,28.581l-.051,15.523a1.452,1.452,0,0,1-1.459,1.434ZM81.916,97.2a3.15,3.15,0,0,0,3.757,1.233c.912-.286,2.443-1.358,2.448-2.721l.059-18.448a3.591,3.591,0,0,0-3.679-3.4c-1.69,0-3.612,1.184-3.627,3.111l-.051,6.441a7.253,7.253,0,0,1,5.58,6.4A7.335,7.335,0,0,1,81.916,97.2m-4.062-14-.028-3.566a3.719,3.719,0,0,0-7.352-.656,13.618,13.618,0,0,0-.065,4.29ZM98.56,93.049l-.014-12.263a3.538,3.538,0,0,0-3.714-3.278,3.612,3.612,0,0,0-3.611,3.312V93.139c0,1.94,1.977,3.276,3.616,3.317a3.569,3.569,0,0,0,3.722-3.407m10.484-.6-.056-8.361a3.689,3.689,0,0,0-3.831-3.486,3.728,3.728,0,0,0-3.583,3.553l-.008,8.632a3.7,3.7,0,0,0,3.844,3.675,3.806,3.806,0,0,0,3.635-4.013M90.511,97.77a6.533,6.533,0,0,1-5.342,3.774,23.613,23.613,0,0,1,.979,8.108,1.452,1.452,0,0,1-1.6,1.767c-1.9-.156-1.144-2.418-1.508-6.267a7.59,7.59,0,0,0-6.395-6.979c-5.558-1.049-9.435.478-9.531-1.914a1.452,1.452,0,0,1,1.431-1.509L79.4,94.711a4.213,4.213,0,0,0,4.086-4.334,4.167,4.167,0,0,0-3.923-4.119l-10.669-.012c-4.01,0-8.628,3.2-8.909,6.935l-.662,8.81a12.3,12.3,0,0,0,4.1,10.385l4.85,4.233a11.112,11.112,0,0,1,3.787,6.062l33.882.009a17.664,17.664,0,0,0,4.924-13.642,81.642,81.642,0,0,0-1.482-10.956,6.816,6.816,0,0,1-9.261-1.122,6.776,6.776,0,0,1-9.615.809m14.724,40.954-.018-13.1-33.055.007.041,13.12Z" transform="translate(-39.749 -50.007)" fill="#fff"/>
          <path id="Path_1274236" data-name="Path 1274236" d="M261.627,129.641c-.351.814-2.011.671-2.31-.037l-2.381-5.649-4.464-2.273a1.378,1.378,0,0,1-.736-1.4c.141-1.581,3.541-1.979,5.116-3.508l2.287-5.11a1.393,1.393,0,0,1,1.267-.944,1.338,1.338,0,0,1,1.355.8l2.428,5.457,4.1,2.1a1.484,1.484,0,0,1,.959,1.22,1.535,1.535,0,0,1-.877,1.466l-4.285,2.164Zm-1.185-5.086,1.337-2.609c.454-.886,1.732-1.036,2.6-1.408l-2.514-1.481c-.817-.481-.65-1.78-1.344-2.7l-1.372,2.663-2.488,1.514c.8.464,2.155.581,2.567,1.456Z" transform="translate(-177.632 -78.129)" fill="#fff"/>
          <path id="Path_1274237" data-name="Path 1274237" d="M11.594,60.076a6.3,6.3,0,1,1-5.386,7.14,6.228,6.228,0,0,1,5.386-7.14m.542,2.907a3.29,3.29,0,0,0-3.007,3.828,3.338,3.338,0,0,0,3.734,2.851,3.412,3.412,0,0,0,2.911-3.689,3.335,3.335,0,0,0-3.639-2.99" transform="translate(-4.336 -42.348)" fill="#fff"/>
          <path id="Path_1274238" data-name="Path 1274238" d="M222.33,34.037a1.55,1.55,0,0,1-2.07.829,1.446,1.446,0,0,1-.684-1.944l9.215-16.055a1.576,1.576,0,0,1,2.084-.884,1.5,1.5,0,0,1,.533,2.328Z" transform="translate(-154.829 -11.178)" fill="#fff"/>
          <path id="Path_1274239" data-name="Path 1274239" d="M65,32.593a1.553,1.553,0,0,1-.344,2.163,1.508,1.508,0,0,1-2.2-.627L53.212,18.1a1.465,1.465,0,0,1,.621-2.106,1.544,1.544,0,0,1,2.089.872Z" transform="translate(-37.394 -11.177)" fill="#fff"/>
          <path id="Path_1274240" data-name="Path 1274240" d="M190.676,15.939a4.723,4.723,0,1,1-3.61,5.655,4.69,4.69,0,0,1,3.61-5.655m.7,2.884a1.831,1.831,0,0,0-1.466,2.035,1.781,1.781,0,1,0,1.466-2.035" transform="translate(-131.913 -11.167)" fill="#fff"/>
          <path id="Path_1274241" data-name="Path 1274241" d="M151.753,17.4a1.564,1.564,0,0,1-1.381,1.772,1.5,1.5,0,0,1-1.559-1.652l.026-16.1a1.458,1.458,0,0,1,1.3-1.409,1.44,1.44,0,0,1,1.577,1.354Z" transform="translate(-105.009 0.001)" fill="#fff"/>
          <path id="Path_1274242" data-name="Path 1274242" d="M14.369,141.507l-12.727.141a1.494,1.494,0,1,1,.029-2.972l12.033,0a1.649,1.649,0,0,1,1.425,1.086c.175.413-.031,1.731-.76,1.74" transform="translate(0 -97.857)" fill="#fff"/>
          <path id="Path_1274243" data-name="Path 1274243" d="M120.134,269.666a2.77,2.77,0,0,1,3.635,1.649,2.844,2.844,0,0,1-1.62,3.59,2.813,2.813,0,0,1-3.575-1.363,2.753,2.753,0,0,1,1.56-3.876" transform="translate(-83.456 -190.15)" fill="#fff"/>
        </g>
      </g>
    </g>
    <g id="Group_1182194" data-name="Group 1182194" transform="translate(-20673.059 522.267)">
      <g id="Group_1182160" data-name="Group 1182160" transform="translate(0 0)" clip-path="url(#clip-path-3)">
        <path id="Path_1002489" data-name="Path 1002489" d="M18.262,7.213H14.886V3.837a3.836,3.836,0,1,0-7.673,0V7.213H3.837a3.837,3.837,0,0,0,0,7.673H7.213v3.376a3.836,3.836,0,1,0,7.673,0V14.886h3.376a3.837,3.837,0,0,0,0-7.673" transform="translate(0 0)" fill="#ff9595"/>
      </g>
    </g>
  </g>
</svg>
