<svg xmlns="http://www.w3.org/2000/svg" xmlns:xlink="http://www.w3.org/1999/xlink" width="97.668" height="98" viewBox="0 0 97.668 98">
  <defs>
    <clipPath id="clip-path">
      <rect id="Rectangle_465009" data-name="Rectangle 465009" width="44.024" height="59.267" fill="#174165"/>
    </clipPath>
    <clipPath id="clip-path-2">
      <rect id="Rectangle_456707" data-name="Rectangle 456707" width="25.382" height="26.373" fill="#f5b86e"/>
    </clipPath>
    <clipPath id="clip-path-3">
      <rect id="Rectangle_456710" data-name="Rectangle 456710" width="16.076" height="16.076" fill="#6dceff"/>
    </clipPath>
  </defs>
  <g id="img14" transform="translate(-411.393 -9354.88)">
    <g id="Group_1179599" data-name="Group 1179599" transform="translate(411.393 9354.88)">
      <g id="Group_1179591" data-name="Group 1179591" transform="translate(0 0)">
        <circle id="Ellipse_13609" data-name="Ellipse 13609" cx="48.834" cy="48.834" r="48.834" fill="#fff"/>
        <g id="Group_1190374" data-name="Group 1190374" transform="translate(26.822 19.201)">
          <g id="Group_1190373" data-name="Group 1190373" clip-path="url(#clip-path)">
            <path id="Path_1274072" data-name="Path 1274072" d="M20.662,49.135c1.577.229.663,2.255,2.455,2.24a15.637,15.637,0,0,0,2.872-.5,3.71,3.71,0,0,1,4.425,2.594l.924,3.344c.046.166.419.115.535.019,1.12-.926-.526-3.653,1.1-8.282.559-1.588-1.727-3.165-.648-5.31a3.348,3.348,0,0,1,2.3-1.6c.7-.176-.719-2.446-.1-3.583a3.021,3.021,0,0,1,4.207-.91l2.087,1.266a.785.785,0,0,0,.643.025.5.5,0,0,0,.167-.632l-1.088-2.819a2.474,2.474,0,0,1,.353-2.563L40.042,30.3c-.881-2.166,1.341-3.339,1.16-5.091-.055-.533-.742-.894-1.236-.938l-3.718-.334c-2.336-.21-2.474-3.017-4.48-3.312L29.537,20.3c-.633,3.464-5.011,9.862-7.9,10.027a3.933,3.933,0,0,1-2.6-1.265,18.649,18.649,0,0,1-4.924-7.095,8.254,8.254,0,0,1,.753-7.81,8.048,8.048,0,0,1,6.512-3.611,10.056,10.056,0,0,1,7.755-7.006,2.074,2.074,0,0,0-2.67-1.129,9.472,9.472,0,0,0-3.422,2.139,10.858,10.858,0,0,1-3.56,1.615L15.809,7.327c-.631,2.174-1.8,4.866-3.88,5.356A4.479,4.479,0,0,1,8,15.579,3.652,3.652,0,0,0,6.378,19.3c1.018,1.593,1.6,3.3.261,3.776-.465.164-1.322-.049-1.419-.719a9.7,9.7,0,0,0-.912-2.086,5.679,5.679,0,0,1,2.792-6.8l1.77-.507c.547-.157.946-1.058,1.141-1.558.371-.952,1.057-.9,1.748-1.3,1.8-1.045,1.106-4.35,3.75-5.126,1.55-.456,3.087-.94,4.615-1.475C22.368,2.715,23.8.09,27.173,0A4.1,4.1,0,0,1,31.46,3.3a2.28,2.28,0,0,1-.535,1.968c-.462.522-1.145.5-1.888.676a8.353,8.353,0,0,0-5.421,4.85,8.375,8.375,0,0,1,6.052,7.221c3.334.142,4.9.952,6.619,3.617l4.2.4a3.349,3.349,0,0,1,3,4.079,9.393,9.393,0,0,1-1.223,2.866c-.491.894,1.818,2.836.418,5.088l1.1,2.867a2.806,2.806,0,0,1-.2,2.692,2.868,2.868,0,0,1-2.5,1.183c-2.041-.135-3-2.006-4.412-1.7a5.332,5.332,0,0,1,.49,2.357c-.192,2.48-2.571,2.458-2.718,2.76-.337.7,1.594,2.79.709,5.228a9.936,9.936,0,0,0-.635,3.726l.047,3.116a2.913,2.913,0,0,1-1.38,2.437,2.818,2.818,0,0,1-2.9.245c-1.613-.906-1.333-3.544-2.329-5.271-.737-1.278-3.116.144-5.148-.037A3.13,3.13,0,0,1,19.7,51.2c-1.373-.019-1.471-1.354-2.07-2.044a5.869,5.869,0,0,1-1.6-2.337,12.065,12.065,0,0,0-5.525-2.4c-2.114,1.338-3.65.136-5.71-1.81C3.69,41.562,1.9,42.275.318,39.479A1.928,1.928,0,0,1,.6,37.017a2.058,2.058,0,0,1,1.67-2.66l1.836-.4c1.018-.225.912-3.256,2.743-2.6A1.231,1.231,0,0,1,7.427,33c-.766,2.147-2.171,3.654-4.544,3.485.3.8-.168,1.432-.265,2.06-.114.744,1.011,1.011,1.528,1.136,1.715.418,2.979,2.068,4.518,3.022a1.79,1.79,0,0,1,1.975-.762,22.527,22.527,0,0,1,6.506,2.691c.867.5.93,1.295,1.482,1.947.446.528,1.673.541,1.349,1.818-.072.284.327.683.686.735m1.413-21.389a16.3,16.3,0,0,0,4.788-6.6,5.932,5.932,0,0,0-4.787-8.276,5.8,5.8,0,0,0-5.222,2.492,6.027,6.027,0,0,0-.54,5.888,16.544,16.544,0,0,0,4.656,6.443.793.793,0,0,0,1.1.055" transform="translate(-0.001 0)" fill="#174165"/>
            <path id="Path_1274073" data-name="Path 1274073" d="M29.046,140.851a1.151,1.151,0,0,1,1.577.468,1.147,1.147,0,0,1-1.944,1.208,1.116,1.116,0,0,1,.367-1.676" transform="translate(-23.178 -114.643)" fill="#174165"/>
            <path id="Path_1274074" data-name="Path 1274074" d="M100.476,82.329a3.46,3.46,0,1,1,1.295,6.8,3.5,3.5,0,0,1-4-2.643,3.452,3.452,0,0,1,2.706-4.155m.242,2.329a1.149,1.149,0,0,0-.608,1.536,1.155,1.155,0,1,0,.608-1.536" transform="translate(-79.587 -67.018)" fill="#174165"/>
          </g>
        </g>
      </g>
    </g>
    <g id="Group_1182198" data-name="Group 1182198" transform="translate(412.044 9354.88)">
      <g id="Group_1182195" data-name="Group 1182195" transform="translate(71.386 71.627)">
        <g id="Group_1182154" data-name="Group 1182154" clip-path="url(#clip-path-2)">
          <path id="Path_1002486" data-name="Path 1002486" d="M15.723,15.248c-2.87-1.337-1.955-5.954,1.332-3.421,1.944,1.154.952,4.191-1.332,3.421M15,21.807c-1.654.48-1.1,3.582.578,3.156,1.458-.371,1.227-3.68-.578-3.156M12.74,6.765c-.212-1.517-3.013-1.421-2.851.108.141,1.33,3.083,1.547,2.851-.108M8.883,14.272c-1.96-1.061-3.565,2.07-2.253,3.506,2.522,2.81,4.541-1.849,2.253-3.506M4.094,10.709A1.736,1.736,0,0,0,1.927,8a1.737,1.737,0,0,0,2.167,2.711m16.39-5.23h0a.652.652,0,0,0-.878.512c-.665,4.427,5.131,1.013.878-.512M5.97,23.675h0a.652.652,0,0,0-.878.512c-.665,4.427,5.13,1.013.878-.512m19.4-7.4A1.91,1.91,0,1,0,21.8,17.636c-.335-.136,3.877,3.139,3.569-1.361M2.591,18.982a1.325,1.325,0,1,0-2.477.944c-.232-.095,2.691,2.178,2.477-.944M5.815.432A.586.586,0,0,0,6.1.172ZM6.1.172,6.291,0A.881.881,0,0,0,6.1.172" transform="translate(0 -0.001)" fill="#f5b86e"/>
        </g>
      </g>
      <g id="Group_1182194" data-name="Group 1182194" transform="translate(0 0)">
        <g id="Group_1182160" data-name="Group 1182160" transform="translate(0 0)" clip-path="url(#clip-path-3)">
          <path id="Path_1002489" data-name="Path 1002489" d="M13.285,5.247H10.829V2.791a2.791,2.791,0,1,0-5.582,0V5.247H2.791a2.791,2.791,0,0,0,0,5.582H5.247v2.456a2.791,2.791,0,1,0,5.582,0V10.829h2.456a2.791,2.791,0,0,0,0-5.582" transform="translate(0 0)" fill="#6dceff"/>
        </g>
      </g>
    </g>
  </g>
</svg>
