<svg xmlns="http://www.w3.org/2000/svg" xmlns:xlink="http://www.w3.org/1999/xlink" width="97.668" height="98" viewBox="0 0 97.668 98">
  <defs>
    <clipPath id="clip-path">
      <rect id="Rectangle_465008" data-name="Rectangle 465008" width="61.661" height="52.905" fill="#174165"/>
    </clipPath>
    <clipPath id="clip-path-2">
      <rect id="Rectangle_456707" data-name="Rectangle 456707" width="25.382" height="26.373" fill="#f5b86e"/>
    </clipPath>
    <clipPath id="clip-path-3">
      <rect id="Rectangle_456710" data-name="Rectangle 456710" width="16.076" height="16.076" fill="#6dceff"/>
    </clipPath>
  </defs>
  <g id="img13" transform="translate(-411.393 -9354.88)">
    <g id="Group_1179599" data-name="Group 1179599" transform="translate(411.393 9354.88)">
      <g id="Group_1179591" data-name="Group 1179591" transform="translate(0 0)">
        <circle id="Ellipse_13609" data-name="Ellipse 13609" cx="48.834" cy="48.834" r="48.834" fill="#fff"/>
        <g id="Group_1190372" data-name="Group 1190372" transform="translate(18.003 25.381)">
          <g id="Group_1190371" data-name="Group 1190371" clip-path="url(#clip-path)">
            <path id="Path_1274071" data-name="Path 1274071" d="M3.867,24.549a8.515,8.515,0,0,1,5.08-4.306,5.7,5.7,0,1,1,7.778-.01,8.021,8.021,0,0,1,5.5,5.531,11.5,11.5,0,0,1,3.82-1.537,7.957,7.957,0,0,1-2.632-9.061,7.885,7.885,0,0,1,14.907.327.859.859,0,0,1-.5,1.1.89.89,0,0,1-1.147-.436,6.1,6.1,0,0,0-11.938,1.594,6.08,6.08,0,0,0,11.83,2.119.93.93,0,0,1,1.1-.74c1.653.242-.014,3.457-2.061,5.1a11.335,11.335,0,0,1,3.811,1.535,8.044,8.044,0,0,1,5.5-5.545,5.683,5.683,0,1,1,7.788.021,8.243,8.243,0,0,1,5.048,4.326A15.075,15.075,0,0,0,33.385,7.013a3.411,3.411,0,0,1-5.218-.087A15.005,15.005,0,0,0,18.722,1.9a.891.891,0,0,1-.89-1A.861.861,0,0,1,18.844.109,16.85,16.85,0,0,1,29.628,5.846a1.547,1.547,0,0,0,2.256.1,16.922,16.922,0,1,1,24.254,23.5l-5.723,5.964-4.446,4.634L41.53,44.673,37.376,49,34.982,51.42a6.564,6.564,0,0,1-8.312,0A32.381,32.381,0,0,1,23.816,48.5l-4.074-4.216L15.3,39.66l-4.44-4.628-5.5-5.723C.753,24.517-1.324,17.982.889,11.393A16.834,16.834,0,0,1,14.256.2a.881.881,0,0,1,1.124.713.906.906,0,0,1-.756,1.038,15.1,15.1,0,0,0-10.758,22.6m8.059-12.256a3.883,3.883,0,1,0,4.7,2.823,3.87,3.87,0,0,0-4.7-2.823m36.061-.021a3.878,3.878,0,1,0,4.6,2.947,3.889,3.889,0,0,0-4.6-2.947M17.073,38.807l.109-4.636a10.883,10.883,0,0,1,3.472-7.134A6.01,6.01,0,0,0,15.4,21.866l-5.011-.01c-2.554-.005-4.6,2.148-5.206,4.537l3.955,4.2,4.429,4.626Zm30.87-3.446,4.382-4.576,4.132-4.38a5.8,5.8,0,0,0-5.372-4.57l-4.651.005c-2.822,0-5.009,2.415-5.437,5.188a11.179,11.179,0,0,1,3.514,8.09l.038,3.736ZM34.84,49.05l4.469-4.663,3.361-3.477-.031-6.4A9.088,9.088,0,0,0,34.5,25.935H27.163a9.166,9.166,0,0,0-8.23,9.211l.011,5.684,3.3,3.457,4.511,4.722A5.784,5.784,0,0,0,30.737,51.1a5.58,5.58,0,0,0,4.1-2.051" transform="translate(0 0)" fill="#174165"/>
          </g>
        </g>
      </g>
    </g>
    <g id="Group_1182198" data-name="Group 1182198" transform="translate(412.044 9354.88)">
      <g id="Group_1182195" data-name="Group 1182195" transform="translate(71.386 71.627)">
        <g id="Group_1182154" data-name="Group 1182154" clip-path="url(#clip-path-2)">
          <path id="Path_1002486" data-name="Path 1002486" d="M15.723,15.248c-2.87-1.337-1.955-5.954,1.332-3.421,1.944,1.154.952,4.191-1.332,3.421M15,21.807c-1.654.48-1.1,3.582.578,3.156,1.458-.371,1.227-3.68-.578-3.156M12.74,6.765c-.212-1.517-3.013-1.421-2.851.108.141,1.33,3.083,1.547,2.851-.108M8.883,14.272c-1.96-1.061-3.565,2.07-2.253,3.506,2.522,2.81,4.541-1.849,2.253-3.506M4.094,10.709A1.736,1.736,0,0,0,1.927,8a1.737,1.737,0,0,0,2.167,2.711m16.39-5.23h0a.652.652,0,0,0-.878.512c-.665,4.427,5.131,1.013.878-.512M5.97,23.675h0a.652.652,0,0,0-.878.512c-.665,4.427,5.13,1.013.878-.512m19.4-7.4A1.91,1.91,0,1,0,21.8,17.636c-.335-.136,3.877,3.139,3.569-1.361M2.591,18.982a1.325,1.325,0,1,0-2.477.944c-.232-.095,2.691,2.178,2.477-.944M5.815.432A.586.586,0,0,0,6.1.172ZM6.1.172,6.291,0A.881.881,0,0,0,6.1.172" transform="translate(0 -0.001)" fill="#f5b86e"/>
        </g>
      </g>
      <g id="Group_1182194" data-name="Group 1182194" transform="translate(0 0)">
        <g id="Group_1182160" data-name="Group 1182160" transform="translate(0 0)" clip-path="url(#clip-path-3)">
          <path id="Path_1002489" data-name="Path 1002489" d="M13.285,5.247H10.829V2.791a2.791,2.791,0,1,0-5.582,0V5.247H2.791a2.791,2.791,0,0,0,0,5.582H5.247v2.456a2.791,2.791,0,1,0,5.582,0V10.829h2.456a2.791,2.791,0,0,0,0-5.582" transform="translate(0 0)" fill="#6dceff"/>
        </g>
      </g>
    </g>
  </g>
</svg>
