<svg xmlns="http://www.w3.org/2000/svg" xmlns:xlink="http://www.w3.org/1999/xlink" width="97.668" height="98" viewBox="0 0 97.668 98">
  <defs>
    <clipPath id="clip-path">
      <rect id="Rectangle_465011" data-name="Rectangle 465011" width="54.426" height="54.425" fill="#174165"/>
    </clipPath>
    <clipPath id="clip-path-2">
      <rect id="Rectangle_456707" data-name="Rectangle 456707" width="25.382" height="26.373" fill="#f5b86e"/>
    </clipPath>
    <clipPath id="clip-path-3">
      <rect id="Rectangle_456710" data-name="Rectangle 456710" width="16.076" height="16.076" fill="#6dceff"/>
    </clipPath>
  </defs>
  <g id="img16" transform="translate(-411.393 -9354.88)">
    <g id="Group_1179599" data-name="Group 1179599" transform="translate(411.393 9354.88)">
      <g id="Group_1179591" data-name="Group 1179591" transform="translate(0 0)">
        <circle id="Ellipse_13609" data-name="Ellipse 13609" cx="48.834" cy="48.834" r="48.834" fill="#fff"/>
        <g id="Group_1190378" data-name="Group 1190378" transform="translate(21.62 21.621)">
          <g id="Group_1190377" data-name="Group 1190377" clip-path="url(#clip-path)">
            <path id="Path_1274080" data-name="Path 1274080" d="M40.1,38.855a8.825,8.825,0,1,1-1.261,1.281l-4.225-4.221a11.382,11.382,0,0,1-11.655,1.9L21.081,41.5a6.218,6.218,0,1,1-1.576-.773l1.852-3.71a11.71,11.71,0,0,1-4.873-5.97l-7.71,2.068A4.356,4.356,0,1,1,8.3,31.423l7.73-2.082a11.385,11.385,0,0,1,2.518-9.509l-4.2-4.228a8.8,8.8,0,1,1,1.272-1.278l4.231,4.23a11.337,11.337,0,0,1,12.078-1.708L33.585,13.8a5.338,5.338,0,0,1-1.03-7.132,5.269,5.269,0,1,1,2.582,7.952L33.471,17.66a11.616,11.616,0,0,1,5.085,8.275l8.938-.325A3.484,3.484,0,1,1,51.6,29.74a3.5,3.5,0,0,1-4.02-2.36l-8.976.307a11.326,11.326,0,0,1-2.694,6.929ZM11.387,8.592a5.358,5.358,0,0,1,2.689,4.818,7.02,7.02,0,1,0-10.559,0,5.466,5.466,0,0,1,2.7-4.851A3.52,3.52,0,0,1,11.33,3.717a3.61,3.61,0,0,1,.057,4.875M8.263,4.506A1.75,1.75,0,0,0,9.327,7.84a1.749,1.749,0,0,0,1.139-2.206,1.73,1.73,0,0,0-2.2-1.129m27.9,1.747a3.5,3.5,0,1,0,4.151,2.71,3.47,3.47,0,0,0-4.151-2.71M12.188,12.281A3.44,3.44,0,0,0,8.71,9.69a3.417,3.417,0,0,0-3.3,2.627ZM13.362,14.1l-9.147,0a6.921,6.921,0,0,0,9.147,0m12.633,3.57A9.652,9.652,0,1,0,36.8,26a9.648,9.648,0,0,0-10.808-8.333m24.4,7.028a1.749,1.749,0,1,0,2.2,1.129,1.729,1.729,0,0,0-2.2-1.129M3.871,30.821a2.6,2.6,0,0,0-2,3.252,2.625,2.625,0,0,0,5.1-1.238,2.589,2.589,0,0,0-3.105-2.014M48.253,45.458a5.354,5.354,0,0,1,2.688,4.815,7.019,7.019,0,1,0-10.557,0,5.464,5.464,0,0,1,2.7-4.852A3.52,3.52,0,0,1,48.2,40.583a3.61,3.61,0,0,1,.057,4.875m-3.124-4.086a1.75,1.75,0,0,0,1.063,3.335A1.749,1.749,0,0,0,47.331,42.5a1.73,1.73,0,0,0-2.2-1.129m-28.446.882a4.387,4.387,0,1,0,5.185,3.406,4.357,4.357,0,0,0-5.185-3.406m32.371,6.893a3.508,3.508,0,0,0-6.783.036Zm1.174,1.814-9.147,0a6.921,6.921,0,0,0,9.147,0" transform="translate(0 0)" fill="#174165"/>
            <path id="Path_1274081" data-name="Path 1274081" d="M131.62,124.958H121.038a.867.867,0,0,1-.881-.889,6.176,6.176,0,0,1,4.086-5.8,4.383,4.383,0,1,1,5.369-6.735,4.438,4.438,0,0,1-1.212,6.751,6.193,6.193,0,0,1,4.028,5.786.88.88,0,0,1-.808.889M125.588,111.9a2.619,2.619,0,0,0,1.385,5.051,2.619,2.619,0,1,0-1.385-5.051m5,11.28a4.382,4.382,0,0,0-8.586.033Z" transform="translate(-99.064 -90.7)" fill="#174165"/>
          </g>
        </g>
      </g>
    </g>
    <g id="Group_1182198" data-name="Group 1182198" transform="translate(412.044 9354.88)">
      <g id="Group_1182195" data-name="Group 1182195" transform="translate(71.386 71.627)">
        <g id="Group_1182154" data-name="Group 1182154" clip-path="url(#clip-path-2)">
          <path id="Path_1002486" data-name="Path 1002486" d="M15.723,15.248c-2.87-1.337-1.955-5.954,1.332-3.421,1.944,1.154.952,4.191-1.332,3.421M15,21.807c-1.654.48-1.1,3.582.578,3.156,1.458-.371,1.227-3.68-.578-3.156M12.74,6.765c-.212-1.517-3.013-1.421-2.851.108.141,1.33,3.083,1.547,2.851-.108M8.883,14.272c-1.96-1.061-3.565,2.07-2.253,3.506,2.522,2.81,4.541-1.849,2.253-3.506M4.094,10.709A1.736,1.736,0,0,0,1.927,8a1.737,1.737,0,0,0,2.167,2.711m16.39-5.23h0a.652.652,0,0,0-.878.512c-.665,4.427,5.131,1.013.878-.512M5.97,23.675h0a.652.652,0,0,0-.878.512c-.665,4.427,5.13,1.013.878-.512m19.4-7.4A1.91,1.91,0,1,0,21.8,17.636c-.335-.136,3.877,3.139,3.569-1.361M2.591,18.982a1.325,1.325,0,1,0-2.477.944c-.232-.095,2.691,2.178,2.477-.944M5.815.432A.586.586,0,0,0,6.1.172ZM6.1.172,6.291,0A.881.881,0,0,0,6.1.172" transform="translate(0 -0.001)" fill="#f5b86e"/>
        </g>
      </g>
      <g id="Group_1182194" data-name="Group 1182194" transform="translate(0 0)">
        <g id="Group_1182160" data-name="Group 1182160" transform="translate(0 0)" clip-path="url(#clip-path-3)">
          <path id="Path_1002489" data-name="Path 1002489" d="M13.285,5.247H10.829V2.791a2.791,2.791,0,1,0-5.582,0V5.247H2.791a2.791,2.791,0,0,0,0,5.582H5.247v2.456a2.791,2.791,0,1,0,5.582,0V10.829h2.456a2.791,2.791,0,0,0,0-5.582" transform="translate(0 0)" fill="#6dceff"/>
        </g>
      </g>
    </g>
  </g>
</svg>
