<svg xmlns="http://www.w3.org/2000/svg" xmlns:xlink="http://www.w3.org/1999/xlink" width="154.659" height="150.151" viewBox="0 0 154.659 150.151">
  <defs>
    <clipPath id="clip-path">
      <rect id="Rectangle_456707" data-name="Rectangle 456707" width="38.993" height="40.516" fill="#ff9595"/>
    </clipPath>
    <clipPath id="clip-path-2">
      <rect id="Rectangle_465032" data-name="Rectangle 465032" width="89.231" height="89.225" fill="#fff"/>
    </clipPath>
    <clipPath id="clip-path-3">
      <rect id="Rectangle_456710" data-name="Rectangle 456710" width="22.098" height="22.099" fill="#ff9595"/>
    </clipPath>
  </defs>
  <g id="img17" transform="translate(20673.059 -522.268)">
    <g id="Group_1182195" data-name="Group 1182195" transform="translate(-20557.393 630.545)">
      <g id="Group_1182154" data-name="Group 1182154" clip-path="url(#clip-path)">
        <path id="Path_1002486" data-name="Path 1002486" d="M24.154,23.425c-4.409-2.053-3-9.146,2.047-5.256,2.987,1.772,1.462,6.439-2.047,5.256M23.043,33.5c-2.541.738-1.686,5.5.888,4.848,2.24-.57,1.884-5.653-.888-4.848m-3.47-23.108c-.326-2.33-4.629-2.183-4.379.165.217,2.043,4.736,2.376,4.379-.165M13.647,21.925c-3.012-1.63-5.477,3.18-3.461,5.387,3.875,4.317,6.975-2.841,3.461-5.387M6.289,16.452c2.705-2.162-.628-6.328-3.329-4.165-2.613,2.169.637,6.236,3.329,4.165M31.468,8.417h0A1,1,0,0,0,30.12,9.2c-1.021,6.8,7.882,1.557,1.348-.787M9.171,36.37h0a1,1,0,0,0-1.348.787c-1.021,6.8,7.882,1.556,1.348-.787M38.968,25c-1.3-3.721-6.989-1.553-5.483,2.09-.514-.21,5.957,4.822,5.483-2.09M3.98,29.161c-.9-2.582-4.85-1.078-3.8,1.451-.357-.145,4.134,3.346,3.8-1.451M8.933.663a.9.9,0,0,0,.441-.4Zm.441-.4L9.664,0a1.353,1.353,0,0,0-.29.262" transform="translate(0 -0.001)" fill="#ff9595"/>
      </g>
    </g>
    <g id="Group_1179591" data-name="Group 1179591" transform="translate(-20673.059 522.421)">
      <path id="Path_1002463" data-name="Path 1002463" d="M75,0A75,75,0,1,1,0,75,75,75,0,0,1,75,0Z" transform="translate(0)" fill="#783534"/>
      <g id="Group_1190420" data-name="Group 1190420" transform="translate(30.384 30.387)">
        <g id="Group_1190419" data-name="Group 1190419" clip-path="url(#clip-path-2)">
          <path id="Path_1274247" data-name="Path 1274247" d="M82.266,64.716A12.991,12.991,0,1,1,64.749,82.259a42.586,42.586,0,0,1-40.242,0A12.994,12.994,0,1,1,6.97,64.718a42.57,42.57,0,0,1,0-40.217A12.992,12.992,0,1,1,24.491,6.961a42.758,42.758,0,0,1,40.257-.005A12.984,12.984,0,1,1,82.271,24.481a42.663,42.663,0,0,1,0,40.234M18.3,16.008a12.7,12.7,0,0,1,3.041,2.753,10.179,10.179,0,1,0-16.678.086,11.092,11.092,0,0,1,3-2.875,6.414,6.414,0,0,1,9.52-8.429A6.6,6.6,0,0,1,18.3,16.008m63.261.011a9.52,9.52,0,0,1,3.014,2.831A10.185,10.185,0,1,0,67.9,18.759a14.512,14.512,0,0,1,3.029-2.783,6.576,6.576,0,0,1,1.278-8.565,6.424,6.424,0,0,1,9.353,8.608M63.707,79.672a13.012,13.012,0,0,1,15.948-15.96,39.846,39.846,0,0,0,.011-38.187,12.98,12.98,0,0,1-12.652-3.451A13.179,13.179,0,0,1,63.689,9.521a40.053,40.053,0,0,0-38.168.044,12.987,12.987,0,0,1-3.44,12.653A13.15,13.15,0,0,1,9.529,25.546a40.078,40.078,0,0,0,.006,38.143A13.156,13.156,0,0,1,22.083,67a12.99,12.99,0,0,1,3.44,12.642,39.821,39.821,0,0,0,38.185.031M12.772,8.79a3.532,3.532,0,0,0-3.368,3.9,3.627,3.627,0,0,0,3.828,3.29,3.6,3.6,0,0,0-.46-7.19m63.294,0a3.6,3.6,0,1,0,.466,7.188,3.632,3.632,0,0,0,3.314-3.819,3.547,3.547,0,0,0-3.78-3.369M19.312,20.935a5.611,5.611,0,0,0-3.43-2.849c-1.882,1.046-3.715.545-5.658.209-1.524-.264-3.007,1.5-3.513,2.69a10.063,10.063,0,0,0,12.6-.05m63.255-.012c-.8-1.394-2.149-2.892-3.556-2.633-1.938.357-3.773.833-5.644-.191a5.33,5.33,0,0,0-3.416,2.865,10.027,10.027,0,0,0,12.616-.041M18.3,79.312a12.028,12.028,0,0,1,3.042,2.746,10.184,10.184,0,1,0-16.729,0,12.593,12.593,0,0,1,3.121-2.815A6.361,6.361,0,0,1,8.91,70.713a6.435,6.435,0,0,1,8.282.123,6.587,6.587,0,0,1,1.1,8.475m63.23.01a11.77,11.77,0,0,1,3.136,2.724,10.193,10.193,0,1,0-16.759.01,13.566,13.566,0,0,1,3.033-2.78A6.563,6.563,0,0,1,72.2,70.7a6.412,6.412,0,0,1,9.327,8.619m-69-7.257a3.558,3.558,0,0,0-3.082,4.188,3.594,3.594,0,1,0,3.082-4.188m63.313,0a3.531,3.531,0,0,0-3.121,4.175,3.592,3.592,0,1,0,3.121-4.175M15.821,81.31c-1.979,1.173-3.732.583-5.6.25-1.524-.272-2.968,1.478-3.489,2.692a10.05,10.05,0,0,0,12.545.013,5.447,5.447,0,0,0-3.459-2.955m63.1.029c-1.958,1.291-3.756.4-5.571.214-1.476-.148-2.744,1.493-3.386,2.674a10.073,10.073,0,0,0,12.555.054,4.8,4.8,0,0,0-3.6-2.943" transform="translate(0 0)" fill="#fff"/>
          <path id="Path_1274248" data-name="Path 1274248" d="M96.7,123.4c-1.187.255-1.848-.64-2.429-1.228a14.74,14.74,0,0,0-4.38.916c-3.945,2.558-7.834,5.113-12.49,6.155a5.391,5.391,0,0,0-3.2,1.6,4.3,4.3,0,0,1-3.608,1.531,4.008,4.008,0,0,1-3.259-2.409,4.036,4.036,0,0,1-5.622-1.787c-2.312,1.126-4.818.453-5.84-2a4.29,4.29,0,0,1-3.6-.542,4.046,4.046,0,0,1-1.713-3.142,4.753,4.753,0,0,0-1.988-.488,2.2,2.2,0,0,1-2.5,1.367l-7.152-1.532a2.113,2.113,0,0,1-1.664-2.618l4.267-19.964a2.09,2.09,0,0,1,2.611-1.642L51.28,99.1c1.149.238,1.345,1.052,1.782,1.944.505,1.031,2.151.645,3.077.337,11.147-3.708,20.517-5.608,31.283.349,3.286.346,2.393-2.18,3.732-2.47l7.6-1.647a2.016,2.016,0,0,1,2.541,1.448l4.332,20.16a2.116,2.116,0,0,1-1.668,2.617Zm-50.646-2.924,4-18.741-5.947-1.3-4.041,18.8Zm56.747-1.328-4.032-18.709-5.945,1.3,4.018,18.784ZM82.712,114.69a22.561,22.561,0,0,1,7.1,5.421l3.909-.83-3.267-15.22c-1.227.24-2.49.828-3.647.535A27.01,27.01,0,0,0,66.579,101.4l-7.4,7.139c3.356.262,5.982-1.515,8.28-3.407a1.394,1.394,0,0,1,1.569-.535c.926.215,1.874,3.919,7.191,6.7Zm-5.638,11.827a33.616,33.616,0,0,0,10.181-5.1,17.29,17.29,0,0,0-4.894-3.727l-6.941-3.637a22.847,22.847,0,0,1-7.224-5.927c-3.5,2.911-10.086,4.721-11.568,1.683a2.854,2.854,0,0,1,.576-3.245l3.434-3.58-5.445,1.531c-.872.245-1.778-.288-2.785-.455l-3.236,15.143,2.4.491L54.7,116.91a4.622,4.622,0,0,1,3.99-1.4c1.223.143,2.288,1.328,3.04,2.429,1.988-.275,3.972.321,4.8,2.3a4.428,4.428,0,0,1,4.047-.211c.89.335,1.525,1.551,2.133,2.564a4.2,4.2,0,0,1,4.365,3.924m-18.551-6.053a1.241,1.241,0,0,0,.223-1.893,1.336,1.336,0,0,0-1.909.194l-2.944,2.64a1.206,1.206,0,0,0-.12,1.888c1.2,1.067,2.519-1.178,4.749-2.83m5.449,1.812c.463-.507-.065-1.213-.487-1.45a1.2,1.2,0,0,0-1.519.277l-2.983,2.588a1.375,1.375,0,0,0-.5,1.592c.871,1.8,3.462-.789,5.487-3.007m2.333,4.967,3.408-3.123c.41-.376.09-1.28-.221-1.493a1.3,1.3,0,0,0-1.5.048l-3.538,3.12a1.16,1.16,0,0,0,.154,1.687,1.269,1.269,0,0,0,1.7-.238m5.715,1.813,1.716-1.469a1.216,1.216,0,0,0,.235-1.662,1.164,1.164,0,0,0-1.759-.164c-1.254,1.28-3.4,2.386-2.071,3.487.607.505,1.236.359,1.88-.192" transform="translate(-26.818 -70.349)" fill="#fff"/>
        </g>
      </g>
    </g>
    <g id="Group_1182194" data-name="Group 1182194" transform="translate(-20673.059 522.267)">
      <g id="Group_1182160" data-name="Group 1182160" transform="translate(0 0)" clip-path="url(#clip-path-3)">
        <path id="Path_1002489" data-name="Path 1002489" d="M18.262,7.213H14.886V3.837a3.836,3.836,0,1,0-7.673,0V7.213H3.837a3.837,3.837,0,0,0,0,7.673H7.213v3.376a3.836,3.836,0,1,0,7.673,0V14.886h3.376a3.837,3.837,0,0,0,0-7.673" transform="translate(0 0)" fill="#ff9595"/>
      </g>
    </g>
  </g>
</svg>
