<svg xmlns="http://www.w3.org/2000/svg" xmlns:xlink="http://www.w3.org/1999/xlink" width="84" height="84" viewBox="0 0 84 84">
  <defs>
    <clipPath id="clip-path">
      <rect id="Rectangle_465029" data-name="Rectangle 465029" width="66.199" height="66.16" fill="#12263f"/>
    </clipPath>
  </defs>
  <g id="img14" transform="translate(-706 -1685.277)">
    <g id="Group_1177731" data-name="Group 1177731">
      <g id="Group_1119665" data-name="Group 1119665" transform="translate(530.111 -3835.723)">
        <path id="Path_991847" data-name="Path 991847" d="M5,0H79a5,5,0,0,1,5,5V79a5,5,0,0,1-5,5H5a5,5,0,0,1-5-5V5A5,5,0,0,1,5,0Z" transform="translate(175.889 5521)" fill="#aae5ff"/>
      </g>
      <g id="Group_1190414" data-name="Group 1190414" transform="translate(714.9 1694.197)">
        <g id="Group_1190413" data-name="Group 1190413" clip-path="url(#clip-path)">
          <path id="Path_1274231" data-name="Path 1274231" d="M47.31,66.15l-28.324.01a1.981,1.981,0,0,1-1.871-2.292l.177-1.448L1.53,62.362c-1.09,0-1.615-1.3-1.519-2.262A14.3,14.3,0,0,1,10.4,47.691a8.316,8.316,0,0,1-4.368-6.635,8.155,8.155,0,0,1,3.548-7.388l-3.566-8.33A5.063,5.063,0,0,1,.368,22.266a4.994,4.994,0,0,1,1.973-6.128,5.078,5.078,0,0,1,6.478.983L28.3,6.443a5.021,5.021,0,0,1,1.735-5.413A5.072,5.072,0,0,1,35.921.857a4.991,4.991,0,0,1,1.971,5.576L57.38,17.122a5.076,5.076,0,0,1,6.35-1.06,5.024,5.024,0,0,1-3.506,9.257l-3.613,8.332a8.226,8.226,0,0,1,3.568,7.215A8.338,8.338,0,0,1,55.8,47.694a14.292,14.292,0,0,1,10.389,12.4,1.914,1.914,0,0,1-1.711,2.294L48.9,62.414l.183,1.664A1.879,1.879,0,0,1,47.31,66.15M32.058,2.277A2.888,2.888,0,0,0,30.413,6.17a2.932,2.932,0,1,0,1.645-3.893m9.634,49.386a15.507,15.507,0,0,1,6.55-4,8.162,8.162,0,0,1,6.475-14.933L58.3,24.5a5.232,5.232,0,0,1-1.945-5.584L36.886,8.258a4.964,4.964,0,0,1-7.571,0L9.843,18.915A5.235,5.235,0,0,1,7.9,24.5l3.585,8.237a8.165,8.165,0,0,1,6.476,14.939,15.822,15.822,0,0,1,6.582,3.993A17.873,17.873,0,0,1,29.229,49.6a9.134,9.134,0,1,1,7.737.008,18.091,18.091,0,0,1,4.726,2.052M4,17.634A2.9,2.9,0,0,0,2.327,21.58,2.928,2.928,0,1,0,4,17.634m56.311-.021A2.923,2.923,0,1,0,64,19.52a2.874,2.874,0,0,0-3.684-1.906M13.147,34.442a6.071,6.071,0,1,0,6.986,4.9,6.044,6.044,0,0,0-6.986-4.9m18.286.03a7.049,7.049,0,1,0,8.56,5.331,7.028,7.028,0,0,0-8.56-5.331m19.531-.01a6.064,6.064,0,1,0,7.042,4.818,6.063,6.063,0,0,0-7.042-4.818M17.847,60.345A16.221,16.221,0,0,1,22.793,52.9a12.022,12.022,0,0,0-13.13-2.758A12.16,12.16,0,0,0,2.076,60.354Zm30.578.031,15.7-.032a12.172,12.172,0,0,0-7.737-10.261,11.93,11.93,0,0,0-12.968,2.859,16.8,16.8,0,0,1,5.006,7.434M47.012,64.1a13.956,13.956,0,0,0-27.827.02Z" transform="translate(0 -0.001)" fill="#12263f"/>
          <path id="Path_1274232" data-name="Path 1274232" d="M137.068,81.146l-3.437.017a1.619,1.619,0,0,1-1.688-1.642v-7.08a4.87,4.87,0,0,1-2.042-.235,1.645,1.645,0,0,1-.584-2.427l4.92-6.272c.733-.935,2.053-.276,2.637.494l4.481,5.916a1.62,1.62,0,0,1-.525,2.223,4.3,4.3,0,0,1-2.173.3v7.083a1.566,1.566,0,0,1-1.589,1.625m-.48-2.1,0-7.624a1.021,1.021,0,0,1,1-1.066l1.473-.042L135.3,65.427l-3.756,4.889,1.473.039a1.016,1.016,0,0,1,1,1.064l.01,7.648Z" transform="translate(-102.199 -49.947)" fill="#12263f"/>
          <path id="Path_1274233" data-name="Path 1274233" d="M66.535,95.594l-3.208.014c-.683,0-1.207-.791-1.217-1.445l-.075-5.1a1.946,1.946,0,0,1-1.747-.513,1.516,1.516,0,0,1-.135-1.744l3.4-4.471a1.674,1.674,0,0,1,1.346-.8,1.7,1.7,0,0,1,1.384.754l3.544,4.737c.374.5-.03,1.232-.331,1.543a2.024,2.024,0,0,1-1.738.5l-.076,5.293a1.215,1.215,0,0,1-1.144,1.233m-.9-2.118-.009-5.341c0-.8.608-1.208,1.542-1.215L64.91,83.943,62.655,86.92c.759.027,1.5.288,1.5.992l.017,5.6a2.666,2.666,0,0,0,1.462-.038" transform="translate(-47.481 -64.593)" fill="#12263f"/>
          <path id="Path_1274234" data-name="Path 1274234" d="M216.77,95.637l-2.622,0a1.4,1.4,0,0,1-1.462-1.481l-.052-5.095a2.026,2.026,0,0,1-1.735-.5,1.34,1.34,0,0,1-.269-1.675l3.482-4.608a1.581,1.581,0,0,1,2.727.047l3.4,4.47a1.509,1.509,0,0,1-.137,1.741,2.078,2.078,0,0,1-1.746.541l-.078,5.065a1.5,1.5,0,0,1-1.506,1.494m-.556-2.174.1-5.892c.008-.477.942-.61,1.4-.678l-2.228-2.961-2.244,2.978c.79.022,1.493.315,1.5,1.032l.039,5.557a2.458,2.458,0,0,0,1.439-.035" transform="translate(-166.709 -64.583)" fill="#12263f"/>
        </g>
      </g>
    </g>
  </g>
</svg>
