<svg xmlns="http://www.w3.org/2000/svg" xmlns:xlink="http://www.w3.org/1999/xlink" width="84" height="84" viewBox="0 0 84 84">
  <defs>
    <clipPath id="clip-path">
      <rect id="Rectangle_465005" data-name="Rectangle 465005" width="58.612" height="61.423" fill="#12263f"/>
    </clipPath>
  </defs>
  <g id="img11" transform="translate(-706 -1685.277)">
    <g id="Group_1177731" data-name="Group 1177731">
      <g id="Group_1119665" data-name="Group 1119665" transform="translate(530.111 -3835.723)">
        <path id="Path_991847" data-name="Path 991847" d="M5,0H79a5,5,0,0,1,5,5V79a5,5,0,0,1-5,5H5a5,5,0,0,1-5-5V5A5,5,0,0,1,5,0Z" transform="translate(175.889 5521)" fill="#aae5ff"/>
      </g>
      <g id="Group_1190366" data-name="Group 1190366" transform="translate(723.761 1696.565)">
        <g id="Group_1190365" data-name="Group 1190365" transform="translate(-2)" clip-path="url(#clip-path)">
          <path id="Path_1274060" data-name="Path 1274060" d="M37.173,61.416,9.6,61.423l.016-6.039,2.95-.015.044-4.113,10.011-.042-4.536-2.684L.009,48.5,0,34.38,1.8,34.359l.02,12.321,13.916-.007a3.6,3.6,0,0,1,.34-3.958,3.455,3.455,0,0,1,3.868-1.045l6.484-11.033a3.456,3.456,0,0,1,3.966-5.621l7.37,4.343.008-27.61-26.934,0-.019,9.035-9.008.012V32.419l-1.8.034L0,9.593,9.516,0l30.1,0V31.031a3.375,3.375,0,0,1-.006,3.308l.03,5.915A3.064,3.064,0,0,1,43.41,40.1a3,3,0,0,1,1.043,3.714l6.261,3.706-.936,1.551L43.563,45.4l-2.4,4.088,11.855,6.987a2.426,2.426,0,0,0,3.184-.357c.8-.912.9-2.666-.218-3.347L51.419,50l.913-1.547,4.519,2.713a4.155,4.155,0,0,1-4.265,7.1L40.207,51.027a3.009,3.009,0,0,1-3.664.949,3.1,3.1,0,0,1-1.774-3.488c-1.69.045-3.1.052-4.788-.012a4.1,4.1,0,0,1-.294,2.761H34.2l.018,4.12,2.917.019ZM8.985,9.007,8.943,3.174,3.126,9ZM37.33,31.19l-7.909-4.641a1.659,1.659,0,0,0-2.254.777,1.706,1.706,0,0,0,.8,2.218L35.957,34.2a1.565,1.565,0,0,0,2.108-.8,1.683,1.683,0,0,0-.734-2.212M27.39,45.982,33.8,35.059l-5.818-3.446L21.51,42.535Zm10.34-4.874.029-5.189a3.828,3.828,0,0,1-2.337.009l-1.76,2.882Zm-1.289,4.277,1.268-2.123-4.941-2.879-1.206,2.155ZM38.9,49.778,42.76,43.2a1.24,1.24,0,0,0-.539-1.725,1.281,1.281,0,0,0-1.663.514L36.6,48.764c-.359.615.215,1.431.741,1.618a1.308,1.308,0,0,0,1.561-.6m-11.645-1.8-7.8-4.542a1.634,1.634,0,0,0-2.232.806,1.691,1.691,0,0,0,.791,2.175l7.855,4.6a1.6,1.6,0,0,0,2.3-.814,1.743,1.743,0,0,0-.911-2.229m7.679-1.363-4.325-2.549-1.522,2.581Zm.47,13.041.016-2.483-8.7-.028.011-1.766h5.586l.038-2.367-17.922.008,0,2.357,10.432.015,0,1.788-13.42,0,.019,2.487Z" fill="#12263f"/>
          <path id="Path_1274061" data-name="Path 1274061" d="M71.836,24.193A7.186,7.186,0,1,1,65.8,32.5a7.189,7.189,0,0,1,6.038-8.3m-.388,1.928A5.379,5.379,0,1,0,78.135,30.1a5.357,5.357,0,0,0-6.687-3.975" transform="translate(-53.087 -19.481)" fill="#12263f"/>
          <path id="Path_1274062" data-name="Path 1274062" d="M49.135,162.074H32.993v-1.8l16.141.006Z" transform="translate(-26.66 -129.509)" fill="#12263f"/>
          <path id="Path_1274063" data-name="Path 1274063" d="M49.124,115.225l-16.14.01,0-1.792,16.143-.016Z" transform="translate(-26.649 -91.657)" fill="#12263f"/>
          <path id="Path_1274064" data-name="Path 1274064" d="M49.144,139.078l-16.1-.007-.033-1.811,16.14.007Z" transform="translate(-26.672 -110.917)" fill="#12263f"/>
          <path id="Path_1274065" data-name="Path 1274065" d="M41.912,185.376l-8.944-.006,0-1.781,8.934,0Z" transform="translate(-26.641 -148.351)" fill="#12263f"/>
          <path id="Path_1274066" data-name="Path 1274066" d="M85.464,49.356a4.623,4.623,0,0,1,1.477-1.136,5.719,5.719,0,0,0,1.075,1.425l2.855-3.3a5.847,5.847,0,0,1,1.338,1.149l-4.325,5.155Z" transform="translate(-69.061 -37.45)" fill="#12263f"/>
        </g>
      </g>
    </g>
  </g>
</svg>
