<svg xmlns="http://www.w3.org/2000/svg" xmlns:xlink="http://www.w3.org/1999/xlink" width="80" height="80" viewBox="0 0 80 80">
  <defs>
    <clipPath id="clip-path">
      <rect id="Rectangle_465033" data-name="Rectangle 465033" width="60.715" height="50.289" fill="#fff"/>
    </clipPath>
  </defs>
  <g id="img19" transform="translate(-175.889 -5521)">
    <rect id="Rectangle_402006" data-name="Rectangle 402006" width="80" height="80" rx="5" transform="translate(175.889 5521)" fill="#854601"/>
    <g id="Group_1190422" data-name="Group 1190422" transform="translate(185.531 5534.05)">
      <g id="Group_1190421" data-name="Group 1190421" clip-path="url(#clip-path)">
        <path id="Path_1274249" data-name="Path 1274249" d="M189.852,138.428a8.434,8.434,0,0,0-4.867,1.5,7.337,7.337,0,0,1-4.241,1.168l-7.017.009a3.2,3.2,0,0,1-3.049-1.874,3.275,3.275,0,0,1,.611-3.523,3.275,3.275,0,0,1-.017-4.431,3.269,3.269,0,0,1,.012-4.439,3.161,3.161,0,0,1-.57-3.549,3.256,3.256,0,0,1,3-1.833l4.848,0a21.031,21.031,0,0,1-1.461-5.106,3.6,3.6,0,0,1,3.493-4.245c1.222-.092,3.025.335,3.346,1.734a14.658,14.658,0,0,0,1.354,4.4,16.351,16.351,0,0,0,4.62,5.2,1.923,1.923,0,0,1,1.839-1.413l5.138,0a1.862,1.862,0,0,1,1.885,1.9l-.021,14.787a1.863,1.863,0,0,1-1.671,1.672l-5.34.022a1.971,1.971,0,0,1-1.892-1.984m-15.359-2.655c-.09,1.327-2.166.453-2.176,2.108a1.245,1.245,0,0,0,1.214,1.3l7.6.013a5.182,5.182,0,0,0,2.841-.864,10.4,10.4,0,0,1,5.9-1.819l-.009-10.877c-3.941-2.381-7.274-6.648-7.691-11.309-.917-.579-2.5-.5-3,.571-1,2.106,2.181,6.974,1.579,7.964a.9.9,0,0,1-.754.49l-6.262-.008a1.281,1.281,0,0,0-1.409,1.238c-.017,1.737,2.2.916,2.187,2.279s-2.234.487-2.182,2.277c.05,1.707,2.4.737,2.172,2.26-.177,1.207-2.178.474-2.175,2.106,0,1.7,2.273.827,2.176,2.265m22.4,2.734,0-14.578-5.136,0v14.607Z" transform="translate(-138.062 -90.818)" fill="#fff"/>
        <path id="Path_1274250" data-name="Path 1274250" d="M17.639,141.071c-3.749-.014-5.094-2.993-8.687-2.557-.253.883-.811,1.909-1.956,1.9l-5.316-.032A1.866,1.866,0,0,1,0,138.712V123.749a1.817,1.817,0,0,1,1.86-1.723l5.322.022a1.86,1.86,0,0,1,1.658,1.383,16.074,16.074,0,0,0,4.2-4.482,13.33,13.33,0,0,0,1.778-5.12c.254-1.314,2.019-1.783,3.157-1.74a3.979,3.979,0,0,1,2.819,1.2c1.783,1.855.432,5.411-.59,8.157l5.025.013A3.12,3.12,0,0,1,28,123.186a3.247,3.247,0,0,1-.509,3.64,3.3,3.3,0,0,1-.043,4.465c1.377,1.3.865,3.089.175,4.423.443.995,1.11,2.351.423,3.618a3.341,3.341,0,0,1-3.019,1.768Zm6.632-10.012a.894.894,0,0,1,.935-.715,1.246,1.246,0,0,0,1.234-1.394c-.129-1.6-2.412-.748-2.171-2.26a1.025,1.025,0,0,1,1-.8,1.278,1.278,0,1,0-.233-2.544l-6.081.018a.989.989,0,0,1-.936-.5,1.007,1.007,0,0,1-.039-.866l1.433-4.09a3.981,3.981,0,0,0,.12-3.1,2.176,2.176,0,0,0-2.949-.476c-.393,4.637-3.753,8.938-7.682,11.31l-.008,10.878a10.338,10.338,0,0,1,5.9,1.819,5.308,5.308,0,0,0,3.033.863l7.408-.018a1.255,1.255,0,0,0,1.2-1.487c-.2-1.486-2.318-.6-2.16-2.084.135-1.266,2.389-.47,2.162-2.287-.184-1.475-2.477-.753-2.161-2.259M7.006,138.5l0-14.58-5.136,0v14.6Z" transform="translate(0 -90.811)" fill="#fff"/>
        <path id="Path_1274251" data-name="Path 1274251" d="M114.8,24.99a1.858,1.858,0,0,1-1.416,1.261,1.644,1.644,0,0,1-1.752-.933l-1.625-3.861a10.964,10.964,0,1,1,6.261-.006Zm-1.661-1.031,1.313-3.209a1.625,1.625,0,0,1,1.035-1.048,9.056,9.056,0,1,0-4.7,0,1.528,1.528,0,0,1,.974.915Z" transform="translate(-82.79 0)" fill="#fff"/>
        <path id="Path_1274252" data-name="Path 1274252" d="M42.553,54.845c-3.023,1.411-2.993,3.765-4.015,3.8a.954.954,0,0,1-.927-.632c-1.2-2.906-3.568-2.841-3.712-3.8a.949.949,0,0,1,.528-1.045c3.049-1.319,2.884-3.754,4.106-3.771a.969.969,0,0,1,.918.7C40.643,52.959,43,52.84,43.124,53.9a.948.948,0,0,1-.572.943m-3.989.828A11.351,11.351,0,0,1,40.2,54.026,24.069,24.069,0,0,1,38.438,52.3a5.447,5.447,0,0,1-1.669,1.663c.717.58,1.194,1.17,1.794,1.708" transform="translate(-27.455 -40.019)" fill="#fff"/>
        <path id="Path_1274253" data-name="Path 1274253" d="M245.752,54.963c-2.89,1.233-2.742,3.54-3.8,3.679a.946.946,0,0,1-.938-.572c-1.4-3.009-3.764-2.991-3.793-4.014a.963.963,0,0,1,.622-.929c3.007-1.347,2.846-3.575,3.8-3.714a.965.965,0,0,1,1.049.527c1.385,3.165,3.761,2.861,3.768,4.106a.972.972,0,0,1-.705.915m-3.921.721,1.745-1.715a5.716,5.716,0,0,1-1.743-1.734,9.921,9.921,0,0,1-1.671,1.821,19.25,19.25,0,0,1,1.669,1.628" transform="translate(-192.19 -40.026)" fill="#fff"/>
        <path id="Path_1274254" data-name="Path 1274254" d="M135.459,35.611c-.007,1.544-1.806,1.676-3.721,1.412a1.4,1.4,0,0,1-1.24-1.41l-.009-2.32-2.366-.063a1.4,1.4,0,0,1-1.437-1.422l-.01-2.1a1.4,1.4,0,0,1,1.38-1.475l2.436-.029,0-2.293a1.4,1.4,0,0,1,1.361-1.49l2.082-.015a1.465,1.465,0,0,1,1.534,1.514l0,2.287,2.271.008c.679,0,1.483.409,1.494,1.129l.036,2.469a1.323,1.323,0,0,1-1.284,1.4l-2.515.09Zm-1.866-.465.016-2.925a.83.83,0,0,1,.879-.85l2.85,0a1.832,1.832,0,0,0,0-1.265l-2.665.012a1.008,1.008,0,0,1-1.07-1l-.031-2.781a2.926,2.926,0,0,0-1.181-.007l-.063,2.938a.961.961,0,0,1-1.042.848l-2.67-.006a1.86,1.86,0,0,0,0,1.264h2.851a.824.824,0,0,1,.877.853l.04,2.935a2.9,2.9,0,0,0,1.205-.013" transform="translate(-102.632 -19.769)" fill="#fff"/>
      </g>
    </g>
  </g>
</svg>
