<svg xmlns="http://www.w3.org/2000/svg" xmlns:xlink="http://www.w3.org/1999/xlink" width="84" height="84" viewBox="0 0 84 84">
  <defs>
    <clipPath id="clip-path">
      <rect id="Rectangle_465027" data-name="Rectangle 465027" width="63.868" height="63.891" fill="#12263f"/>
    </clipPath>
  </defs>
  <g id="img24" transform="translate(-706 -1685.277)">
    <g id="Group_1177731" data-name="Group 1177731">
      <g id="Group_1119665" data-name="Group 1119665" transform="translate(530.111 -3835.723)">
        <path id="Path_991847" data-name="Path 991847" d="M5,0H79a5,5,0,0,1,5,5V79a5,5,0,0,1-5,5H5a5,5,0,0,1-5-5V5A5,5,0,0,1,5,0Z" transform="translate(175.889 5521)" fill="#aae5ff"/>
      </g>
      <g id="Group_1190410" data-name="Group 1190410" transform="translate(716.066 1695.332)">
        <g id="Group_1190409" data-name="Group 1190409" clip-path="url(#clip-path)">
          <path id="Path_1274221" data-name="Path 1274221" d="M47.637,179.647l-7.146,0a2.019,2.019,0,0,0-2.126,1.909c.073,1.755-.348,3.783.145,5.456.322,1.09,1.091,1.775,1.078,3.121l-.1,10.557a2.436,2.436,0,0,1-2.56,2.2h-10a2.439,2.439,0,0,1-2.563-2.194l-.046-6.009-9.072.006-.022,5.81a2.546,2.546,0,0,1-2.64,2.388l-5-.012a.961.961,0,0,1-.991-.742c-.082-.332.095-1.034.612-1.039l5.348-.043c.579,0,.85-.4.848-.963l-.027-10.187a2.021,2.021,0,0,0-2.007-2.031l-7.2-.036a2.2,2.2,0,0,0-2.322,2.123l-.03,10.3c0,1.236,1.928.3,2.107,1.563a.923.923,0,0,1-.955,1.069,2.575,2.575,0,0,1-2.949-2.4L0,190.105a4.027,4.027,0,0,1,3.99-4.114l8.176.06-.035-3.99a5.136,5.136,0,0,1-6.017,2.467,5.312,5.312,0,0,1-3.576-5.592,5.388,5.388,0,0,1,1.3-3.846,5.079,5.079,0,0,1,3.764-1.4A4.63,4.63,0,0,1,12.516,177a21.106,21.106,0,0,1,.262,2.615,4.078,4.078,0,0,1,3.585-1.874l7.19.017a4.523,4.523,0,0,1,3.361,1.861,5.6,5.6,0,0,1,1.017-4.33c1.74-2.128,6.082-2.152,7.9-.112a5.485,5.485,0,0,1,1.116,4.436,4.493,4.493,0,0,1,3.183-1.833l7.57-.023a3.908,3.908,0,0,1,3.353,1.835,7,7,0,0,0,.139-1.756,4.568,4.568,0,0,1,4.877-4.152,5.268,5.268,0,0,1,3.855,1.3,6.22,6.22,0,0,1-2.028,9.494,5.123,5.123,0,0,1-6.165-2.417l-.034,3.988,7.782-.09a4.147,4.147,0,0,1,4.384,4.157l0,10.179a2.548,2.548,0,0,1-2.589,2.6l-9.99.008a2.544,2.544,0,0,1-2.647-2.39l-.023-5.811-5.7-.011a.95.95,0,1,1,.024-1.9l5.66-.01.005-3.043c0-1.158.885-1.823,1.087-2.705.391-1.7.047-3.528.129-5.272a2.1,2.1,0,0,0-2.185-2.11m-36.807-.8c-.1-1.044-.051-1.842-.752-2.5a3.944,3.944,0,0,0-4.917.069,3.794,3.794,0,0,0-.759,2.726,3.337,3.337,0,0,0,3.285,3.75c2.112-.06,3.35-1.854,3.142-4.048m24.33.2c-.06-1.144-.064-1.945-.779-2.657a3.8,3.8,0,0,0-4.991.12,3.8,3.8,0,0,0-.675,2.625,3.315,3.315,0,0,0,3.3,3.755c1.976-.058,3.254-1.723,3.143-3.843m24.306,0c-.065-1.192-.118-2.065-.868-2.745a3.937,3.937,0,0,0-4.913.155c-.68.712-.542,1.558-.637,2.476a3.336,3.336,0,0,0,3.134,3.956c1.988.055,3.4-1.667,3.285-3.841M24.34,192.757l.075-3.428c-.152-.908.8-1.571,1.022-2.259l.091-5.336a2.07,2.07,0,0,0-2.166-2.081l-7.616.051a1.971,1.971,0,0,0-1.695,1.85l-.027,5.509a4.135,4.135,0,0,1,1.226,2.846l.028,2.887Zm12.1-6.722-.065-3.852a5.117,5.117,0,0,1-8.878,0l-.061,3.845c3.05-.074,5.951-.085,9,.007m.527,15.035a.816.816,0,0,0,.754-.784v-10.17a2.273,2.273,0,0,0-2.385-2.277l-7.2.044a2.157,2.157,0,0,0-1.986,2.226l0,10.182a.79.79,0,0,0,.83.765Zm24.351,0a.877.877,0,0,0,.723-.809v-10.3a2.278,2.278,0,0,0-2.361-2.124l-7.178.021a2.148,2.148,0,0,0-2.035,2.251l.009,10.178a.787.787,0,0,0,.832.777Z" transform="translate(0 -139.013)" fill="#12263f"/>
          <path id="Path_1274222" data-name="Path 1274222" d="M77.62,18.689a2.148,2.148,0,0,0,2.218,2.271h7.578a4.014,4.014,0,0,1,3.4,2.6l1.795,4.6,1.792-4.6A4,4,0,0,1,98,20.953l7.385.007a2.135,2.135,0,0,0,2.218-2.192L107.594,4a2.1,2.1,0,0,0-2.075-2.149l-25.817,0A2.1,2.1,0,0,0,77.63,3.99l-.02,8.359a.851.851,0,0,1-.864.866.909.909,0,0,1-.941-1.027l.02-8.963A4.041,4.041,0,0,1,80.051,0l25.334.013c1.908,0,3.968,1.342,3.967,3.389l-.009,16.165a3.508,3.508,0,0,1-3.328,3.175l-7.983.074a1.988,1.988,0,0,0-1.78,1.192l-2.043,5.336a1.655,1.655,0,0,1-1.51,1.19,1.636,1.636,0,0,1-1.687-1.189l-2.044-5.336a1.982,1.982,0,0,0-1.784-1.193l-7.95-.072a3.611,3.611,0,0,1-3.375-3.159l-.049-2.82a.92.92,0,1,1,1.825.008Z" transform="translate(-60.676 0)" fill="#12263f"/>
          <path id="Path_1274223" data-name="Path 1274223" d="M128.382,30.794a2.795,2.795,0,0,1-5.584,0l-.06-3.115-3.346-.068a2.629,2.629,0,0,1-2.382-2.893,2.771,2.771,0,0,1,2.808-2.645l2.963-.033,0-2.833a2.814,2.814,0,1,1,5.623,0l0,2.837,2.963.029a2.771,2.771,0,0,1,2.793,2.459,2.7,2.7,0,0,1-2.187,3.049l-3.525.1Zm-1.875-.146.013-3.253a1.585,1.585,0,0,1,1.657-1.6l3.365-.028a.915.915,0,0,0,.775-1.014.936.936,0,0,0-.944-.793l-3.346-.024a1.468,1.468,0,0,1-1.49-1.525l0-3.178c0-.73-.389-1.1-1.041-1.056-.538.036-.841.4-.842,1.057l0,3.179a1.481,1.481,0,0,1-1.5,1.527l-3.346.018a.931.931,0,0,0-.949.943c0,.3.313.863.779.87l3.555.049a1.522,1.522,0,0,1,1.473,1.565l.022,3.336a.916.916,0,0,0,.989.87.959.959,0,0,0,.832-.948" transform="translate(-93.656 -13.025)" fill="#12263f"/>
          <path id="Path_1274224" data-name="Path 1274224" d="M205.619,137.746c.22,3.294-2.024,5.926-5.164,5.874-3.205-.053-5.258-2.789-4.968-5.97.134-1.469.2-2.692,1.261-3.73a5.97,5.97,0,0,1,7.5-.085c1.073,1.026,1.262,2.293,1.37,3.911m-1.845.2a3.885,3.885,0,0,0-.741-2.679,4.088,4.088,0,0,0-4.976-.028,3.818,3.818,0,0,0-.732,2.589c-.147,2.1,1.05,3.871,3.149,3.929a3.376,3.376,0,0,0,3.3-3.811" transform="translate(-156.452 -106.098)" fill="#12263f"/>
          <path id="Path_1274225" data-name="Path 1274225" d="M83.764,137.551c.279,3.289-1.776,6.023-4.977,6.079a5.176,5.176,0,0,1-5.154-5.785c.108-1.517.177-2.812,1.258-3.9a5.963,5.963,0,0,1,7.5-.127c1.056.983,1.244,2.157,1.378,3.736m-1.838.187a3.569,3.569,0,0,0-.844-2.6,4.151,4.151,0,0,0-4.868.136,3.794,3.794,0,0,0-.738,2.56c-.151,2.144,1.219,3.985,3.293,3.935,2.089-.051,3.308-1.808,3.158-4.027" transform="translate(-58.925 -106.099)" fill="#12263f"/>
        </g>
      </g>
    </g>
  </g>
</svg>
