<svg xmlns="http://www.w3.org/2000/svg" xmlns:xlink="http://www.w3.org/1999/xlink" width="84" height="84" viewBox="0 0 84 84">
  <defs>
    <clipPath id="clip-path">
      <rect id="Rectangle_465026" data-name="Rectangle 465026" width="63.03" height="63.067" fill="#12263f"/>
    </clipPath>
  </defs>
  <g id="img23" transform="translate(-706 -1685.277)">
    <g id="Group_1177731" data-name="Group 1177731">
      <g id="Group_1119665" data-name="Group 1119665" transform="translate(530.111 -3835.723)">
        <path id="Path_991847" data-name="Path 991847" d="M5,0H79a5,5,0,0,1,5,5V79a5,5,0,0,1-5,5H5a5,5,0,0,1-5-5V5A5,5,0,0,1,5,0Z" transform="translate(175.889 5521)" fill="#aae5ff"/>
      </g>
      <g id="Group_1190408" data-name="Group 1190408" transform="translate(716.485 1695.744)">
        <g id="Group_1190407" data-name="Group 1190407" clip-path="url(#clip-path)">
          <path id="Path_1274192" data-name="Path 1274192" d="M61.191,235.354a2.913,2.913,0,0,0-3.088-2.86H50.811a2.857,2.857,0,0,0-3.042,2.6l-.023,4.017h5.84a.924.924,0,0,1,1.023.931c-.011.518-.365.9-1.071.9l-43.444,0a.97.97,0,0,1-1.029-.9.879.879,0,0,1,.97-.922l5.251-.006-.024-4.012a2.859,2.859,0,0,0-3.043-2.6l-7.3,0a2.906,2.906,0,0,0-3.081,2.785l-.01,3.807,4.09.07c.555.009.689.643.608,1.072a.907.907,0,0,1-1.007.719L1,240.935a.947.947,0,0,1-.991-.989L0,235.606a4.878,4.878,0,0,1,4.4-4.95,5.616,5.616,0,0,1,.392-7.646,5.493,5.493,0,0,1,7.454-.1,5.557,5.557,0,0,1,.479,7.757,4.614,4.614,0,0,1,3.433,1.931,5.388,5.388,0,0,1,3.576-1.944,5.721,5.721,0,0,1-1.3-4.646c-.2-.313-.588-.712-.449-1.083a1.144,1.144,0,0,1,1.135-.729,5.526,5.526,0,1,1,8.93,6.442,5.21,5.21,0,0,1,3.473,1.961,5.588,5.588,0,0,1,3.452-2,5.527,5.527,0,1,1,8.954-6.416,1.334,1.334,0,0,1,1.082.606,1.041,1.041,0,0,1-.4,1.143,5.85,5.85,0,0,1-1.293,4.7,5.52,5.52,0,0,1,3.557,1.964,4.65,4.65,0,0,1,3.431-1.94,5.554,5.554,0,0,1,.377-7.653,5.492,5.492,0,0,1,7.452-.1,5.613,5.613,0,0,1,.517,7.729A4.925,4.925,0,0,1,63.03,235.6l-.009,4.339a.942.942,0,0,1-.987.99H58.113a.919.919,0,0,1-1.011-.891c.007-.657.5-.933,1.189-.94l2.909-.032Zm-53.7-11.829a3.659,3.659,0,1,0,4.6,2.454,3.635,3.635,0,0,0-4.6-2.454m15.341-.013a3.651,3.651,0,0,0-2.417,4.751,3.665,3.665,0,0,0,6.978-2.224,3.612,3.612,0,0,0-4.561-2.527m15.194.022a3.661,3.661,0,1,0,4.631,2.4,3.63,3.63,0,0,0-4.631-2.4m15.351-.011a3.66,3.66,0,1,0,4.591,2.455,3.637,3.637,0,0,0-4.591-2.455m-22.809,15.6.016-3.724a2.832,2.832,0,0,0-2.84-2.879l-7.631-.012a2.971,2.971,0,0,0-2.978,3.093l.019,3.524Zm15.308,0,0-3.714a2.9,2.9,0,0,0-2.962-2.9l-7.632.018a2.82,2.82,0,0,0-2.841,2.878l.027,3.723Z" transform="translate(0 -177.879)" fill="#12263f"/>
          <path id="Path_1274193" data-name="Path 1274193" d="M82.5,69.658l13.488.015a2.836,2.836,0,0,1,2.758,2.871l.024,4.564,5.943.029a2.837,2.837,0,0,1,2.736,2.88l-.006,10.992a2.87,2.87,0,0,1-2.9,2.861l-14.283.014-2.32,2.187a1.6,1.6,0,0,1-2.012-.1,2.042,2.042,0,0,1-.668-2.075A2.857,2.857,0,0,1,82.033,91.3l-.072-4.858-5.73-.028a2.885,2.885,0,0,1-2.941-2.9V72.534a2.82,2.82,0,0,1,2.743-2.877l2.253,0a.927.927,0,0,1,.878.982.892.892,0,0,1-1.013.871l-1.972-.006a.988.988,0,0,0-1.044,1.01l0,11.032a1.03,1.03,0,0,0,1.077,1.012l15.034.028L93.7,86.93c.062-.71-.173-1.486.208-2.032.49-.7,2.951.168,2.954-1.18l.026-11.191a.967.967,0,0,0-1.01-1l-13.163-.005a.963.963,0,0,1-1.019-.7c-.088-.37.146-1.159.811-1.158m4.357,22.76c.359.607.12,1.339.19,1.986l2.457-2.357,15.2-.048a.953.953,0,0,0,.9-.967V80a1,1,0,0,0-1.05-1.018l-5.768.007-.04,4.512a2.95,2.95,0,0,1-3.287,2.925,1.942,1.942,0,0,1-.879,2.231,1.845,1.845,0,0,1-2.263-.378L90.4,86.411l-6.533.027v4.589c0,1.643,2.474.508,3,1.39" transform="translate(-58.855 -55.939)" fill="#12263f"/>
          <path id="Path_1274194" data-name="Path 1274194" d="M109.351,109.407,93.228,109.4a1,1,0,0,1-.992-.871.89.89,0,0,1,.823-.981l16.226-.016a.917.917,0,0,1,.942.847,1,1,0,0,1-.875,1.031" transform="translate(-74.068 -86.353)" fill="#12263f"/>
          <path id="Path_1274195" data-name="Path 1274195" d="M135.581,90.412H126.07a.994.994,0,0,1-.983-.869.905.905,0,0,1,.85-.972l9.729-.018a.924.924,0,0,1,.943.844.964.964,0,0,1-1.028,1.014" transform="translate(-100.448 -71.114)" fill="#12263f"/>
          <path id="Path_1274196" data-name="Path 1274196" d="M102.838,128.169l-9.616.041a.938.938,0,1,1-.027-1.874l9.232-.007a.956.956,0,0,1,1.04.682c.089.352-.024,1.155-.629,1.158" transform="translate(-74.077 -101.45)" fill="#12263f"/>
          <path id="Path_1274197" data-name="Path 1274197" d="M96.082,90.271a9.36,9.36,0,0,1-3.058.1.9.9,0,0,1-.781-.987.925.925,0,0,1,.976-.825l2.289,0a1,1,0,0,1,.947.516c.173.348.163,1.063-.373,1.2" transform="translate(-74.075 -71.112)" fill="#12263f"/>
          <path id="Path_1274198" data-name="Path 1274198" d="M126.675,4.272c-1.393.416-2.476.577-2.609-.392S124.9,2.669,126.42,2.5a.92.92,0,0,1,.917.68.883.883,0,0,1-.661,1.1" transform="translate(-99.623 -2.001)" fill="#12263f"/>
          <path id="Path_1274199" data-name="Path 1274199" d="M30.9,121.733a.84.84,0,0,1-.926.443c-.306-.077-.724-.321-.724-.713v-1.71a.867.867,0,0,1,1.037-.876c1,.085,1.029,1.635.613,2.857" transform="translate(-23.485 -95.461)" fill="#12263f"/>
          <path id="Path_1274200" data-name="Path 1274200" d="M181.871,4.474a3.934,3.934,0,0,1-2.318-.388.812.812,0,0,1-.357-1.108.923.923,0,0,1,1.031-.536l1.587.363a.82.82,0,0,1,.59.7.779.779,0,0,1-.532.97" transform="translate(-143.832 -1.943)" fill="#12263f"/>
          <path id="Path_1274201" data-name="Path 1274201" d="M33.965,93.972a.9.9,0,0,1-1.1.684.868.868,0,0,1-.674-1.1l.4-1.548a.9.9,0,0,1,1.716.521Z" transform="translate(-25.822 -73.395)" fill="#12263f"/>
          <path id="Path_1274202" data-name="Path 1274202" d="M42.747,68.648a.855.855,0,0,1-1.12.4.885.885,0,0,1-.529-1.169l.725-1.452a.905.905,0,0,1,1.051-.418c.364.057.894.473.659.972Z" transform="translate(-32.938 -52.995)" fill="#12263f"/>
          <path id="Path_1274203" data-name="Path 1274203" d="M283.055,121.316a.784.784,0,0,1-.681.748.863.863,0,0,1-1.016-.475c-.384-1.221-.326-2.71.644-2.787a.883.883,0,0,1,1.04.891Z" transform="translate(-225.769 -95.402)" fill="#12263f"/>
          <path id="Path_1274204" data-name="Path 1274204" d="M280.858,146.9c.19.88-.1,2.516-.919,2.7a.8.8,0,0,1-1.016-.586c-.166-1.016.16-2.628,1.083-2.695a.779.779,0,0,1,.852.584" transform="translate(-223.958 -117.497)" fill="#12263f"/>
          <path id="Path_1274205" data-name="Path 1274205" d="M271.638,175.6a.98.98,0,0,1-1.268.63.919.919,0,0,1-.483-1.276l.538-1.255a.944.944,0,0,1,1.234-.536.911.911,0,0,1,.469,1.25Z" transform="translate(-216.661 -139.007)" fill="#12263f"/>
          <path id="Path_1274206" data-name="Path 1274206" d="M52.526,200.4c-.756-.58-1.647-1.91-1.012-2.572a.87.87,0,0,1,1.318,0l1.041,1.517a.772.772,0,0,1-.241.992.856.856,0,0,1-1.106.062" transform="translate(-41.195 -158.624)" fill="#12263f"/>
          <path id="Path_1274207" data-name="Path 1274207" d="M256.86,200.386a.841.841,0,0,1-1.214.035.905.905,0,0,1-.112-1.254l.717-1.044a.959.959,0,0,1,1.151-.445.856.856,0,0,1,.554,1.161,5.736,5.736,0,0,1-1.1,1.548" transform="translate(-205.049 -158.7)" fill="#12263f"/>
          <path id="Path_1274208" data-name="Path 1274208" d="M76.323,26.97a.879.879,0,0,1-1.17-.17.932.932,0,0,1,.062-1.239l1.326-1.033a.928.928,0,0,1,1.171.113A.919.919,0,0,1,77.621,26Z" transform="translate(-60.187 -19.568)" fill="#12263f"/>
          <path id="Path_1274209" data-name="Path 1274209" d="M231.205,26.867l-1.262-1a.88.88,0,0,1,0-1.265.916.916,0,0,1,1.179-.108l1.4,1.133c.331.267.185.875-.017,1.134a.931.931,0,0,1-1.3.1" transform="translate(-184.441 -19.536)" fill="#12263f"/>
          <path id="Path_1274210" data-name="Path 1274210" d="M268.344,67.641a.912.912,0,0,1-.334,1.31.9.9,0,0,1-1.271-.39l-.747-1.6c-.232-.5.292-.914.658-.975a.965.965,0,0,1,1.135.551Z" transform="translate(-213.562 -52.972)" fill="#12263f"/>
          <path id="Path_1274211" data-name="Path 1274211" d="M279.059,93.447a.916.916,0,0,1-.54,1.1.83.83,0,0,1-1.1-.345c-.613-1.356-.745-2.709.265-2.844a.869.869,0,0,1,.985.611Z" transform="translate(-222.401 -73.363)" fill="#12263f"/>
          <path id="Path_1274212" data-name="Path 1274212" d="M57.445,45.931a.972.972,0,0,1-1.166.2.934.934,0,0,1-.338-1.218c.347-.8,1.442-1.994,2.251-1.494a.925.925,0,0,1,.178,1.36Z" transform="translate(-44.848 -34.776)" fill="#12263f"/>
          <path id="Path_1274213" data-name="Path 1274213" d="M207.787,13l-1.273-.573a.99.99,0,0,1-.66-1.214.877.877,0,0,1,1.221-.54l1.475.7a.875.875,0,0,1,.366,1.106.854.854,0,0,1-1.129.525" transform="translate(-165.292 -8.501)" fill="#12263f"/>
          <path id="Path_1274214" data-name="Path 1274214" d="M99.478,13.054a.924.924,0,0,1-1.223-.341.891.891,0,0,1,.316-1.25l1.337-.651a.972.972,0,0,1,1.291.353.983.983,0,0,1-.583,1.357Z" transform="translate(-78.8 -8.597)" fill="#12263f"/>
          <path id="Path_1274215" data-name="Path 1274215" d="M32.906,149.012a.909.909,0,0,1-1.527.435,4.372,4.372,0,0,1-.415-2.49c.064-.393.557-.574.858-.564.823.027,1.244,1.538,1.084,2.618" transform="translate(-24.83 -117.562)" fill="#12263f"/>
          <path id="Path_1274216" data-name="Path 1274216" d="M251.643,43.244c1.112.913,1.808,2.016,1.053,2.619a.96.96,0,0,1-1.241-.07l-.968-1.194a.965.965,0,0,1-.034-1.184.867.867,0,0,1,1.191-.171" transform="translate(-200.978 -34.593)" fill="#12263f"/>
          <path id="Path_1274217" data-name="Path 1274217" d="M237.489,221.169a.967.967,0,0,1-1.223.059c-.319-.261-.526-.852-.188-1.181l1.193-1.158a.92.92,0,0,1,1.345.009.939.939,0,0,1-.121,1.4Z" transform="translate(-189.446 -175.55)" fill="#12263f"/>
          <path id="Path_1274218" data-name="Path 1274218" d="M70.468,221.212l-1-.867a1,1,0,0,1-.275-1.2.939.939,0,0,1,1.381-.295l1.309,1.238a.823.823,0,0,1-.183,1.177.956.956,0,0,1-1.229-.055" transform="translate(-55.484 -175.594)" fill="#12263f"/>
          <path id="Path_1274219" data-name="Path 1274219" d="M40.3,174.922a.945.945,0,0,1-.455,1.355.957.957,0,0,1-1.237-.566l-.524-1.259a.918.918,0,0,1,.5-1.229.908.908,0,0,1,1.208.52Z" transform="translate(-30.519 -139.05)" fill="#12263f"/>
          <path id="Path_1274220" data-name="Path 1274220" d="M154.752,1.736a5.8,5.8,0,0,1-2.678-.047c-.456-.163-.427-1.311.08-1.486a3.77,3.77,0,0,1,2.445,0c.506.2.516,1.067.153,1.529" transform="translate(-121.866 0)" fill="#12263f"/>
        </g>
      </g>
    </g>
  </g>
</svg>
