<svg xmlns="http://www.w3.org/2000/svg" xmlns:xlink="http://www.w3.org/1999/xlink" width="84" height="84" viewBox="0 0 84 84">
  <defs>
    <clipPath id="clip-path">
      <rect id="Rectangle_465035" data-name="Rectangle 465035" width="42.844" height="67.84" fill="#12263f"/>
    </clipPath>
  </defs>
  <g id="img25" transform="translate(-706 -1685.277)">
    <g id="Group_1177731" data-name="Group 1177731">
      <g id="Group_1119665" data-name="Group 1119665" transform="translate(530.111 -3835.723)">
        <path id="Path_991847" data-name="Path 991847" d="M5,0H79a5,5,0,0,1,5,5V79a5,5,0,0,1-5,5H5a5,5,0,0,1-5-5V5A5,5,0,0,1,5,0Z" transform="translate(175.889 5521)" fill="#aae5ff"/>
      </g>
      <g id="Group_1190426" data-name="Group 1190426" transform="translate(726.578 1693.357)">
        <g id="Group_1190425" data-name="Group 1190425" clip-path="url(#clip-path)">
          <path id="Path_1274261" data-name="Path 1274261" d="M23.859,230.49l-4.788.008a1.157,1.157,0,0,1-1.161-.747l-1.106-3.33a16.952,16.952,0,0,1-4.368-1.839L9.254,226.17a1.05,1.05,0,0,1-1.273-.275l-3.289-3.282a1.158,1.158,0,0,1-.389-1.39L5.889,218.1A21.3,21.3,0,0,1,4,213.616L.595,212.5a.977.977,0,0,1-.6-.874l.042-4.446c0-.449.634-.763,1.136-.762l40.635.01a1.071,1.071,0,0,1,1.028,1.139l0,3.858a1.061,1.061,0,0,1-.616,1.079l-3.394,1.113a20.534,20.534,0,0,1-1.847,4.4l1.349,2.782c.2.418.5,1.074.1,1.478L34.74,226a1.007,1.007,0,0,1-1.157.177l-3.133-1.6a17.068,17.068,0,0,1-4.422,1.836l-1.107,3.344a1.106,1.106,0,0,1-1.061.734m.657-5.881a17.733,17.733,0,0,0,5.822-2.367l3.455,1.684,2.484-2.489L34.889,218.7a1.6,1.6,0,0,1,.211-1.673,18.925,18.925,0,0,0,1.974-4.984l3.6-1.267a7.388,7.388,0,0,0-.052-2.252l-10.068.006a9.156,9.156,0,1,1-18.281,0l-10.065-.006a5.493,5.493,0,0,0,.008,2.335,26.173,26.173,0,0,1,3.548,1.2,18.238,18.238,0,0,0,1.964,4.974A1.593,1.593,0,0,1,7.94,218.7l-1.387,2.73,2.437,2.5,3.5-1.7a21.3,21.3,0,0,0,5.945,2.476l1.263,3.639,3.421-.011Zm3.917-16.069-14.049.014a7.043,7.043,0,1,0,14.049-.014" transform="translate(0 -162.658)" fill="#12263f"/>
          <path id="Path_1274262" data-name="Path 1274262" d="M59.931,68.874c-2.168,2.392-7.149,2.365-9.32.116a5.756,5.756,0,0,1-1.557-4.681c.468-4.724-3.082-6.032-4.78-9.209a12.287,12.287,0,1,1,21.882,0c-1.7,3.193-5.243,4.474-4.78,9.212a5.8,5.8,0,0,1-1.445,4.562M57.337,50.425a1.021,1.021,0,0,1,.122,1.505l-1.183,1.207-.015,7.768L59.6,60.89c.781-2.964,3.654-4.654,4.84-7.086a10.177,10.177,0,1,0-18.455,0c1.174,2.4,3.994,4.1,4.89,7.108l3.292-.01-.02-7.759-1.087-1.09a1.08,1.08,0,0,1,.029-1.627c1-.849,1.8.715,2.188.651.367-.06,1.067-1.472,2.057-.65m1.888,14.293v-1.7H51.2l0,1.7ZM58.8,66.829l-7.215-.01c1.342,2.35,6.016,2.326,7.215.01" transform="translate(-33.801 -29.338)" fill="#12263f"/>
          <path id="Path_1274263" data-name="Path 1274263" d="M98.191,4.125a1.054,1.054,0,0,1-.962,1.155,1.022,1.022,0,0,1-1.135-1.055V1.055a1.043,1.043,0,1,1,2.087,0Z" transform="translate(-75.723 0)" fill="#12263f"/>
          <path id="Path_1274264" data-name="Path 1274264" d="M36.4,29.068a.961.961,0,0,1-.151,1.317,1.064,1.064,0,0,1-1.467-.018l-2.224-2.216a1.065,1.065,0,0,1-.16-1.394c.235-.361.943-.733,1.395-.283Z" transform="translate(-25.386 -20.699)" fill="#12263f"/>
          <path id="Path_1274265" data-name="Path 1274265" d="M10.215,92.281l-3.275.037a1.014,1.014,0,0,1-1.091-1,1.057,1.057,0,0,1,1.1-1.118l3.132.015a1.038,1.038,0,0,1,1.043.933.962.962,0,0,1-.915,1.131" transform="translate(-4.609 -71.08)" fill="#12263f"/>
          <path id="Path_1274266" data-name="Path 1274266" d="M175.556,92.3l-3.084.024a1.084,1.084,0,0,1-1.217-1.006,1.062,1.062,0,0,1,1.042-1.11l3.137-.007a1.048,1.048,0,0,1,1.093.924.975.975,0,0,1-.971,1.175" transform="translate(-134.951 -71.08)" fill="#12263f"/>
          <path id="Path_1274267" data-name="Path 1274267" d="M34.133,147.207a1.223,1.223,0,0,1-1.49.416c-.4-.19-.924-.937-.463-1.407l2.523-2.571a1,1,0,0,1,1.328-.035,1.037,1.037,0,0,1,.137,1.505Z" transform="translate(-25.217 -112.98)" fill="#12263f"/>
          <path id="Path_1274268" data-name="Path 1274268" d="M153.349,146.182c.475.485.049,1.152-.291,1.389a1.154,1.154,0,0,1-1.564-.282l-2.09-2.147a1.039,1.039,0,0,1,.133-1.5,1.05,1.05,0,0,1,1.452.129Z" transform="translate(-117.525 -113.007)" fill="#12263f"/>
          <path id="Path_1274269" data-name="Path 1274269" d="M150.927,30.421a1.037,1.037,0,0,1-1.389.156c-.332-.236-.75-.906-.327-1.341l2.4-2.462a1.042,1.042,0,1,1,1.573,1.367Z" transform="translate(-117.439 -20.807)" fill="#12263f"/>
        </g>
      </g>
    </g>
  </g>
</svg>
