<svg xmlns="http://www.w3.org/2000/svg" xmlns:xlink="http://www.w3.org/1999/xlink" width="97.668" height="98" viewBox="0 0 97.668 98">
  <defs>
    <clipPath id="clip-path">
      <rect id="Rectangle_465037" data-name="Rectangle 465037" width="53.597" height="59.059" fill="#174165"/>
    </clipPath>
    <clipPath id="clip-path-2">
      <rect id="Rectangle_456707" data-name="Rectangle 456707" width="25.382" height="26.373" fill="#f5b86e"/>
    </clipPath>
    <clipPath id="clip-path-3">
      <rect id="Rectangle_456710" data-name="Rectangle 456710" width="16.076" height="16.076" fill="#6dceff"/>
    </clipPath>
  </defs>
  <g id="img28" transform="translate(-411.393 -9354.88)">
    <g id="Group_1179599" data-name="Group 1179599" transform="translate(411.393 9354.88)">
      <g id="Group_1179591" data-name="Group 1179591" transform="translate(0 0)">
        <circle id="Ellipse_13609" data-name="Ellipse 13609" cx="48.834" cy="48.834" r="48.834" fill="#fff"/>
        <g id="Group_1190430" data-name="Group 1190430" transform="translate(22.036 19.305)">
          <g id="Group_1190429" data-name="Group 1190429" clip-path="url(#clip-path)">
            <path id="Path_1274276" data-name="Path 1274276" d="M36.1,59.06H17.58a3.164,3.164,0,0,1-2.92-3.113,8.867,8.867,0,0,0-3.013-5.8c-3.38-3.007-6.852-4.228-8.18-9.869A44.174,44.174,0,0,1,2.4,32.142l-.24-5.072c-.051-1.077,1.326-1.742,2.18-1.864.981-.14,2.452.275,2.772,1.345l2.9,9.695c.132.44.343.907.95.857A16,16,0,0,1,13.07,26.878a23.676,23.676,0,0,0-1.57-6.2A126.764,126.764,0,0,1,.461,9.782,2.223,2.223,0,0,1,.784,6.763a2.377,2.377,0,0,1,3.316.2A29.82,29.82,0,0,0,11.367,12.7c-.759-1.988-.7-3.725.606-5.169a4.241,4.241,0,0,1,4.722-1.171,4.436,4.436,0,0,1,2.847,4.186A32.849,32.849,0,0,0,23,1.859,2.472,2.472,0,0,1,24.4.184,2.349,2.349,0,0,1,26.792.56a2.317,2.317,0,0,1,2.39-.372,2.444,2.444,0,0,1,1.395,1.671,32.54,32.54,0,0,0,3.469,8.719,4.813,4.813,0,0,1,2.589-4.059,4.313,4.313,0,0,1,4.91.9c1.4,1.413,1.538,3.283.722,5.274A32.311,32.311,0,0,0,49.6,6.871a2.339,2.339,0,0,1,3.086-.206,2.2,2.2,0,0,1,.511,2.991,114.693,114.693,0,0,1-11.044,10.95,20.545,20.545,0,0,0-1.6,6.018,15.87,15.87,0,0,1,2.191,10.439c.517.176.8-.226.945-.711l2.883-9.674a2.52,2.52,0,0,1,2.721-1.48c.88.069,2.367.752,2.3,1.943l-.4,6.886C50.927,38.672,50,43.9,46.324,46.784L42.46,49.809a8.709,8.709,0,0,0-3.415,6.248,3.079,3.079,0,0,1-2.941,3M2.109,9.1,10.3,17.309a18.919,18.919,0,0,1,2.5,2.294c1.037,1.535,1.212,3.446,1.733,5.161a15.843,15.843,0,0,1,7.49-5.08c-.111-1-.541-1.944-.22-2.889,1.6-4.716,2.831-9.419,3.965-14.277.111-.476-.142-.736-.555-.728a.686.686,0,0,0-.528.525c-.856,2.828-2.4,8.129-4.16,9.67a11.632,11.632,0,0,1-4.3,2.528,14.5,14.5,0,0,1-4.685.052c-2.156-.148-6.788-4.531-8.922-6.53-.3-.277-.8-.061-.808.233a1.068,1.068,0,0,0,.3.829m48.723-.98A45.439,45.439,0,0,1,44.5,13.482a7.926,7.926,0,0,1-4.914,1.258,7.214,7.214,0,0,1-4.217-1.083A8.328,8.328,0,0,1,31.5,9.7a51.2,51.2,0,0,1-2.659-7.528.612.612,0,0,0-.7-.379.554.554,0,0,0-.347.724c1.086,4.461,2.108,8.837,3.625,13.166a5.123,5.123,0,0,1,.055,3.924,16.333,16.333,0,0,1,7.591,4.974c.556-1.751.706-3.546,1.7-4.973l2.512-2.3,8.231-8.291a.64.64,0,0,0,.14-.876.549.549,0,0,0-.819-.022M29.755,19.236A3.246,3.246,0,0,0,30,16.9c-1.33-3.533-2.087-7.075-3.21-10.85-1.107,3.726-1.869,7.212-3.15,10.7a2.885,2.885,0,0,0,.215,2.491,14.885,14.885,0,0,1,5.9,0M14.847,7.859a2.571,2.571,0,1,0,.7,5.094,2.6,2.6,0,0,0,2.178-2.93,2.57,2.57,0,0,0-2.881-2.164m22.627.234a2.554,2.554,0,1,0,2,4.7A2.6,2.6,0,0,0,40.866,9.46a2.569,2.569,0,0,0-3.392-1.367m2.7,21.643A14.294,14.294,0,0,0,28.6,20.815a28.319,28.319,0,0,1,4.22,10.464,40.89,40.89,0,0,0,7.355-1.543m-19.25,1.555a29.324,29.324,0,0,1,4.136-10.451,14.091,14.091,0,0,0-11.526,9.041,47.1,47.1,0,0,0,7.391,1.41m10.141.118a26.8,26.8,0,0,0-4.193-10.038,26.2,26.2,0,0,0-4.22,10.134,39.173,39.173,0,0,0,8.413-.1M22.483,46.1l-8.827-6.973a2.035,2.035,0,0,0-2.52-.276,1.2,1.2,0,0,0-.505,1.05,1.4,1.4,0,0,0,.65.978L17.4,45.632a.932.932,0,0,1,.208,1.43.889.889,0,0,1-1.225.005L10.055,42.1a2.833,2.833,0,0,1-.807-3.721,6.39,6.39,0,0,1-1.087-2.16l-2.6-8.907c-.116-.4-.772-.408-1.051-.348-.217.047-.686.2-.661.546l.573,8.063a24.034,24.034,0,0,0,.965,5.107,10.07,10.07,0,0,0,3.627,5.17l2.969,2.281a11.153,11.153,0,0,1,4.455,7.88,1.4,1.4,0,0,0,1.422,1.337l8.066-.017L25.95,50.7c.006-1.772-1.826-3.309-3.467-4.6m5.884,2.73a4.875,4.875,0,0,0-.618,2.3l.03,6.253,7.98-.01a1.579,1.579,0,0,0,1.586-1.59A10.1,10.1,0,0,1,41.1,48.67l4.087-3.232c3.587-2.837,4.051-7.991,4.362-12.591l.352-5.2c.037-.554-.591-.754-.987-.71a.976.976,0,0,0-.9.8l-2.188,7.638a10.017,10.017,0,0,1-1.314,3.011,2.948,2.948,0,0,1-.8,3.7l-6.566,5.137a.88.88,0,0,1-1.18-.324.916.916,0,0,1,.293-1.186l6.32-4.975a1.053,1.053,0,0,0,.459-1.266,1.72,1.72,0,0,0-2.547-.617l-8.931,6.981a25.572,25.572,0,0,0-3.2,3m11.422-11.6,1.218-.409a13.269,13.269,0,0,0-.331-5.375,51.678,51.678,0,0,1-7.639,1.594,24.919,24.919,0,0,1-1.49,10.494Zm-17.611,6.3a23.959,23.959,0,0,1-1.45-10.452,56.126,56.126,0,0,1-7.667-1.541,12.526,12.526,0,0,0-.37,5.181l1.349.563ZM28.3,46.234a23.152,23.152,0,0,0,3.037-13.019,55.327,55.327,0,0,1-8.9.022,22.577,22.577,0,0,0,3.219,13.34,4.529,4.529,0,0,1,1.148,1.3Z" transform="translate(0 -0.001)" fill="#174165"/>
          </g>
        </g>
      </g>
    </g>
    <g id="Group_1182198" data-name="Group 1182198" transform="translate(412.044 9354.88)">
      <g id="Group_1182195" data-name="Group 1182195" transform="translate(71.386 71.627)">
        <g id="Group_1182154" data-name="Group 1182154" clip-path="url(#clip-path-2)">
          <path id="Path_1002486" data-name="Path 1002486" d="M15.723,15.248c-2.87-1.337-1.955-5.954,1.332-3.421,1.944,1.154.952,4.191-1.332,3.421M15,21.807c-1.654.48-1.1,3.582.578,3.156,1.458-.371,1.227-3.68-.578-3.156M12.74,6.765c-.212-1.517-3.013-1.421-2.851.108.141,1.33,3.083,1.547,2.851-.108M8.883,14.272c-1.96-1.061-3.565,2.07-2.253,3.506,2.522,2.81,4.541-1.849,2.253-3.506M4.094,10.709A1.736,1.736,0,0,0,1.927,8a1.737,1.737,0,0,0,2.167,2.711m16.39-5.23h0a.652.652,0,0,0-.878.512c-.665,4.427,5.131,1.013.878-.512M5.97,23.675h0a.652.652,0,0,0-.878.512c-.665,4.427,5.13,1.013.878-.512m19.4-7.4A1.91,1.91,0,1,0,21.8,17.636c-.335-.136,3.877,3.139,3.569-1.361M2.591,18.982a1.325,1.325,0,1,0-2.477.944c-.232-.095,2.691,2.178,2.477-.944M5.815.432A.586.586,0,0,0,6.1.172ZM6.1.172,6.291,0A.881.881,0,0,0,6.1.172" transform="translate(0 -0.001)" fill="#f5b86e"/>
        </g>
      </g>
      <g id="Group_1182194" data-name="Group 1182194" transform="translate(0 0)">
        <g id="Group_1182160" data-name="Group 1182160" transform="translate(0 0)" clip-path="url(#clip-path-3)">
          <path id="Path_1002489" data-name="Path 1002489" d="M13.285,5.247H10.829V2.791a2.791,2.791,0,1,0-5.582,0V5.247H2.791a2.791,2.791,0,0,0,0,5.582H5.247v2.456a2.791,2.791,0,1,0,5.582,0V10.829h2.456a2.791,2.791,0,0,0,0-5.582" transform="translate(0 0)" fill="#6dceff"/>
        </g>
      </g>
    </g>
  </g>
</svg>
