<svg xmlns="http://www.w3.org/2000/svg" xmlns:xlink="http://www.w3.org/1999/xlink" width="84" height="84" viewBox="0 0 84 84">
  <defs>
    <clipPath id="clip-path">
      <rect id="Rectangle_465013" data-name="Rectangle 465013" width="68.534" height="68.549" fill="#12263f"/>
    </clipPath>
  </defs>
  <g id="img26" transform="translate(-706 -1685.277)">
    <g id="Group_1177731" data-name="Group 1177731">
      <g id="Group_1119665" data-name="Group 1119665" transform="translate(530.111 -3835.723)">
        <path id="Path_991847" data-name="Path 991847" d="M5,0H79a5,5,0,0,1,5,5V79a5,5,0,0,1-5,5H5a5,5,0,0,1-5-5V5A5,5,0,0,1,5,0Z" transform="translate(175.889 5521)" fill="#aae5ff"/>
      </g>
      <g id="Group_1190382" data-name="Group 1190382" transform="translate(713.733 1693.003)">
        <g id="Group_1190381" data-name="Group 1190381" clip-path="url(#clip-path)">
          <path id="Path_1274088" data-name="Path 1274088" d="M1.636,51.661a1.05,1.05,0,0,1-1.44-.12A1.078,1.078,0,0,1,.271,50.21a2.856,2.856,0,0,1,2.346-1.274,3.383,3.383,0,0,1,2.4,1.526c1.763-1.19.091-3.614,1.437-7.13A.968.968,0,0,1,7.55,42.7c1.691.3,0,2.1.359,5.079a5.249,5.249,0,0,1-1.36,4.173L16.418,61.8c2.679-1.883,5.772-1.7,8.034-3.948L37.837,44.521a.754.754,0,0,0-.044-1.03c-.792.926-2.117.591-3.054.645l-6.465,6.236c-.365.352-.955-.088-1.136-.356a1.041,1.041,0,0,1,.111-1.331l5.684-5.71c.107-.323-.287-.958-.491-1.156a4.291,4.291,0,0,1-2.392.187l-3.8,3.731a1.025,1.025,0,0,1-1.379-.2,1.112,1.112,0,0,1,.173-1.434l3.177-3.277a5.443,5.443,0,0,1-.6-3.177l-4.444,4.41a1.006,1.006,0,1,1-1.421-1.418l3.419-3.4a5.032,5.032,0,0,1-2.011-2.008l-7.91,7.888a.927.927,0,0,1-1.189-.091,1.02,1.02,0,0,1-.192-1.293C15.454,38.4,16.707,32.452,12.868,32a10.436,10.436,0,0,1-2.191,7.841c-.271.349-.383.644-.766.683-.5.051-.955-.059-1.1-.425-.6-1.548,2.64-2.966,2.067-7.752a2.006,2.006,0,0,1,1.983-2.316,4.406,4.406,0,0,1,4.31,3.573,15.02,15.02,0,0,1-.01,4.8l5.917-5.888.025-6.167a1.039,1.039,0,0,1,.979-.968.98.98,0,0,1,.984.975l.006,7.7a1.268,1.268,0,0,0,1.172,1.311,1.284,1.284,0,0,0,1.363-1.313l.019-10.263c0-.536.433-.721.8-.806.333-.077,1.1.048,1.1.626l.059,15.117a1.476,1.476,0,0,0,1.163,1.37,1.317,1.317,0,0,0,1.586-1.11l.059-13.44a.988.988,0,0,1,1.106-.989,1.064,1.064,0,0,1,.938,1.179l-.016,15.188A1.321,1.321,0,0,0,35.851,42.2,1.443,1.443,0,0,0,37.2,40.872l.027-15.162a.944.944,0,0,1,1-1,.959.959,0,0,1,.958,1.008l.011,13.041a1.39,1.39,0,0,0,1.386,1.348,1.357,1.357,0,0,0,1.393-1.349L42,19.55c0-.533.63-.844.952-.868a1,1,0,0,1,1.032.741c1.181,3.329,4.562,8.608,7.582,6.241l-2.035-2.159a8,8,0,0,1-1.7-3.881l-.947-4.17A8.583,8.583,0,0,0,43.575,10.6a5.057,5.057,0,0,1-1.61-3.757c-1.616-.044-3.044.176-3.2-.974-.044-.324.246-1.027.734-1.034l5.9-.093.033-3.659A1,1,0,0,1,46.39.01a.981.981,0,0,1,1.023,1.059L47.339,4.93c-.028,1.5-1.788,2.048-3.23,1.84-.573,2.595,3.529,3.195,4.685,8.049l1.36,5.708c.52,2.182,3.308,3.375,3.429,4.876a2.076,2.076,0,0,1-.737,1.773,4.377,4.377,0,0,1-4.881.649,10.492,10.492,0,0,1-3.831-3.665,6.561,6.561,0,0,0,.047,2.976,8.964,8.964,0,0,1,1.907,1.126L58.568,40.791c3.609,3.623,2.705,6.662,5.237,9.478a2.929,2.929,0,0,1,2.056-1.3,2.715,2.715,0,0,1,2.218.988,1.164,1.164,0,0,1,.238,1.574,1.037,1.037,0,0,1-1.67-.171c-.13-.211-.569-.566-.811-.326l-4.958,4.932a.985.985,0,0,1-1.395-1.391l2.842-2.859c-2.632-2.868-2.305-6.547-4.57-8.819L44.15,29.25,44.041,32.6l5.99,6.031a1.082,1.082,0,0,1,.044,1.3,1.022,1.022,0,0,1-1.461.119l-4.5-4.406-.13,3.727L45.508,41a.954.954,0,0,1-.382,1.452c-.975.446-1.361-.811-2.251-1.15a3.931,3.931,0,0,1-2.936.8l2.615,2.757a1.06,1.06,0,0,1-.071,1.182.986.986,0,0,1-1.287.15l-1.3-1.224A7.236,7.236,0,0,1,38.1,47.02l4.646,4.69a1.061,1.061,0,0,1,.044,1.459,1.141,1.141,0,0,1-1.391.106c-3.6-1.627-9.4-2.618-9.525,1.08,1.814-.04,3.5-.146,5.074.6,3.69,1.761,6.222,4.905,10.6,4.373a5.254,5.254,0,0,1,4.966,2.217l3.526-3.563a1.074,1.074,0,0,1,1.493-.163,1,1,0,0,1,.03,1.478l-5.808,5.812c.671,1.352,2.371,1.838,1.68,3.008a1.009,1.009,0,0,1-1.534.148l-1.5-1.492a2.324,2.324,0,0,1,.626-3.662c-1.679-3.386-5.341-.5-9.263-2.939l-4.21-2.623c-3.913-2.438-6.248-.089-7.631-2.306l-4.3,4.246c-2.368,2.34-5.483,2.252-7.712,3.827a2.413,2.413,0,0,1,.123,3.579l-1.289,1.286a1.042,1.042,0,0,1-1.409.111c-1.17-.979.619-1.834,1.482-3.165l-14.2-14.2c-.45.149-.639.473-.983.732m36.458-1.544a6.135,6.135,0,0,0-1.451-1.548,4.511,4.511,0,0,0-1.184,1.263,12.619,12.619,0,0,1,2.635.286" transform="translate(0 -0.007)" fill="#12263f"/>
          <path id="Path_1274089" data-name="Path 1274089" d="M109.773,15.749l-.087,6.269c-.008.6-.744.736-1.089.655-.623-.146-.846-.561-.842-1.248l.029-5.794c.02-3.92,2.311-5.769,2.841-8.805-1.81-.039-2.863-.837-2.863-2.538V1.062A.961.961,0,0,1,108.755,0c.7.005,1,.519,1.007,1.273l.034,3.449,10.134.084a.96.96,0,0,1,.829,1.042,1.015,1.015,0,0,1-1.014.935l-7.025.051c-.543,3.392-2.9,5.382-2.947,8.915" transform="translate(-84.67 0)" fill="#12263f"/>
        </g>
      </g>
    </g>
  </g>
</svg>
