<svg xmlns="http://www.w3.org/2000/svg" xmlns:xlink="http://www.w3.org/1999/xlink" width="84" height="84" viewBox="0 0 84 84">
  <defs>
    <clipPath id="clip-path">
      <rect id="Rectangle_465042" data-name="Rectangle 465042" width="56.628" height="56.583" fill="#174165"/>
    </clipPath>
  </defs>
  <g id="img38" transform="translate(-706 -1685.277)">
    <g id="Group_1177731" data-name="Group 1177731">
      <g id="Group_1119665" data-name="Group 1119665" transform="translate(530.111 -3835.723)">
        <path id="Path_991847" data-name="Path 991847" d="M5,0H79a5,5,0,0,1,5,5V79a5,5,0,0,1-5,5H5a5,5,0,0,1-5-5V5A5,5,0,0,1,5,0Z" transform="translate(175.889 5521)" fill="#aae5ff"/>
      </g>
      <g id="Group_1190440" data-name="Group 1190440" transform="translate(719.686 1698.986)">
        <g id="Group_1190439" data-name="Group 1190439" clip-path="url(#clip-path)">
          <path id="Path_1274295" data-name="Path 1274295" d="M50.092,56.583l-23.078-.037c-1.337,0-2.554-.979-3.545-1.706L17.8,50.691a2.873,2.873,0,0,0-2.72-.563c.032.581.111,1.653-.615,1.687l-3.086.143a1.263,1.263,0,0,1-1.188.894L.965,52.823a.922.922,0,0,1-.943-.965V32.1a.911.911,0,0,1,.941-.959L10.2,31.11A1.25,1.25,0,0,1,11.388,32l3.1.157c.7.036.7,1.134.578,1.814,2.674.025,5.131-.085,7.85.155a3.882,3.882,0,0,0-1.59-2.607c-1.274-.777-2.269-.607-2.486-3.7l-1.073,1.621c-1.089,1.037-4.189.99-5.421.107-.508-.365-.511-1.052-.942-1.564a3.529,3.529,0,0,0-3.066-1.194c-1.209.362-2.114.552-3.135-.319a7.911,7.911,0,0,1-2.015-2.253A3.237,3.237,0,0,1,3.3,21.778,3.255,3.255,0,0,0,1.922,18.5c-.629-.381-1.332-.526-1.59-1.294a6.874,6.874,0,0,1,0-4.228c.256-.764.959-.916,1.589-1.3A3.252,3.252,0,0,0,3.305,8.411a3.22,3.22,0,0,1-.118-2.433A7.83,7.83,0,0,1,5.308,3.643c1.01-.813,1.857-.566,3.031-.238A3.384,3.384,0,0,0,11.462,2.1c.474-.774.58-1.53,1.516-1.8A7.581,7.581,0,0,1,16.93.231c.918.243,1.1.965,1.565,1.732a3.276,3.276,0,0,0,3.239,1.314c1.228-.406,2.158-.536,3.186.341a9.549,9.549,0,0,1,1.8,1.9c.609.931.369,1.623.075,2.647a3.3,3.3,0,0,0,1.48,3.32,4.129,4.129,0,0,1,1.643,1.35c1.132-.142,2.9-.739,3.425-1.883.659-1.424,1.417-2.36,3.125-2.41a8.124,8.124,0,0,1,4.129.5l1.833-2.088c.111-.4.032-1.208.669-1.223l3.125-.076.015-1.875a.9.9,0,0,1,.556-.865,1.012,1.012,0,0,1,1.062.191l4.613,4.6a1.079,1.079,0,0,1,0,1.57l-3.235,3.257a9.844,9.844,0,0,1,2.892,2.676,3.254,3.254,0,0,1,.15,3.331c-.363.929.164,1.95.513,2.784a3.2,3.2,0,0,0,1.916,1.915c2.073.8,2.135,3.794,1.693,6.184-.437,2.357-2.628,1.621-3.61,3.972-.343.82-.884,1.868-.511,2.776.517,1.261.7,2.574-.305,3.574l-1.94,1.929c-1.171,1.165-2.38.883-3.826.41-1.386-.453-3.193.44-4.167,1.424l-1.024,1.77a3.9,3.9,0,0,1,.011,3.793l8.594-.032a3.837,3.837,0,0,1,4.131,3.53,3.708,3.708,0,0,1-3.666,4.015M16.483,28.1c.79-2.551,4.416-3.893,6.727-2.691a5.636,5.636,0,0,0,2.071-2.017c-1.226-2.3.279-5.955,2.8-6.664a5.583,5.583,0,0,0-.007-3.254A5.062,5.062,0,0,1,25.283,6.8a5.507,5.507,0,0,0-2.069-2.017,5.229,5.229,0,0,1-6.78-2.608,3.707,3.707,0,0,0-2.906-.04A5.084,5.084,0,0,1,6.811,4.889a6.982,6.982,0,0,0-2,2.081C6.05,9.364,4.558,13.006,2.036,13.7a7.139,7.139,0,0,0,0,2.8c2.523.682,4.027,4.349,2.759,6.724A7.08,7.08,0,0,0,6.809,25.3a5.111,5.111,0,0,1,6.751,2.817,5.271,5.271,0,0,0,2.923-.015M47,9.424a1.111,1.111,0,0,1,.909.319,2.433,2.433,0,0,1,.262,1.076l2.374-2.331L48.147,6.162c.021.665-.194,1.346-.8,1.355l-2.986.047,0,1.849Zm-.772,3.768-.008-1.862H43.58a1.137,1.137,0,0,1-.9-.323A2.4,2.4,0,0,1,42.4,9.935l-2.349,2.307,2.374,2.347c-.024-.66.19-1.337.8-1.348ZM47.979,40.7a7.063,7.063,0,0,0,2.918-2.8,5.642,5.642,0,0,1,.117-5.209,5.38,5.38,0,0,1,3.408-3.141,7.5,7.5,0,0,0-.056-4.443,5.292,5.292,0,0,1-3.409-3.231,5.57,5.57,0,0,1-.06-5.075,7.365,7.365,0,0,0-2.738-2.724,1.074,1.074,0,0,1-1.168,1.009l-2.645-.008-.012,1.893a.891.891,0,0,1-.561.851.99.99,0,0,1-1.043-.187l-4.7-4.707c-.816-.817.27-1.522.911-2.476-.955-.052-2.41-.305-3.292.3-1.06,2.38-2.762,3.491-5.457,3.992.154,3.709-1.517,3.5-2.268,4.165A3.5,3.5,0,0,0,26.773,21.9c.392,1.248.554,2.168-.378,3.2-1.233,1.371-2.385,2.627-4.183,1.925a1.893,1.893,0,0,0-1.432-.143c0,.658-.16,1.8.331,2.376,2.415,1.053,3.254,2.575,3.888,5.177a15.192,15.192,0,0,1,5.433,2.682L39.679,43.9c1.087-3.045,5.448-4.806,8.3-3.195M9.456,50.925l0-17.907H1.889l0,17.94Zm3.774-.993-.006-15.949H11.319l0,15.994a6.074,6.074,0,0,0,1.909-.047m22.526.429-5.725-4.336a1.016,1.016,0,0,1-.286-1.305.907.907,0,0,1,1.287-.276L36.5,48.591a1.943,1.943,0,0,0,2.639-.153,1.872,1.872,0,0,0-.076-2.611l-9.983-7.347c-4.08-3.23-8.876-2.56-13.987-2.624l0,12.278a5.642,5.642,0,0,1,3.851,1.044c1.834,1.2,3.442,2.518,5.211,3.863.947.5,1.859,1.627,3.069,1.63l22.764.056a1.953,1.953,0,0,0,1.893-1.981A1.924,1.924,0,0,0,50,50.943l-12.262-.016a3.309,3.309,0,0,1-1.987-.566" transform="translate(0 0)" fill="#174165"/>
          <path id="Path_1274296" data-name="Path 1274296" d="M167.2,102.938a6.62,6.62,0,1,0,3.012,5.6.913.913,0,0,1,.862-.939.893.893,0,0,1,1.011.936,8.481,8.481,0,1,1-3.968-7.176.841.841,0,0,1,.148,1.091c-.156.256-.58.787-1.065.491" transform="translate(-125.866 -81.157)" fill="#174165"/>
          <path id="Path_1274297" data-name="Path 1274297" d="M183.094,127.234l-2.767-2.763a.957.957,0,0,1,.046-1.395,1,1,0,0,1,1.406.124l2.107,2.106,5.967-5.094a.942.942,0,0,1,1.28.117.952.952,0,0,1-.151,1.378l-6.269,5.411c-.467.4-1.071.662-1.619.115" transform="translate(-146.081 -97.373)" fill="#174165"/>
          <path id="Path_1274298" data-name="Path 1274298" d="M46.544,40.18a7.534,7.534,0,1,1-6.284,8.732,7.5,7.5,0,0,1,6.284-8.732m.187,1.882a5.65,5.65,0,1,0,6.528,4.606,5.6,5.6,0,0,0-6.528-4.606" transform="translate(-32.577 -32.527)" fill="#174165"/>
          <path id="Path_1274299" data-name="Path 1274299" d="M25.752,250.14a.922.922,0,0,1,1.168.493.934.934,0,1,1-1.7.765.927.927,0,0,1,.536-1.258" transform="translate(-20.396 -202.907)" fill="#174165"/>
          <path id="Path_1274300" data-name="Path 1274300" d="M70.547,69.136a.946.946,0,0,1-1.428,1.233l-1.208-1.188-1.112,1.1a.97.97,0,1,1-1.363-1.364l1.1-1.109L65.357,66.6a.974.974,0,0,1-.046-1.29.964.964,0,0,1,1.4-.059l1.229,1.187c.959-1.1,1.868-1.956,2.568-1.125a.965.965,0,0,1-.044,1.29l-1.2,1.225a11.507,11.507,0,0,1,1.284,1.311" transform="translate(-52.804 -52.72)" fill="#174165"/>
        </g>
      </g>
    </g>
  </g>
</svg>
