<svg xmlns="http://www.w3.org/2000/svg" xmlns:xlink="http://www.w3.org/1999/xlink" width="84" height="84" viewBox="0 0 84 84">
  <defs>
    <clipPath id="clip-path">
      <rect id="Rectangle_465040" data-name="Rectangle 465040" width="61.431" height="59.259" fill="#174165"/>
    </clipPath>
  </defs>
  <g id="img32" transform="translate(-706 -1685.278)">
    <g id="Group_1177731" data-name="Group 1177731">
      <g id="Group_1119665" data-name="Group 1119665" transform="translate(530.111 -3835.723)">
        <path id="Path_991847" data-name="Path 991847" d="M5,0H79a5,5,0,0,1,5,5V79a5,5,0,0,1-5,5H5a5,5,0,0,1-5-5V5A5,5,0,0,1,5,0Z" transform="translate(175.889 5521)" fill="#aae5ff"/>
      </g>
      <g id="Group_1190436" data-name="Group 1190436" transform="translate(718.858 1699.166)">
        <g id="Group_1190435" data-name="Group 1190435" clip-path="url(#clip-path)">
          <path id="Path_1274285" data-name="Path 1274285" d="M20.983,53.364c-.231-.4-.559-1.2-.211-1.559l5.251-3.145,1.109-2.634a21.777,21.777,0,0,1-15.488-8.51C3.468,32.33.548,23.705.067,14.267A59.19,59.19,0,0,1,.561,3.6a.9.9,0,0,1,.789-.787h7a.869.869,0,0,1,.94.837l0,5.7,1.727,2.482A21.738,21.738,0,0,1,26.218,2.607c7.487-4.049,15.751-2.964,23.389.4A56.959,56.959,0,0,1,60.964,9.859a.957.957,0,0,1,.313,1.339l-3.5,6.068c-.32.555-1.085.269-1.494.035l-4.662-2.674c-.854,0-1.9.284-2.853.343a21.925,21.925,0,0,1,.365,17.682c-.374,10.411-7.612,17.787-16.266,22.827a68.154,68.154,0,0,1-7.477,3.695,1.046,1.046,0,0,1-1.342-.526Zm23.51-40.869a14.256,14.256,0,0,0,7.418.145l4.837,2.716,2.526-4.435C51.615,5.229,41.255-.056,31.718,2.516A22.616,22.616,0,0,1,43.63,8.058a.973.973,0,0,1,.15,1.023,1.112,1.112,0,0,1-.953.573l-6.19.533a1.554,1.554,0,0,0-1.593,1.763,1.534,1.534,0,0,0,1.835,1.273ZM35.427,23.371,39,23.308a3.86,3.86,0,0,1,1.287-3.843,3.3,3.3,0,0,1,3.862.008,3.861,3.861,0,0,1,1.262,3.834l3.51-.014a19.26,19.26,0,0,0-2.32-8.43l-2.274-.43-7.22.642a3.387,3.387,0,1,1-.756-6.723L40.5,7.92A19.926,19.926,0,0,0,19.832,6.513L22,10.34c.176.311.2.916-.118,1.1l-2.008,1.186a1.442,1.442,0,0,0-.692,1.75,1.315,1.315,0,0,0,1.645.815c1.266-.465,2.821-1.932,3.32-1.1l2.464,4.124a6.469,6.469,0,0,1,5.856.571,6.716,6.716,0,0,1,2.962,4.58m-22.1,1.657a1.417,1.417,0,0,0,2.138-.042,1.55,1.55,0,0,0,.031-2.016l-4.437-6.287a15.128,15.128,0,0,0-3.578-6.449L7.41,4.666H2.3C1.123,14.214,1.844,25.76,8.853,32.882A22.672,22.672,0,0,1,7.6,19.748a1.043,1.043,0,0,1,.749-.726.955.955,0,0,1,.906.4ZM23.786,38.069a1.266,1.266,0,0,0,1.738-.735c.924-2.152-3.779-2.366-2.811-4.066l2.216-3.891a6.576,6.576,0,0,1,0-10.213l-1.909-3.125a3.378,3.378,0,0,1-5.2-.3A3.246,3.246,0,0,1,19.1,10.951c.206-.1.768-.426.714-.642L18.233,7.445a18.828,18.828,0,0,0-6.264,6.366l.832,2.07,4.221,6.027a3.419,3.419,0,0,1-.577,4.729,3.322,3.322,0,0,1-4.712-.59L9.087,22.474A19.958,19.958,0,0,0,18.16,41.069L20.38,37.3a.845.845,0,0,1,1.081-.464ZM28.2,19.707a4.613,4.613,0,1,0,5.33,3.795,4.577,4.577,0,0,0-5.33-3.795m1.655,22.646,3.352-7.027a3.216,3.216,0,0,1,4.35-1.277,3.31,3.31,0,0,1,1.6,4.266l-1.668,4.014A19.94,19.94,0,0,0,48.935,25.273L44.66,25.21c-1.73-.025-.754-2.236-1.228-3.718a1.282,1.282,0,0,0-1.605-.732A1.364,1.364,0,0,0,40.8,22.153l0,2.025c0,.53-.267,1.008-.814,1.018l-4.59.083A6.479,6.479,0,0,1,26.6,30.256l-1.831,3.208a3.692,3.692,0,0,1,2.724,2.951,3.224,3.224,0,0,1-1.855,3.318,3.53,3.53,0,0,1-3.952-.778L19.829,42a19.852,19.852,0,0,0,8.563,2.236Zm16.6-4.858A22.753,22.753,0,0,1,36,44.942a1.127,1.127,0,0,1-1.088-.039,1,1,0,0,1-.28-1.106L37.4,37.692a1.483,1.483,0,0,0-.756-2.033,1.507,1.507,0,0,0-1.928.714l-3.3,7.2A14.661,14.661,0,0,0,27.57,49.9l-4.792,2.829,2.562,4.44c8.644-3.727,18.413-10.005,21.12-19.677" transform="translate(0.001 0)" fill="#174165"/>
        </g>
      </g>
    </g>
  </g>
</svg>
