<svg xmlns="http://www.w3.org/2000/svg" xmlns:xlink="http://www.w3.org/1999/xlink" width="97.668" height="98" viewBox="0 0 97.668 98">
  <defs>
    <clipPath id="clip-path">
      <rect id="Rectangle_465039" data-name="Rectangle 465039" width="53.351" height="60.351" fill="#174165"/>
    </clipPath>
    <clipPath id="clip-path-2">
      <rect id="Rectangle_456707" data-name="Rectangle 456707" width="25.382" height="26.373" fill="#f5b86e"/>
    </clipPath>
    <clipPath id="clip-path-3">
      <rect id="Rectangle_456710" data-name="Rectangle 456710" width="16.076" height="16.076" fill="#6dceff"/>
    </clipPath>
  </defs>
  <g id="img30" transform="translate(-411.393 -9354.88)">
    <g id="Group_1179599" data-name="Group 1179599" transform="translate(411.393 9354.88)">
      <g id="Group_1179591" data-name="Group 1179591" transform="translate(0 0)">
        <circle id="Ellipse_13609" data-name="Ellipse 13609" cx="48.834" cy="48.834" r="48.834" fill="#fff"/>
        <g id="Group_1190434" data-name="Group 1190434" transform="translate(22.158 18.658)">
          <g id="Group_1190433" data-name="Group 1190433" clip-path="url(#clip-path)">
            <path id="Path_1274282" data-name="Path 1274282" d="M49.231,46.556C43.8,53.868,35.315,57.832,26.659,60.351,18.565,58.024,10.637,54.33,5.114,47.873,2.174,44.209-.024,39.969,0,35.159L.091,17.25.16,10.39a1.211,1.211,0,0,1,.933-1.246L26.657,0,52.384,9.189a1.163,1.163,0,0,1,.771,1.195l.08,6.579.115,17.332a20.608,20.608,0,0,1-4.12,12.262M26.713,58.171c7.9-2.549,15.6-6.073,20.654-12.689l-6.882-.037c-.527,0-.862-.61-.926-.938-.076-.387.161-1.13.7-1.134l8.5-.061a18.751,18.751,0,0,0,1.8-4.424,2.623,2.623,0,0,0-1.162-.854l-5.534-1.747c-3.311-.647-6.281,2.455-7.147.547a1.119,1.119,0,0,1,.732-1.441l1.534-.571a6.158,6.158,0,0,1-.364-9.107,6.093,6.093,0,1,1,8.026,9.15A43.8,43.8,0,0,1,51.181,36.5l-.212-25.545L26.661,2.281,2.319,11,2.175,36.473C3.718,35.9,5.05,35.3,6.685,34.863a5.746,5.746,0,0,1-2.254-5.1A6.147,6.147,0,0,1,8.6,24.255a5.993,5.993,0,0,1,6.617,2.051,6.18,6.18,0,0,1-.9,8.547l1.545.547a1.078,1.078,0,1,1-.575,2.077c-2.938-1.022-4.623-1.863-7.672-.683-1.671.647-3.429.936-4.9,1.982a20.882,20.882,0,0,0,1.8,4.541l8.156-.006a1.027,1.027,0,0,1,1.094,1.2,1.118,1.118,0,0,1-1.117.959l-6.688.039c5.306,6.528,12.719,10.268,20.748,12.663m-15.767-24.2a3.927,3.927,0,0,0-.066-7.8,3.917,3.917,0,1,0,.066,7.8m31.426,0a3.917,3.917,0,1,0-.123-7.769,3.928,3.928,0,0,0,.123,7.769" transform="translate(0)" fill="#174165"/>
            <path id="Path_1274283" data-name="Path 1274283" d="M93.417,141.715l-16.946.027a2.271,2.271,0,0,1-2.359-2.3l0-2.331a5.181,5.181,0,0,1,3.674-4.876l3.189-1.076a6.178,6.178,0,0,1-.609-8.939,6.105,6.105,0,0,1,8.784-.117,6.2,6.2,0,0,1-.5,9.066l3.182,1.06a5.22,5.22,0,0,1,3.64,4.481l-.012,3.1a2,2,0,0,1-2.051,1.9m-9.484-19.156a3.921,3.921,0,1,0,4.671,2.9,3.9,3.9,0,0,0-4.671-2.9m9.4,17.038-.024-2.874a2.785,2.785,0,0,0-1.9-2.337l-5.175-1.709a6.7,6.7,0,0,0-4.144.377l-3.4,1.136a3.354,3.354,0,0,0-2.435,3.335l.053,2.055Z" transform="translate(-58.151 -94.39)" fill="#174165"/>
            <path id="Path_1274284" data-name="Path 1274284" d="M86.719,48.539a6.915,6.915,0,0,0-4.4.492l-3.059,1.046c-2.808.96-1.812,3.022-3.464,2.945-.376-.017-1.029-.3-.955-.932a4.661,4.661,0,0,1,3.035-3.784l3.7-1.266a6.159,6.159,0,0,1-.642-8.934,6.073,6.073,0,0,1,8.9-.014,6.226,6.226,0,0,1-.634,8.983,36.047,36.047,0,0,1,3.832,1.292c2.5,1.1,3.775,4.324,2.122,4.628-1.8.33-1-2.05-3.334-2.806Zm.228-2.7a3.92,3.92,0,1,0-4.586-1.127,3.8,3.8,0,0,0,4.586,1.127" transform="translate(-58.717 -28.37)" fill="#174165"/>
          </g>
        </g>
      </g>
    </g>
    <g id="Group_1182198" data-name="Group 1182198" transform="translate(412.044 9354.88)">
      <g id="Group_1182195" data-name="Group 1182195" transform="translate(71.386 71.627)">
        <g id="Group_1182154" data-name="Group 1182154" clip-path="url(#clip-path-2)">
          <path id="Path_1002486" data-name="Path 1002486" d="M15.723,15.248c-2.87-1.337-1.955-5.954,1.332-3.421,1.944,1.154.952,4.191-1.332,3.421M15,21.807c-1.654.48-1.1,3.582.578,3.156,1.458-.371,1.227-3.68-.578-3.156M12.74,6.765c-.212-1.517-3.013-1.421-2.851.108.141,1.33,3.083,1.547,2.851-.108M8.883,14.272c-1.96-1.061-3.565,2.07-2.253,3.506,2.522,2.81,4.541-1.849,2.253-3.506M4.094,10.709A1.736,1.736,0,0,0,1.927,8a1.737,1.737,0,0,0,2.167,2.711m16.39-5.23h0a.652.652,0,0,0-.878.512c-.665,4.427,5.131,1.013.878-.512M5.97,23.675h0a.652.652,0,0,0-.878.512c-.665,4.427,5.13,1.013.878-.512m19.4-7.4A1.91,1.91,0,1,0,21.8,17.636c-.335-.136,3.877,3.139,3.569-1.361M2.591,18.982a1.325,1.325,0,1,0-2.477.944c-.232-.095,2.691,2.178,2.477-.944M5.815.432A.586.586,0,0,0,6.1.172ZM6.1.172,6.291,0A.881.881,0,0,0,6.1.172" transform="translate(0 -0.001)" fill="#f5b86e"/>
        </g>
      </g>
      <g id="Group_1182194" data-name="Group 1182194" transform="translate(0 0)">
        <g id="Group_1182160" data-name="Group 1182160" transform="translate(0 0)" clip-path="url(#clip-path-3)">
          <path id="Path_1002489" data-name="Path 1002489" d="M13.285,5.247H10.829V2.791a2.791,2.791,0,1,0-5.582,0V5.247H2.791a2.791,2.791,0,0,0,0,5.582H5.247v2.456a2.791,2.791,0,1,0,5.582,0V10.829h2.456a2.791,2.791,0,0,0,0-5.582" transform="translate(0 0)" fill="#6dceff"/>
        </g>
      </g>
    </g>
  </g>
</svg>
