<svg xmlns="http://www.w3.org/2000/svg" xmlns:xlink="http://www.w3.org/1999/xlink" width="80" height="80" viewBox="0 0 80 80">
  <defs>
    <clipPath id="clip-path">
      <rect id="Rectangle_465041" data-name="Rectangle 465041" width="47.58" height="49.511" fill="#fff"/>
    </clipPath>
  </defs>
  <g id="img34" transform="translate(-175.889 -5521)">
    <rect id="Rectangle_402006" data-name="Rectangle 402006" width="80" height="80" rx="5" transform="translate(175.889 5521)" fill="#854601"/>
    <g id="Group_1190438" data-name="Group 1190438" transform="translate(192.099 5536.245)">
      <g id="Group_1190437" data-name="Group 1190437" clip-path="url(#clip-path)">
        <path id="Path_1274286" data-name="Path 1274286" d="M46.282,190.116H1.943c-.742,0-1.588-.374-1.589-1.131l0-3.335c0-1.4,1.505-2.182,2.841-2.08.2.056.768.069.833-.131a8.568,8.568,0,0,1,5.042-5.463,5.1,5.1,0,1,1,6.748-7.609,5.071,5.071,0,0,1-.527,7.545c.69.417,1.384.756,2.117,1.281a8.6,8.6,0,0,1,3.589-2.706,5.152,5.152,0,0,1-.662-7.476,5.1,5.1,0,1,1,6.9,7.461,8.848,8.848,0,0,1,3.58,2.723,15.55,15.55,0,0,1,2.149-1.261,5.088,5.088,0,1,1,6.85-7.473,5.149,5.149,0,0,1-.662,7.521,8.541,8.541,0,0,1,5.051,5.456c.066.2.629.185.831.134,1.337-.119,2.841.681,2.84,2.079l0,3.334c0,.758-.846,1.132-1.589,1.132M23.634,168.948a3.5,3.5,0,1,0,1,6.918,3.5,3.5,0,0,0-1-6.918m-12.473,1.62a3.483,3.483,0,1,0,4.387,2.464,3.467,3.467,0,0,0-4.387-2.464m23.95-.013a3.446,3.446,0,0,0-2.405,4.329,3.5,3.5,0,0,0,6.754-1.808,3.45,3.45,0,0,0-4.349-2.521m-7.191,13a8.092,8.092,0,0,1,1.723-3.239,6.83,6.83,0,0,0-11.06,0,8.8,8.8,0,0,1,1.742,3.259Zm-9.272.016a6.877,6.877,0,0,0-12.958,0Zm23.883-.017A6.811,6.811,0,0,0,35.888,179a6.9,6.9,0,0,0-6.326,4.577Zm3.764,4.975.04-2.423a.893.893,0,0,0-1.012-.938H2.9a.883.883,0,0,0-1.006.94l.029,2.422Z" transform="translate(-0.295 -140.605)" fill="#fff"/>
        <path id="Path_1274287" data-name="Path 1274287" d="M9.35,27.9l-7.55.01A1.835,1.835,0,0,1,0,26.337L.044,13.579A5.421,5.421,0,0,1,2.792,9.21a4.7,4.7,0,1,1,5.5.013,6.072,6.072,0,0,1,2.431,2.786l2.423-1.228.032-6.167A4.5,4.5,0,0,1,17.446.064L42.819,0C45.2,0,47.564,1.644,47.567,4.165L47.58,18.05a4.5,4.5,0,0,1-4.645,4.241l-25.124,0A4.714,4.714,0,0,1,13.2,16.8a9.61,9.61,0,0,0-2.082,1.016l-.043,8.371A1.761,1.761,0,0,1,9.35,27.9m5.488-11.932a4.191,4.191,0,0,0-.061,1.85A3.079,3.079,0,0,0,17.957,20.7l25.081-.018a2.9,2.9,0,0,0,2.951-2.636l-.01-13.885a2.864,2.864,0,0,0-2.849-2.55l-25.37-.007a2.946,2.946,0,0,0-2.986,2.906l-.033,5.5a2.84,2.84,0,0,1,2.284.677l4.737-5.542a.811.811,0,0,1,1.188-.04.832.832,0,0,1-.046,1.177L17.86,12.159c.3,2.559-1.388,2.637-3.021,3.813M5.136,2.32A3.114,3.114,0,1,0,6,8.488a3.148,3.148,0,0,0,2.62-3.57,3.093,3.093,0,0,0-3.484-2.6M4.459,16.533a.836.836,0,0,1,1-.8c1.036.267.21,1.472,1.021,2.015a.985.985,0,0,0,1.006.107L15.908,13.5c.559-.29.454-1.06.227-1.422a1.054,1.054,0,0,0-1.48-.315l-5.026,2.6a6.137,6.137,0,0,0-.707-2.354A3.946,3.946,0,0,0,4.6,10.236a3.751,3.751,0,0,0-2.95,3.349L1.61,26.321H9.471l.037-7.6-1.466.633a2.585,2.585,0,0,1-2.62-.38,2.743,2.743,0,0,1-.964-2.444" transform="translate(0 -0.001)" fill="#fff"/>
        <path id="Path_1274288" data-name="Path 1274288" d="M167.4,52.642H152.545c-.436,0-.565-.6-.532-.85a.809.809,0,0,1,.834-.727h14.34a.843.843,0,0,1,.775.606c.092.258-.032.969-.563.969" transform="translate(-127.734 -42.911)" fill="#fff"/>
        <path id="Path_1274289" data-name="Path 1274289" d="M184.794,107.458l-11.057.008a.8.8,0,0,1-.829-.572c-.093-.319.041-1,.52-1l11.313-.042a.827.827,0,0,1,.886.77.811.811,0,0,1-.834.835" transform="translate(-145.274 -88.95)" fill="#fff"/>
        <path id="Path_1274290" data-name="Path 1274290" d="M155.148,80.1l-9.309.01a.828.828,0,0,1-.757-.806.774.774,0,0,1,.746-.785l9.261-.01a.792.792,0,0,1,.839.661.817.817,0,0,1-.781.929" transform="translate(-121.914 -65.974)" fill="#fff"/>
        <path id="Path_1274291" data-name="Path 1274291" d="M162.973,25.67l-7.227.016a.791.791,0,0,1-.829-.568c-.085-.329.041-1,.514-1l7.78.006c.4,0,.551.574.5.839a.826.826,0,0,1-.742.708" transform="translate(-130.157 -20.266)" fill="#fff"/>
        <path id="Path_1274292" data-name="Path 1274292" d="M227.089,25.473l-3.074.054a.883.883,0,0,1-.941-.6c-.1-.336.017-.958.484-.965l3.341-.053a.824.824,0,0,1,.866.648.75.75,0,0,1-.676.912" transform="translate(-187.424 -20.094)" fill="#fff"/>
        <path id="Path_1274293" data-name="Path 1274293" d="M227.688,80.077l-2.807.014a.8.8,0,1,1-.033-1.6l2.783,0a.8.8,0,0,1,.843.659.759.759,0,0,1-.786.922" transform="translate(-188.224 -65.959)" fill="#fff"/>
        <path id="Path_1274294" data-name="Path 1274294" d="M135.218,107.49l-3-.015a.79.79,0,0,1-.778-.844.8.8,0,0,1,.905-.74l3.044.016a.742.742,0,0,1,.69.878.792.792,0,0,1-.864.7" transform="translate(-110.452 -88.982)" fill="#fff"/>
      </g>
    </g>
  </g>
</svg>
