<svg xmlns="http://www.w3.org/2000/svg" xmlns:xlink="http://www.w3.org/1999/xlink" width="249.97" height="245.398" viewBox="0 0 249.97 245.398">
  <defs>
    <clipPath id="clip-path">
      <rect id="Rectangle_465045" data-name="Rectangle 465045" width="147.513" height="147.487" fill="#174165"/>
    </clipPath>
    <clipPath id="clip-path-2">
      <rect id="Rectangle_456707" data-name="Rectangle 456707" width="63.148" height="65.615" fill="#f5b86e"/>
    </clipPath>
    <clipPath id="clip-path-3">
      <rect id="Rectangle_456710" data-name="Rectangle 456710" width="39.995" height="39.996" fill="#6dceff"/>
    </clipPath>
  </defs>
  <g id="img43" transform="translate(-410.059 -9354.421)">
    <g id="Group_1179599" data-name="Group 1179599" transform="translate(414.63 9354.421)">
      <g id="Group_1179591" data-name="Group 1179591" transform="translate(0 0)">
        <circle id="Ellipse_13609" data-name="Ellipse 13609" cx="122.699" cy="122.699" r="122.699" transform="translate(0)" fill="#fff"/>
        <g id="Group_1190446" data-name="Group 1190446" transform="translate(52.942 47.956)">
          <g id="Group_1190445" data-name="Group 1190445" clip-path="url(#clip-path)">
            <path id="Path_1274309" data-name="Path 1274309" d="M113.92,118.96c-11.052-1.744-20.883,2.677-29.956-1.714a21.466,21.466,0,0,1-6.072,1.336,11.366,11.366,0,0,1-10.973,9.273,33.6,33.6,0,0,1-9.48,12.986,28.853,28.853,0,0,1-38.383-1.377,33.973,33.973,0,0,1-7.846-11.477C4.066,127.46-.613,122.309.085,115.708c.382-3.608,3.036-6.477,6.255-8.415A31.014,31.014,0,0,1,18.631,82.745,36.123,36.123,0,0,1,5.725,77.753c-10.469-6.979-4.052-18.444.326-29.185C1.83,46.228-.7,42.1.172,37.283A10.9,10.9,0,0,1,9.178,28.5,31.608,31.608,0,0,1,19.737,7.319,29.1,29.1,0,0,1,60.785,9.776a31.259,31.259,0,0,1,8.058,18.73A11.031,11.031,0,0,1,77.855,37.3,10.032,10.032,0,0,1,71.97,48.4l3.947,9.792C84.382,39.478,107.709,33.8,124.476,44.2a29.833,29.833,0,0,1,14.367,26.44,10.659,10.659,0,0,1,5.872,6.341,9.773,9.773,0,0,1-1.64,9.521,52.16,52.16,0,0,0,2.228,14.352,10.29,10.29,0,0,1-1.817,14.532c-4.117,3.536-9.722,4.084-14.828,1.818-4.743,2.281-9.66,2.492-14.738,1.757M57.506,26.547a12.394,12.394,0,0,1,6.846.736A26.605,26.605,0,0,0,54.408,9.695,24.66,24.66,0,0,0,22.343,10.8a26.877,26.877,0,0,0-8.637,16.4,10.024,10.024,0,0,1,5.661-.92,23.06,23.06,0,0,0,14.9-3.1c7.971-4.82,11.422,4.448,23.241,3.361m6.624,7.836c-.784-2.846-2.486-4.07-5.193-3.692-6.348.888-12.672-.957-18.117-4.212a3.465,3.465,0,0,0-3.652.082,27.817,27.817,0,0,1-17.14,4.081c-1.589-.185-2.854-.473-4.231.54a5.755,5.755,0,0,0-1.83,3.119A25.747,25.747,0,0,0,24.018,62.52,26.028,26.028,0,0,0,64.13,34.383M8.748,44.753A34.52,34.52,0,0,1,9.862,32.847a6.351,6.351,0,0,0-5.479,5.437,5.816,5.816,0,0,0,4.364,6.47m60.578.168c3.249-1.28,4.865-4.088,4.262-7.11a6.51,6.51,0,0,0-5.465-4.96,32.408,32.408,0,0,1,1.2,12.069m39.46,20.738c3.161-1.753,6.751-2.336,9.729-.163,4.647,3.392,9.99,5.392,16.027,4.843a24.8,24.8,0,0,0-6.121-17.156,29.779,29.779,0,0,0-44.047-.25,24.779,24.779,0,0,0-6.334,18.429,42.717,42.717,0,0,1,9.77-1.024c7.239-.293,14.409-1.035,20.976-4.678M68.843,74.579c1.448-1.045,2.155-3.1,4.069-3.538,2.542-5.641-2.146-13.774-4.872-20.6a30.508,30.508,0,0,1-58.046.041l-3.418,8.2a24.289,24.289,0,0,0-2.282,9.04c-.042,7.412,12.383,10.765,19.979,11.57a34.14,34.14,0,0,1,29.7.064c5.177-.991,10.466-1.6,14.871-4.775M123.277,99.44C130.111,93.06,133.01,84,132.22,74.78c-5.518-.4-10.589-1.634-14.875-4.954a5.234,5.234,0,0,0-6.411-.384c-10,5.488-19.727,4.686-30.63,5.782a29.716,29.716,0,0,0,9.106,24.338,24.462,24.462,0,0,0,33.87-.122M135.617,86.3a6.244,6.244,0,0,0,5.348-5.54A5.993,5.993,0,0,0,136.5,74.53c.126,4.148.257,7.825-.883,11.766M74.375,75.2a6.01,6.01,0,0,0-2.544,6.677,6.078,6.078,0,0,0,5.125,4.459c-1.764-5.59-.069-12.933-2.582-11.136M55.65,101.971c3.038,3.8,6.356,7.849,11.325,8.629a25.3,25.3,0,0,0-6.156-20.69,29.349,29.349,0,0,0-41.362-2.239,24.843,24.843,0,0,0-8.229,22.987,16.7,16.7,0,0,0,9.8-7.121c2.185-3.243,5.324-5.057,9.3-3.835,13.888,4.274,20.479-3.787,25.327,2.269M67.182,80.45c-2.919,1.177-4.924,1.555-7.6,2.426,4.207,3.015,6.63,6.681,9.084,10.885,2.4-7.512-1.031-8.412-1.485-13.311m64.7,33.282a9.117,9.117,0,0,0,9.5-2.24c2.517-2.584,1.952-5.621.425-8.431-2.2-4.055-2.18-8.632-2.986-13.147a12.739,12.739,0,0,1-4.525,1.116,45.706,45.706,0,0,1-5.777,9.292,29.192,29.192,0,0,1-40.981,3.416,31.765,31.765,0,0,1-9.051-12.607,29.317,29.317,0,0,1-4.956-1.168c-.094,4.544-1.223,8.286-2.1,12.376l.248,5.26a11.052,11.052,0,0,1,5.852,6.625c4.314-.076,4.855-2.354,10.321-.126,2.671,1.089,6.01.957,8.973.676a97.79,97.79,0,0,1,18.912,0c2.941.277,6.325.408,8.952-.674,2.488-1.024,4.4-1.508,7.194-.371m-66.845.966a21.933,21.933,0,0,1-11.775-8.916c-1.092-1.585-2.536-2.617-4.519-1.7a36.367,36.367,0,0,1-19.784-.264c-1.881-.579-3.05.368-4.029,1.792a22.361,22.361,0,0,1-12.017,9.111A30.031,30.031,0,0,0,20.1,134.264a24.521,24.521,0,0,0,35.542,2.409,29.044,29.044,0,0,0,9.4-21.974m-58.114-2.4a5.6,5.6,0,0,0-2.389,6.41,6.342,6.342,0,0,0,5.245,4.568c-1.773-4.918.148-8.4-2.856-10.977m61.618,10.753c1.9-.182,2.265-.938,3.081-1.655a5.54,5.54,0,0,0,1.98-4.85,5.433,5.433,0,0,0-2.593-4.156c-2.4,2.039-1.485,6.258-2.468,10.661" transform="translate(0 0)" fill="#174165"/>
            <path id="Path_1274310" data-name="Path 1274310" d="M73.327,92.626c4.121,4.286,6.785-1.939,9.2-.223a2.217,2.217,0,0,1,.485,3.1,8.356,8.356,0,0,1-12.88-.12,2.119,2.119,0,0,1,.347-2.953,2.307,2.307,0,0,1,2.849.194" transform="translate(-37.548 -49.59)" fill="#174165"/>
            <path id="Path_1274311" data-name="Path 1274311" d="M45.064,91.086c-.049,1.194-1.67,1.544-2.346,1.37A2.336,2.336,0,0,1,40.9,89.94l.122-3.644c.042-1.24,1.454-1.627,2.412-1.467a2.116,2.116,0,0,1,1.8,2.314Z" transform="translate(-22.036 -45.691)" fill="#174165"/>
            <path id="Path_1274312" data-name="Path 1274312" d="M123.034,91.081c-.162,1.2-1.636,1.537-2.308,1.361a2.365,2.365,0,0,1-1.8-2.518l.119-3.633c.036-1.093,1.145-1.506,1.981-1.521,2.3-.043,2.514,2.571,2.007,6.31" transform="translate(-64.082 -45.678)" fill="#174165"/>
            <path id="Path_1274313" data-name="Path 1274313" d="M72.53,257.37c4.358,4.211,6.868-2.266,9.512-.089a2.222,2.222,0,0,1,.042,3.1,8.426,8.426,0,0,1-12.964-.5,2.175,2.175,0,0,1,.431-2.607,2.343,2.343,0,0,1,2.978.087" transform="translate(-37.095 -138.37)" fill="#174165"/>
            <path id="Path_1274314" data-name="Path 1274314" d="M122.3,251.135c.287,3.382.321,5.732-1.838,5.889a1.9,1.9,0,0,1-2.211-1.272c-.725-2.977-.364-6.313,1.824-6.439a2.093,2.093,0,0,1,2.225,1.821" transform="translate(-63.537 -134.34)" fill="#174165"/>
            <path id="Path_1274315" data-name="Path 1274315" d="M44.3,251.133c.311,3.277.272,5.552-1.858,5.845a1.815,1.815,0,0,1-2.19-1.225c-.719-2.979-.353-6.316,1.829-6.454a2.084,2.084,0,0,1,2.219,1.835" transform="translate(-21.507 -134.331)" fill="#174165"/>
            <path id="Path_1274316" data-name="Path 1274316" d="M219.4,177.429c3.912,4.2,7.131-2.57,9.413.02a2.215,2.215,0,0,1-.35,3.249,8.286,8.286,0,0,1-11.889-.005,2.331,2.331,0,0,1-.341-3.231,2.218,2.218,0,0,1,3.166-.033" transform="translate(-116.245 -95.258)" fill="#174165"/>
            <path id="Path_1274317" data-name="Path 1274317" d="M268.879,175.3a1.821,1.821,0,0,1-2.038,1.714,1.937,1.937,0,0,1-2.021-1.522c-.592-3.386-.085-6.269,2.019-6.218a2.179,2.179,0,0,1,2.092,2.125Z" transform="translate(-142.572 -91.214)" fill="#174165"/>
            <path id="Path_1274318" data-name="Path 1274318" d="M190.958,175.325a1.833,1.833,0,0,1-2.035,1.716,1.856,1.856,0,0,1-1.994-1.524c-.466-3.427-.108-6.322,1.937-6.2A2.177,2.177,0,0,1,191,171.42Z" transform="translate(-100.628 -91.232)" fill="#174165"/>
          </g>
        </g>
      </g>
    </g>
    <g id="Group_1182198" data-name="Group 1182198" transform="translate(410.059 9354.421)">
      <g id="Group_1182195" data-name="Group 1182195" transform="translate(181.289 176.933)">
        <g id="Group_1182154" data-name="Group 1182154" clip-path="url(#clip-path-2)">
          <path id="Path_1002486" data-name="Path 1002486" d="M39.117,37.935c-7.14-3.325-4.864-14.812,3.314-8.512,4.837,2.87,2.368,10.427-3.314,8.512m-1.8,16.317c-4.115,1.195-2.73,8.913,1.437,7.851,3.627-.924,3.052-9.155-1.437-7.851M31.7,16.829c-.529-3.774-7.5-3.535-7.092.268.352,3.309,7.669,3.849,7.092-.268M22.1,35.506c-4.877-2.641-8.87,5.149-5.6,8.724,6.276,6.991,11.3-4.6,5.6-8.724M10.185,26.642c4.382-3.5-1.016-10.249-5.391-6.745C.562,23.41,5.827,30,10.185,26.642M50.962,13.631h0a1.622,1.622,0,0,0-2.183,1.275c-1.654,11.015,12.765,2.521,2.183-1.275M14.853,58.9h0a1.623,1.623,0,0,0-2.183,1.275C11.016,71.19,25.434,62.7,14.853,58.9M63.108,40.491C61,34.466,51.79,37.976,54.229,43.876c-.833-.339,9.647,7.809,8.879-3.385M6.445,47.225C4.982,43.044-1.409,45.48.283,49.575c-.578-.236,6.695,5.419,6.162-2.349M14.466,1.074a1.459,1.459,0,0,0,.715-.648Zm.715-.648L15.65,0a2.191,2.191,0,0,0-.469.424" transform="translate(0 -0.001)" fill="#f5b86e"/>
        </g>
      </g>
      <g id="Group_1182194" data-name="Group 1182194" transform="translate(0 0)">
        <g id="Group_1182160" data-name="Group 1182160" transform="translate(0 0)" clip-path="url(#clip-path-3)">
          <path id="Path_1002489" data-name="Path 1002489" d="M33.051,13.054h-6.11V6.944a6.943,6.943,0,1,0-13.887,0v6.11H6.944a6.944,6.944,0,0,0,0,13.887h6.11v6.11a6.943,6.943,0,1,0,13.887,0v-6.11h6.11a6.944,6.944,0,0,0,0-13.887" transform="translate(0 0)" fill="#6dceff"/>
        </g>
      </g>
    </g>
  </g>
</svg>
