<svg xmlns="http://www.w3.org/2000/svg" xmlns:xlink="http://www.w3.org/1999/xlink" width="84" height="84" viewBox="0 0 84 84">
  <defs>
    <clipPath id="clip-path">
      <rect id="Rectangle_465007" data-name="Rectangle 465007" width="60.307" height="54.863" fill="#12263f"/>
    </clipPath>
  </defs>
  <g id="img7" transform="translate(-706 -1685.277)">
    <g id="Group_1177731" data-name="Group 1177731">
      <g id="Group_1119665" data-name="Group 1119665" transform="translate(530.111 -3835.723)">
        <path id="Path_991847" data-name="Path 991847" d="M5,0H79a5,5,0,0,1,5,5V79a5,5,0,0,1-5,5H5a5,5,0,0,1-5-5V5A5,5,0,0,1,5,0Z" transform="translate(175.889 5521)" fill="#aae5ff"/>
      </g>
      <g id="Group_1190370" data-name="Group 1190370" transform="translate(717.846 1699.846)">
        <g id="Group_1190369" data-name="Group 1190369" clip-path="url(#clip-path)">
          <path id="Path_1274069" data-name="Path 1274069" d="M36.426,101.149l.057,14.777a3.991,3.991,0,0,1-1.991,3.82A3.913,3.913,0,0,1,30,119.058a4.1,4.1,0,0,1-3.746.992,4.1,4.1,0,0,1-2.6-2.523,3.278,3.278,0,0,1-3.114,2.643,3.171,3.171,0,0,1-3.228-2.57L16.2,112.1,15.024,117.8a3.149,3.149,0,0,1-3.819,2.29,3.215,3.215,0,0,1-2.42-3.766l1.813-10.58.064-5.247A20.449,20.449,0,0,1,2.2,101.7a2.55,2.55,0,0,1-2.2-2.5,2.476,2.476,0,0,1,2.33-2.6c4.033-.179,6.384-.131,10.078-3.024a5.376,5.376,0,1,1,8.986-2.4,6.524,6.524,0,0,0,4.763.3,5.439,5.439,0,0,1-.8-6.026,5.141,5.141,0,0,1,9.38.171,5.468,5.468,0,0,1-.867,5.857,7.239,7.239,0,0,0,5.019-.33,5.386,5.386,0,1,1,9.054,2.407,12.8,12.8,0,0,0,9.119,2.977c1.7-.082,3.132.735,3.244,2.475a2.649,2.649,0,0,1-2.822,2.781,21.275,21.275,0,0,1-7.775-1.3l.053,5.488,1.8,10.6a3.231,3.231,0,0,1-2.523,3.539,3.169,3.169,0,0,1-3.82-2.533l-1.14-5.634-1.109,5.718a3.177,3.177,0,0,1-3.7,2.471,3.25,3.25,0,0,1-2.592-3.813l1.82-10.572.089-5.244Zm-7.26-9.885a3.412,3.412,0,0,0,4.227-3.305,3.449,3.449,0,0,0-3.788-3.63,3.486,3.486,0,0,0-2.982,3.228,3.437,3.437,0,0,0,2.543,3.708M15.45,86.29A3.516,3.516,0,0,0,12.8,90.8a3.554,3.554,0,0,0,6.865-1.829,3.524,3.524,0,0,0-4.22-2.679m27.865,0a3.551,3.551,0,0,0-2.62,4.477A3.5,3.5,0,0,0,44.971,93.2a3.541,3.541,0,0,0,2.6-4.262,3.581,3.581,0,0,0-4.252-2.656m-8.69,29.962-.015-19.84a.836.836,0,0,1,.618-.84A22.38,22.38,0,0,0,40.6,93.837a5.077,5.077,0,0,0-1.024-1.013,9.309,9.309,0,0,1-3.948.8l-3.952-.546a22.132,22.132,0,0,1-3.351,0l-3.946.546A8.5,8.5,0,0,1,20.7,92.9L19.7,93.978a20.8,20.8,0,0,0,4.777,1.5.96.96,0,0,1,.908.953v19.914a1.846,1.846,0,1,0,3.676.346l.041-9.079a.9.9,0,0,1,.83-.95.8.8,0,0,1,.915.746l.078,9.271a1.841,1.841,0,0,0,2.043,1.68,1.9,1.9,0,0,0,1.656-2.115m-17.516-9.54,2,10.536a1.5,1.5,0,0,0,1.591,1.12,1.438,1.438,0,0,0,1.148-1.626l-1.772-10.582-.109-7.07a.941.941,0,0,1,.3-.7.983.983,0,0,1,.784-.144l2.465.9.011-1.528c-.845-.272-1.569-.744-2.4-1.09L17.475,95a5.794,5.794,0,0,1-3.453-.3,24.177,24.177,0,0,1-4.91,2.821c-3.9,1.422-7.351.064-7.275,1.667.032.676.5.738,1.112.746a17.522,17.522,0,0,0,9.774-2.522A.97.97,0,0,1,14,97.527c.23.286.377.943.009,1.187l-1.51,1-.1,6.155-1.813,10.674a1.468,1.468,0,0,0,1.239,1.818,1.45,1.45,0,0,0,1.522-1.222L15.358,106.5a.819.819,0,0,1,1.006-.59.9.9,0,0,1,.745.795m27.928.169L47,117.234a1.4,1.4,0,0,0,2.766-.484l-1.848-10.793-.126-6.311a4.909,4.909,0,0,1-1.6-1.127.8.8,0,0,1,.206-1.044.941.941,0,0,1,1.137-.09,17.551,17.551,0,0,0,9.951,2.546c.566-.014.972-.218,1.032-.753.056-.49-.331-.815-.907-.837l-3.054-.117c-3.23-.123-5.72-1.771-8.361-3.573-1.013.716-2.178.317-3.292.492-1.693.265-4.263,1.762-6.153,2.484a5.507,5.507,0,0,0,.031,1.521L39,98.289a1.313,1.313,0,0,1,.962.063.969.969,0,0,1,.422.774l-.08,6.6-1.846,11.03a1.42,1.42,0,0,0,1.244,1.606,1.46,1.46,0,0,0,1.532-1.2l2.062-10.8c.089-.466.794-.534,1.117-.4a1.074,1.074,0,0,1,.623.922m-21.555,8,.086-13.836a17.508,17.508,0,0,1-1.813-.551l-.071,4.863Z" transform="translate(0 -65.327)" fill="#12263f"/>
          <path id="Path_1274070" data-name="Path 1274070" d="M43.025,14.012a3.757,3.757,0,0,1-4.489.09A24.6,24.6,0,0,1,34.17,9.165a25.818,25.818,0,0,0-18.83,20.2.9.9,0,0,1-.936.79.928.928,0,0,1-.863-.971,27.578,27.578,0,0,1,19.7-21.658,5.917,5.917,0,0,1-.7-4.619A4.5,4.5,0,0,1,36.1.077c1.875-.387,3.432.747,4.632,1.9C41.862.879,43.346-.253,45.169.051a4.515,4.515,0,0,1,3.725,2.858,6.063,6.063,0,0,1-.673,4.613A27.656,27.656,0,0,1,67.879,29.042a1,1,0,0,1-.558,1.039c-.268.136-1.058.09-1.14-.367A25.908,25.908,0,0,0,47.311,9.162a28.582,28.582,0,0,1-4.285,4.85M46.774,2.845a2.864,2.864,0,0,0-4.12-.209c-.534.572-.964,1.459-1.773,1.771-1.126.434-1.606-2.661-4.23-2.538a2.522,2.522,0,0,0-2.387,1.774c-.738,2.524,2.975,6.821,5.191,8.925a2.219,2.219,0,0,0,2.513.016,11.143,11.143,0,0,0,1.646-1.737c2-2.2,4.826-5.961,3.161-8" transform="translate(-10.715 0)" fill="#12263f"/>
        </g>
      </g>
    </g>
  </g>
</svg>
